<svg width="70" height="70" viewBox="0 0 70 70" fill="none" xmlns="http://www.w3.org/2000/svg">
<g clip-path="url(#clip0_6_324)">
<path d="M35 0C15.7283 0 0 15.7294 0 35C0 54.2717 15.7294 70 35 70C54.2717 70 70 54.2706 70 35C70 15.7283 54.2706 0 35 0ZM24.5599 5.91855C22.1586 8.97162 20.4135 12.7463 19.206 16.4062H10.3388C13.9295 11.6558 18.8583 7.97166 24.5599 5.91855ZM7.71805 20.4941H18.0455C17.1177 24.382 16.57 28.6025 16.4385 32.9492H4.17129C4.46578 28.4776 5.71525 24.2494 7.71805 20.4941ZM7.71805 49.4922C5.71525 45.7369 4.46578 41.5224 4.17129 37.0508H16.4385C16.57 41.3975 17.1177 45.6043 18.0455 49.4922H7.71805ZM10.3388 53.5938H19.2058C20.4131 57.2528 22.1581 61.028 24.5599 64.0814C18.8583 62.0283 13.9295 58.3442 10.3388 53.5938ZM32.9492 65.5504C28.3704 64.0112 25.2134 58.1328 23.546 53.5938H32.9492V65.5504ZM32.9492 49.4922H22.2694C21.2728 45.6593 20.6821 41.4416 20.5417 37.0508H32.9492V49.4922ZM32.9492 32.9492H20.5417C20.6823 28.5584 21.2729 24.3407 22.2694 20.5078H32.9492V32.9492ZM32.9492 16.4062H23.546C25.2133 11.8673 28.3704 5.98883 32.9492 4.44965V16.4062ZM62.282 20.5078C64.2849 24.2631 65.5342 28.4776 65.8287 32.9492H53.5615C53.43 28.6025 52.8823 24.3957 51.9545 20.5078H62.282ZM59.6612 16.4062H50.7942C49.5869 12.7472 47.8419 8.97203 45.4401 5.91855C51.1417 7.97166 56.0705 11.6558 59.6612 16.4062ZM37.0508 4.44965C41.6296 5.98883 44.7866 11.8672 46.454 16.4062H37.0508V4.44965ZM37.0508 20.5078H47.7306C48.7272 24.3407 49.3179 28.5584 49.4583 32.9492H37.0508V20.5078ZM37.0508 37.0371H49.4583C49.3177 41.428 48.7271 45.6593 47.7306 49.4922H37.0508V37.0371ZM37.0508 65.5504V53.5801H46.454C44.7867 58.119 41.6296 64.0112 37.0508 65.5504ZM45.4401 64.0814C47.8414 61.0284 49.5865 57.2399 50.7942 53.5801H59.6612C56.0705 58.3305 51.1417 62.0283 45.4401 64.0814ZM62.282 49.4922H51.9545C52.8823 45.6043 53.43 41.3838 53.5615 37.0371H65.8287C65.5342 41.5088 64.2847 45.7369 62.282 49.4922Z" fill="#10417F"/>
</g>
<defs>
<clipPath id="clip0_6_324">
<rect width="70" height="70" fill="white"/>
</clipPath>
</defs>
</svg>
