<svg width="90" height="70" viewBox="0 0 90 70" fill="none" xmlns="http://www.w3.org/2000/svg">
<path d="M89.336 39.4321C89.0206 36.3801 87.7804 33.4973 85.7814 31.1696C83.7824 28.842 81.1201 27.1805 78.1507 26.4077C78.8252 22.836 78.1523 19.1411 76.262 16.0364C74.3717 12.9318 71.3981 10.6376 67.9154 9.59705C64.5295 8.59398 60.8964 8.83627 57.6738 10.2801C56.4825 8.55611 55.0689 6.99683 53.4698 5.6426C43.4173 -2.86534 28.3172 -1.60878 19.8091 8.44388C17.7681 10.8551 16.2259 13.6475 15.2721 16.6592C14.3183 19.6709 13.9718 22.842 14.2527 25.9886C10.3826 26.2586 6.91589 27.7441 4.36609 30.2532C1.55031 33.0229 0 36.8329 0 40.9824C0.00640075 44.4398 1.1964 47.7908 3.37202 50.4778C5.28017 52.8233 8.09857 55.5575 12.9958 55.8851C13.0593 55.8895 13.0806 55.8909 17.1402 55.8923C17.4325 55.8957 17.7183 55.8064 17.9567 55.6374C18.1952 55.4684 18.374 55.2282 18.4675 54.9513C18.5395 54.7401 18.5602 54.5148 18.5278 54.294C18.4954 54.0733 18.4109 53.8634 18.2813 53.6818C18.1516 53.5002 17.9806 53.3521 17.7823 53.2497C17.584 53.1474 17.3642 53.0937 17.1411 53.0933C15.6675 53.0933 13.4573 53.0917 13.1461 53.0899C9.37033 52.8243 7.18466 50.7288 5.54511 48.7134C3.77394 46.5255 2.8051 43.7973 2.79971 40.9824C2.79971 37.5901 4.05313 34.489 6.32908 32.2502C8.7217 29.8969 11.997 28.6835 15.8066 28.7478L15.9764 28.7506C16.1596 28.7534 16.3412 28.7163 16.5085 28.6416C16.6758 28.567 16.8248 28.4566 16.9451 28.3184C17.0653 28.1801 17.1538 28.0173 17.2045 27.8412C17.2552 27.6651 17.2668 27.4801 17.2385 27.2991L17.2122 27.1313C16.4561 22.3183 17.3908 17.3921 19.8571 13.1906C22.3235 8.98903 26.1693 5.77166 30.7402 4.08576C35.3112 2.39985 40.325 2.34954 44.9289 3.94338C49.5328 5.53721 53.4423 8.67675 55.9925 12.828L56.0646 12.9453C56.235 13.2221 56.5059 13.4221 56.8205 13.5035C57.1351 13.5849 57.469 13.5413 57.7522 13.3819L57.8722 13.3143C59.2655 12.5334 60.8012 12.0397 62.3886 11.8622C63.9759 11.6848 65.5827 11.8272 67.1141 12.2811C68.6158 12.7252 70.0142 13.4633 71.2281 14.4525C72.4421 15.4417 73.4473 16.6623 74.1855 18.0433C75.681 20.8702 75.9964 24.1743 75.0629 27.2331L75.0606 27.2408C75.0093 27.4128 74.9954 27.5938 75.0199 27.7716C75.0444 27.9494 75.1067 28.1199 75.2025 28.2716C75.2984 28.4234 75.4256 28.5529 75.5757 28.6513C75.7257 28.7498 75.8951 28.815 76.0725 28.8426C78.2165 29.1605 80.2418 30.0273 81.952 31.3589C83.2272 32.3653 84.2896 33.6151 85.0775 35.0357C85.8654 36.4562 86.3631 38.0193 86.5418 39.6339C86.7204 41.2485 86.5763 42.8825 86.1179 44.4409C85.6596 45.9994 84.896 47.4512 83.8717 48.712C81.7889 51.2721 79.7038 52.9965 76.3016 53.0896C76.0674 53.0896 72.9783 53.0926 71.7831 53.0933C71.5599 53.0938 71.34 53.1475 71.1417 53.2499C70.9434 53.3523 70.7724 53.5005 70.6428 53.6822C70.5132 53.864 70.4287 54.0739 70.3965 54.2948C70.3642 54.5156 70.385 54.741 70.4572 54.9522C70.5507 55.229 70.7295 55.4692 70.968 55.6382C71.2064 55.8073 71.4922 55.8965 71.7845 55.8931C76.3077 55.89 76.3358 55.8893 76.3601 55.8888C81.1155 55.7639 83.9232 53.0838 86.0429 50.4781C87.295 48.9462 88.2308 47.1811 88.796 45.285C89.3613 43.389 89.5448 41.3996 89.336 39.4321Z" fill="#10417F"/>
<path d="M65.9614 24.7374H23.4547C23.1627 24.7374 22.8735 24.7949 22.6037 24.9067C22.3339 25.0185 22.0888 25.1823 21.8823 25.3887C21.6758 25.5952 21.512 25.8404 21.4002 26.1102C21.2885 26.38 21.231 26.6691 21.231 26.9612V35.9714C21.231 36.2634 21.2885 36.5526 21.4002 36.8224C21.512 37.0922 21.6758 37.3373 21.8823 37.5438C22.0888 37.7503 22.3339 37.9141 22.6037 38.0258C22.8735 38.1376 23.1627 38.1951 23.4547 38.1951H65.9615C66.2536 38.1951 66.5427 38.1376 66.8125 38.0258C67.0823 37.9141 67.3275 37.7503 67.534 37.5438C67.7405 37.3373 67.9043 37.0922 68.016 36.8224C68.1278 36.5526 68.1853 36.2634 68.1853 35.9714V26.9613C68.1853 26.3715 67.951 25.8059 67.5339 25.3888C67.1169 24.9717 66.5512 24.7374 65.9614 24.7374ZM65.385 35.3954H24.031V27.5364H65.3866L65.385 35.3954Z" fill="#10417F"/>
<path d="M28.4404 32.8661H45.9291C46.2903 32.8707 46.6399 32.7386 46.9079 32.4963C47.1758 32.254 47.3423 31.9193 47.3739 31.5594C47.3866 31.3681 47.36 31.1763 47.2955 30.9957C47.2311 30.8152 47.1302 30.6498 46.9992 30.5098C46.8682 30.3698 46.7099 30.2582 46.534 30.182C46.3581 30.1057 46.1684 30.0664 45.9767 30.0664H28.4885C28.1272 30.0618 27.7776 30.1939 27.5096 30.4362C27.2417 30.6786 27.0752 31.0132 27.0436 31.3731C27.0309 31.5643 27.0575 31.7562 27.122 31.9367C27.1864 32.1172 27.2872 32.2826 27.4182 32.4226C27.5491 32.5626 27.7074 32.6741 27.8833 32.7504C28.0591 32.8267 28.2487 32.8661 28.4404 32.8661Z" fill="#10417F"/>
<path d="M52.8145 32.8661H53.5695C53.9307 32.8707 54.2803 32.7386 54.5483 32.4963C54.8162 32.254 54.9827 31.9193 55.0143 31.5594C55.027 31.3681 55.0004 31.1763 54.9359 30.9957C54.8715 30.8152 54.7706 30.6498 54.6396 30.5098C54.5086 30.3698 54.3503 30.2582 54.1744 30.182C53.9985 30.1057 53.8089 30.0664 53.6171 30.0664H52.862C52.5007 30.0618 52.1511 30.1939 51.8832 30.4362C51.6152 30.6786 51.4488 31.0132 51.4172 31.3731C51.4044 31.5644 51.4311 31.7563 51.4956 31.9368C51.56 32.1174 51.6609 32.2828 51.7919 32.4228C51.9229 32.5628 52.0813 32.6743 52.2572 32.7506C52.4331 32.8269 52.6228 32.8662 52.8145 32.8661Z" fill="#10417F"/>
<path d="M58.0589 32.8661H58.8143C59.1755 32.8707 59.5251 32.7385 59.793 32.4962C60.0609 32.2539 60.2273 31.9193 60.2589 31.5594C60.2717 31.3681 60.245 31.1763 60.1806 30.9957C60.1162 30.8151 60.0153 30.6497 59.8843 30.5097C59.7533 30.3698 59.595 30.2582 59.4191 30.1819C59.2432 30.1057 59.0535 30.0663 58.8618 30.0664H58.1066C57.7454 30.0618 57.3957 30.1939 57.1278 30.4362C56.8599 30.6786 56.6934 31.0132 56.6618 31.3731C56.649 31.5644 56.6757 31.7562 56.7402 31.9368C56.8046 32.1173 56.9055 32.2827 57.0365 32.4227C57.1674 32.5627 57.3258 32.6743 57.5017 32.7505C57.6776 32.8268 57.8672 32.8662 58.0589 32.8661Z" fill="#10417F"/>
<path d="M65.9614 40.6401H23.4547C23.1627 40.6401 22.8735 40.6977 22.6037 40.8094C22.3339 40.9212 22.0888 41.085 21.8823 41.2915C21.6758 41.4979 21.512 41.7431 21.4002 42.0129C21.2885 42.2827 21.231 42.5718 21.231 42.8639V51.8741C21.231 52.1661 21.2885 52.4553 21.4002 52.7251C21.512 52.9949 21.6758 53.24 21.8823 53.4465C22.0888 53.653 22.3339 53.8168 22.6037 53.9285C22.8735 54.0403 23.1627 54.0978 23.4547 54.0978H65.9615C66.2536 54.0978 66.5427 54.0403 66.8125 53.9285C67.0823 53.8168 67.3275 53.653 67.534 53.4465C67.7405 53.24 67.9043 52.9949 68.016 52.7251C68.1278 52.4553 68.1853 52.1661 68.1853 51.8741V42.8639C68.1852 42.2741 67.9509 41.7085 67.5338 41.2914C67.1168 40.8744 66.5512 40.6401 65.9614 40.6401ZM65.385 51.2981H24.031V43.4392H65.3866L65.385 51.2981Z" fill="#10417F"/>
<path d="M28.4404 48.7683H45.929C46.2903 48.7729 46.6399 48.6408 46.9079 48.3985C47.1758 48.1562 47.3423 47.8215 47.3739 47.4617C47.3866 47.2704 47.3599 47.0785 47.2954 46.898C47.231 46.7174 47.1301 46.552 46.9992 46.4121C46.8682 46.2721 46.7098 46.1605 46.534 46.0842C46.3581 46.008 46.1684 45.9686 45.9767 45.9686H28.4884C28.1272 45.964 27.7775 46.0962 27.5096 46.3385C27.2416 46.5809 27.0752 46.9156 27.0436 47.2755C27.0309 47.4667 27.0576 47.6585 27.122 47.839C27.1865 48.0196 27.2873 48.1849 27.4182 48.3249C27.5492 48.4648 27.7075 48.5764 27.8833 48.6527C28.0591 48.729 28.2487 48.7683 28.4404 48.7683Z" fill="#10417F"/>
<path d="M52.8145 48.7683H53.5695C53.9307 48.7729 54.2803 48.6408 54.5483 48.3985C54.8162 48.1562 54.9827 47.8215 55.0143 47.4617C55.027 47.2704 55.0003 47.0785 54.9359 46.898C54.8714 46.7174 54.7706 46.552 54.6396 46.4121C54.5086 46.2721 54.3502 46.1605 54.1744 46.0842C53.9985 46.008 53.8088 45.9686 53.6171 45.9686H52.862C52.5007 45.964 52.1511 46.0962 51.8831 46.3385C51.6152 46.5809 51.4487 46.9156 51.4171 47.2755C51.4044 47.4668 51.4311 47.6586 51.4956 47.8392C51.5601 48.0197 51.6609 48.1851 51.7919 48.3251C51.9229 48.465 52.0813 48.5766 52.2572 48.6528C52.4331 48.7291 52.6228 48.7684 52.8145 48.7683Z" fill="#10417F"/>
<path d="M58.0589 48.7683H58.8143C59.1755 48.7729 59.5251 48.6408 59.793 48.3984C60.0609 48.1561 60.2273 47.8215 60.2589 47.4617C60.2717 47.2704 60.245 47.0785 60.1805 46.8979C60.1161 46.7174 60.0152 46.552 59.8843 46.412C59.7533 46.272 59.5949 46.1605 59.419 46.0842C59.2431 46.0079 59.0535 45.9686 58.8618 45.9686H58.1066C57.7453 45.964 57.3957 46.0962 57.1277 46.3385C56.8598 46.5809 56.6933 46.9156 56.6618 47.2755C56.6491 47.4668 56.6758 47.6586 56.7402 47.8391C56.8047 48.0197 56.9055 48.185 57.0365 48.325C57.1675 48.465 57.3258 48.5765 57.5017 48.6528C57.6776 48.729 57.8672 48.7684 58.0589 48.7683Z" fill="#10417F"/>
<path d="M65.9615 56.5424H23.4547C22.8651 56.543 22.2999 56.7775 21.883 57.1944C21.4661 57.6113 21.2316 58.1765 21.231 58.7661V67.7763C21.2316 68.3659 21.4661 68.9311 21.883 69.348C22.2999 69.7649 22.8651 69.9994 23.4547 70H65.9615C66.5511 69.9994 67.1164 69.7649 67.5332 69.348C67.9501 68.9311 68.1846 68.3659 68.1853 67.7763V58.7661C68.1846 58.1765 67.9501 57.6113 67.5332 57.1944C67.1164 56.7775 66.5511 56.543 65.9615 56.5424ZM65.3852 67.2003H24.031V59.3414H65.3866L65.3852 67.2003Z" fill="#10417F"/>
<path d="M28.4405 64.671H45.9769C46.1621 64.6731 46.3458 64.6384 46.5175 64.569C46.6891 64.4996 46.8453 64.3968 46.9769 64.2666C47.1086 64.1364 47.2131 63.9814 47.2845 63.8105C47.3558 63.6396 47.3925 63.4563 47.3925 63.2712C47.3925 63.086 47.3558 62.9027 47.2845 62.7318C47.2131 62.5609 47.1086 62.4059 46.9769 62.2757C46.8453 62.1455 46.6891 62.0428 46.5175 61.9733C46.3458 61.9039 46.1621 61.8692 45.9769 61.8713H28.4405C28.0719 61.8754 27.7198 62.0247 27.4607 62.2868C27.2015 62.5489 27.0562 62.9026 27.0562 63.2712C27.0562 63.6397 27.2015 63.9934 27.4607 64.2555C27.7198 64.5176 28.0719 64.6669 28.4405 64.671Z" fill="#10417F"/>
<path d="M52.8145 64.671H53.6179C53.9864 64.6669 54.3385 64.5176 54.5977 64.2555C54.8568 63.9934 55.0022 63.6397 55.0022 63.2712C55.0022 62.9026 54.8568 62.5489 54.5977 62.2868C54.3385 62.0247 53.9864 61.8754 53.6179 61.8713H52.8145C52.6294 61.8692 52.4456 61.9039 52.274 61.9733C52.1023 62.0428 51.9462 62.1455 51.8145 62.2757C51.6828 62.4059 51.5783 62.5609 51.507 62.7318C51.4357 62.9027 51.3989 63.086 51.3989 63.2712C51.3989 63.4563 51.4357 63.6396 51.507 63.8105C51.5783 63.9814 51.6828 64.1364 51.8145 64.2666C51.9462 64.3968 52.1023 64.4996 52.274 64.569C52.4456 64.6384 52.6294 64.6731 52.8145 64.671Z" fill="#10417F"/>
<path d="M58.0591 64.671H58.8625C59.0476 64.6731 59.2313 64.6384 59.403 64.569C59.5746 64.4996 59.7308 64.3968 59.8625 64.2666C59.9941 64.1364 60.0986 63.9814 60.17 63.8105C60.2413 63.6396 60.278 63.4563 60.278 63.2712C60.278 63.086 60.2413 62.9027 60.17 62.7318C60.0986 62.5609 59.9941 62.4059 59.8625 62.2757C59.7308 62.1455 59.5746 62.0428 59.403 61.9733C59.2313 61.9039 59.0476 61.8692 58.8625 61.8713H58.0591C57.6906 61.8754 57.3385 62.0247 57.0793 62.2868C56.8202 62.5489 56.6748 62.9026 56.6748 63.2712C56.6748 63.6397 56.8202 63.9934 57.0793 64.2555C57.3385 64.5176 57.6906 64.6669 58.0591 64.671Z" fill="#10417F"/>
</svg>
