<svg width="84" height="74" viewBox="0 0 84 74" fill="none" xmlns="http://www.w3.org/2000/svg">
<path d="M66.7242 18.0527C64.5621 12.158 60.4503 7.17936 55.0705 3.9421C49.6907 0.704832 43.3661 -0.596564 37.1453 0.253674C30.9244 1.10391 25.181 4.05471 20.8672 8.61685C16.5534 13.179 13.9284 19.0784 13.4273 25.3371C9.57305 25.7247 6.02062 27.5962 3.52123 30.5557C1.02184 33.5152 -0.228553 37.3308 0.0344562 41.1955C0.297466 45.0603 2.05326 48.6713 4.93055 51.2649C7.80785 53.8585 11.5811 55.2315 15.4523 55.0933H21.3867V66.6808C21.3867 68.5456 22.1275 70.3341 23.4461 71.6527C24.7647 72.9713 26.5531 73.7121 28.4179 73.7121H55.6289C57.4937 73.7121 59.2821 72.9713 60.6007 71.6527C61.9193 70.3341 62.6601 68.5456 62.6601 66.6808V55.0933H64.9804C69.7243 55.063 74.2763 53.216 77.7002 49.9324C81.1242 46.6488 83.1598 42.1781 83.3885 37.4396C83.6172 32.7011 82.0217 28.0551 78.9299 24.4569C75.8382 20.8588 71.4853 18.5821 66.7664 18.0949L66.7242 18.0527ZM55.6289 69.409H28.3758C27.6298 69.409 26.9145 69.1126 26.387 68.5852C25.8596 68.0578 25.5633 67.3424 25.5633 66.5965V42.4371C25.5633 41.6912 25.8596 40.9758 26.387 40.4483C26.9145 39.9209 27.6298 39.6246 28.3758 39.6246H55.6289C56.3748 39.6246 57.0902 39.9209 57.6176 40.4483C58.1451 40.9758 58.4414 41.6912 58.4414 42.4371V66.6386C58.4303 67.3772 58.1291 68.0818 57.6029 68.6002C57.0766 69.1185 56.3675 69.409 55.6289 69.409ZM51.4945 35.4058H32.5101V32.8886C32.5101 30.3712 33.5102 27.9568 35.2903 26.1767C37.0705 24.3965 39.4848 23.3965 42.0023 23.3965C44.5198 23.3965 46.9342 24.3965 48.7143 26.1767C50.4944 27.9568 51.4945 30.3712 51.4945 32.8886V35.4058ZM75.0773 46.6558C73.7491 47.993 72.1694 49.0542 70.4293 49.7783C68.6892 50.5023 66.823 50.8749 64.9383 50.8746H62.6179V42.4371C62.6182 40.594 61.8949 38.8245 60.6035 37.5095C59.3121 36.1944 57.556 35.439 55.7133 35.4058V32.8886C55.7133 29.2523 54.2687 25.7648 51.6974 23.1936C49.1261 20.6222 45.6387 19.1777 42.0023 19.1777C38.366 19.1777 34.8785 20.6222 32.3072 23.1936C29.7359 25.7648 28.2914 29.2523 28.2914 32.8886V35.4058C26.4486 35.439 24.6925 36.1944 23.4012 37.5095C22.1098 38.8245 21.3864 40.594 21.3867 42.4371V50.8746H15.4523C14.0134 50.9267 12.5787 50.6884 11.234 50.1737C9.88924 49.659 8.66201 48.8786 7.6256 47.8791C6.58918 46.8796 5.76484 45.6814 5.2018 44.3562C4.63876 43.031 4.34858 41.6059 4.34858 40.166C4.34858 38.7261 4.63876 37.301 5.2018 35.9758C5.76484 34.6506 6.58918 33.4524 7.6256 32.4529C8.66201 31.4534 9.88924 30.673 11.234 30.1583C12.5787 29.6436 14.0134 29.4052 15.4523 29.4574C16.0093 29.4574 16.5437 29.2371 16.9389 28.8446C17.3341 28.452 17.558 27.9191 17.5617 27.3621C17.6132 21.7963 19.654 16.4326 23.3154 12.2404C26.9767 8.04817 32.017 5.30407 37.5252 4.50408C43.0334 3.70409 48.6461 4.901 53.3487 7.87846C58.0514 10.8559 61.5338 15.4175 63.1664 20.7386C63.297 21.1647 63.5593 21.5384 63.9155 21.8062C64.2717 22.074 64.7036 22.2221 65.1492 22.2293C67.9586 22.276 70.6923 23.1476 73.0103 24.7357C75.3282 26.3238 77.1281 28.5583 78.1861 31.1614C79.2441 33.7644 79.5135 36.621 78.9607 39.3759C78.408 42.1308 77.0575 44.6624 75.0773 46.6558Z" fill="#10417F"/>
<path d="M42.0025 47.2604C40.6389 47.1774 39.2917 47.5934 38.2124 48.4309C37.1331 49.2683 36.3954 50.47 36.1371 51.8114C35.8788 53.1529 36.1175 54.5425 36.8087 55.7209C37.4999 56.8993 38.5962 57.7858 39.8931 58.2151V60.8588C39.8931 61.4183 40.1154 61.9548 40.511 62.3504C40.9065 62.746 41.4431 62.9682 42.0025 62.9682C42.562 62.9682 43.0985 62.746 43.4941 62.3504C43.8897 61.9548 44.1119 61.4183 44.1119 60.8588V58.2151C45.4088 57.7858 46.5052 56.8993 47.1963 55.7209C47.8875 54.5425 48.1262 53.1529 47.8679 51.8114C47.6096 50.47 46.8719 49.2683 45.7926 48.4309C44.7133 47.5934 43.3661 47.1774 42.0025 47.2604ZM42.0025 51.4792C42.2806 51.4792 42.5525 51.5616 42.7838 51.7161C43.015 51.8707 43.1953 52.0903 43.3017 52.3473C43.4082 52.6042 43.436 52.887 43.3817 53.1598C43.3275 53.4325 43.1936 53.6831 42.9969 53.8798C42.8002 54.0764 42.5497 54.2104 42.2769 54.2646C42.0041 54.3189 41.7213 54.291 41.4644 54.1846C41.2074 54.0782 40.9878 53.8979 40.8333 53.6667C40.6787 53.4354 40.5963 53.1635 40.5963 52.8854C40.5963 52.5124 40.7444 52.1548 41.0081 51.891C41.2719 51.6273 41.6296 51.4792 42.0025 51.4792Z" fill="#10417F"/>
</svg>
