<svg width="6797" height="6797" viewBox="0 0 6797 6797" fill="none" xmlns="http://www.w3.org/2000/svg">
<path d="M3398.5 314.674C3439.41 314.674 3480.31 315.488 3521.19 317.116" stroke="#E8650A" stroke-width="31.4676" stroke-linecap="round"/>
<path d="M3613.61 322.186C3654.42 325.037 3695.17 328.701 3735.83 333.174" stroke="#E8650A" stroke-width="31.4676" stroke-linecap="round"/>
<path d="M3827.69 344.693C3868.2 350.386 3908.59 356.884 3948.84 364.184" stroke="#E8650A" stroke-width="31.4676" stroke-linecap="round"/>
<path d="M4039.68 382.061C4079.69 390.565 4119.53 399.864 4159.17 409.953" stroke="#E8650A" stroke-width="31.4676" stroke-linecap="round"/>
<path d="M4248.52 434.143C4287.84 445.418 4326.94 457.474 4365.78 470.305" stroke="#E8650A" stroke-width="31.4676" stroke-linecap="round"/>
<path d="M4453.23 500.656C4491.67 514.646 4529.83 529.398 4567.68 544.906" stroke="#E8650A" stroke-width="31.4676" stroke-linecap="round"/>
<path d="M4652.8 581.291C4690.17 597.929 4727.21 615.309 4763.89 633.42" stroke="#E8650A" stroke-width="31.4676" stroke-linecap="round"/>
<path d="M4846.26 675.645C4882.38 694.849 4918.11 714.769 4953.44 735.395" stroke="#E8650A" stroke-width="31.4676" stroke-linecap="round"/>
<path d="M5032.68 783.262C5067.37 804.939 5101.62 827.304 5135.42 850.344" stroke="#E8650A" stroke-width="31.4676" stroke-linecap="round"/>
<path d="M5211.13 903.637C5244.23 927.681 5276.84 952.382 5308.95 977.724" stroke="#E8650A" stroke-width="31.4676" stroke-linecap="round"/>
<path d="M5380.73 1036.16C5412.07 1062.45 5442.88 1089.37 5473.15 1116.89" stroke="#E8650A" stroke-width="31.4676" stroke-linecap="round"/>
<path d="M5540.7 1180.18C5570.13 1208.6 5598.99 1237.6 5627.26 1267.16" stroke="#E8650A" stroke-width="31.4676" stroke-linecap="round"/>
<path d="M5690.23 1335.03C5717.6 1365.42 5744.36 1396.37 5770.51 1427.83" stroke="#E8650A" stroke-width="31.4676" stroke-linecap="round"/>
<path d="M5828.58 1499.91C5853.77 1532.15 5878.31 1564.88 5902.19 1598.09" stroke="#E8650A" stroke-width="31.4676" stroke-linecap="round"/>
<path d="M5955.09 1674.04C5977.97 1707.95 6000.17 1742.32 6021.68 1777.11" stroke="#E8650A" stroke-width="31.4676" stroke-linecap="round"/>
<path d="M6069.17 1856.59C6089.62 1892.01 6109.37 1927.84 6128.4 1964.06" stroke="#E8650A" stroke-width="31.4676" stroke-linecap="round"/>
<path d="M6170.23 2046.64C6188.16 2083.4 6205.36 2120.52 6221.81 2157.98" stroke="#E8650A" stroke-width="31.4676" stroke-linecap="round"/>
<path d="M6257.78 2243.28C6273.1 2281.21 6287.67 2319.44 6301.47 2357.94" stroke="#E8650A" stroke-width="31.4676" stroke-linecap="round"/>
<path d="M6331.4 2445.55C6344.04 2484.45 6355.91 2523.6 6366.99 2562.98" stroke="#E8650A" stroke-width="31.4676" stroke-linecap="round"/>
<path d="M6390.72 2652.45C6400.62 2692.14 6409.72 2732.03 6418.03 2772.08" stroke="#E8650A" stroke-width="31.4676" stroke-linecap="round"/>
<path d="M6435.47 2863C6442.57 2903.28 6448.87 2943.71 6454.37 2984.24" stroke="#E8650A" stroke-width="31.4676" stroke-linecap="round"/>
<path d="M6465.43 3076.15C6469.71 3116.84 6473.18 3157.6 6475.83 3198.42" stroke="#E8650A" stroke-width="31.4676" stroke-linecap="round"/>
<path d="M6480.45 3290.87C6481.88 3331.75 6482.49 3372.66 6482.29 3413.57" stroke="#E8650A" stroke-width="31.4676" stroke-linecap="round"/>
<path d="M6480.44 3506.13C6479.01 3547.01 6476.77 3587.86 6473.72 3628.65" stroke="#E8650A" stroke-width="31.4676" stroke-linecap="round"/>
<path d="M6465.42 3720.85C6461.15 3761.53 6456.06 3802.12 6450.17 3842.6" stroke="#E8650A" stroke-width="31.4676" stroke-linecap="round"/>
<path d="M6435.47 3934C6428.37 3974.29 6420.47 4014.43 6411.77 4054.4" stroke="#E8650A" stroke-width="31.4676" stroke-linecap="round"/>
<path d="M6390.71 4144.55C6380.82 4184.24 6370.13 4223.74 6358.66 4263" stroke="#E8650A" stroke-width="31.4676" stroke-linecap="round"/>
<path d="M6331.39 4351.45C6318.75 4390.36 6305.34 4429.01 6291.16 4467.38" stroke="#E8650A" stroke-width="31.4676" stroke-linecap="round"/>
<path d="M6257.76 4553.72C6242.44 4591.65 6226.36 4629.26 6209.54 4666.55" stroke="#E8650A" stroke-width="31.4676" stroke-linecap="round"/>
<path d="M6170.23 4750.36C6152.3 4787.13 6133.63 4823.54 6114.25 4859.56" stroke="#E8650A" stroke-width="31.4676" stroke-linecap="round"/>
<path d="M6069.17 4940.41C6048.71 4975.84 6027.56 5010.85 6005.71 5045.44" stroke="#E8650A" stroke-width="31.4676" stroke-linecap="round"/>
<path d="M5955.12 5122.96C5932.24 5156.87 5908.7 5190.33 5884.49 5223.3" stroke="#E8650A" stroke-width="31.4676" stroke-linecap="round"/>
<path d="M5828.58 5297.09C5803.39 5329.32 5777.57 5361.06 5751.12 5392.26" stroke="#E8650A" stroke-width="31.4676" stroke-linecap="round"/>
<path d="M5690.23 5461.99C5662.85 5492.39 5634.88 5522.24 5606.32 5551.53" stroke="#E8650A" stroke-width="31.4676" stroke-linecap="round"/>
<path d="M5540.7 5616.82C5511.28 5645.23 5481.29 5673.06 5450.75 5700.28" stroke="#E8650A" stroke-width="31.4676" stroke-linecap="round"/>
<path d="M5380.76 5760.84C5349.42 5787.14 5317.56 5812.81 5285.21 5837.83" stroke="#E8650A" stroke-width="31.4676" stroke-linecap="round"/>
<path d="M5211.13 5893.36C5178.03 5917.41 5144.46 5940.79 5110.44 5963.5" stroke="#E8650A" stroke-width="31.4676" stroke-linecap="round"/>
<path d="M5032.67 6013.74C4997.98 6035.42 4962.86 6056.4 4927.34 6076.68" stroke="#E8650A" stroke-width="31.4676" stroke-linecap="round"/>
<path d="M4846.28 6121.36C4810.16 6140.57 4773.66 6159.05 4736.81 6176.81" stroke="#E8650A" stroke-width="31.4676" stroke-linecap="round"/>
<path d="M4652.81 6215.71C4615.44 6232.35 4577.74 6248.24 4539.74 6263.38" stroke="#E8650A" stroke-width="31.4676" stroke-linecap="round"/>
<path d="M4453.24 6296.34C4414.8 6310.34 4376.09 6323.56 4337.12 6336.01" stroke="#E8650A" stroke-width="31.4676" stroke-linecap="round"/>
<path d="M4248.52 6362.86C4209.2 6374.13 4169.66 6384.63 4129.92 6394.33" stroke="#E8650A" stroke-width="31.4676" stroke-linecap="round"/>
<path d="M4039.66 6414.94C3999.64 6423.45 3959.47 6431.16 3919.14 6438.06" stroke="#E8650A" stroke-width="31.4676" stroke-linecap="round"/>
<path d="M3827.68 6452.31C3787.17 6458 3746.55 6462.89 3705.85 6466.96" stroke="#E8650A" stroke-width="31.4676" stroke-linecap="round"/>
<path d="M3613.62 6474.81C3572.81 6477.67 3531.95 6479.71 3491.06 6480.94" stroke="#E8650A" stroke-width="31.4676" stroke-linecap="round"/>
<path d="M3398.51 6482.32C3357.6 6482.32 3316.7 6481.5 3275.82 6479.88" stroke="#E8650A" stroke-width="31.4676" stroke-linecap="round"/>
<path d="M3183.37 6474.81C3142.56 6471.96 3101.82 6468.3 3061.16 6463.83" stroke="#E8650A" stroke-width="31.4676" stroke-linecap="round"/>
<path d="M2969.31 6452.32C2928.8 6446.62 2888.41 6440.12 2848.16 6432.82" stroke="#E8650A" stroke-width="31.4676" stroke-linecap="round"/>
<path d="M2757.34 6414.93C2717.33 6406.42 2677.49 6397.12 2637.84 6387.04" stroke="#E8650A" stroke-width="31.4676" stroke-linecap="round"/>
<path d="M2548.48 6362.86C2509.15 6351.58 2470.06 6339.53 2431.21 6326.7" stroke="#E8650A" stroke-width="31.4676" stroke-linecap="round"/>
<path d="M2343.78 6296.34C2305.34 6282.35 2267.18 6267.6 2229.33 6252.09" stroke="#E8650A" stroke-width="31.4676" stroke-linecap="round"/>
<path d="M2144.19 6215.71C2106.82 6199.07 2069.78 6181.69 2033.1 6163.58" stroke="#E8650A" stroke-width="31.4676" stroke-linecap="round"/>
<path d="M1950.74 6121.36C1914.62 6102.15 1878.88 6082.23 1843.56 6061.61" stroke="#E8650A" stroke-width="31.4676" stroke-linecap="round"/>
<path d="M1764.34 6013.73C1729.65 5992.05 1695.39 5969.69 1661.59 5946.65" stroke="#E8650A" stroke-width="31.4676" stroke-linecap="round"/>
<path d="M1585.86 5893.37C1552.77 5869.32 1520.16 5844.62 1488.05 5819.28" stroke="#E8650A" stroke-width="31.4676" stroke-linecap="round"/>
<path d="M1416.26 5760.84C1384.92 5734.55 1354.11 5707.63 1323.85 5680.11" stroke="#E8650A" stroke-width="31.4676" stroke-linecap="round"/>
<path d="M1256.29 5616.82C1226.86 5588.4 1198.01 5559.4 1169.73 5529.84" stroke="#E8650A" stroke-width="31.4676" stroke-linecap="round"/>
<path d="M1106.76 5461.99C1079.39 5431.59 1052.62 5400.65 1026.48 5369.18" stroke="#E8650A" stroke-width="31.4676" stroke-linecap="round"/>
<path d="M968.421 5297.09C943.236 5264.86 918.695 5232.13 894.812 5198.91" stroke="#E8650A" stroke-width="31.4676" stroke-linecap="round"/>
<path d="M841.894 5122.95C819.017 5089.04 796.818 5054.68 775.309 5019.88" stroke="#E8650A" stroke-width="31.4676" stroke-linecap="round"/>
<path d="M727.842 4940.41C707.388 4904.98 687.641 4869.15 668.613 4832.94" stroke="#E8650A" stroke-width="31.4676" stroke-linecap="round"/>
<path d="M626.779 4750.36C608.847 4713.59 591.647 4676.47 575.191 4639.02" stroke="#E8650A" stroke-width="31.4676" stroke-linecap="round"/>
<path d="M539.235 4553.72C523.911 4515.79 509.342 4477.56 495.539 4439.06" stroke="#E8650A" stroke-width="31.4676" stroke-linecap="round"/>
<path d="M465.613 4351.46C452.972 4312.55 441.107 4273.4 430.023 4234.03" stroke="#E8650A" stroke-width="31.4676" stroke-linecap="round"/>
<path d="M406.272 4144.55C396.377 4104.86 387.273 4064.97 378.965 4024.92" stroke="#E8650A" stroke-width="31.4676" stroke-linecap="round"/>
<path d="M361.524 3934C354.421 3893.71 348.12 3853.29 342.625 3812.75" stroke="#E8650A" stroke-width="31.4676" stroke-linecap="round"/>
<path d="M331.561 3720.85C327.285 3680.17 323.818 3639.41 321.164 3598.59" stroke="#E8650A" stroke-width="31.4676" stroke-linecap="round"/>
<path d="M316.551 3506.13C315.124 3465.25 314.512 3424.34 314.713 3383.43" stroke="#E8650A" stroke-width="31.4676" stroke-linecap="round"/>
<path d="M316.547 3290.88C317.975 3250 320.215 3209.15 323.268 3168.36" stroke="#E8650A" stroke-width="31.4676" stroke-linecap="round"/>
<path d="M331.566 3076.15C335.844 3035.47 340.93 2994.88 346.822 2954.4" stroke="#E8650A" stroke-width="31.4676" stroke-linecap="round"/>
<path d="M361.531 2862.99C368.635 2822.71 376.539 2782.57 385.239 2742.6" stroke="#E8650A" stroke-width="31.4676" stroke-linecap="round"/>
<path d="M406.277 2652.45C416.173 2612.76 426.857 2573.27 438.324 2534" stroke="#E8650A" stroke-width="31.4676" stroke-linecap="round"/>
<path d="M465.598 2445.55C478.239 2406.64 491.653 2367.99 505.832 2329.62" stroke="#E8650A" stroke-width="31.4676" stroke-linecap="round"/>
<path d="M539.223 2243.28C554.546 2205.35 570.623 2167.73 587.444 2130.44" stroke="#E8650A" stroke-width="31.4676" stroke-linecap="round"/>
<path d="M626.773 2046.64C644.706 2009.88 663.367 1973.47 682.748 1937.44" stroke="#E8650A" stroke-width="31.4676" stroke-linecap="round"/>
<path d="M727.832 1856.59C748.284 1821.16 769.438 1786.15 791.283 1751.56" stroke="#E8650A" stroke-width="31.4676" stroke-linecap="round"/>
<path d="M841.906 1674.04C864.78 1640.13 888.327 1606.68 912.532 1573.7" stroke="#E8650A" stroke-width="31.4676" stroke-linecap="round"/>
<path d="M968.418 1499.91C993.602 1467.67 1019.43 1435.94 1045.87 1404.73" stroke="#E8650A" stroke-width="31.4676" stroke-linecap="round"/>
<path d="M1106.77 1335.01C1134.15 1304.61 1162.12 1274.76 1190.68 1245.48" stroke="#E8650A" stroke-width="31.4676" stroke-linecap="round"/>
<path d="M1256.3 1180.18C1285.72 1151.77 1315.71 1123.94 1346.24 1096.72" stroke="#E8650A" stroke-width="31.4676" stroke-linecap="round"/>
<path d="M1416.27 1036.15C1447.6 1009.85 1479.46 984.187 1511.81 959.16" stroke="#E8650A" stroke-width="31.4676" stroke-linecap="round"/>
<path d="M1585.87 903.637C1618.96 879.591 1652.53 856.206 1686.56 833.496" stroke="#E8650A" stroke-width="31.4676" stroke-linecap="round"/>
<path d="M1764.32 783.268C1799.01 761.591 1834.13 740.606 1869.66 720.326" stroke="#E8650A" stroke-width="31.4676" stroke-linecap="round"/>
<path d="M1950.74 675.653C1986.86 656.447 2023.36 637.961 2060.21 620.207" stroke="#E8650A" stroke-width="31.4676" stroke-linecap="round"/>
<path d="M2144.2 581.285C2181.57 564.645 2219.27 548.751 2257.27 533.611" stroke="#E8650A" stroke-width="31.4676" stroke-linecap="round"/>
<path d="M2343.77 500.656C2382.21 486.665 2420.92 473.439 2459.89 460.988" stroke="#E8650A" stroke-width="31.4676" stroke-linecap="round"/>
<path d="M2548.48 434.134C2587.8 422.857 2627.34 412.364 2667.08 402.66" stroke="#E8650A" stroke-width="31.4676" stroke-linecap="round"/>
<path d="M2757.32 382.062C2797.33 373.556 2837.51 365.847 2877.84 358.939" stroke="#E8650A" stroke-width="31.4676" stroke-linecap="round"/>
<path d="M2969.31 344.687C3009.82 338.993 3050.44 334.107 3091.14 330.029" stroke="#E8650A" stroke-width="31.4676" stroke-linecap="round"/>
<path d="M3183.39 322.188C3224.2 319.334 3265.06 317.293 3305.95 316.064" stroke="#E8650A" stroke-width="31.4676" stroke-linecap="round"/>
</svg>
