<svg width="635" height="635" viewBox="0 0 635 635" fill="none" xmlns="http://www.w3.org/2000/svg">
<circle cx="631.575" cy="317.504" r="3.41383" transform="rotate(90 631.575 317.504)" fill="#10417F" fill-opacity="0.8"/>
<circle cx="630.968" cy="337.181" r="3.41383" transform="rotate(93.537 630.968 337.181)" fill="#10417F" fill-opacity="0.8"/>
<circle cx="629.168" cy="356.573" r="3.41383" transform="rotate(97.0655 629.168 356.573)" fill="#10417F" fill-opacity="0.8"/>
<circle cx="626.197" cy="375.682" r="3.41383" transform="rotate(100.58 626.197 375.682)" fill="#10417F" fill-opacity="0.8"/>
<circle cx="621.849" cy="395.366" r="3.41383" transform="rotate(104.293 621.849 395.366)" fill="#10417F" fill-opacity="0.8"/>
<circle cx="616.294" cy="414.555" r="3.41383" transform="rotate(107.98 616.294 414.555)" fill="#10417F" fill-opacity="0.8"/>
<circle cx="609.839" cy="432.54" r="3.41383" transform="rotate(111.427 609.839 432.54)" fill="#10417F" fill-opacity="0.8"/>
<circle cx="601.988" cy="450.756" r="3.41383" transform="rotate(115.062 601.988 450.756)" fill="#10417F" fill-opacity="0.8"/>
<circle cx="593.026" cy="468.385" r="3.41383" transform="rotate(118.671 593.026 468.385)" fill="#10417F" fill-opacity="0.8"/>
<circle cx="582.989" cy="485.383" r="3.41383" transform="rotate(122.257 582.989 485.383)" fill="#10417F" fill-opacity="0.8"/>
<circle cx="571.632" cy="502.096" r="3.41383" transform="rotate(126.033 571.632 502.096)" fill="#10417F" fill-opacity="0.8"/>
<circle cx="559.568" cy="517.631" r="3.41383" transform="rotate(129.584 559.568 517.631)" fill="#10417F" fill-opacity="0.8"/>
<circle cx="546.554" cy="532.392" r="3.41383" transform="rotate(133.126 546.554 532.392)" fill="#10417F" fill-opacity="0.8"/>
<circle cx="532.635" cy="546.326" r="3.41383" transform="rotate(136.665 532.635 546.326)" fill="#10417F" fill-opacity="0.8"/>
<circle cx="517.861" cy="559.378" r="3.41383" transform="rotate(140.207 517.861 559.378)" fill="#10417F" fill-opacity="0.8"/>
<circle cx="502.287" cy="571.491" r="3.41383" transform="rotate(143.758 502.287 571.491)" fill="#10417F" fill-opacity="0.8"/>
<circle cx="485.817" cy="582.714" r="3.41383" transform="rotate(147.533 485.817 582.714)" fill="#10417F" fill-opacity="0.8"/>
<circle cx="468.85" cy="592.771" r="3.41383" transform="rotate(151.117 468.85 592.771)" fill="#10417F" fill-opacity="0.8"/>
<circle cx="451.273" cy="601.746" r="3.41383" transform="rotate(154.725 451.273 601.746)" fill="#10417F" fill-opacity="0.8"/>
<circle cx="433.159" cy="609.596" r="3.41383" transform="rotate(158.359 433.159 609.596)" fill="#10417F" fill-opacity="0.8"/>
<circle cx="414.636" cy="616.268" r="3.41383" transform="rotate(161.804 414.636 616.268)" fill="#10417F" fill-opacity="0.8"/>
<circle cx="395.656" cy="621.773" r="3.41383" transform="rotate(165.49 395.656 621.773)" fill="#10417F" fill-opacity="0.8"/>
<circle cx="376.374" cy="626.066" r="3.41383" transform="rotate(169.201 376.374 626.066)" fill="#10417F" fill-opacity="0.8"/>
<circle cx="356.881" cy="629.131" r="3.41383" transform="rotate(172.714 356.881 629.131)" fill="#10417F" fill-opacity="0.8"/>
<circle cx="337.229" cy="630.966" r="3.41383" transform="rotate(176.242 337.229 630.966)" fill="#10417F" fill-opacity="0.8"/>
<circle cx="316.263" cy="631.573" r="3.41383" transform="rotate(-179.779 316.263 631.573)" fill="#10417F" fill-opacity="0.8"/>
<circle cx="296.543" cy="630.887" r="3.41383" transform="rotate(-176.242 296.543 630.887)" fill="#10417F" fill-opacity="0.8"/>
<circle cx="276.905" cy="628.976" r="3.41383" transform="rotate(-172.714 276.905 628.976)" fill="#10417F" fill-opacity="0.8"/>
<circle cx="257.436" cy="625.839" r="3.41383" transform="rotate(-169.201 257.436 625.839)" fill="#10417F" fill-opacity="0.8"/>
<circle cx="238.189" cy="621.474" r="3.41383" transform="rotate(-165.49 238.189 621.474)" fill="#10417F" fill-opacity="0.8"/>
<circle cx="219.251" cy="615.902" r="3.41383" transform="rotate(-161.804 219.251 615.902)" fill="#10417F" fill-opacity="0.8"/>
<circle cx="200.778" cy="609.169" r="3.41383" transform="rotate(-158.359 200.778 609.169)" fill="#10417F" fill-opacity="0.8"/>
<circle cx="182.721" cy="601.266" r="3.41383" transform="rotate(-154.725 182.721 601.266)" fill="#10417F" fill-opacity="0.8"/>
<circle cx="165.206" cy="592.245" r="3.41383" transform="rotate(-151.117 165.206 592.245)" fill="#10417F" fill-opacity="0.8"/>
<circle cx="148.156" cy="582.053" r="3.41383" transform="rotate(-147.322 148.156 582.053)" fill="#10417F" fill-opacity="0.8"/>
<circle cx="131.912" cy="570.902" r="3.41383" transform="rotate(-143.758 131.912 570.902)" fill="#10417F" fill-opacity="0.8"/>
<circle cx="116.412" cy="558.768" r="3.41383" transform="rotate(-140.207 116.412 558.768)" fill="#10417F" fill-opacity="0.8"/>
<circle cx="101.716" cy="545.709" r="3.41383" transform="rotate(-136.665 101.716 545.709)" fill="#10417F" fill-opacity="0.8"/>
<circle cx="87.8729" cy="531.774" r="3.41383" transform="rotate(-133.126 87.8729 531.774)" fill="#10417F" fill-opacity="0.8"/>
<circle cx="74.9352" cy="517.022" r="3.41383" transform="rotate(-129.584 74.9352 517.022)" fill="#10417F" fill-opacity="0.8"/>
<circle cx="62.6688" cy="501.123" r="3.41383" transform="rotate(-125.824 62.6688 501.123)" fill="#10417F" fill-opacity="0.8"/>
<circle cx="51.6633" cy="484.826" r="3.41383" transform="rotate(-122.257 51.6633 484.826)" fill="#10417F" fill-opacity="0.8"/>
<circle cx="41.6931" cy="467.863" r="3.41383" transform="rotate(-118.671 41.6931 467.863)" fill="#10417F" fill-opacity="0.8"/>
<circle cx="32.7941" cy="450.28" r="3.41383" transform="rotate(-115.062 32.7941 450.28)" fill="#10417F" fill-opacity="0.8"/>
<circle cx="25.0004" cy="432.12" r="3.41383" transform="rotate(-111.427 25.0004 432.12)" fill="#10417F" fill-opacity="0.8"/>
<circle cx="18.3452" cy="413.418" r="3.41383" transform="rotate(-107.764 18.3452 413.418)" fill="#10417F" fill-opacity="0.8"/>
<circle cx="13.0809" cy="395.068" r="3.41383" transform="rotate(-104.293 13.0809 395.068)" fill="#10417F" fill-opacity="0.8"/>
<circle cx="8.76661" cy="375.457" r="3.41383" transform="rotate(-100.58 8.76661 375.457)" fill="#10417F" fill-opacity="0.8"/>
<circle cx="5.81833" cy="356.423" r="3.41383" transform="rotate(-97.0655 5.81833 356.423)" fill="#10417F" fill-opacity="0.8"/>
<circle cx="4.03217" cy="337.105" r="3.41383" transform="rotate(-93.537 4.03217 337.105)" fill="#10417F" fill-opacity="0.8"/>
<circle cx="3.44008" cy="315.028" r="3.41383" transform="rotate(-89.5577 3.44008 315.028)" fill="#10417F" fill-opacity="0.8"/>
<circle cx="4.19667" cy="295.397" r="3.41383" transform="rotate(-86.0214 4.19667 295.397)" fill="#10417F" fill-opacity="0.8"/>
<circle cx="6.13056" cy="276.135" r="3.41383" transform="rotate(-82.4943 6.13056 276.135)" fill="#10417F" fill-opacity="0.8"/>
<circle cx="9.19156" cy="257.31" r="3.41383" transform="rotate(-78.9823 9.19156 257.31)" fill="#10417F" fill-opacity="0.8"/>
<circle cx="13.6974" cy="237.554" r="3.41383" transform="rotate(-75.2722 13.6974 237.554)" fill="#10417F" fill-opacity="0.8"/>
<circle cx="19.4253" cy="218.284" r="3.41383" transform="rotate(-71.5876 19.4253 218.284)" fill="#10417F" fill-opacity="0.8"/>
<circle cx="26.3265" cy="199.565" r="3.41383" transform="rotate(-67.93 26.3265 199.565)" fill="#10417F" fill-opacity="0.8"/>
<circle cx="33.629" cy="182.951" r="3.41383" transform="rotate(-64.5124 33.629 182.951)" fill="#10417F" fill-opacity="0.8"/>
<circle cx="42.5981" cy="165.495" r="3.41383" transform="rotate(-60.906 42.5981 165.495)" fill="#10417F" fill-opacity="0.8"/>
<circle cx="53.5454" cy="147.234" r="3.41383" transform="rotate(-57.1123 53.5454 147.234)" fill="#10417F" fill-opacity="0.8"/>
<circle cx="64.6226" cy="131.208" r="3.41383" transform="rotate(-53.5487 64.6226 131.208)" fill="#10417F" fill-opacity="0.8"/>
<circle cx="76.6223" cy="115.953" r="3.41383" transform="rotate(-49.9988 76.6223 115.953)" fill="#10417F" fill-opacity="0.8"/>
<circle cx="89.5019" cy="101.5" r="3.41383" transform="rotate(-46.4572 89.5019 101.5)" fill="#10417F" fill-opacity="0.8"/>
<circle cx="103.222" cy="87.8805" r="3.41383" transform="rotate(-42.9181 103.222 87.8805)" fill="#10417F" fill-opacity="0.8"/>
<circle cx="117.749" cy="75.1265" r="3.41383" transform="rotate(-39.3755 117.749 75.1265)" fill="#10417F" fill-opacity="0.8"/>
<circle cx="134.743" cy="62.051" r="3.41383" transform="rotate(-35.6142 134.743 62.051)" fill="#10417F" fill-opacity="0.8"/>
<circle cx="150.904" cy="51.2082" r="3.41383" transform="rotate(-32.0466 150.904 51.2082)" fill="#10417F" fill-opacity="0.8"/>
<circle cx="167.79" cy="41.3413" r="3.41383" transform="rotate(-28.4593 167.79 41.3413)" fill="#10417F" fill-opacity="0.8"/>
<circle cx="185.38" cy="32.4904" r="3.41383" transform="rotate(-24.8486 185.38 32.4904)" fill="#10417F" fill-opacity="0.8"/>
<circle cx="203.662" cy="24.6983" r="3.41383" transform="rotate(-21.2119 203.662 24.6983)" fill="#10417F" fill-opacity="0.8"/>
<circle cx="222.628" cy="18.0157" r="3.41383" transform="rotate(-17.5479 222.628 18.0157)" fill="#10417F" fill-opacity="0.8"/>
<circle cx="240.003" cy="13.0632" r="3.41383" transform="rotate(-14.0748 240.003 13.0632)" fill="#10417F" fill-opacity="0.8"/>
<circle cx="260.244" cy="8.6368" r="3.41383" transform="rotate(-10.3605 260.244 8.6368)" fill="#10417F" fill-opacity="0.8"/>
<circle cx="278.764" cy="5.79412" r="3.41383" transform="rotate(-6.84535 278.764 5.79412)" fill="#10417F" fill-opacity="0.8"/>
<circle cx="297.846" cy="4.03193" r="3.41383" transform="rotate(-3.31609 297.846 4.03193)" fill="#10417F" fill-opacity="0.8"/>
<circle cx="321.21" cy="3.45313" r="3.41383" transform="rotate(0.663504 321.21 3.45313)" fill="#10417F" fill-opacity="0.8"/>
<circle cx="340.729" cy="4.27672" r="3.41383" transform="rotate(4.19941 340.729 4.27672)" fill="#10417F" fill-opacity="0.8"/>
<circle cx="359.685" cy="6.23825" r="3.41383" transform="rotate(7.72568 359.685 6.23825)" fill="#10417F" fill-opacity="0.8"/>
<circle cx="378.093" cy="9.26752" r="3.41383" transform="rotate(11.2366 378.093 9.26752)" fill="#10417F" fill-opacity="0.8"/>
<circle cx="398.219" cy="13.8995" r="3.41383" transform="rotate(14.9452 398.219 13.8995)" fill="#10417F" fill-opacity="0.8"/>
<circle cx="417.676" cy="19.7444" r="3.41383" transform="rotate(18.6284 417.676 19.7444)" fill="#10417F" fill-opacity="0.8"/>
<circle cx="436.457" cy="26.7395" r="3.41383" transform="rotate(22.2843 436.457 26.7395)" fill="#10417F" fill-opacity="0.8"/>
<circle cx="454.556" cy="34.832" r="3.41383" transform="rotate(25.9132 454.556 34.832)" fill="#10417F" fill-opacity="0.8"/>
<circle cx="471.96" cy="43.974" r="3.41383" transform="rotate(29.5167 471.96 43.974)" fill="#10417F" fill-opacity="0.8"/>
<circle cx="488.657" cy="54.1206" r="3.41383" transform="rotate(33.0978 488.657 54.1206)" fill="#10417F" fill-opacity="0.8"/>
<circle cx="504.624" cy="65.2339" r="3.41383" transform="rotate(36.6605 504.624 65.2339)" fill="#10417F" fill-opacity="0.8"/>
<circle cx="519.841" cy="77.2837" r="3.41383" transform="rotate(40.2097 519.841 77.2837)" fill="#10417F" fill-opacity="0.8"/>
<circle cx="534.276" cy="90.234" r="3.41383" transform="rotate(43.751 534.276 90.234)" fill="#10417F" fill-opacity="0.8"/>
<circle cx="547.899" cy="104.053" r="3.41383" transform="rotate(47.2901 547.899 104.053)" fill="#10417F" fill-opacity="0.8"/>
<circle cx="561.852" cy="120.166" r="3.41383" transform="rotate(51.0418 561.852 120.166)" fill="#10417F" fill-opacity="0.8"/>
<circle cx="573.607" cy="135.66" r="3.41383" transform="rotate(54.5952 573.607 135.66)" fill="#10417F" fill-opacity="0.8"/>
<circle cx="584.427" cy="151.914" r="3.41383" transform="rotate(58.1638 584.427 151.914)" fill="#10417F" fill-opacity="0.8"/>
<circle cx="594.263" cy="168.895" r="3.41383" transform="rotate(61.7524 594.263 168.895)" fill="#10417F" fill-opacity="0.8"/>
<circle cx="603.063" cy="186.566" r="3.41383" transform="rotate(65.3646 603.063 186.566)" fill="#10417F" fill-opacity="0.8"/>
<circle cx="610.779" cy="204.879" r="3.41383" transform="rotate(69.0029 610.779 204.879)" fill="#10417F" fill-opacity="0.8"/>
<circle cx="617.355" cy="223.786" r="3.41383" transform="rotate(72.6685 617.355 223.786)" fill="#10417F" fill-opacity="0.8"/>
<circle cx="622.392" cy="241.799" r="3.41383" transform="rotate(76.143 622.392 241.799)" fill="#10417F" fill-opacity="0.8"/>
<circle cx="626.641" cy="261.754" r="3.41383" transform="rotate(79.8586 626.641 261.754)" fill="#10417F" fill-opacity="0.8"/>
<circle cx="629.45" cy="280.767" r="3.41383" transform="rotate(83.3749 629.45 280.767)" fill="#10417F" fill-opacity="0.8"/>
<circle cx="631.107" cy="300.205" r="3.41383" transform="rotate(86.9048 631.107 300.205)" fill="#10417F" fill-opacity="0.8"/>
</svg>
