<svg class="w-full h-full" width="848" height="574" viewBox="0 0 848 574" fill="none" xmlns="http://www.w3.org/2000/svg">
<path d="M279.087 508.088L284.362 511.028L283.875 511.902L286.513 513.373L287.024 513.658L287.522 513.353L289.984 511.843L289.462 510.99L289.461 510.989L294.385 507.971L294.907 508.823L299.83 505.805L299.308 504.952L299.307 504.951L304.23 501.933L304.754 502.785L309.677 499.766L309.154 498.913L314.076 495.894L314.6 496.747L319.522 493.728L319 492.875L323.923 489.855L324.446 490.708L329.369 487.689L328.846 486.837L328.845 486.836L333.769 483.816L334.292 484.67L339.215 481.65L338.692 480.798L343.614 477.778L343.615 477.779L344.138 478.631L349.062 475.612L348.538 474.76L353.461 471.739L353.462 471.74L353.984 472.593L358.907 469.573L358.385 468.721L363.307 465.701L363.308 465.702L363.83 466.555L368.754 463.535L368.23 462.683L373.154 459.663L373.677 460.516L378.6 457.497L378.076 456.644L383 453.625L383.522 454.478L388.446 451.458L387.923 450.605L392.845 447.586L392.846 447.587L393.369 448.439L398.292 445.42L397.769 444.566L402.692 441.548L403.215 442.4L408.138 439.381L407.615 438.529L407.614 438.528L412.538 435.51L413.062 436.362L415.522 434.853L415.61 434.799L415.685 434.729L417.896 432.652L417.212 431.923L417.211 431.922L421.634 427.769L422.319 428.498L426.742 424.345L426.058 423.615L430.479 419.461L430.48 419.462L431.165 420.19L435.589 416.037L434.904 415.308L434.903 415.307L439.326 411.153L440.012 411.883L444.435 407.729L443.75 407L448.173 402.846L448.857 403.575L453.28 399.421L452.596 398.692L457.02 394.538L457.704 395.268L462.127 391.113L461.441 390.384L465.865 386.23L466.55 386.96L470.973 382.806L470.288 382.077L474.711 377.922L474.712 377.923L475.396 378.652L479.819 374.498L479.134 373.769L483.558 369.615L484.242 370.345L488.665 366.19L487.98 365.462L487.979 365.461L492.403 361.307L492.404 361.308L493.089 362.036L497.512 357.883L496.827 357.153L501.25 353L501.935 353.729L506.357 349.575L505.673 348.846L510.096 344.692L510.78 345.421L515.204 341.268L514.52 340.538L518.941 336.384L519.627 337.113L524.05 332.96L523.365 332.23L527.788 328.077L528.473 328.806L532.896 324.652L532.212 323.923L532.211 323.922L536.634 319.769L537.319 320.498L541.742 316.344L541.058 315.615L545.479 311.461L545.48 311.462L546.165 312.19L550.589 308.036L549.903 307.307L554.327 303.153L555.012 303.883L559.435 299.729L558.75 299L563.173 294.846L563.857 295.575L568.28 291.421L567.596 290.692L572.02 286.538L572.704 287.268L577.127 283.113L576.441 282.384L580.865 278.23L581.55 278.96L585.973 274.806L585.288 274.077L589.711 269.922L589.712 269.923L590.396 270.651L594.819 266.498L594.134 265.769L598.558 261.615L599.242 262.344L603.665 258.19L602.98 257.461L607.403 253.307L608.089 254.036L612.512 249.883L611.827 249.153L616.25 245L616.935 245.729L621.357 241.575L620.673 240.846L625.096 236.692L625.78 237.421L630.204 233.268L629.52 232.538L633.941 228.384L634.627 229.113L639.05 224.96L638.365 224.23L642.788 220.077L643.473 220.806L645.046 219.327C645.429 219.639 645.971 220.079 646.661 220.641L647.292 219.865L647.293 219.863C648.47 220.821 650.081 222.131 652.08 223.753V223.754L651.449 224.53C652.847 225.665 654.435 226.952 656.197 228.38L656.827 227.603V227.602C658.3 228.795 659.896 230.086 661.604 231.468V231.47L660.975 232.247C662.48 233.465 664.072 234.753 665.746 236.105L666.375 235.328L666.376 235.326C667.902 236.559 669.495 237.845 671.151 239.182L671.15 239.184L670.521 239.962C672.065 241.207 673.663 242.497 675.312 243.825L675.939 243.046L675.94 243.044C677.5 244.301 679.103 245.594 680.75 246.92V246.921L680.123 247.7C681.672 248.947 683.258 250.223 684.879 251.526L685.506 250.747V250.746C687.065 251.999 688.656 253.277 690.276 254.578V254.579L689.649 255.359C691.225 256.624 692.828 257.911 694.457 259.217L695.082 258.436C696.654 259.696 698.249 260.974 699.866 262.27L699.241 263.051C700.814 264.31 702.407 265.586 704.02 266.875L704.645 266.095V266.094C706.232 267.363 707.838 268.647 709.46 269.942V269.943L708.836 270.725C710.414 271.985 712.007 273.257 713.614 274.539L714.238 273.758V273.757C715.825 275.023 717.426 276.298 719.039 277.582L719.038 277.584L718.415 278.366C720.007 279.634 721.611 280.911 723.226 282.194L723.848 281.411V281.41C725.436 282.673 727.034 283.942 728.641 285.218V285.22L728.019 286.003C729.617 287.272 731.225 288.548 732.839 289.827L733.459 289.043C735.052 290.306 736.654 291.572 738.26 292.843L738.259 292.845L737.639 293.629C739.239 294.896 740.846 296.166 742.456 297.438L743.076 296.653V296.651C744.678 297.917 746.283 299.184 747.892 300.452L747.891 300.454L747.271 301.239C748.876 302.505 750.484 303.771 752.093 305.037L752.712 304.251L752.713 304.249C754.319 305.513 755.926 306.779 757.534 308.042V308.043L756.916 308.829C758.526 310.094 760.138 311.357 761.747 312.618L762.364 311.831L762.365 311.829C763.976 313.091 765.584 314.352 767.191 315.608V315.609L766.575 316.397C768.192 317.662 769.807 318.923 771.418 320.179L772.033 319.39L772.034 319.388C773.651 320.649 775.264 321.905 776.872 323.155L776.871 323.158L776.258 323.947C777.879 325.208 779.495 326.463 781.104 327.711L781.717 326.921L781.718 326.918C783.344 328.179 784.965 329.432 786.576 330.678L786.574 330.682L785.963 331.473C787.586 332.727 789.2 333.973 790.805 335.209L791.415 334.417V334.415C793.054 335.677 794.682 336.93 796.299 338.171L795.69 338.965C797.323 340.218 798.944 341.46 800.552 342.688L801.159 341.894V341.893C802.801 343.147 804.429 344.389 806.041 345.615V345.616L805.436 346.412C807.087 347.668 808.722 348.909 810.338 350.132L810.941 349.334V349.333C812.584 350.576 814.208 351.802 815.811 353.008V353.009L815.21 353.808C816.877 355.062 818.522 356.296 820.142 357.507L820.74 356.706L820.741 356.704C822.413 357.953 824.057 359.179 825.674 360.377V360.378L825.079 361.182C826.75 362.42 828.389 363.631 829.996 364.812L830.588 364.005L830.589 364.003C832.274 365.241 833.923 366.446 835.532 367.615V367.617L834.944 368.427C836.661 369.673 838.332 370.879 839.955 372.041L840.537 371.229L840.538 371.227C842.267 372.465 843.939 373.654 845.553 374.788L844.978 375.606C845.414 375.913 845.847 376.215 846.274 376.514C845.948 376.749 845.554 377.035 845.091 377.367L845.673 378.178C844.491 379.025 842.869 380.182 840.835 381.615L840.26 380.799C838.832 381.805 837.2 382.948 835.373 384.219L835.943 385.038C834.42 386.098 832.761 387.246 830.972 388.477L830.406 387.653C828.878 388.704 827.255 389.815 825.541 390.981L826.103 391.806C824.543 392.867 822.909 393.976 821.201 395.127L820.644 394.299C819.025 395.39 817.339 396.521 815.591 397.688L816.146 398.52C814.574 399.569 812.95 400.647 811.276 401.755L810.726 400.923C809.093 402.004 807.412 403.112 805.686 404.244L806.232 405.078C804.626 406.132 802.98 407.207 801.295 408.303L800.752 407.467C799.101 408.54 797.413 409.634 795.689 410.745L796.229 411.583C794.608 412.628 792.956 413.69 791.271 414.767L790.734 413.926C789.06 414.996 787.354 416.083 785.619 417.183L786.153 418.026C784.527 419.057 782.874 420.1 781.195 421.155L780.664 420.31C778.987 421.364 777.285 422.43 775.558 423.507L776.085 424.354C774.431 425.385 772.754 426.425 771.056 427.475L770.53 426.626C768.86 427.658 767.168 428.699 765.456 429.748L765.978 430.6C764.286 431.636 762.575 432.68 760.844 433.731L760.325 432.878C758.661 433.889 756.978 434.906 755.278 435.93L755.793 436.786C754.092 437.81 752.373 438.84 750.637 439.876L750.126 439.019C748.44 440.025 746.737 441.037 745.019 442.053L745.527 442.912C743.835 443.913 742.128 444.917 740.406 445.927L739.901 445.066C738.181 446.075 736.446 447.087 734.696 448.104L735.197 448.968C733.506 449.95 731.801 450.935 730.084 451.923L729.586 451.058C727.875 452.042 726.152 453.03 724.416 454.02L724.91 454.887C723.177 455.875 721.432 456.864 719.675 457.856L719.185 456.987C717.48 457.95 715.764 458.914 714.037 459.879L714.523 460.75C712.795 461.716 711.057 462.684 709.308 463.652L708.824 462.778C707.083 463.742 705.331 464.708 703.569 465.673L704.049 466.548C702.326 467.492 700.593 468.436 698.851 469.381L698.375 468.504C696.634 469.448 694.884 470.392 693.125 471.336L693.597 472.216C691.842 473.157 690.079 474.098 688.307 475.038L687.839 474.156C686.101 475.078 684.354 476 682.601 476.921L683.063 477.805C681.308 478.726 679.545 479.647 677.774 480.565L677.314 479.68C675.547 480.597 673.773 481.512 671.991 482.426L672.446 483.315C670.691 484.215 668.929 485.112 667.16 486.008L666.71 485.118C664.943 486.014 663.17 486.908 661.39 487.799L661.836 488.69C660.054 489.582 658.267 490.473 656.473 491.359L656.03 490.464C654.26 491.339 652.484 492.211 650.702 493.08L651.14 493.978C649.358 494.847 647.57 495.713 645.776 496.576L645.344 495.677C643.552 496.539 641.756 497.399 639.954 498.254L640.382 499.155C638.591 500.005 636.796 500.853 634.995 501.695L634.572 500.791C632.778 501.631 630.978 502.467 629.175 503.299L629.592 504.204C627.787 505.037 625.977 505.865 624.163 506.688L623.75 505.781C621.944 506.602 620.134 507.418 618.319 508.229L618.727 509.14C616.914 509.95 615.099 510.756 613.279 511.557L612.878 510.643C611.061 511.442 609.24 512.236 607.416 513.024L607.812 513.94C605.987 514.73 604.158 515.512 602.327 516.29L601.938 515.373C600.112 516.149 598.282 516.919 596.45 517.684L596.834 518.604C594.999 519.369 593.163 520.13 591.323 520.883L590.945 519.958C589.108 520.71 587.268 521.456 585.426 522.195L585.798 523.12C583.951 523.861 582.102 524.595 580.251 525.322L579.887 524.395C578.038 525.121 576.189 525.841 574.337 526.553L574.694 527.482C572.84 528.195 570.986 528.904 569.129 529.602L568.777 528.667C566.915 529.367 565.05 530.06 563.186 530.744L563.529 531.682C561.661 532.367 559.792 533.045 557.922 533.715L557.586 532.774C555.719 533.443 553.851 534.103 551.982 534.754L552.311 535.697C550.428 536.353 548.546 537.001 546.663 537.64L546.343 536.693C544.459 537.332 542.574 537.962 540.69 538.582L541.002 539.53C539.115 540.151 537.228 540.764 535.342 541.366L535.038 540.414C533.143 541.019 531.248 541.614 529.354 542.198L529.648 543.153C527.742 543.742 525.836 544.32 523.931 544.888L523.646 543.93C521.745 544.496 519.845 545.053 517.945 545.598L518.22 546.557C516.306 547.106 514.394 547.645 512.483 548.171L512.219 547.207C510.295 547.737 508.374 548.256 506.454 548.762L506.708 549.727C504.785 550.234 502.863 550.729 500.944 551.212L500.702 550.243C498.777 550.727 496.854 551.199 494.934 551.658L495.165 552.629C493.218 553.094 491.274 553.546 489.333 553.984L489.113 553.011C487.176 553.448 485.243 553.872 483.312 554.282L483.519 555.26C481.574 555.673 479.633 556.072 477.695 556.456L477.502 555.477C475.541 555.866 473.583 556.24 471.63 556.599L471.81 557.581C469.852 557.941 467.898 558.286 465.949 558.615L465.783 557.63C463.827 557.96 461.876 558.275 459.93 558.573L460.08 559.561C458.098 559.864 456.12 560.149 454.148 560.419L454.014 559.431C452.047 559.7 450.086 559.951 448.131 560.186L448.249 561.177C446.272 561.414 444.301 561.634 442.336 561.835L442.234 560.84C440.245 561.043 438.263 561.227 436.287 561.392L436.369 562.387C434.387 562.552 432.413 562.697 430.445 562.823L430.382 561.828L427.446 562.001C426.456 562.055 425.463 562.106 424.468 562.154L424.515 563.151C422.521 563.248 420.52 563.335 418.511 563.411L418.474 562.414C416.468 562.491 414.454 562.557 412.433 562.613L412.46 563.609C410.464 563.665 408.46 563.713 406.45 563.75L406.433 562.752C404.436 562.788 402.432 562.816 400.422 562.834L400.43 563.83C398.417 563.848 396.398 563.858 394.373 563.858V562.86C392.381 562.86 390.383 562.852 388.38 562.835L388.371 563.832C386.367 563.815 384.358 563.79 382.345 563.756L382.361 562.759C380.352 562.725 378.338 562.684 376.32 562.634L376.296 563.632C374.299 563.583 372.298 563.524 370.293 563.459L370.325 562.463C368.323 562.398 366.316 562.326 364.307 562.246L364.267 563.244C362.258 563.165 360.246 563.077 358.231 562.982L358.277 561.985C356.281 561.892 354.281 561.792 352.279 561.685L352.226 562.68C350.221 562.572 348.214 562.461 346.204 562.34L346.265 561.342C344.261 561.221 342.256 561.094 340.248 560.96L340.182 561.955C338.182 561.822 336.181 561.681 334.178 561.535L334.25 560.541C332.249 560.395 330.247 560.242 328.243 560.084L328.165 561.08C326.162 560.922 324.158 560.755 322.153 560.585L322.237 559.592C320.24 559.422 318.242 559.246 316.243 559.065L316.152 560.06C314.152 559.878 312.151 559.692 310.15 559.5L310.246 558.506C308.248 558.314 306.249 558.116 304.251 557.913L304.149 558.905C302.151 558.702 300.153 558.496 298.155 558.282L298.262 557.289C296.266 557.076 294.27 556.858 292.275 556.635L292.164 557.627C290.166 557.403 288.17 557.174 286.175 556.94L286.291 555.95C284.295 555.717 282.3 555.479 280.308 555.236L280.187 556.228C278.192 555.985 276.2 555.736 274.209 555.484L274.335 554.494C272.341 554.242 270.349 553.985 268.36 553.725L268.23 554.714C266.234 554.452 264.239 554.188 262.248 553.918H262.249L262.384 552.927C260.395 552.657 258.408 552.383 256.425 552.105L256.286 553.094C254.292 552.814 252.302 552.531 250.315 552.244L250.459 551.256C248.466 550.968 246.476 550.677 244.491 550.382L244.344 551.369C242.357 551.074 240.375 550.774 238.396 550.472L238.548 549.485C236.557 549.181 234.57 548.873 232.588 548.562L232.433 549.548C230.441 549.235 228.453 548.919 226.472 548.6L226.631 547.614C224.651 547.295 222.675 546.974 220.706 546.649L220.543 547.634C218.549 547.305 216.561 546.975 214.58 546.641H214.581L214.747 545.655C212.76 545.32 210.779 544.981 208.805 544.641L208.634 545.624C206.658 545.283 204.689 544.94 202.728 544.594L202.901 543.61C200.906 543.259 198.918 542.904 196.938 542.548L196.762 543.531C194.777 543.174 192.801 542.815 190.833 542.453L191.014 541.471C189.04 541.108 187.075 540.744 185.119 540.378L184.936 541.359C182.939 540.986 180.952 540.611 178.975 540.233L179.162 539.253C177.186 538.876 175.219 538.497 173.263 538.117L173.071 539.098C171.091 538.713 169.121 538.327 167.161 537.939L167.355 536.96C165.366 536.567 163.388 536.173 161.422 535.777L161.225 536.757C159.257 536.361 157.301 535.965 155.357 535.567L155.558 534.589C153.566 534.182 151.587 533.774 149.622 533.366L149.419 534.344C147.439 533.933 145.472 533.521 143.52 533.109L143.727 532.133C141.759 531.718 139.806 531.302 137.867 530.887L137.657 531.862C135.662 531.435 133.681 531.009 131.718 530.582L131.931 529.605C129.968 529.179 128.021 528.753 126.092 528.327L125.877 529.301C123.884 528.861 121.909 528.421 119.952 527.983L120.171 527.012C118.195 526.57 116.239 526.128 114.302 525.688L114.08 526.66C112.105 526.212 110.151 525.765 108.219 525.32L108.443 524.349C106.453 523.891 104.486 523.435 102.542 522.981L102.314 523.953C100.355 523.496 98.4196 523.042 96.5088 522.59L96.7393 521.618C94.7347 521.144 92.7569 520.673 90.8076 520.206L90.5742 521.178C88.6239 520.71 86.7017 520.247 84.8086 519.787L85.0449 518.816C83.0279 518.327 81.0436 517.841 79.0938 517.361L78.8545 518.332C76.9035 517.852 74.9868 517.377 73.1055 516.908L73.3467 515.938C71.3225 515.434 69.3392 514.936 67.3984 514.446L67.1533 515.415C65.1867 514.918 63.2638 514.429 61.3857 513.948L61.6338 512.98C59.6143 512.464 57.6467 511.957 55.7334 511.461L55.4824 512.427C53.4803 511.908 51.5371 511.401 49.6553 510.906L49.9092 509.94C47.9214 509.418 46.0018 508.91 44.1533 508.418L43.8955 509.383C41.8377 508.835 39.8679 508.306 37.9893 507.798L38.25 506.834C36.1969 506.279 34.2529 505.75 32.4229 505.248L32.1582 506.211C30.0741 505.639 28.138 505.101 26.3555 504.604L26.624 503.645C24.4522 503.039 22.509 502.491 20.8076 502.008L20.5352 502.967C18.1668 502.294 16.2649 501.748 14.8633 501.34L15.0186 500.806C15.0227 500.805 15.0271 500.804 15.0312 500.803L15.0254 500.781L15.1426 500.381C15.0645 500.358 14.9881 500.335 14.9131 500.313L14.7969 499.831L14.7959 499.829C16.2067 499.489 18.1316 499.024 20.5254 498.438L20.5264 498.438L20.7637 499.41C22.4434 498.999 24.3541 498.529 26.4795 498.002L26.2393 497.031L26.2383 497.03C27.979 496.599 29.8638 496.128 31.8848 495.622L31.8857 495.624L32.1289 496.595C33.9282 496.144 35.8354 495.664 37.8438 495.156L37.5977 494.187C39.4103 493.728 41.3055 493.246 43.2793 492.742L43.2803 492.743L43.5273 493.713C45.3515 493.247 47.2429 492.763 49.1973 492.26L48.9482 491.291L48.9473 491.289C50.7832 490.817 52.6752 490.328 54.6201 489.823L54.6211 489.824L54.873 490.793C56.7181 490.314 58.6108 489.821 60.5488 489.313L60.2959 488.346L60.2949 488.344C62.1453 487.86 64.0371 487.363 65.9678 486.854L65.9688 486.855L66.2236 487.822C68.0797 487.333 69.9721 486.832 71.8984 486.319L71.6416 485.353L71.6406 485.351C73.5002 484.856 75.3919 484.352 77.3135 483.837L77.3145 483.838L77.5732 484.804C79.4372 484.304 81.3299 483.795 83.249 483.276L82.9873 482.311C84.8446 481.809 86.7268 481.297 88.6328 480.778L88.6338 480.779L88.8965 481.744C90.7572 481.237 92.6405 480.723 94.5449 480.2L94.2803 479.235L94.2793 479.233C96.1432 478.722 98.0274 478.202 99.9307 477.676L99.9316 477.679L100.198 478.643C102.066 478.126 103.951 477.602 105.854 477.071L105.586 476.107L105.585 476.105C107.455 475.584 109.342 475.057 111.244 474.522L111.516 475.485C113.38 474.961 115.259 474.431 117.151 473.895L116.879 472.933L116.878 472.931C118.743 472.402 120.62 471.866 122.511 471.326L122.512 471.329L122.787 472.291C124.656 471.757 126.536 471.217 128.428 470.672L128.151 469.711L128.15 469.708C130.021 469.169 131.903 468.627 133.794 468.077L134.073 469.038C135.938 468.496 137.812 467.948 139.694 467.396L139.413 466.438L139.412 466.435C141.278 465.888 143.151 465.335 145.033 464.778L145.035 464.782L145.319 465.741C147.188 465.189 149.064 464.631 150.947 464.069L150.661 463.111L150.66 463.108C152.526 462.552 154.4 461.99 156.278 461.425L156.279 461.427L156.567 462.385C158.432 461.823 160.303 461.257 162.178 460.688L161.887 459.731L161.886 459.73C163.751 459.164 165.622 458.592 167.496 458.017L167.497 458.019L167.79 458.975C169.656 458.402 171.527 457.825 173.4 457.245L173.104 456.289C174.965 455.712 176.83 455.131 178.697 454.547L178.698 454.549L178.997 455.503C179.794 455.254 180.591 455.003 181.389 454.752L183.65 456.015L184.137 455.141L189.412 458.081V458.082L188.926 458.956L194.2 461.897L194.687 461.023L199.962 463.965L199.476 464.839L204.75 467.78L205.237 466.906L210.513 469.848V469.849L210.025 470.722L215.301 473.663L215.787 472.789L221.062 475.73V475.731L220.575 476.604L225.851 479.546L226.337 478.673L231.612 481.613V481.614L231.125 482.487L236.4 485.429L236.887 484.556L242.162 487.496V487.497L241.676 488.371L246.95 491.312L247.437 490.438L252.712 493.38L252.226 494.254L257.5 497.195L257.986 496.321L263.263 499.263V499.264L262.775 500.137L268.051 503.078L268.537 502.204L273.812 505.146V505.146L273.325 506.02L278.601 508.961L279.087 508.088ZM589.434 140.431C590.534 142.168 591.645 143.898 592.758 145.62L592.756 145.622L591.916 146.164C593.035 147.895 594.159 149.618 595.285 151.328L596.12 150.778L596.121 150.777C597.256 152.5 598.394 154.211 599.531 155.907L599.53 155.908L598.699 156.466C599.853 158.187 601.008 159.894 602.158 161.582L602.985 161.02L602.986 161.018C604.154 162.732 605.318 164.428 606.477 166.102V166.103L605.654 166.672C606.838 168.382 608.015 170.07 609.182 171.732L610 171.158L610.001 171.157C611.197 172.861 612.384 174.538 613.556 176.185L613.555 176.186L612.74 176.766C613.952 178.468 615.15 180.138 616.328 181.771L617.139 181.187V181.186C618.366 182.886 619.572 184.548 620.754 186.165L620.753 186.166L619.945 186.756C621.191 188.462 622.411 190.118 623.597 191.722L624.4 191.126C625.668 192.839 626.899 194.491 628.085 196.075L628.084 196.076L627.283 196.676C628.58 198.407 629.825 200.058 631.009 201.62L631.806 201.016L631.807 201.014C633.136 202.767 634.389 204.407 635.554 205.925L635.553 205.927L634.76 206.536C636.136 208.329 637.39 209.949 638.503 211.379L639.292 210.764C640.872 212.793 642.167 214.437 643.122 215.643V215.644L642.338 216.265C642.759 216.797 643.115 217.243 643.399 217.6C642.988 217.776 642.474 217.998 641.862 218.259L642.254 219.176C640.863 219.77 638.967 220.576 636.622 221.563L636.235 220.643C634.6 221.331 632.747 222.108 630.693 222.963L631.077 223.885C629.336 224.61 627.451 225.392 625.434 226.224L625.053 225.3C623.272 226.034 621.388 226.809 619.408 227.617L619.786 228.543C617.989 229.277 616.113 230.038 614.166 230.826L613.792 229.9C611.975 230.636 610.095 231.394 608.156 232.171L608.527 233.099C606.701 233.831 604.822 234.581 602.896 235.347L602.528 234.418C600.693 235.147 598.815 235.89 596.896 236.646L597.263 237.573C595.416 238.3 593.532 239.037 591.614 239.785L591.253 238.857C589.397 239.581 587.509 240.314 585.593 241.054L585.952 241.986C584.085 242.707 582.191 243.434 580.271 244.168L579.916 243.234C578.041 243.951 576.143 244.674 574.224 245.399L574.577 246.334C572.706 247.042 570.815 247.752 568.906 248.466L568.557 247.53C566.678 248.233 564.782 248.939 562.871 249.646L563.218 250.583C561.329 251.281 559.425 251.98 557.509 252.68L557.166 251.742C555.273 252.434 553.367 253.125 551.451 253.816L551.79 254.757C549.896 255.44 547.992 256.12 546.08 256.801L545.745 255.861C543.845 256.538 541.935 257.212 540.021 257.884L540.351 258.826C538.443 259.495 536.528 260.161 534.609 260.823L534.284 259.88C532.374 260.539 530.46 261.196 528.544 261.847L528.864 262.79C526.946 263.442 525.027 264.091 523.105 264.731L522.79 263.783C520.869 264.424 518.947 265.059 517.026 265.688L517.337 266.636C515.41 267.266 513.484 267.891 511.562 268.507L511.257 267.556C509.323 268.175 507.392 268.787 505.466 269.39L505.764 270.342C503.822 270.949 501.886 271.548 499.957 272.137L499.666 271.183C497.724 271.775 495.789 272.357 493.864 272.928L494.147 273.884C492.193 274.463 490.247 275.03 488.313 275.585L488.039 274.627C486.077 275.19 484.126 275.74 482.19 276.275L482.456 277.237C480.486 277.782 478.531 278.31 476.593 278.824L476.337 277.861C474.366 278.384 472.413 278.889 470.48 279.377L470.725 280.345C468.737 280.846 466.771 281.33 464.828 281.792L464.598 280.82C462.598 281.296 460.623 281.751 458.677 282.182L458.892 283.156C456.877 283.602 454.892 284.024 452.94 284.419L452.743 283.44C451.757 283.64 450.78 283.832 449.812 284.018C448.856 284.201 447.884 284.385 446.897 284.568L447.08 285.55C445.144 285.91 443.149 286.268 441.103 286.628L440.931 285.646C438.981 285.988 436.982 286.331 434.939 286.673L435.104 287.657C433.154 287.984 431.163 288.309 429.136 288.635L428.978 287.649C427.024 287.963 425.035 288.277 423.016 288.589L423.167 289.575C421.196 289.88 419.196 290.183 417.168 290.486L417.021 289.5C415.04 289.796 413.033 290.092 411.002 290.387L411.146 291.376C409.175 291.662 407.183 291.945 405.172 292.229L405.033 291.24C403.052 291.52 401.051 291.798 399.034 292.075L399.17 293.063C397.177 293.337 395.169 293.612 393.146 293.884L393.013 292.893C391.03 293.159 389.033 293.424 387.024 293.688L387.153 294.678C385.16 294.939 383.156 295.2 381.143 295.459L381.016 294.469C379.018 294.726 377.01 294.981 374.996 295.235L375.12 296.227C373.125 296.478 371.123 296.728 369.116 296.977L368.994 295.985C366.993 296.233 364.987 296.479 362.978 296.724L363.098 297.715C361.095 297.959 359.089 298.201 357.081 298.441L356.963 297.45C354.958 297.69 352.952 297.928 350.946 298.164L351.062 299.153C349.054 299.39 347.047 299.627 345.043 299.859L344.929 298.868C342.919 299.101 340.913 299.332 338.91 299.562L339.022 300.552C337.009 300.782 334.999 301.01 332.996 301.236L332.885 300.245C330.874 300.472 328.87 300.697 326.874 300.919L326.984 301.912C324.964 302.137 322.952 302.357 320.95 302.577L320.842 301.586C318.822 301.808 316.812 302.027 314.815 302.243L314.922 303.235C312.907 303.454 310.905 303.671 308.918 303.884L308.812 302.891C306.78 303.108 304.764 303.323 302.766 303.534L302.87 304.526C300.84 304.741 298.828 304.953 296.838 305.161L296.735 304.169C294.712 304.381 292.71 304.589 290.732 304.794L290.834 305.787C288.793 305.998 286.778 306.205 284.791 306.408L284.69 305.415C282.644 305.624 280.628 305.829 278.646 306.029L278.745 307.022C276.7 307.229 274.691 307.432 272.721 307.629L272.622 306.636C270.578 306.84 268.576 307.039 266.619 307.232L266.717 308.227C264.656 308.43 262.645 308.628 260.689 308.819L260.593 307.825C258.512 308.029 256.493 308.224 254.542 308.413L254.638 309.408C252.544 309.611 250.528 309.804 248.596 309.988L248.502 308.994C246.39 309.196 244.377 309.387 242.475 309.566L242.568 310.559C240.43 310.76 238.429 310.951 236.577 311.124L236.484 310.128C234.215 310.339 232.169 310.528 230.371 310.693L230.462 311.688C227.942 311.919 225.907 312.102 224.417 312.236L224.328 311.243C223.377 311.329 222.647 311.394 222.156 311.438C221.911 311.459 221.725 311.476 221.601 311.487C221.571 311.49 221.545 311.492 221.522 311.494C221.498 311.491 221.469 311.487 221.437 311.482C221.308 311.465 221.116 311.438 220.865 311.399C220.614 311.361 220.304 311.312 219.938 311.251L218.684 311.031L218.504 312.013C216.971 311.733 214.912 311.318 212.479 310.729L212.714 309.758C210.943 309.329 208.971 308.806 206.857 308.177L206.572 309.134C204.72 308.582 202.761 307.949 200.732 307.224L201.069 306.284C199.228 305.626 197.33 304.892 195.405 304.075L195.015 304.994C193.176 304.214 191.313 303.357 189.449 302.42L189.898 301.528C188.119 300.633 186.341 299.663 184.587 298.613L184.073 299.47C182.335 298.429 180.619 297.309 178.946 296.106L179.529 295.296C177.903 294.126 176.32 292.878 174.8 291.546L174.141 292.297C172.611 290.956 171.142 289.529 169.755 288.013L170.492 287.339C169.147 285.868 167.881 284.313 166.712 282.669L165.897 283.247C164.725 281.598 163.649 279.86 162.686 278.027L163.569 277.564C162.655 275.827 161.845 274.003 161.155 272.089L160.216 272.427C159.539 270.548 158.975 268.584 158.539 266.53L159.518 266.323C159.312 265.355 159.136 264.367 158.99 263.357L158.895 262.668C158.803 261.973 158.723 261.258 158.653 260.523L157.657 260.617C157.481 258.772 157.37 256.815 157.319 254.761L158.318 254.737C158.272 252.883 158.275 250.946 158.323 248.937L157.324 248.913C157.37 247.018 157.455 245.061 157.576 243.051L158.574 243.111C158.689 241.216 158.836 239.271 159.013 237.285L158.02 237.196C158.19 235.285 158.385 233.336 158.607 231.357L159.601 231.47C159.815 229.563 160.052 227.627 160.31 225.668L159.318 225.537C159.559 223.708 159.818 221.859 160.093 219.995L160.132 219.735L161.12 219.882C161.403 217.97 161.704 216.043 162.019 214.105L161.032 213.945C161.344 212.027 161.671 210.099 162.01 208.166L162.993 208.339C163.329 206.424 163.677 204.504 164.035 202.583L163.053 202.399C163.411 200.479 163.779 198.559 164.155 196.644L165.137 196.836C165.514 194.918 165.9 193.004 166.292 191.1L165.312 190.897C165.68 189.114 166.053 187.338 166.43 185.575L166.519 185.162L167.496 185.372C167.909 183.449 168.326 181.54 168.746 179.652L167.77 179.436C168.199 177.506 168.631 175.598 169.063 173.716L170.038 173.939C170.482 172.008 170.926 170.103 171.369 168.233L170.396 168.003C170.856 166.062 171.316 164.159 171.77 162.298L172.738 162.534C173.212 160.587 173.681 158.688 174.142 156.844L173.175 156.601C173.664 154.643 174.143 152.747 174.61 150.923L175.577 151.171C176.082 149.201 176.572 147.314 177.042 145.522L176.074 145.269C176.606 143.242 177.114 141.337 177.589 139.569L178.554 139.829C179.114 137.744 179.63 135.851 180.091 134.178L179.128 133.912C179.769 131.585 180.305 129.683 180.703 128.28L181.663 128.554C181.918 127.655 182.118 126.961 182.253 126.492C182.321 126.258 182.373 126.079 182.407 125.96C182.411 125.948 182.413 125.937 182.416 125.927C182.422 125.917 182.43 125.908 182.437 125.897C182.505 125.795 182.607 125.641 182.742 125.44C183.013 125.038 183.415 124.445 183.938 123.68L183.114 123.115C183.939 121.911 185.064 120.284 186.454 118.315L187.271 118.892C188.27 117.476 189.408 115.884 190.669 114.144L189.86 113.558C190.928 112.085 192.085 110.507 193.321 108.841L194.122 109.436C195.231 107.942 196.405 106.378 197.638 104.757L196.842 104.151C197.979 102.656 199.166 101.112 200.398 99.5293L201.187 100.144C202.352 98.6471 203.559 97.1162 204.802 95.5596L204.021 94.9355C205.166 93.5026 206.34 92.0471 207.544 90.5771L207.703 90.3838L208.477 91.0176C209.69 89.5374 210.932 88.0423 212.199 86.5391L211.435 85.8945C212.678 84.4196 213.945 82.9364 215.234 81.4521L215.989 82.1074C217.256 80.649 218.543 79.1891 219.849 77.7344L219.105 77.0684C220.4 75.6261 221.71 74.1877 223.037 72.7607L223.048 72.749L223.78 73.4297C225.103 72.0077 226.44 70.5965 227.789 69.2021L227.071 68.5078C228.43 67.1031 229.801 65.7149 231.183 64.3496L231.885 65.0605C233.273 63.6883 234.671 62.3397 236.075 61.0205L235.392 60.293C236.824 58.9479 238.262 57.6327 239.706 56.3545L240.367 57.1025C241.837 55.8016 243.31 54.5387 244.784 53.3223L244.148 52.5518C245.677 51.2902 247.207 50.0756 248.735 48.918L249.34 49.7158C250.91 48.5264 252.478 47.3973 254.038 46.3369L253.477 45.5107C255.116 44.3966 256.748 43.3554 258.371 42.3984L258.413 42.374L258.921 43.2354C259.339 42.989 259.756 42.7484 260.173 42.5137L261.42 41.8271C262.264 41.3732 263.12 40.9235 263.986 40.4785L263.53 39.5918C265.245 38.711 266.999 37.8468 268.786 37.002L269.213 37.9043C270.949 37.0836 272.719 36.2801 274.513 35.4932L274.111 34.5771C275.886 33.7986 277.686 33.0378 279.504 32.293L279.883 33.2168C281.674 32.4827 283.484 31.7656 285.306 31.0645L284.946 30.1318C286.765 29.4319 288.595 28.7478 290.431 28.0811L290.772 29.0205C292.603 28.3558 294.44 27.7077 296.276 27.0762L295.951 26.1318C297.804 25.4949 299.656 24.8733 301.502 24.2705L301.812 25.2217C303.677 24.6129 305.536 24.021 307.382 23.4473L307.085 22.4932C308.967 21.9083 310.837 21.3421 312.687 20.7939L312.971 21.752C314.864 21.191 316.737 20.6491 318.582 20.127L318.31 19.165C320.225 18.6232 322.11 18.1022 323.958 17.6025L324.219 18.5684C326.143 18.048 328.028 17.5505 329.862 17.0762L329.612 16.1084C331.566 15.6033 333.464 15.1253 335.295 14.6729L335.535 15.6416C337.513 15.1528 339.414 14.6952 341.223 14.2686L340.993 13.2969C343.016 12.8197 344.925 12.3813 346.7 11.9824L346.92 12.957C349.019 12.4855 350.931 12.0686 352.626 11.708L352.418 10.7305C354.772 10.2297 356.707 9.83605 358.14 9.55176L358.334 10.5322C359.255 10.3496 359.968 10.2127 360.449 10.1211C360.669 10.0792 360.841 10.0461 360.963 10.0234L363.577 10.71L363.83 9.74219L369.491 11.2275L369.239 12.1953L374.9 13.6807L375.153 12.7129L380.815 14.1982L380.562 15.166L386.225 16.6514L386.477 15.6836L392.139 17.1689L391.886 18.1367L397.548 19.6221L397.801 18.6543L403.463 20.1387V20.1396L403.21 21.1074L408.871 22.5918L409.125 21.625L414.786 23.1104H414.787L414.533 24.0771L420.194 25.5625L420.448 24.5947L426.11 26.0801V26.0811L425.856 27.0479L431.519 28.5332L431.772 27.5664V27.5654L437.434 29.0508L437.18 30.0186L442.842 31.5039L443.096 30.5371V30.5361L448.758 32.0215V32.0225L448.504 32.9893L454.165 34.4746L454.418 33.5068L460.08 34.9922L459.827 35.96L465.489 37.4453L465.741 36.4775L471.403 37.9629L471.15 38.9307L476.812 40.416L477.065 39.4482L482.727 40.9336H482.728L482.475 41.9014L488.136 43.3867L488.389 42.4189L494.051 43.9043L493.798 44.8721L499.46 46.3564L499.713 45.3887L505.375 46.875L505.121 47.8418L510.783 49.3271L511.036 48.3604L516.698 49.8447L516.444 50.8125L522.106 52.2979L522.36 51.3311V51.3301L528.022 52.8154V52.8164L527.769 53.7832L533.43 55.2686L533.684 54.3008L539.346 55.7861V55.7871L539.092 56.7539L544.754 58.2393L545.008 57.2725V57.2715L550.668 58.7568L550.415 59.7246L552.537 60.2803C552.583 61.0515 552.651 61.8369 552.739 62.6357L553.733 62.5264L553.736 62.5254C553.951 64.4727 554.292 66.5098 554.749 68.627L554.746 68.6279L553.769 68.8389C554.191 70.7938 554.71 72.8121 555.317 74.8857L556.276 74.6045L556.277 74.6035C556.835 76.5066 557.469 78.4596 558.172 80.457L558.17 80.458L557.228 80.79C557.896 82.6886 558.626 84.6253 559.413 86.5947L560.342 86.2236V86.2227C561.087 88.0886 561.884 89.9857 562.729 91.9092V91.9102L561.813 92.3125C562.626 94.164 563.482 96.0396 564.377 97.9346L565.281 97.5068L565.282 97.5059C566.144 99.3309 567.042 101.175 567.974 103.035L567.08 103.484C567.991 105.302 568.932 107.134 569.902 108.977L570.787 108.511V108.51C571.734 110.309 572.708 112.119 573.705 113.937V113.938L572.828 114.419C573.811 116.211 574.818 118.01 575.844 119.814L576.713 119.32L576.714 119.319C577.724 121.096 578.754 122.876 579.801 124.659L579.8 124.66L578.938 125.166C579.975 126.933 581.028 128.701 582.095 130.469L582.951 129.952L582.952 129.95C584.011 131.704 585.083 133.456 586.166 135.205L586.164 135.207L585.313 135.733C586.396 137.482 587.489 139.227 588.59 140.966L589.434 140.431Z" stroke="#F0741C" stroke-width="2" stroke-dasharray="6 6"/>
<circle cx="184" cy="127" r="11.5" fill="#EFF4FC" stroke="#001837"/>
<circle cx="184" cy="127" r="7" fill="#F0741C"/>
<circle cx="359" cy="12" r="11.5" fill="#EFF4FC" stroke="#001837"/>
<circle cx="359" cy="12" r="7" fill="#F0741C"/>
<circle cx="551" cy="59" r="11.5" fill="#EFF4FC" stroke="#001837"/>
<circle cx="551" cy="59" r="7" fill="#F0741C"/>
<circle cx="451" cy="283" r="11.5" fill="#EFF4FC" stroke="#001837"/>
<circle cx="451" cy="283" r="7" fill="#F0741C"/>
<circle cx="417" cy="433" r="11.5" fill="#EFF4FC" stroke="#001837"/>
<circle cx="417" cy="433" r="7" fill="#F0741C"/>
<circle cx="428" cy="562" r="11.5" fill="#EFF4FC" stroke="#001837"/>
<circle cx="428" cy="562" r="7" fill="#F0741C"/>
<circle cx="286" cy="510" r="11.5" fill="#EFF4FC" stroke="#001837"/>
<circle cx="286" cy="510" r="7" fill="#F0741C"/>
<circle cx="12" cy="499" r="11.5" fill="#EFF4FC" stroke="#001837"/>
<circle cx="12" cy="499" r="7" fill="#F0741C"/>
<circle cx="160" cy="263" r="11.5" fill="#EFF4FC" stroke="#001837"/>
<circle cx="160" cy="263" r="7" fill="#F0741C"/>
</svg>
