<svg class="w-full h-full" width="830" height="560" viewBox="0 0 830 560" fill="none" xmlns="http://www.w3.org/2000/svg">
<path d="M170.271 120.314C224.438 82.6478 336.571 5.71445 349.771 1.31445" stroke="#111111" stroke-width="2"/>
<path d="M170.772 119.814C160.439 154.148 140.672 229.614 144.272 256.814" stroke="#111111" stroke-width="2"/>
<path d="M275.271 503.314C233.438 434.981 148.271 289.614 144.271 256.814" stroke="#111111" stroke-width="2"/>
<path d="M349.271 0.314453L440.771 276.314" stroke="#111111" stroke-width="2"/>
<path d="M275.771 503.314C240.105 486.648 134.671 461.714 0.271484 493.314" stroke="#111111" stroke-width="2"/>
<path d="M415.271 557.314C368.438 561.981 219.871 555.314 0.271484 493.314" stroke="#111111" stroke-width="2"/>
<path d="M414.771 557.314C467.771 557.981 624.871 520.614 829.271 365.814" stroke="#111111" stroke-width="2"/>
<path d="M829.271 366.814C795.105 341.648 706.371 273.714 632.771 209.314" stroke="#111111" stroke-width="2"/>
<path d="M634.271 210.314C631.605 212.314 609.671 183.314 543.271 51.3145" stroke="#111111" stroke-width="2"/>
<path d="M543.271 51.8145L441.271 275.814" stroke="#111111" stroke-width="2"/>
<path d="M632.771 209.814C600.271 204.648 517.471 210.614 442.271 275.814" stroke="#111111" stroke-width="2"/>
<path d="M442.771 275.314C402.271 301.314 302.271 496.314 274.771 503.314" stroke="#111111" stroke-width="2"/>
</svg>
