<svg preserveAspectRatio="none" class="w-full h-full object-contain" width="100%" height="100%" overflow="visible" style="display: block;" viewBox="0 0 1084 536.38" fill="none" xmlns="http://www.w3.org/2000/svg">
<g id="Group 51">
<path id="Vector 1" d="M248.313 159.774C273.791 148.193 304.911 89.07 349.452 57.8627C370.482 40.7147 394.631 28.5836 415.592 20.276M248.313 159.774C238.408 165.72 226.651 171.003 214.858 175.527M248.313 159.774C248.313 159.774 273.65 162.564 288.975 167.763C301.025 171.851 318.57 181.391 318.57 181.391M642.832 347.382C642.832 347.382 638.535 373.11 632.023 388.301C625.462 403.605 609.633 424.587 609.633 424.587C609.633 424.587 596.645 439.586 581.84 453.601M642.832 347.382C642.832 347.382 600.096 340.35 570.774 325.832M642.832 347.382C642.832 347.382 652.481 375.802 654.156 394.746C656.064 416.333 649.78 450.065 649.78 450.065M542.465 282.53C542.465 282.53 537.833 297.971 555.59 316.5C559.867 319.897 565.066 323.006 570.774 325.832M542.465 282.53C542.465 282.53 522.949 305.898 506.95 316.5C488.796 328.532 459.083 329.625 455.223 337.345M542.465 282.53C542.465 282.53 543.549 250.373 521.363 185.52C501.29 126.844 450 99 450 99C450 99 502.474 111.538 528.311 122.212C562.291 136.25 613.5 170.079 613.5 170.079M455.223 337.345C459.855 345.066 504.634 354.331 533.972 365.139C547.67 370.186 563.31 388.301 563.31 388.301C563.31 388.301 575.989 402.97 567.943 413.779C561.958 421.818 542.465 416.867 542.465 416.867C542.465 416.867 487.705 389.475 449.819 381.352C419.632 374.88 371.069 374.404 371.069 374.404C371.069 374.404 344.301 372.43 338.643 359.735M455.223 337.345L338.643 359.735M455.223 337.345C455.223 337.345 477.816 269.674 455.223 229.527C423.506 173.168 318.57 181.391 318.57 181.391M318.57 181.391C318.57 181.391 262.498 214.747 222.835 226.17C184.85 237.11 161.721 243.971 122.469 239.295M318.57 181.391C318.57 181.391 377.246 195.288 381.878 245.471C386.51 295.655 352.54 324.221 352.54 324.221C352.54 324.221 332.58 346.132 338.643 359.735M318.57 181.391C318.57 181.391 330.151 124.68 371.069 97.5065C387.863 86.3545 407.871 87.9727 407.871 87.9727M122.469 239.295C90.2794 235.46 68.5843 233.844 43.7195 213.045M122.469 239.295L214.858 175.527M43.7195 213.045C20.9134 193.968 11.9636 176.355 5.1169 147.421C-0.229081 124.829 -0.513674 110.495 5.1169 87.9727C10.5212 66.3552 28.2785 57.0906 28.2785 57.0906C28.2785 57.0906 41.3035 47.826 58.3884 54.0024C71.0594 58.5832 80.778 80.2522 80.778 80.2522C80.778 80.2522 83.4212 91.833 77.6897 99.5535C73.5875 105.079 68.997 109.396 62.2487 108.046C54.5281 106.502 52.984 101.87 50.6679 97.2373C47.4318 90.7651 50.45 83.6248 50.6679 76.3919C52.2149 62.2543 34.0944 88.3608 37.0987 122.212M43.7195 213.045C43.7195 213.045 32.8568 184.577 31.8821 165.447C31.0166 148.462 37.0987 122.212 37.0987 122.212M977.902 257.824C1002.21 256.155 1015.79 278.689 1038.89 270.949C1046.7 268.335 1057.42 260.912 1057.42 260.912C1057.42 260.912 1069.94 253.023 1075.18 245.471C1079.81 240.067 1083.67 230.802 1082.9 226.942C1082.13 223.082 1072.59 218.314 1067.46 211.501C1062.67 205.137 1057.42 193.744 1057.42 193.744C1057.42 193.744 1057 186.585 1055.88 182.163C1055.38 180.208 1054.92 178.56 1054.39 177.028M977.902 257.824C959.433 259.093 948.743 262.346 932.351 270.949C916.138 281.758 902.105 299.531 883.712 318.816C866.914 336.428 842.021 365.139 842.021 365.139C842.021 365.139 817.767 389.449 796.985 401.069M977.902 257.824C977.902 257.824 994.945 233.102 996.947 214.858C998.302 202.512 989.5 174.5 989.5 174.5M649.78 450.065C671.397 433.852 682.206 421.499 726.985 416.867C753.336 414.141 768.98 415.014 793.382 402.97C794.567 402.385 795.77 401.749 796.985 401.069M649.78 450.065C648.686 450.886 647.569 451.729 646.435 452.592M542.465 531.13C559.92 525.06 581.84 504.881 581.84 504.881C581.84 504.881 619.308 473.222 646.435 452.592M542.465 531.13C525.036 537.192 495.37 534.991 495.37 534.991C495.37 534.991 476.84 533.816 476.84 525.726C476.84 509.513 489.965 504.881 489.965 504.881C489.965 504.881 527.024 495.735 563.31 469.366M542.465 531.13C542.465 531.13 546.841 509.778 551.473 496.657C555.34 485.703 563.31 469.366 563.31 469.366M563.31 469.366C569.27 465.036 575.71 459.402 581.84 453.601M214.858 175.527C184.604 187.133 154.123 193.744 154.123 193.744C154.123 193.744 96.991 204.553 62.2487 174.442C45.3054 157.78 38.5921 139.039 37.0987 122.212M415.592 20.276C444.648 8.75989 467.576 4.5911 467.576 4.5911C467.576 4.5911 524.708 -8.53382 578.751 15.3999C638.971 42.0689 676.802 86.4286 676.802 86.4286C676.802 86.4286 725.343 142.574 766.36 153.597C812.683 166.046 861.322 142.788 861.322 142.788C861.322 142.788 883.076 131.135 899.668 126.478M415.592 20.276C415.592 20.276 488.165 24.9336 536.804 61.22C585.443 97.5065 622.502 163 622.502 163M626 170.079C626 170.079 724.471 200.606 766.36 195.557C806.685 190.697 829.877 182.885 864.926 162.359M864.926 162.359C878.494 148.346 899.668 126.478 899.668 126.478M864.926 162.359C850.755 182.258 824.5 218 824.5 218M899.668 126.478C900.541 126.233 901.4 126.007 902.241 125.803C905.887 124.92 910.074 124.239 914.337 123.713M1054.39 177.028C1053.47 174.35 1052.35 172.026 1050.48 169.038C1046.61 162.875 1034.21 158.659 1025 150.509C1015.73 142.313 1003.38 127.347 1003.38 127.347C1003.38 127.347 994.115 88.3814 984.078 87.2006C970.954 85.6565 942.388 121.943 942.388 121.943C942.388 121.943 927.972 122.032 914.337 123.713M1054.39 177.028L992 171.623M986.5 171.623C986.5 171.623 932.677 177.31 905.073 185.52C875.846 194.213 828.64 221 828.64 221M823 227C823 227 801.315 285.775 796.985 318.816C792.812 350.666 796.985 401.069 796.985 401.069M796.985 401.069C796.985 401.069 762.694 377.183 742.942 359.232C723.052 341.156 690 300 690 300M693 292L819.375 227M624 173.94L684 290.5M581.84 453.601L646.435 452.592M570.774 325.832C570.774 325.832 602.535 321.262 622.502 316.5C641.771 311.904 685.5 296.5 685.5 296.5M914.337 123.713C914.337 123.713 939.026 131.916 952.94 140.741C965.23 148.536 988.5 168.5 988.5 168.5" stroke="var(--stroke-0, #C2C2C2)" stroke-width="2"/>
<circle id="Ellipse 16" cx="620.5" cy="169.5" r="8.5" fill="var(--fill-0, #C2C2C2)"/>
<circle id="Ellipse 17" cx="688" cy="296" r="10" fill="var(--fill-0, #C2C2C2)"/>
<circle id="Ellipse 24" cx="455.5" cy="335.5" r="6.5" fill="var(--fill-0, #C2C2C2)"/>
<circle id="Ellipse 18" cx="823.5" cy="222.5" r="9.5" fill="var(--fill-0, #C2C2C2)"/>
<circle id="Ellipse 22" cx="540.5" cy="283.5" r="8.5" fill="var(--fill-0, #C2C2C2)"/>
<circle id="Ellipse 23" cx="581" cy="15.9999" r="8" fill="var(--fill-0, #C2C2C2)"/>
<circle id="Ellipse 20" cx="796.5" cy="398.5" r="8.5" fill="var(--fill-0, #C2C2C2)"/>
<circle id="Ellipse 19" cx="989" cy="172" r="9" fill="var(--fill-0, #C2C2C2)"/>
<circle id="Ellipse 25" cx="862.5" cy="163.5" r="7.5" fill="var(--fill-0, #C2C2C2)"/>
<circle id="Ellipse 26" cx="980" cy="256" r="7" fill="var(--fill-0, #C2C2C2)"/>
<circle id="Ellipse 21" cx="640" cy="348" r="9" fill="var(--fill-0, #C2C2C2)"/>
<circle id="Ellipse 15" cx="449" cy="97.9999" r="9" fill="var(--fill-0, #C2C2C2)"/>
</g>
</svg>
