<svg preserveAspectRatio="none" width="100%" height="100%" overflow="visible" style="display: block;" viewBox="0 0 150.833 75" fill="none" xmlns="http://www.w3.org/2000/svg">
<g id="Group 51">
<path id="Vector 1" d="M34.7475 22.4867C38.2756 20.883 42.585 12.6958 48.753 8.37424C51.6652 5.99962 55.0093 4.31973 57.9119 3.16931M34.7475 22.4867C33.3759 23.3101 31.7477 24.0417 30.1147 24.6681M34.7475 22.4867C34.7475 22.4867 38.2561 22.8731 40.3783 23.5931C42.0469 24.1591 44.4765 25.4802 44.4765 25.4802M89.3797 48.4663C89.3797 48.4663 88.7847 52.0291 87.8829 54.1327C86.9743 56.252 84.7824 59.1576 84.7824 59.1576C84.7824 59.1576 82.9838 61.2346 80.9336 63.1753M89.3797 48.4663C89.3797 48.4663 83.4618 47.4925 79.4013 45.4821M89.3797 48.4663C89.3797 48.4663 90.7159 52.4019 90.9478 55.0253C91.2121 58.0145 90.3419 62.6857 90.3419 62.6857M75.4811 39.4857C75.4811 39.4857 74.8396 41.624 77.2986 44.1899C77.8908 44.6602 78.6109 45.0908 79.4013 45.4821M75.4811 39.4857C75.4811 39.4857 72.7785 42.7217 70.5631 44.1899C68.0491 45.856 63.9345 46.0074 63.4 47.0765M75.4811 39.4857C75.4811 39.4857 75.6312 35.0327 72.5589 26.052C69.7792 17.9267 64.0059 14.5055 64.0059 14.5055C64.0059 14.5055 69.9432 15.8071 73.5211 17.2852C78.2265 19.2291 84.7469 23.9138 84.7469 23.9138M63.4 47.0765C64.0414 48.1456 70.2423 49.4286 74.305 50.9253C76.2018 51.6241 78.3677 54.1327 78.3677 54.1327C78.3677 54.1327 80.1234 56.164 79.0092 57.6608C78.1804 58.7741 75.4811 58.0884 75.4811 58.0884C75.4811 58.0884 67.8981 54.2954 62.6516 53.1705C58.4713 52.2742 51.7465 52.2083 51.7465 52.2083C51.7465 52.2083 48.0397 51.9349 47.2562 50.1769M63.4 47.0765L47.2562 50.1769M63.4 47.0765C63.4 47.0765 66.5286 37.7055 63.4 32.146C59.0079 24.3414 44.4765 25.4802 44.4765 25.4802M44.4765 25.4802C44.4765 25.4802 36.7117 30.0993 31.2194 31.6811C25.9592 33.1961 22.7563 34.1462 17.3208 33.4986M44.4765 25.4802C44.4765 25.4802 52.6018 27.4046 53.2433 34.3539C53.8848 41.3032 49.1806 45.259 49.1806 45.259C49.1806 45.259 46.4166 48.2932 47.2562 50.1769M44.4765 25.4802C44.4765 25.4802 46.0802 17.6269 51.7465 13.864C54.072 12.3197 56.8428 12.5438 56.8428 12.5438M17.3208 33.4986C12.8632 32.9676 9.85895 32.7438 6.41572 29.8636M17.3208 33.4986L30.1147 24.6681M6.41572 29.8636C3.25757 27.2218 2.01822 24.7828 1.0701 20.7761C0.329799 17.6476 0.290389 15.6627 1.0701 12.5438C1.81847 9.55027 4.27747 8.26732 4.27747 8.26732C4.27747 8.26732 6.08116 6.98438 8.44703 7.83968C10.2017 8.47401 11.5475 11.4747 11.5475 11.4747C11.5475 11.4747 11.9135 13.0784 11.1198 14.1475C10.5518 14.9127 9.9161 15.5104 8.98161 15.3235C7.91247 15.1097 7.69865 14.4682 7.37791 13.8268C6.92978 12.9305 7.34774 11.9417 7.37791 10.9401C7.59214 8.98238 5.08285 12.5976 5.49889 17.2852M6.41572 29.8636C6.41572 29.8636 4.91148 25.9213 4.77649 23.2723C4.65664 20.9203 5.49889 17.2852 5.49889 17.2852M135.78 36.0645C139.146 35.8333 141.027 38.9538 144.226 37.882C145.306 37.52 146.792 36.4922 146.792 36.4922C146.792 36.4922 148.525 35.3996 149.251 34.3539C149.892 33.6055 150.427 32.3226 150.32 31.788C150.213 31.2535 148.892 30.5933 148.181 29.6498C147.518 28.7685 146.792 27.1908 146.792 27.1908C146.792 27.1908 146.733 26.1995 146.578 25.5871C146.509 25.3164 146.445 25.0882 146.372 24.876M135.78 36.0645C133.222 36.2402 131.742 36.6908 129.472 37.882C127.227 39.3788 125.283 41.84 122.736 44.5106C120.41 46.9495 116.963 50.9253 116.963 50.9253C116.963 50.9253 113.604 54.2917 110.727 55.9008M135.78 36.0645C135.78 36.0645 138.14 32.6411 138.417 30.1147C138.605 28.405 137.989 25.7313 137.989 25.7313M90.3419 62.6857C93.3354 60.4405 94.8322 58.7299 101.033 58.0884C104.682 57.711 106.848 57.8319 110.228 56.164C110.392 56.083 110.558 55.9949 110.727 55.9008M90.3419 62.6857C90.1903 62.7994 90.0357 62.9161 89.8787 63.0356M75.4811 73.9115C77.8982 73.0708 80.9336 70.2764 80.9336 70.2764C80.9336 70.2764 86.1222 65.8925 89.8787 63.0356M75.4811 73.9115C73.0675 74.7509 68.9594 74.446 68.9594 74.446C68.9594 74.446 66.3935 74.2834 66.3935 73.1631C66.3935 70.9179 68.211 70.2764 68.211 70.2764C68.211 70.2764 73.3428 69.01 78.3677 65.3585M75.4811 73.9115C75.4811 73.9115 76.0871 70.9547 76.7285 69.1377C77.264 67.6207 78.3677 65.3585 78.3677 65.3585M78.3677 65.3585C79.1929 64.7588 80.0848 63.9787 80.9336 63.1753M30.1147 24.6681C25.9252 26.2754 21.7042 27.1908 21.7042 27.1908C21.7042 27.1908 13.7926 28.6876 8.98161 24.518C6.63532 22.2106 5.70569 19.6154 5.49889 17.2852M57.9119 3.16931C61.9355 1.57457 65.1106 0.997288 65.1106 0.997288C65.1106 0.997288 73.0221 -0.820225 80.5059 2.49407C88.8451 6.18714 94.0838 12.33 94.0838 12.33C94.0838 12.33 100.806 20.1049 106.486 21.6314C112.9 23.3553 119.636 20.1346 119.636 20.1346C119.636 20.1346 122.648 18.5208 124.946 17.8759M57.9119 3.16931C57.9119 3.16931 67.9617 3.81428 74.6971 8.83916C81.4326 13.864 85.9229 22.0963 85.9229 22.0963M90.6271 25.8382C90.6271 25.8382 100.685 28.1411 106.486 27.4419C112.07 26.7688 115.281 25.6871 120.135 22.8447M120.135 22.8447C122.014 20.9042 124.946 17.8759 124.946 17.8759M120.135 22.8447C118.173 25.6003 115.11 29.9009 115.11 29.9009M124.946 17.8759C125.067 17.842 125.186 17.8107 125.302 17.7825C125.807 17.6602 126.387 17.5659 126.977 17.4931M146.372 24.876C146.244 24.5052 146.089 24.1834 145.829 23.7696C145.295 22.9161 143.577 22.3323 142.301 21.2037C141.018 20.0687 139.308 17.9963 139.308 17.9963C139.308 17.9963 138.025 12.6004 136.635 12.4369C134.817 12.2231 130.862 17.248 130.862 17.248C130.862 17.248 128.865 17.2602 126.977 17.4931M146.372 24.876L138.738 24.1276M135.78 24.4484C135.78 24.4484 129.517 24.9151 125.694 26.052C121.647 27.2558 115.858 30.5424 115.858 30.5424M113.827 33.1082C113.827 33.1082 111.326 39.9351 110.727 44.5106C110.149 48.9211 110.727 55.9008 110.727 55.9008M110.727 55.9008C110.727 55.9008 105.978 52.5932 103.243 50.1073C100.488 47.6041 96.7211 43.158 96.7211 43.158M97.7902 40.1645L112.758 32.3599M88.7026 27.5488L94.5828 39.523M80.9336 63.1753L89.8787 63.0356M79.4013 45.4821C79.4013 45.4821 83.7994 44.8493 86.5644 44.1899C89.2328 43.5534 93.2999 42.1958 93.2999 42.1958M126.977 17.4931C126.977 17.4931 130.396 18.6291 132.323 19.8511C134.025 20.9305 136.279 23.1654 136.279 23.1654" stroke="var(--stroke-0, #10417F)"/>
<circle id="Ellipse 15" cx="60.5842" cy="13.1157" r="3.84884" fill="var(--fill-0, #10417F)"/>
<circle id="Ellipse 16" cx="87.7415" cy="24.6622" r="3.20737" fill="var(--fill-0, #10417F)"/>
<circle id="Ellipse 17" cx="95.652" cy="41.3405" r="2.5659" fill="var(--fill-0, #10417F)"/>
<circle id="Ellipse 18" cx="114.254" cy="31.2908" r="2.13825" fill="var(--fill-0, #10417F)"/>
<circle id="Ellipse 19" cx="137.348" cy="24.2345" r="1.7106" fill="var(--fill-0, #10417F)"/>
</g>
</svg>
