<svg class="w-full h-full" width="835" height="560" viewBox="0 0 835 560" fill="none" xmlns="http://www.w3.org/2000/svg">
<path d="M638.329 210.945C638.329 210.945 774.803 326.601 832.829 366.945C832.829 366.945 599.729 547.759 420.829 557.445C245.689 566.928 3.8291 493.928 3.8291 493.928C3.8291 493.928 160.329 456.445 279.329 503.945M638.329 210.945C638.329 210.945 619.032 191.864 597.329 149.445C575.329 106.445 546.829 51.9453 546.829 51.9453L444.829 277.445M638.329 210.945C638.329 210.945 550.496 190.981 444.829 277.445M279.329 503.945C279.329 503.945 154.642 300.84 148.617 259.079C143.024 220.313 174.829 120.445 174.829 120.445C174.829 120.445 317.353 21.0562 353.829 1.44531L444.829 277.445M279.329 503.945C318.291 484.791 390.908 321.567 444.829 277.445" stroke="#111111" stroke-width="2"/>
</svg>
