<svg width="836" height="555" viewBox="0 0 836 555" fill="none" xmlns="http://www.w3.org/2000/svg">
<path d="M267.087 499.088L272.362 502.028V502.029L271.875 502.902L274.513 504.373L275.024 504.658L275.522 504.353L277.984 502.843L277.462 501.99L277.461 501.989L282.385 498.971L282.907 499.823L287.83 496.805L287.308 495.952L287.307 495.951L292.23 492.933L292.754 493.785L297.677 490.766L297.154 489.913L302.076 486.894L302.077 486.895L302.6 487.747L307.522 484.728L307 483.875L311.923 480.855L312.446 481.708L317.369 478.689L316.846 477.837L316.845 477.836L321.769 474.816L321.77 474.817L322.292 475.67L327.215 472.65L326.692 471.798L331.614 468.778L331.615 468.779L332.139 469.631L337.062 466.612L336.538 465.76L341.461 462.739L341.462 462.74L341.984 463.593L346.907 460.573L346.385 459.721L351.307 456.701L351.308 456.702L351.83 457.555L356.754 454.535L356.23 453.683L361.154 450.663L361.677 451.516L366.6 448.497L366.077 447.645L366.076 447.644L371 444.625L371.522 445.478L376.446 442.458L375.923 441.605L380.845 438.586L380.846 438.587L381.369 439.439L386.292 436.42L385.77 435.567L385.769 435.566L390.692 432.548L391.215 433.4L396.138 430.381L395.615 429.529L395.614 429.528L400.538 426.51L401.062 427.362L403.522 425.853L403.61 425.799L403.685 425.729L405.896 423.652L405.212 422.923L405.211 422.922L409.634 418.769L409.635 418.77L410.319 419.498L414.742 415.345L414.058 414.615L418.479 410.461L418.48 410.462L419.165 411.19L423.589 407.037L422.904 406.308L422.903 406.307L427.326 402.153L427.327 402.154L428.012 402.883L432.435 398.729L431.75 398L436.173 393.846L436.857 394.575L441.28 390.421L440.596 389.692L445.02 385.538L445.704 386.268L450.127 382.113L449.442 381.385L449.441 381.384L453.865 377.23L454.55 377.96L458.973 373.806L458.288 373.077L462.711 368.922L462.712 368.923L463.396 369.652L467.819 365.498L467.135 364.77L467.134 364.769L471.558 360.615L472.242 361.345L476.665 357.19L475.98 356.462L475.979 356.461L480.403 352.307L480.404 352.308L481.089 353.036L485.512 348.883L484.827 348.153L489.25 344L489.935 344.729L494.357 340.575L493.673 339.846L498.096 335.692L498.78 336.421L503.204 332.268L502.52 331.538L506.941 327.384L506.942 327.385L507.627 328.113L512.05 323.96L511.365 323.23L515.788 319.077L516.473 319.806L520.896 315.652L520.212 314.923L520.211 314.922L524.634 310.769L524.635 310.77L525.319 311.498L529.742 307.344L529.058 306.615L533.48 302.461L534.165 303.19L538.589 299.036L537.904 298.308L537.903 298.307L542.327 294.153L543.012 294.883L547.435 290.729L546.75 290L551.173 285.846L551.857 286.575L556.28 282.421L555.596 281.692L560.02 277.538L560.704 278.268L565.127 274.113L564.442 273.385L564.441 273.384L568.865 269.23L569.55 269.96L573.973 265.806L573.288 265.077L577.711 260.922L577.712 260.923L578.396 261.652L582.819 257.498L582.135 256.77L582.134 256.769L586.558 252.615L587.242 253.344L591.665 249.19L590.98 248.461L595.403 244.307L595.404 244.308L596.089 245.036L600.512 240.883L599.827 240.153L604.25 236L604.935 236.729L609.357 232.575L608.673 231.846L613.096 227.692L613.78 228.421L618.204 224.268L617.52 223.538L621.941 219.384L621.942 219.385L622.627 220.113L627.05 215.96L626.365 215.23L630.788 211.077L631.473 211.806L633.046 210.327C633.429 210.639 633.97 211.079 634.661 211.641L635.292 210.865L635.293 210.863C636.47 211.821 638.081 213.131 640.08 214.753V214.754L639.449 215.53C640.847 216.665 642.435 217.952 644.197 219.38L644.827 218.603V218.602C646.3 219.795 647.896 221.086 649.604 222.468V222.47L648.975 223.247C650.48 224.465 652.072 225.753 653.746 227.105L654.375 226.328L654.376 226.326C655.902 227.559 657.495 228.845 659.151 230.182L659.15 230.184L658.521 230.962C660.065 232.207 661.663 233.497 663.312 234.825L663.939 234.046L663.94 234.044C665.5 235.301 667.103 236.594 668.75 237.92V237.921L668.123 238.7C669.672 239.947 671.258 241.223 672.879 242.526L673.506 241.747V241.746C675.065 242.999 676.656 244.277 678.276 245.578V245.579L677.649 246.359C679.225 247.624 680.828 248.911 682.457 250.217L683.082 249.437V249.436C684.654 250.696 686.249 251.974 687.866 253.27V253.271L687.241 254.051C688.814 255.31 690.407 256.586 692.02 257.875L692.645 257.095V257.094C694.232 258.363 695.838 259.647 697.46 260.942V260.943L696.836 261.725C698.414 262.985 700.007 264.257 701.614 265.539L702.238 264.758V264.757C703.825 266.023 705.426 267.298 707.039 268.582L707.038 268.584L706.415 269.366C708.007 270.634 709.611 271.911 711.226 273.194L711.848 272.411V272.41C713.436 273.673 715.034 274.942 716.641 276.218V276.22L716.019 277.003C717.617 278.272 719.225 279.548 720.839 280.827L721.459 280.043C723.052 281.306 724.654 282.572 726.26 283.843L726.259 283.845L725.639 284.629C727.239 285.896 728.846 287.166 730.456 288.438L731.076 287.653V287.651C732.678 288.917 734.283 290.184 735.892 291.452L735.891 291.454L735.271 292.239C736.876 293.505 738.484 294.771 740.093 296.037L740.712 295.251L740.713 295.249C742.319 296.513 743.926 297.779 745.534 299.042V299.043L744.917 299.829C746.527 301.094 748.138 302.357 749.747 303.618L750.364 302.831L750.365 302.829C751.976 304.091 753.584 305.352 755.191 306.608V306.609L754.575 307.397C756.192 308.662 757.807 309.923 759.418 311.179L760.033 310.39L760.034 310.388C761.651 311.649 763.264 312.905 764.872 314.155L764.871 314.158L764.258 314.947C765.879 316.208 767.495 317.463 769.104 318.711L769.717 317.921L769.718 317.918C771.344 319.179 772.965 320.432 774.576 321.678L774.574 321.682L773.963 322.473C775.586 323.727 777.2 324.973 778.805 326.209L779.415 325.417V325.415C781.054 326.677 782.682 327.93 784.299 329.171V329.172L783.69 329.965C785.323 331.218 786.944 332.46 788.552 333.688L789.159 332.894V332.893C790.801 334.147 792.429 335.389 794.041 336.615V336.616L793.436 337.412C795.087 338.668 796.722 339.909 798.338 341.132L798.941 340.334V340.333C800.584 341.576 802.208 342.802 803.811 344.008V344.009L803.21 344.809C804.877 346.063 806.523 347.296 808.143 348.507L808.74 347.706L808.741 347.704C810.413 348.953 812.058 350.178 813.675 351.377L813.674 351.379L813.079 352.182C814.75 353.42 816.389 354.631 817.996 355.812L818.588 355.006L818.589 355.003C820.274 356.241 821.923 357.446 823.532 358.615V358.617L822.944 359.427C824.66 360.673 826.332 361.879 827.955 363.041L828.537 362.229L828.538 362.227C830.267 363.465 831.939 364.654 833.553 365.788V365.789L832.978 366.606C833.414 366.913 833.847 367.215 834.274 367.514C833.948 367.749 833.554 368.035 833.091 368.367L833.673 369.178C832.491 370.025 830.869 371.182 828.835 372.615L828.26 371.799C826.832 372.805 825.2 373.948 823.373 375.219L823.942 376.038C822.419 377.098 820.76 378.247 818.972 379.477L818.405 378.653C816.878 379.704 815.255 380.815 813.541 381.981L814.102 382.807C812.543 383.868 810.909 384.976 809.201 386.127L808.643 385.299C807.024 386.39 805.339 387.521 803.591 388.688L804.145 389.52C802.573 390.569 800.949 391.648 799.276 392.755L798.725 391.924C797.092 393.005 795.411 394.112 793.685 395.244L794.232 396.078C792.626 397.132 790.98 398.207 789.295 399.303L788.751 398.467C787.1 399.54 785.412 400.634 783.688 401.745L784.229 402.583C782.608 403.628 780.955 404.69 779.271 405.767L778.734 404.927C777.06 405.997 775.354 407.083 773.619 408.183L774.153 409.026C772.527 410.057 770.874 411.1 769.195 412.155L768.664 411.31C766.987 412.364 765.284 413.43 763.557 414.507L764.085 415.354C762.431 416.385 760.754 417.426 759.055 418.476L758.53 417.626C756.86 418.658 755.168 419.699 753.456 420.748L753.978 421.6C752.286 422.636 750.574 423.68 748.843 424.731L748.325 423.878C746.661 424.889 744.978 425.906 743.278 426.93L743.793 427.786C742.092 428.81 740.373 429.84 738.637 430.876L738.126 430.019C736.44 431.025 734.737 432.037 733.019 433.053L733.527 433.913C731.836 434.914 730.128 435.918 728.406 436.927L727.901 436.066C726.181 437.075 724.446 438.087 722.696 439.104L723.197 439.968C721.506 440.95 719.801 441.935 718.084 442.923L717.586 442.058C715.875 443.042 714.152 444.03 712.416 445.02L712.91 445.887C711.177 446.875 709.432 447.864 707.675 448.856L707.185 447.987C705.48 448.95 703.764 449.914 702.037 450.879L702.523 451.75C700.795 452.716 699.057 453.684 697.308 454.652L696.824 453.778C695.083 454.742 693.331 455.708 691.569 456.673L692.049 457.548C690.326 458.492 688.593 459.436 686.851 460.381L686.375 459.504C684.634 460.448 682.884 461.392 681.125 462.336L681.597 463.216C679.842 464.157 678.079 465.098 676.307 466.038L675.839 465.156C674.101 466.078 672.354 467 670.601 467.921L671.063 468.805C669.308 469.726 667.545 470.647 665.774 471.565L665.315 470.68C663.548 471.597 661.773 472.512 659.991 473.426L660.446 474.315C658.691 475.215 656.929 476.112 655.16 477.008L654.71 476.118C652.943 477.014 651.17 477.907 649.39 478.798L649.836 479.69C648.054 480.582 646.267 481.473 644.473 482.359L644.03 481.464C642.26 482.339 640.484 483.211 638.702 484.08L639.14 484.978C637.358 485.847 635.57 486.713 633.776 487.576L633.344 486.677C631.552 487.539 629.756 488.399 627.954 489.254L628.382 490.155C626.591 491.005 624.796 491.853 622.995 492.695L622.572 491.791C620.778 492.631 618.978 493.467 617.175 494.299L617.592 495.204C615.787 496.037 613.977 496.865 612.163 497.688L611.75 496.781C609.944 497.602 608.134 498.418 606.319 499.229L606.727 500.14C604.914 500.95 603.099 501.756 601.279 502.557L600.878 501.643C599.061 502.442 597.24 503.236 595.416 504.024L595.812 504.94C593.987 505.73 592.158 506.512 590.327 507.29L589.938 506.373C588.112 507.149 586.282 507.919 584.45 508.684L584.834 509.604C582.999 510.369 581.163 511.13 579.323 511.883L578.945 510.958C577.108 511.71 575.268 512.456 573.426 513.195L573.798 514.12C571.951 514.861 570.102 515.595 568.251 516.322L567.887 515.395C566.038 516.121 564.189 516.841 562.337 517.553L562.693 518.482C560.84 519.195 558.985 519.904 557.129 520.602L556.777 519.667C554.915 520.367 553.05 521.06 551.186 521.744L551.529 522.682C549.661 523.367 547.792 524.045 545.922 524.715L545.586 523.774C543.719 524.443 541.851 525.103 539.982 525.754L540.311 526.697C538.428 527.353 536.546 528.001 534.663 528.64L534.343 527.693C532.459 528.332 530.574 528.962 528.69 529.582L529.002 530.53C527.115 531.152 525.228 531.764 523.341 532.366L523.038 531.414C521.143 532.019 519.248 532.614 517.354 533.198L517.648 534.153C515.742 534.742 513.836 535.32 511.931 535.888L511.646 534.93C509.745 535.496 507.844 536.053 505.944 536.598L506.22 537.557C504.306 538.106 502.394 538.645 500.483 539.171L500.219 538.207C498.295 538.737 496.374 539.256 494.454 539.762L494.708 540.727C492.785 541.234 490.863 541.729 488.944 542.212L488.701 541.243C486.776 541.727 484.854 542.199 482.934 542.658L483.165 543.629C481.218 544.094 479.274 544.546 477.333 544.984L477.113 544.011C475.176 544.448 473.242 544.872 471.312 545.282L471.519 546.26C469.574 546.673 467.633 547.072 465.695 547.456L465.501 546.477C463.54 546.866 461.582 547.241 459.629 547.6L459.81 548.581C457.851 548.941 455.898 549.286 453.948 549.615L453.783 548.63C451.827 548.96 449.876 549.275 447.93 549.573L448.08 550.561C446.097 550.864 444.12 551.15 442.147 551.42L442.014 550.431C440.047 550.7 438.086 550.951 436.131 551.186L436.248 552.177C434.271 552.414 432.301 552.634 430.336 552.835L430.234 551.84C428.245 552.043 426.263 552.227 424.287 552.392L424.369 553.387C422.387 553.552 420.413 553.697 418.445 553.823L418.382 552.828L415.446 553.001C414.456 553.055 413.463 553.106 412.468 553.154L412.515 554.151C410.521 554.248 408.52 554.335 406.511 554.411L406.474 553.414C404.468 553.491 402.454 553.557 400.433 553.613L400.46 554.609C398.464 554.665 396.46 554.713 394.45 554.75L394.433 553.752C392.436 553.788 390.432 553.816 388.422 553.834L388.43 554.83C386.417 554.848 384.398 554.858 382.374 554.858V553.86C380.382 553.86 378.383 553.852 376.38 553.835L376.371 554.832C374.367 554.815 372.358 554.79 370.345 554.756L370.361 553.759C368.352 553.725 366.338 553.684 364.32 553.634L364.296 554.632C362.299 554.583 360.298 554.524 358.293 554.459L358.325 553.463C356.323 553.398 354.316 553.326 352.307 553.246L352.267 554.244C350.258 554.165 348.246 554.077 346.231 553.982L346.277 552.985C344.281 552.892 342.281 552.792 340.279 552.685L340.226 553.68C338.221 553.572 336.214 553.461 334.204 553.34H334.205L334.265 552.342C332.261 552.221 330.256 552.094 328.248 551.96L328.182 552.955C326.182 552.822 324.181 552.681 322.178 552.535L322.25 551.541C320.249 551.395 318.247 551.242 316.243 551.084L316.165 552.08C314.162 551.922 312.158 551.755 310.153 551.585L310.237 550.592C308.24 550.422 306.242 550.246 304.243 550.065L304.153 551.06C302.153 550.878 300.152 550.692 298.15 550.5L298.246 549.506C296.248 549.314 294.249 549.116 292.251 548.913L292.15 549.905C290.152 549.702 288.153 549.496 286.155 549.282L286.262 548.289C284.266 548.076 282.27 547.858 280.275 547.635L280.165 548.627C278.167 548.403 276.17 548.174 274.175 547.94L274.291 546.95C272.295 546.717 270.3 546.479 268.308 546.236L268.187 547.228C266.192 546.985 264.2 546.736 262.209 546.484L262.335 545.494C260.341 545.242 258.35 544.985 256.36 544.725L256.23 545.714C254.234 545.452 252.24 545.188 250.249 544.918H250.25L250.384 543.927C248.395 543.657 246.408 543.383 244.425 543.105L244.286 544.094C242.292 543.814 240.302 543.531 238.315 543.244L238.459 542.256C236.466 541.968 234.476 541.677 232.491 541.382L232.344 542.37C230.357 542.075 228.375 541.774 226.397 541.472L226.548 540.485C224.557 540.181 222.57 539.873 220.588 539.562L220.433 540.548C218.441 540.235 216.453 539.919 214.472 539.6L214.631 538.614C212.651 538.295 210.675 537.974 208.706 537.649L208.543 538.634C206.549 538.305 204.561 537.975 202.58 537.641H202.581L202.748 536.655C200.761 536.32 198.779 535.981 196.805 535.641L196.635 536.624C194.659 536.283 192.69 535.94 190.728 535.594L190.901 534.61C188.906 534.259 186.918 533.904 184.938 533.548L184.762 534.531C182.777 534.174 180.801 533.815 178.833 533.453L179.014 532.471C177.04 532.108 175.075 531.744 173.119 531.378L172.936 532.359C170.939 531.986 168.952 531.611 166.975 531.233L167.162 530.253C165.186 529.876 163.219 529.497 161.263 529.117L161.071 530.098C159.091 529.713 157.121 529.327 155.161 528.939L155.355 527.96C153.366 527.567 151.388 527.173 149.422 526.777L149.225 527.757C147.257 527.361 145.302 526.964 143.358 526.567L143.559 525.589C141.567 525.182 139.588 524.774 137.623 524.366L137.419 525.344C135.439 524.933 133.472 524.521 131.52 524.109L131.727 523.133C129.759 522.718 127.806 522.302 125.867 521.887L125.658 522.862C123.663 522.435 121.682 522.009 119.719 521.582L119.931 520.605C117.968 520.179 116.021 519.753 114.092 519.327L113.877 520.301C111.884 519.861 109.909 519.421 107.952 518.983L108.171 518.012C106.195 517.57 104.239 517.128 102.302 516.688L102.081 517.66C100.106 517.212 98.1517 516.765 96.2188 516.32L96.4434 515.35C94.4534 514.892 92.4859 514.435 90.542 513.981L90.3145 514.953C88.3552 514.496 86.4196 514.042 84.5088 513.59L84.7393 512.618C82.7347 512.144 80.757 511.673 78.8076 511.206L78.5742 512.178C76.6239 511.71 74.7017 511.247 72.8086 510.787L73.0449 509.816C71.0279 509.327 69.0436 508.841 67.0938 508.361L66.8545 509.332C64.9035 508.852 62.9868 508.377 61.1055 507.908L61.3477 506.938C59.3233 506.434 57.3394 505.936 55.3984 505.446L55.1533 506.415C53.1867 505.918 51.2638 505.429 49.3857 504.948L49.6338 503.98C47.6143 503.464 45.6468 502.957 43.7334 502.461L43.4824 503.427C41.4803 502.908 39.5371 502.401 37.6553 501.906L37.9092 500.94C35.9214 500.418 34.0018 499.91 32.1533 499.418L31.8965 500.383C29.8384 499.835 27.8681 499.306 25.9893 498.798L26.251 497.834C24.1977 497.279 22.2531 496.75 20.4229 496.248L20.1582 497.211C18.0741 496.639 16.138 496.101 14.3555 495.604L14.624 494.645C12.4523 494.039 10.5099 493.491 8.80859 493.008L8.53516 493.967C6.16749 493.294 4.26575 492.749 2.86426 492.341L3.01953 491.805C3.0233 491.804 3.02747 491.804 3.03125 491.803L3.02637 491.783L3.14355 491.381C3.06515 491.358 2.98835 491.334 2.91309 491.312L2.79688 490.831L2.7959 490.829C4.20666 490.489 6.13162 490.024 8.52539 489.438L8.52637 489.438L8.76367 490.41C10.4434 489.999 12.3541 489.529 14.4795 489.002L14.2393 488.031L14.2383 488.03C15.979 487.599 17.8638 487.128 19.8848 486.622L19.8857 486.624L20.1289 487.595C21.9282 487.144 23.8354 486.664 25.8438 486.156L25.5977 485.187C27.4103 484.728 29.3055 484.246 31.2793 483.742L31.2803 483.743L31.5273 484.713C33.3515 484.247 35.2429 483.763 37.1973 483.26L36.9482 482.291L36.9473 482.289C38.7832 481.817 40.6752 481.328 42.6201 480.823L42.6211 480.824L42.873 481.793C44.7181 481.314 46.6108 480.821 48.5488 480.313L48.2959 479.346L48.2949 479.344C50.1453 478.86 52.0371 478.363 53.9678 477.854L53.9688 477.855L54.2236 478.822C56.0797 478.333 57.9721 477.832 59.8984 477.319L59.6416 476.353L59.6406 476.351C61.5002 475.856 63.3919 475.352 65.3135 474.837L65.3145 474.838L65.5732 475.804C67.4372 475.304 69.3299 474.795 71.249 474.276L70.9883 473.312L70.9873 473.311C72.8446 472.809 74.7268 472.297 76.6328 471.778L76.6338 471.779L76.8965 472.744C78.7572 472.237 80.6405 471.723 82.5449 471.2L82.2803 470.235L82.2793 470.233C84.1432 469.722 86.0274 469.202 87.9307 468.676L87.9316 468.679L88.1982 469.643C90.0657 469.126 91.9515 468.602 93.8545 468.071L93.5859 467.107L93.585 467.105C95.455 466.584 97.342 466.057 99.2441 465.522L99.2451 465.523L99.5156 466.485C101.38 465.961 103.259 465.431 105.151 464.895L104.879 463.933L104.878 463.931C106.743 463.402 108.62 462.866 110.511 462.326L110.512 462.329L110.787 463.291C112.656 462.757 114.536 462.217 116.428 461.672L116.151 460.711L116.15 460.708C118.021 460.169 119.903 459.627 121.794 459.077L122.073 460.038C123.938 459.496 125.812 458.948 127.694 458.396L127.413 457.438L127.412 457.435C129.278 456.888 131.151 456.335 133.033 455.778L133.035 455.782L133.319 456.741C135.188 456.189 137.064 455.631 138.947 455.069L138.661 454.111L138.66 454.108C140.526 453.552 142.4 452.99 144.278 452.425L144.279 452.427L144.567 453.385C146.432 452.823 148.303 452.257 150.178 451.688L149.887 450.731L149.886 450.73C151.751 450.164 153.622 449.592 155.496 449.017L155.497 449.019L155.79 449.975C157.656 449.402 159.527 448.825 161.4 448.245L161.104 447.29L161.104 447.289C162.965 446.712 164.83 446.131 166.697 445.547L166.698 445.549L166.997 446.503C167.794 446.254 168.591 446.003 169.389 445.752L171.65 447.015L172.137 446.141L177.412 449.081V449.082L176.926 449.956L182.2 452.897L182.687 452.023L187.962 454.965L187.476 455.839L192.751 458.78L193.237 457.907V457.906L198.513 460.848V460.849L198.025 461.722L203.301 464.663L203.787 463.79V463.789L209.062 466.73V466.731L208.575 467.604L213.851 470.546L214.337 469.673L219.612 472.613V472.614L219.125 473.487L224.4 476.429L224.887 475.556L230.162 478.496V478.497L229.676 479.371L234.95 482.312L235.437 481.438L240.712 484.38L240.226 485.254L245.5 488.195L245.986 487.321L251.263 490.263V490.264L250.775 491.137L256.051 494.078L256.537 493.205V493.204L261.812 496.146V496.146L261.325 497.02L266.601 499.961L267.087 499.088ZM577.434 131.431C578.534 133.168 579.645 134.898 580.758 136.62L580.756 136.622L579.916 137.164C581.035 138.895 582.159 140.618 583.285 142.328L584.12 141.778L584.121 141.777C585.256 143.5 586.394 145.211 587.531 146.907L587.53 146.908L586.699 147.466C587.853 149.187 589.008 150.894 590.158 152.582L590.985 152.02L590.986 152.018C592.154 153.732 593.318 155.428 594.477 157.102V157.103L593.654 157.672C594.838 159.382 596.015 161.07 597.182 162.732L598 162.158L598.001 162.157C599.197 163.861 600.384 165.538 601.556 167.185L601.555 167.186L600.74 167.766C601.952 169.468 603.15 171.138 604.328 172.771L605.139 172.187V172.186C606.366 173.886 607.572 175.548 608.754 177.165L608.753 177.166L607.945 177.756C609.191 179.462 610.411 181.118 611.597 182.722L612.4 182.126C613.668 183.839 614.899 185.491 616.085 187.075L616.084 187.076L615.283 187.676C616.58 189.407 617.825 191.058 619.009 192.62L619.806 192.016L619.807 192.014C621.136 193.767 622.389 195.407 623.554 196.925L623.553 196.927L622.76 197.536C624.136 199.329 625.39 200.949 626.503 202.379L627.292 201.764C628.872 203.793 630.167 205.437 631.122 206.643V206.644L630.338 207.265C630.759 207.797 631.115 208.243 631.399 208.6C630.988 208.776 630.474 208.998 629.862 209.259L630.254 210.176C628.863 210.77 626.967 211.576 624.622 212.563L624.235 211.643C622.6 212.331 620.747 213.108 618.693 213.963L619.077 214.885C617.336 215.61 615.451 216.392 613.434 217.224L613.053 216.3C611.272 217.034 609.388 217.809 607.408 218.617L607.786 219.543C605.989 220.277 604.114 221.038 602.166 221.826L601.792 220.9C599.975 221.636 598.095 222.394 596.156 223.171L596.527 224.099C594.701 224.831 592.822 225.581 590.896 226.347L590.528 225.418C588.693 226.147 586.815 226.89 584.896 227.646L585.263 228.573C583.416 229.3 581.532 230.037 579.614 230.785L579.253 229.857C577.397 230.581 575.509 231.314 573.593 232.054L573.952 232.986C572.085 233.707 570.191 234.434 568.271 235.168L567.916 234.234C566.041 234.951 564.143 235.674 562.224 236.399L562.577 237.334C560.706 238.042 558.815 238.752 556.906 239.466L556.557 238.53C554.678 239.233 552.782 239.939 550.871 240.646L551.218 241.583C549.329 242.281 547.425 242.98 545.509 243.68L545.166 242.742C543.273 243.434 541.367 244.125 539.451 244.816L539.79 245.757C537.896 246.44 535.992 247.12 534.08 247.801L533.745 246.861C531.845 247.538 529.935 248.212 528.021 248.884L528.351 249.826C526.443 250.495 524.528 251.161 522.609 251.823L522.284 250.88C520.374 251.539 518.46 252.196 516.544 252.847L516.864 253.79C514.946 254.442 513.027 255.091 511.105 255.731L510.79 254.783C508.869 255.424 506.947 256.059 505.026 256.688L505.337 257.636C503.41 258.266 501.484 258.891 499.562 259.507L499.257 258.556C497.323 259.175 495.392 259.787 493.466 260.39L493.764 261.342C491.822 261.949 489.886 262.548 487.957 263.137L487.666 262.183C485.724 262.775 483.789 263.357 481.864 263.928L482.147 264.884C480.193 265.463 478.247 266.03 476.313 266.585L476.039 265.627C474.077 266.19 472.126 266.74 470.19 267.275L470.456 268.237C468.486 268.782 466.531 269.31 464.593 269.824L464.337 268.861C462.366 269.384 460.413 269.889 458.48 270.377L458.725 271.345C456.737 271.846 454.771 272.33 452.828 272.792L452.598 271.82C450.598 272.296 448.623 272.751 446.677 273.182L446.892 274.156C444.877 274.602 442.892 275.024 440.94 275.419L440.743 274.44C439.757 274.64 438.78 274.832 437.812 275.018C436.856 275.201 435.884 275.385 434.897 275.568L435.08 276.55C433.144 276.91 431.149 277.268 429.103 277.628L428.931 276.646C426.981 276.988 424.982 277.331 422.939 277.673L423.104 278.657C421.154 278.984 419.163 279.309 417.136 279.635L416.978 278.649C415.024 278.963 413.035 279.277 411.016 279.589L411.167 280.575C409.196 280.88 407.196 281.183 405.168 281.486L405.021 280.5C403.04 280.796 401.033 281.092 399.002 281.387L399.146 282.376C397.175 282.662 395.183 282.945 393.172 283.229L393.033 282.24C391.052 282.52 389.051 282.798 387.034 283.075L387.17 284.063C385.177 284.337 383.169 284.612 381.146 284.884L381.013 283.893C379.03 284.159 377.033 284.424 375.024 284.688L375.153 285.678C373.16 285.939 371.156 286.2 369.143 286.459L369.016 285.469C367.018 285.726 365.01 285.981 362.996 286.235L363.12 287.227C361.125 287.478 359.123 287.728 357.116 287.977L356.994 286.985C354.993 287.233 352.987 287.479 350.978 287.724L351.098 288.715C349.095 288.959 347.089 289.201 345.081 289.441L344.963 288.45C342.958 288.69 340.952 288.928 338.946 289.164L339.062 290.153C337.054 290.39 335.047 290.627 333.043 290.859L332.929 289.868C330.919 290.101 328.913 290.332 326.91 290.562L327.022 291.552C325.009 291.782 322.999 292.01 320.996 292.236L320.885 291.245C318.874 291.472 316.87 291.697 314.874 291.919L314.984 292.912C312.964 293.137 310.952 293.357 308.95 293.577L308.842 292.586C306.822 292.808 304.812 293.027 302.815 293.243L302.922 294.235C300.907 294.454 298.905 294.671 296.918 294.884L296.812 293.891C294.78 294.108 292.764 294.323 290.766 294.534L290.87 295.526C288.84 295.741 286.828 295.953 284.838 296.161L284.735 295.169C282.712 295.381 280.71 295.589 278.732 295.794L278.834 296.787C276.793 296.998 274.778 297.205 272.791 297.408L272.69 296.415C270.644 296.624 268.628 296.829 266.646 297.029L266.745 298.022C264.7 298.229 262.691 298.432 260.721 298.629L260.622 297.636C258.578 297.84 256.576 298.039 254.619 298.232L254.717 299.227C252.656 299.43 250.645 299.628 248.689 299.819L248.593 298.825C246.512 299.029 244.493 299.224 242.542 299.413L242.638 300.408C240.544 300.611 238.528 300.804 236.596 300.988L236.502 299.994C234.39 300.196 232.377 300.387 230.475 300.566L230.568 301.559C228.43 301.76 226.429 301.951 224.577 302.124L224.484 301.128C222.215 301.339 220.169 301.528 218.371 301.693L218.462 302.688C215.942 302.919 213.907 303.102 212.417 303.236L212.328 302.243C211.377 302.329 210.647 302.394 210.156 302.438C209.911 302.459 209.725 302.476 209.601 302.487C209.571 302.49 209.545 302.492 209.522 302.494C209.498 302.491 209.469 302.487 209.437 302.482C209.308 302.465 209.116 302.438 208.865 302.399C208.614 302.361 208.304 302.312 207.938 302.251L206.684 302.031L206.504 303.013C204.971 302.733 202.912 302.318 200.479 301.729L200.714 300.758C198.943 300.329 196.971 299.806 194.857 299.177L194.572 300.134C192.72 299.582 190.761 298.949 188.732 298.224L189.069 297.284C187.228 296.626 185.33 295.892 183.405 295.075L183.015 295.994C181.176 295.214 179.313 294.357 177.449 293.42L177.898 292.528C176.119 291.633 174.341 290.663 172.587 289.613L172.073 290.47C170.335 289.429 168.619 288.309 166.946 287.106L167.529 286.296C165.903 285.126 164.32 283.878 162.8 282.546L162.141 283.297C160.611 281.956 159.142 280.529 157.755 279.013L158.492 278.339C157.147 276.868 155.881 275.313 154.712 273.669L153.897 274.247C152.725 272.598 151.649 270.86 150.686 269.027L151.569 268.564C150.655 266.827 149.845 265.003 149.155 263.089L148.216 263.427C147.539 261.548 146.975 259.584 146.539 257.53L147.518 257.323C147.312 256.355 147.136 255.367 146.99 254.357L146.895 253.668C146.803 252.973 146.723 252.258 146.653 251.523L145.657 251.617C145.481 249.772 145.37 247.815 145.319 245.761L146.318 245.737C146.272 243.883 146.275 241.946 146.323 239.937L145.324 239.913C145.37 238.018 145.455 236.061 145.576 234.051L146.574 234.111C146.689 232.216 146.836 230.271 147.013 228.285L146.02 228.196C146.19 226.285 146.385 224.336 146.607 222.357L147.601 222.47C147.815 220.563 148.052 218.627 148.31 216.668L147.318 216.537C147.559 214.708 147.818 212.859 148.093 210.995L148.132 210.735L149.12 210.882C149.403 208.97 149.704 207.043 150.019 205.105L149.032 204.945C149.344 203.027 149.671 201.099 150.01 199.166L150.993 199.339C151.329 197.424 151.677 195.504 152.035 193.583L151.053 193.399C151.411 191.479 151.779 189.559 152.155 187.644L153.137 187.836C153.514 185.918 153.9 184.004 154.292 182.1L153.312 181.897C153.68 180.114 154.053 178.338 154.43 176.575L154.519 176.162L155.496 176.372C155.909 174.449 156.326 172.54 156.746 170.652L155.77 170.436C156.199 168.506 156.631 166.598 157.063 164.716L158.038 164.939C158.482 163.008 158.926 161.103 159.369 159.233L158.396 159.003C158.856 157.062 159.316 155.159 159.77 153.298L160.738 153.534C161.212 151.587 161.681 149.688 162.142 147.844L161.175 147.601C161.664 145.643 162.143 143.747 162.61 141.923L163.577 142.171C164.082 140.201 164.572 138.314 165.042 136.522L164.074 136.269C164.606 134.242 165.114 132.337 165.589 130.569L166.554 130.829C167.114 128.744 167.63 126.851 168.091 125.178L167.128 124.912C167.769 122.585 168.305 120.683 168.703 119.28L169.663 119.554C169.918 118.655 170.118 117.961 170.253 117.492C170.321 117.258 170.373 117.079 170.407 116.96C170.411 116.948 170.413 116.937 170.416 116.927C170.422 116.917 170.43 116.908 170.437 116.897C170.505 116.795 170.607 116.641 170.742 116.44C171.013 116.038 171.415 115.445 171.938 114.68L171.114 114.115C171.939 112.911 173.064 111.284 174.454 109.315L175.271 109.892C176.27 108.476 177.408 106.884 178.669 105.144L177.86 104.558C178.928 103.085 180.085 101.507 181.321 99.8408L182.122 100.436C183.231 98.942 184.405 97.3781 185.638 95.7568L184.842 95.1514C185.979 93.656 187.166 92.1119 188.398 90.5293L189.187 91.1436C190.352 89.6471 191.559 88.1162 192.802 86.5596L192.021 85.9355C193.166 84.5026 194.34 83.0471 195.544 81.5771L195.703 81.3838L196.477 82.0176C197.69 80.5374 198.932 79.0423 200.199 77.5391L199.435 76.8945C200.678 75.4196 201.945 73.9364 203.234 72.4521L203.989 73.1074C205.256 71.649 206.543 70.1891 207.849 68.7344L207.105 68.0684C208.4 66.6261 209.71 65.1877 211.037 63.7607L211.048 63.749L211.78 64.4297C213.103 63.0077 214.44 61.5965 215.789 60.2021L215.071 59.5078C216.43 58.1031 217.801 56.7149 219.183 55.3496L219.885 56.0605C221.273 54.6883 222.671 53.3397 224.075 52.0205L223.392 51.293C224.824 49.9479 226.262 48.6327 227.706 47.3545L228.367 48.1025C229.837 46.8016 231.31 45.5387 232.784 44.3223L232.148 43.5518C233.677 42.2902 235.207 41.0756 236.735 39.918L237.34 40.7158C238.91 39.5264 240.478 38.3973 242.038 37.3369L241.477 36.5107C243.116 35.3966 244.748 34.3554 246.371 33.3984L246.413 33.374L246.921 34.2354C247.339 33.989 247.756 33.7484 248.173 33.5137L249.42 32.8271C250.264 32.3732 251.12 31.9235 251.986 31.4785L251.53 30.5918C253.245 29.711 254.999 28.8468 256.786 28.002L257.213 28.9043C258.949 28.0836 260.719 27.2801 262.513 26.4932L262.111 25.5771C263.886 24.7986 265.686 24.0378 267.504 23.293L267.883 24.2168C269.674 23.4827 271.484 22.7656 273.306 22.0645L272.946 21.1318C274.765 20.4319 276.595 19.7478 278.431 19.0811L278.772 20.0205C280.603 19.3558 282.44 18.7077 284.276 18.0762L283.951 17.1318C285.804 16.4949 287.656 15.8733 289.502 15.2705L289.812 16.2217C291.677 15.6129 293.536 15.021 295.382 14.4473L295.085 13.4932C296.967 12.9083 298.837 12.3421 300.687 11.7939L300.971 12.752C302.864 12.191 304.737 11.6491 306.582 11.127L306.31 10.165C308.225 9.62323 310.11 9.10225 311.958 8.60254L312.219 9.56836C314.143 9.04801 316.028 8.55045 317.862 8.07617L317.612 7.1084C319.566 6.60333 321.464 6.12528 323.295 5.67285L323.535 6.6416C325.513 6.15282 327.414 5.69523 329.223 5.26855L328.993 4.29688C331.016 3.81971 332.925 3.38128 334.7 2.98242L334.92 3.95703C337.019 3.48554 338.931 3.06856 340.626 2.70801L340.418 1.73047C342.772 1.22974 344.707 0.836053 346.14 0.551758L346.334 1.53223C347.255 1.34957 347.968 1.21272 348.449 1.12109C348.669 1.07924 348.841 1.04614 348.963 1.02344L351.577 1.70996L351.83 0.742188L357.491 2.22754L357.239 3.19531L362.9 4.68066L363.153 3.71289L368.815 5.19824L368.562 6.16602L374.225 7.65137L374.477 6.68359L380.139 8.16895L379.886 9.13672L385.548 10.6221L385.801 9.6543L391.463 11.1387V11.1396L391.21 12.1074L396.871 13.5918L397.125 12.625L402.786 14.1104H402.787L402.533 15.0771L408.194 16.5625L408.448 15.5947L414.11 17.0801V17.0811L413.856 18.0479L419.519 19.5332L419.772 18.5664V18.5654L425.434 20.0508L425.18 21.0186L430.842 22.5039L431.096 21.5371V21.5361L436.758 23.0215V23.0225L436.504 23.9893L442.165 25.4746L442.418 24.5068L448.08 25.9922L447.827 26.96L453.489 28.4453L453.741 27.4775L459.403 28.9629L459.15 29.9307L464.812 31.416L465.065 30.4482L470.727 31.9336H470.728L470.475 32.9014L476.136 34.3867L476.389 33.4189L482.051 34.9043L481.798 35.8721L487.46 37.3564L487.713 36.3887L493.375 37.875L493.121 38.8418L498.783 40.3271L499.036 39.3604L504.698 40.8447L504.444 41.8125L510.106 43.2979L510.36 42.3311V42.3301L516.022 43.8154V43.8164L515.769 44.7832L521.43 46.2686L521.684 45.3008L527.346 46.7861V46.7871L527.092 47.7539L532.754 49.2393L533.008 48.2725V48.2715L538.668 49.7568L538.415 50.7246L540.537 51.2803C540.583 52.0515 540.651 52.8369 540.739 53.6357L541.733 53.5264L541.736 53.5254C541.951 55.4727 542.292 57.5098 542.749 59.627L542.746 59.6279L541.769 59.8389C542.191 61.7938 542.71 63.8121 543.317 65.8857L544.276 65.6045L544.277 65.6035C544.835 67.5066 545.469 69.4596 546.172 71.457L546.17 71.458L545.228 71.79C545.896 73.6886 546.626 75.6253 547.413 77.5947L548.342 77.2236V77.2227C549.087 79.0886 549.884 80.9857 550.729 82.9092V82.9102L549.813 83.3125C550.626 85.164 551.482 87.0396 552.377 88.9346L553.281 88.5068L553.282 88.5059C554.144 90.3309 555.042 92.1755 555.974 94.0352L555.08 94.4844C555.991 96.3018 556.932 98.1337 557.902 99.9766L558.787 99.5107V99.5098C559.734 101.309 560.708 103.119 561.705 104.937V104.938L560.828 105.419C561.811 107.211 562.818 109.01 563.844 110.814L564.713 110.32L564.714 110.319C565.724 112.096 566.754 113.876 567.801 115.659L567.8 115.66L566.938 116.166C567.975 117.933 569.028 119.701 570.095 121.469L570.951 120.952L570.952 120.95C572.011 122.704 573.083 124.456 574.166 126.205L574.164 126.207L573.313 126.733C574.396 128.482 575.489 130.227 576.59 131.966L577.434 131.431Z" stroke="#F0741C" stroke-width="2" stroke-dasharray="6 6"/>
</svg>
