<svg preserveAspectRatio="none" width="100%" height="100%" overflow="visible" style="display: block;" viewBox="0 0 40 40" fill="none" xmlns="http://www.w3.org/2000/svg">
<g id="icon.svg (5) 1" clip-path="url(#clip0_0_4)">
<path id="Vector" d="M17.509 23.7478L24.0147 20.0009L17.509 16.2539V23.7478Z" fill="var(--fill-0, #111111)"/>
<path id="Vector_2" d="M20.0002 0.000169754C8.95616 0.000169754 0.000169754 8.95616 0.000169754 20.0002C0.000169754 31.0442 8.95616 40.0002 20.0002 40.0002C31.0442 40.0002 40.0002 31.0442 40.0002 20.0002C40.0002 8.95616 31.0442 0.000169754 20.0002 0.000169754ZM32.4971 20.0206C32.4971 20.0206 32.4971 24.0767 31.9826 26.0326C31.6942 27.1031 30.8501 27.9473 29.7795 28.2353C27.8237 28.7502 20.0002 28.7502 20.0002 28.7502C20.0002 28.7502 12.1971 28.7502 10.2208 28.2149C9.15026 27.9268 8.30614 27.0824 8.01775 26.0118C7.50292 24.0767 7.50292 20.0002 7.50292 20.0002C7.50292 20.0002 7.50292 15.9444 8.01775 13.9885C8.30583 12.918 9.1707 12.0531 10.2208 11.765C12.1767 11.2502 20.0002 11.2502 20.0002 11.2502C20.0002 11.2502 27.8237 11.2502 29.7795 11.7854C30.8501 12.0735 31.6942 12.918 31.9826 13.9885C32.5179 15.9444 32.4971 20.0206 32.4971 20.0206Z" fill="var(--fill-0, #111111)"/>
</g>
<defs>
<clipPath id="clip0_0_4">
<rect width="40" height="40" fill="white"/>
</clipPath>
</defs>
</svg>
