<svg preserveAspectRatio="none" width="100%" height="100%" overflow="visible" style="display: block;" viewBox="0 0 40 40" fill="none" xmlns="http://www.w3.org/2000/svg">
<g id="icon.svg (6) 1" clip-path="url(#clip0_0_9)">
<path id="Vector" d="M20.0008 24.1016C22.266 24.1016 24.1024 22.2652 24.1024 20C24.1024 17.7348 22.266 15.8984 20.0008 15.8984C17.7356 15.8984 15.8992 17.7348 15.8992 20C15.8992 22.2652 17.7356 24.1016 20.0008 24.1016Z" fill="var(--fill-0, #111111)"/>
<path id="Vector_2" d="M20 0.46875C9.2132 0.46875 0.46875 9.2132 0.46875 20C0.46875 30.7868 9.2132 39.5313 20 39.5313C30.7868 39.5313 39.5313 30.7868 39.5313 20C39.5313 9.2132 30.7868 0.46875 20 0.46875ZM32.067 24.9641C31.9733 26.8209 31.4515 28.652 30.0983 29.9909C28.732 31.3424 26.8922 31.846 25.0174 31.9388H14.9827C13.1077 31.846 11.2681 31.3427 9.9018 29.9909C8.54852 28.652 8.0268 26.8209 7.93305 24.9641V15.0359C8.0268 13.1791 8.54859 11.348 9.9018 10.0091C11.2681 8.6575 13.1079 8.15391 14.9827 8.06117H25.0173C26.8923 8.15391 28.7319 8.65727 30.0982 10.0091C31.4515 11.348 31.9732 13.1791 32.067 15.0359L32.067 24.9641Z" fill="var(--fill-0, #111111)"/>
<path id="Vector_3" d="M24.8904 10.3237C22.4462 10.2567 17.554 10.2567 15.1098 10.3237C13.8378 10.3586 12.3959 10.6753 11.4896 11.6432C10.5479 12.6494 10.192 13.865 10.1559 15.225C10.0925 17.6118 10.1559 24.7759 10.1559 24.7759C10.1973 26.1357 10.5479 27.3514 11.4896 28.3576C12.3959 29.3259 13.8378 29.6422 15.1098 29.6772C17.554 29.7442 22.4462 29.7442 24.8904 29.6772C26.1623 29.6422 27.6043 29.3256 28.5105 28.3576C29.4523 27.3514 29.8081 26.1358 29.8442 24.7759V15.225C29.8081 13.865 29.4523 12.6494 28.5105 11.6432C27.604 10.675 26.162 10.3586 24.8904 10.3237ZM19.9998 26.3579C18.7424 26.3579 17.5132 25.985 16.4678 25.2864C15.4223 24.5879 14.6075 23.595 14.1263 22.4333C13.6451 21.2716 13.5192 19.9934 13.7645 18.7602C14.0098 17.5269 14.6153 16.3942 15.5044 15.5051C16.3935 14.616 17.5263 14.0105 18.7595 13.7652C19.9927 13.5199 21.271 13.6458 22.4326 14.1269C23.5943 14.6081 24.5872 15.423 25.2858 16.4684C25.9843 17.5139 26.3572 18.7431 26.3572 20.0004C26.3572 21.6865 25.6874 23.3036 24.4951 24.4958C23.3029 25.6881 21.6859 26.3579 19.9998 26.3579ZM26.3842 14.9553C26.1328 14.9552 25.887 14.8806 25.6779 14.7408C25.4689 14.6011 25.3059 14.4025 25.2097 14.1701C25.1136 13.9378 25.0884 13.6822 25.1375 13.4355C25.1866 13.1889 25.3077 12.9624 25.4856 12.7846C25.6634 12.6068 25.89 12.4857 26.1366 12.4367C26.3832 12.3877 26.6389 12.4129 26.8712 12.5091C27.1035 12.6054 27.3021 12.7683 27.4418 12.9774C27.5815 13.1865 27.656 13.4323 27.656 13.6838C27.656 13.8508 27.6231 14.0162 27.5592 14.1704C27.4953 14.3247 27.4016 14.4649 27.2835 14.583C27.1654 14.701 27.0252 14.7947 26.8709 14.8586C26.7166 14.9225 26.5512 14.9553 26.3842 14.9553Z" fill="var(--fill-0, #111111)"/>
</g>
<defs>
<clipPath id="clip0_0_9">
<rect width="40" height="40" fill="white"/>
</clipPath>
</defs>
</svg>
