<svg width="151" height="75" viewBox="0 0 151 75" fill="none" xmlns="http://www.w3.org/2000/svg" class="w-full h-full">
<path d="M34.2475 22.4867C37.7756 20.883 42.085 12.6958 48.253 8.37424C51.1652 5.99962 54.5093 4.31973 57.4119 3.16931M34.2475 22.4867C32.8759 23.3101 31.2477 24.0417 29.6147 24.6681M34.2475 22.4867C34.2475 22.4867 37.7561 22.8731 39.8783 23.5931C41.5469 24.1591 43.9765 25.4802 43.9765 25.4802M88.8797 48.4663C88.8797 48.4663 88.2847 52.0291 87.3829 54.1327C86.4743 56.252 84.2824 59.1576 84.2824 59.1576C84.2824 59.1576 82.4838 61.2346 80.4336 63.1753M88.8797 48.4663C88.8797 48.4663 82.9618 47.4925 78.9013 45.4821M88.8797 48.4663C88.8797 48.4663 90.2159 52.4019 90.4478 55.0253C90.7121 58.0145 89.8419 62.6857 89.8419 62.6857M74.9811 39.4857C74.9811 39.4857 74.3396 41.624 76.7986 44.1899C77.3908 44.6602 78.1109 45.0908 78.9013 45.4821M74.9811 39.4857C74.9811 39.4857 72.2785 42.7217 70.0631 44.1899C67.5491 45.856 63.4345 46.0074 62.9 47.0765M74.9811 39.4857C74.9811 39.4857 75.1312 35.0327 72.0589 26.052C69.2792 17.9267 63.5059 14.5055 63.5059 14.5055C63.5059 14.5055 69.4432 15.8071 73.0211 17.2852C77.7265 19.2291 84.2469 23.9138 84.2469 23.9138M62.9 47.0765C63.5414 48.1456 69.7423 49.4286 73.805 50.9253C75.7018 51.6241 77.8677 54.1327 77.8677 54.1327C77.8677 54.1327 79.6234 56.164 78.5092 57.6608C77.6804 58.7741 74.9811 58.0884 74.9811 58.0884C74.9811 58.0884 67.3981 54.2954 62.1516 53.1705C57.9713 52.2742 51.2465 52.2083 51.2465 52.2083C51.2465 52.2083 47.5397 51.9349 46.7562 50.1769M62.9 47.0765L46.7562 50.1769M62.9 47.0765C62.9 47.0765 66.0286 37.7055 62.9 32.146C58.5079 24.3414 43.9765 25.4802 43.9765 25.4802M43.9765 25.4802C43.9765 25.4802 36.2117 30.0993 30.7194 31.6811C25.4592 33.1961 22.2563 34.1462 16.8208 33.4986M43.9765 25.4802C43.9765 25.4802 52.1018 27.4046 52.7433 34.3539C53.3848 41.3032 48.6806 45.259 48.6806 45.259C48.6806 45.259 45.9166 48.2932 46.7562 50.1769M43.9765 25.4802C43.9765 25.4802 45.5802 17.6269 51.2465 13.864C53.572 12.3197 56.3428 12.5438 56.3428 12.5438M16.8208 33.4986C12.3632 32.9676 9.35895 32.7438 5.91572 29.8636M16.8208 33.4986L29.6147 24.6681M5.91572 29.8636C2.75757 27.2218 1.51822 24.7828 0.570101 20.7761C-0.170201 17.6476 -0.209611 15.6627 0.570101 12.5438C1.31847 9.55027 3.77747 8.26732 3.77747 8.26732C3.77747 8.26732 5.58116 6.98438 7.94703 7.83968C9.7017 8.47401 11.0475 11.4747 11.0475 11.4747C11.0475 11.4747 11.4135 13.0784 10.6198 14.1475C10.0518 14.9127 9.4161 15.5104 8.48161 15.3235C7.41247 15.1097 7.19865 14.4682 6.87791 13.8268C6.42978 12.9305 6.84774 11.9417 6.87791 10.9401C7.09214 8.98238 4.58285 12.5976 4.99889 17.2852M5.91572 29.8636C5.91572 29.8636 4.41147 25.9213 4.27649 23.2723C4.15664 20.9203 4.99889 17.2852 4.99889 17.2852M135.28 36.0645C138.646 35.8333 140.527 38.9538 143.726 37.882C144.806 37.52 146.292 36.4922 146.292 36.4922C146.292 36.4922 148.025 35.3996 148.751 34.3539C149.392 33.6055 149.927 32.3226 149.82 31.788C149.713 31.2535 148.392 30.5933 147.681 29.6498C147.018 28.7685 146.292 27.1908 146.292 27.1908C146.292 27.1908 146.233 26.1995 146.078 25.5871C146.009 25.3164 145.945 25.0882 145.872 24.876M135.28 36.0645C132.722 36.2402 131.242 36.6908 128.972 37.882C126.727 39.3788 124.783 41.84 122.236 44.5106C119.91 46.9495 116.463 50.9253 116.463 50.9253C116.463 50.9253 113.104 54.2917 110.227 55.9008M135.28 36.0645C135.28 36.0645 137.64 32.6411 137.917 30.1147C138.105 28.405 137.489 25.7313 137.489 25.7313M89.8419 62.6857C92.8354 60.4405 94.3322 58.7299 100.533 58.0884C104.182 57.711 106.348 57.8319 109.728 56.164C109.892 56.083 110.058 55.9949 110.227 55.9008M89.8419 62.6857C89.6903 62.7994 89.5357 62.9161 89.3787 63.0356M74.9811 73.9115C77.3982 73.0708 80.4336 70.2764 80.4336 70.2764C80.4336 70.2764 85.6222 65.8925 89.3787 63.0356M74.9811 73.9115C72.5675 74.7509 68.4594 74.446 68.4594 74.446C68.4594 74.446 65.8935 74.2834 65.8935 73.1631C65.8935 70.9179 67.711 70.2764 67.711 70.2764C67.711 70.2764 72.8428 69.01 77.8677 65.3585M74.9811 73.9115C74.9811 73.9115 75.5871 70.9547 76.2285 69.1377C76.764 67.6207 77.8677 65.3585 77.8677 65.3585M77.8677 65.3585C78.6929 64.7588 79.5848 63.9787 80.4336 63.1753M29.6147 24.6681C25.4252 26.2754 21.2042 27.1908 21.2042 27.1908C21.2042 27.1908 13.2926 28.6876 8.48161 24.518C6.13532 22.2106 5.20569 19.6154 4.99889 17.2852M57.4119 3.16931C61.4355 1.57457 64.6106 0.997288 64.6106 0.997288C64.6106 0.997288 72.5221 -0.820225 80.0059 2.49407C88.3451 6.18714 93.5838 12.33 93.5838 12.33C93.5838 12.33 100.306 20.1049 105.986 21.6314C112.4 23.3553 119.136 20.1346 119.136 20.1346C119.136 20.1346 122.148 18.5208 124.446 17.8759M57.4119 3.16931C57.4119 3.16931 67.4617 3.81428 74.1971 8.83916C80.9326 13.864 85.4229 22.0963 85.4229 22.0963M90.1271 25.8382C90.1271 25.8382 100.185 28.1411 105.986 27.4419C111.57 26.7688 114.781 25.6871 119.635 22.8447M119.635 22.8447C121.514 20.9042 124.446 17.8759 124.446 17.8759M119.635 22.8447C117.673 25.6003 114.61 29.9009 114.61 29.9009M124.446 17.8759C124.567 17.842 124.686 17.8107 124.802 17.7825C125.307 17.6602 125.887 17.5659 126.477 17.4931M145.872 24.876C145.744 24.5052 145.589 24.1834 145.329 23.7696C144.795 22.9161 143.077 22.3323 141.801 21.2037C140.518 20.0687 138.808 17.9963 138.808 17.9963C138.808 17.9963 137.525 12.6004 136.135 12.4369C134.317 12.2231 130.362 17.248 130.362 17.248C130.362 17.248 128.365 17.2602 126.477 17.4931M145.872 24.876L138.238 24.1276M135.28 24.4484C135.28 24.4484 129.017 24.9151 125.194 26.052C121.147 27.2558 115.358 30.5424 115.358 30.5424M113.327 33.1082C113.327 33.1082 110.826 39.9351 110.227 44.5106C109.649 48.9211 110.227 55.9008 110.227 55.9008M110.227 55.9008C110.227 55.9008 105.478 52.5932 102.743 50.1073C99.9885 47.6041 96.2211 43.158 96.2211 43.158M97.2902 40.1645L112.258 32.3599M88.2026 27.5488L94.0828 39.523M80.4336 63.1753L89.3787 63.0356M78.9013 45.4821C78.9013 45.4821 83.2994 44.8493 86.0644 44.1899C88.7328 43.5534 92.7999 42.1958 92.7999 42.1958M126.477 17.4931C126.477 17.4931 129.896 18.6291 131.823 19.8511C133.525 20.9305 135.779 23.1654 135.779 23.1654" stroke="#C2C2C2"/>
<circle cx="60.0852" cy="13.1157" r="3.84884" fill="#C2C2C2"/>
<circle cx="87.2406" cy="24.6621" r="3.20737" fill="#C2C2C2"/>
<circle cx="95.1518" cy="41.3405" r="2.5659" fill="#C2C2C2"/>
<circle cx="113.753" cy="31.2908" r="2.13825" fill="#C2C2C2"/>
<circle cx="136.847" cy="24.2345" r="1.7106" fill="#C2C2C2"/>
</svg>
