<svg preserveAspectRatio="none" width="100%" height="100%" overflow="visible" style="display: block;" viewBox="0 0 558.015 558.025" fill="none" xmlns="http://www.w3.org/2000/svg">
<g id="Linked Path Group">
<g id="[Linked] Ellipse 32">
</g>
<circle id="[Copy] Ellipse 33" cx="555.015" cy="279.016" r="3" transform="rotate(90 555.015 279.016)" fill="var(--fill-0, #10417F)" fill-opacity="0.8"/>
<circle id="[Copy] Ellipse 33_2" cx="554.482" cy="296.308" r="3" transform="rotate(93.537 554.482 296.308)" fill="var(--fill-0, #10417F)" fill-opacity="0.8"/>
<circle id="[Copy] Ellipse 33_3" cx="552.9" cy="313.349" r="3" transform="rotate(97.0655 552.9 313.349)" fill="var(--fill-0, #10417F)" fill-opacity="0.8"/>
<circle id="[Copy] Ellipse 33_4" cx="550.289" cy="330.141" r="3" transform="rotate(100.58 550.289 330.141)" fill="var(--fill-0, #10417F)" fill-opacity="0.8"/>
<circle id="[Copy] Ellipse 33_5" cx="546.467" cy="347.439" r="3" transform="rotate(104.293 546.467 347.439)" fill="var(--fill-0, #10417F)" fill-opacity="0.8"/>
<circle id="[Copy] Ellipse 33_6" cx="541.585" cy="364.302" r="3" transform="rotate(107.98 541.585 364.302)" fill="var(--fill-0, #10417F)" fill-opacity="0.8"/>
<circle id="[Copy] Ellipse 33_7" cx="535.913" cy="380.108" r="3" transform="rotate(111.427 535.913 380.108)" fill="var(--fill-0, #10417F)" fill-opacity="0.8"/>
<circle id="[Copy] Ellipse 33_8" cx="529.014" cy="396.115" r="3" transform="rotate(115.062 529.014 396.115)" fill="var(--fill-0, #10417F)" fill-opacity="0.8"/>
<circle id="[Copy] Ellipse 33_9" cx="521.139" cy="411.606" r="3" transform="rotate(118.671 521.139 411.606)" fill="var(--fill-0, #10417F)" fill-opacity="0.8"/>
<circle id="[Copy] Ellipse 33_10" cx="512.318" cy="426.546" r="3" transform="rotate(122.257 512.318 426.546)" fill="var(--fill-0, #10417F)" fill-opacity="0.8"/>
<circle id="[Copy] Ellipse 33_11" cx="502.337" cy="441.231" r="3" transform="rotate(126.033 502.337 441.231)" fill="var(--fill-0, #10417F)" fill-opacity="0.8"/>
<circle id="[Copy] Ellipse 33_12" cx="491.736" cy="454.883" r="3" transform="rotate(129.584 491.736 454.883)" fill="var(--fill-0, #10417F)" fill-opacity="0.8"/>
<circle id="[Copy] Ellipse 33_13" cx="480.3" cy="467.856" r="3" transform="rotate(133.126 480.3 467.856)" fill="var(--fill-0, #10417F)" fill-opacity="0.8"/>
<circle id="[Copy] Ellipse 33_14" cx="468.068" cy="480.1" r="3" transform="rotate(136.665 468.068 480.1)" fill="var(--fill-0, #10417F)" fill-opacity="0.8"/>
<circle id="[Copy] Ellipse 33_15" cx="455.085" cy="491.569" r="3" transform="rotate(140.207 455.085 491.569)" fill="var(--fill-0, #10417F)" fill-opacity="0.8"/>
<circle id="[Copy] Ellipse 33_16" cx="441.399" cy="502.215" r="3" transform="rotate(143.758 441.399 502.215)" fill="var(--fill-0, #10417F)" fill-opacity="0.8"/>
<circle id="[Copy] Ellipse 33_17" cx="426.926" cy="512.077" r="3" transform="rotate(147.533 426.926 512.077)" fill="var(--fill-0, #10417F)" fill-opacity="0.8"/>
<circle id="[Copy] Ellipse 33_18" cx="412.015" cy="520.914" r="3" transform="rotate(151.117 412.015 520.914)" fill="var(--fill-0, #10417F)" fill-opacity="0.8"/>
<circle id="[Copy] Ellipse 33_19" cx="396.569" cy="528.801" r="3" transform="rotate(154.725 396.569 528.801)" fill="var(--fill-0, #10417F)" fill-opacity="0.8"/>
<circle id="[Copy] Ellipse 33_20" cx="380.65" cy="535.7" r="3" transform="rotate(158.359 380.65 535.7)" fill="var(--fill-0, #10417F)" fill-opacity="0.8"/>
<circle id="[Copy] Ellipse 33_21" cx="364.373" cy="541.562" r="3" transform="rotate(161.804 364.373 541.562)" fill="var(--fill-0, #10417F)" fill-opacity="0.8"/>
<circle id="[Copy] Ellipse 33_22" cx="347.693" cy="546.402" r="3" transform="rotate(165.49 347.693 546.402)" fill="var(--fill-0, #10417F)" fill-opacity="0.8"/>
<circle id="[Copy] Ellipse 33_23" cx="330.749" cy="550.174" r="3" transform="rotate(169.201 330.749 550.174)" fill="var(--fill-0, #10417F)" fill-opacity="0.8"/>
<circle id="[Copy] Ellipse 33_24" cx="313.619" cy="552.867" r="3" transform="rotate(172.714 313.619 552.867)" fill="var(--fill-0, #10417F)" fill-opacity="0.8"/>
<circle id="[Copy] Ellipse 33_25" cx="296.349" cy="554.48" r="3" transform="rotate(176.242 296.349 554.48)" fill="var(--fill-0, #10417F)" fill-opacity="0.8"/>
<circle id="[Copy] Ellipse 33_26" cx="277.926" cy="555.014" r="3" transform="rotate(-179.779 277.926 555.014)" fill="var(--fill-0, #10417F)" fill-opacity="0.8"/>
<circle id="[Copy] Ellipse 33_27" cx="260.595" cy="554.41" r="3" transform="rotate(-176.242 260.595 554.41)" fill="var(--fill-0, #10417F)" fill-opacity="0.8"/>
<circle id="[Copy] Ellipse 33_28" cx="243.338" cy="552.731" r="3" transform="rotate(-172.714 243.338 552.731)" fill="var(--fill-0, #10417F)" fill-opacity="0.8"/>
<circle id="[Copy] Ellipse 33_29" cx="226.229" cy="549.973" r="3" transform="rotate(-169.201 226.229 549.973)" fill="var(--fill-0, #10417F)" fill-opacity="0.8"/>
<circle id="[Copy] Ellipse 33_30" cx="209.315" cy="546.139" r="3" transform="rotate(-165.49 209.315 546.139)" fill="var(--fill-0, #10417F)" fill-opacity="0.8"/>
<circle id="[Copy] Ellipse 33_31" cx="192.673" cy="541.241" r="3" transform="rotate(-161.804 192.673 541.241)" fill="var(--fill-0, #10417F)" fill-opacity="0.8"/>
<circle id="[Copy] Ellipse 33_32" cx="176.439" cy="535.325" r="3" transform="rotate(-158.359 176.439 535.325)" fill="var(--fill-0, #10417F)" fill-opacity="0.8"/>
<circle id="[Copy] Ellipse 33_33" cx="160.571" cy="528.38" r="3" transform="rotate(-154.725 160.571 528.38)" fill="var(--fill-0, #10417F)" fill-opacity="0.8"/>
<circle id="[Copy] Ellipse 33_34" cx="145.18" cy="520.453" r="3" transform="rotate(-151.117 145.18 520.453)" fill="var(--fill-0, #10417F)" fill-opacity="0.8"/>
<circle id="[Copy] Ellipse 33_35" cx="130.196" cy="511.497" r="3" transform="rotate(-147.322 130.196 511.497)" fill="var(--fill-0, #10417F)" fill-opacity="0.8"/>
<circle id="[Copy] Ellipse 33_36" cx="115.921" cy="501.697" r="3" transform="rotate(-143.758 115.921 501.697)" fill="var(--fill-0, #10417F)" fill-opacity="0.8"/>
<circle id="[Copy] Ellipse 33_37" cx="102.301" cy="491.034" r="3" transform="rotate(-140.207 102.301 491.034)" fill="var(--fill-0, #10417F)" fill-opacity="0.8"/>
<circle id="[Copy] Ellipse 33_38" cx="89.3851" cy="479.557" r="3" transform="rotate(-136.665 89.3851 479.557)" fill="var(--fill-0, #10417F)" fill-opacity="0.8"/>
<circle id="[Copy] Ellipse 33_39" cx="77.2208" cy="467.312" r="3" transform="rotate(-133.126 77.2208 467.312)" fill="var(--fill-0, #10417F)" fill-opacity="0.8"/>
<circle id="[Copy] Ellipse 33_40" cx="65.8512" cy="454.348" r="3" transform="rotate(-129.584 65.8512 454.348)" fill="var(--fill-0, #10417F)" fill-opacity="0.8"/>
<circle id="[Copy] Ellipse 33_41" cx="55.0718" cy="440.375" r="3" transform="rotate(-125.824 55.0718 440.375)" fill="var(--fill-0, #10417F)" fill-opacity="0.8"/>
<circle id="[Copy] Ellipse 33_42" cx="45.4009" cy="426.055" r="3" transform="rotate(-122.257 45.4009 426.055)" fill="var(--fill-0, #10417F)" fill-opacity="0.8"/>
<circle id="[Copy] Ellipse 33_43" cx="36.6395" cy="411.148" r="3" transform="rotate(-118.671 36.6395 411.148)" fill="var(--fill-0, #10417F)" fill-opacity="0.8"/>
<circle id="[Copy] Ellipse 33_44" cx="28.8193" cy="395.697" r="3" transform="rotate(-115.062 28.8193 395.697)" fill="var(--fill-0, #10417F)" fill-opacity="0.8"/>
<circle id="[Copy] Ellipse 33_45" cx="21.9702" cy="379.738" r="3" transform="rotate(-111.427 21.9702 379.738)" fill="var(--fill-0, #10417F)" fill-opacity="0.8"/>
<circle id="[Copy] Ellipse 33_46" cx="16.1217" cy="363.303" r="3" transform="rotate(-107.764 16.1217 363.303)" fill="var(--fill-0, #10417F)" fill-opacity="0.8"/>
<circle id="[Copy] Ellipse 33_47" cx="11.4961" cy="347.178" r="3" transform="rotate(-104.293 11.4961 347.178)" fill="var(--fill-0, #10417F)" fill-opacity="0.8"/>
<circle id="[Copy] Ellipse 33_48" cx="7.70398" cy="329.945" r="3" transform="rotate(-100.58 7.70398 329.945)" fill="var(--fill-0, #10417F)" fill-opacity="0.8"/>
<circle id="[Copy] Ellipse 33_49" cx="5.11304" cy="313.217" r="3" transform="rotate(-97.0655 5.11304 313.217)" fill="var(--fill-0, #10417F)" fill-opacity="0.8"/>
<circle id="[Copy] Ellipse 33_50" cx="3.54356" cy="296.241" r="3" transform="rotate(-93.537 3.54356 296.241)" fill="var(--fill-0, #10417F)" fill-opacity="0.8"/>
<circle id="[Copy] Ellipse 33_51" cx="3.02307" cy="276.84" r="3" transform="rotate(-89.5577 3.02307 276.84)" fill="var(--fill-0, #10417F)" fill-opacity="0.8"/>
<circle id="[Copy] Ellipse 33_52" cx="3.68774" cy="259.589" r="3" transform="rotate(-86.0214 3.68774 259.589)" fill="var(--fill-0, #10417F)" fill-opacity="0.8"/>
<circle id="[Copy] Ellipse 33_53" cx="5.38753" cy="242.661" r="3" transform="rotate(-82.4943 5.38753 242.661)" fill="var(--fill-0, #10417F)" fill-opacity="0.8"/>
<circle id="[Copy] Ellipse 33_54" cx="8.07804" cy="226.119" r="3" transform="rotate(-78.9823 8.07804 226.119)" fill="var(--fill-0, #10417F)" fill-opacity="0.8"/>
<circle id="[Copy] Ellipse 33_55" cx="12.0368" cy="208.757" r="3" transform="rotate(-75.2722 12.0368 208.757)" fill="var(--fill-0, #10417F)" fill-opacity="0.8"/>
<circle id="[Copy] Ellipse 33_56" cx="17.0702" cy="191.823" r="3" transform="rotate(-71.5876 17.0702 191.823)" fill="var(--fill-0, #10417F)" fill-opacity="0.8"/>
<circle id="[Copy] Ellipse 33_57" cx="23.1345" cy="175.374" r="3" transform="rotate(-67.93 23.1345 175.374)" fill="var(--fill-0, #10417F)" fill-opacity="0.8"/>
<circle id="[Copy] Ellipse 33_58" cx="29.553" cy="160.774" r="3" transform="rotate(-64.5124 29.553 160.774)" fill="var(--fill-0, #10417F)" fill-opacity="0.8"/>
<circle id="[Copy] Ellipse 33_59" cx="37.4351" cy="145.434" r="3" transform="rotate(-60.906 37.4351 145.434)" fill="var(--fill-0, #10417F)" fill-opacity="0.8"/>
<circle id="[Copy] Ellipse 33_60" cx="47.0549" cy="129.386" r="3" transform="rotate(-57.1123 47.0549 129.386)" fill="var(--fill-0, #10417F)" fill-opacity="0.8"/>
<circle id="[Copy] Ellipse 33_61" cx="56.7889" cy="115.303" r="3" transform="rotate(-53.5487 56.7889 115.303)" fill="var(--fill-0, #10417F)" fill-opacity="0.8"/>
<circle id="[Copy] Ellipse 33_62" cx="67.3337" cy="101.897" r="3" transform="rotate(-49.9988 67.3337 101.897)" fill="var(--fill-0, #10417F)" fill-opacity="0.8"/>
<circle id="[Copy] Ellipse 33_63" cx="78.6519" cy="89.1957" r="3" transform="rotate(-46.4572 78.6519 89.1957)" fill="var(--fill-0, #10417F)" fill-opacity="0.8"/>
<circle id="[Copy] Ellipse 33_64" cx="90.7092" cy="77.2275" r="3" transform="rotate(-42.9181 90.7092 77.2275)" fill="var(--fill-0, #10417F)" fill-opacity="0.8"/>
<circle id="[Copy] Ellipse 33_65" cx="103.475" cy="66.0197" r="3" transform="rotate(-39.3755 103.475 66.0197)" fill="var(--fill-0, #10417F)" fill-opacity="0.8"/>
<circle id="[Copy] Ellipse 33_66" cx="118.409" cy="54.5305" r="3" transform="rotate(-35.6142 118.409 54.5305)" fill="var(--fill-0, #10417F)" fill-opacity="0.8"/>
<circle id="[Copy] Ellipse 33_67" cx="132.612" cy="45.0015" r="3" transform="rotate(-32.0466 132.612 45.0015)" fill="var(--fill-0, #10417F)" fill-opacity="0.8"/>
<circle id="[Copy] Ellipse 33_68" cx="147.45" cy="36.3305" r="3" transform="rotate(-28.4593 147.45 36.3305)" fill="var(--fill-0, #10417F)" fill-opacity="0.8"/>
<circle id="[Copy] Ellipse 33_69" cx="162.908" cy="28.5519" r="3" transform="rotate(-24.8486 162.908 28.5519)" fill="var(--fill-0, #10417F)" fill-opacity="0.8"/>
<circle id="[Copy] Ellipse 33_70" cx="178.974" cy="21.7043" r="3" transform="rotate(-21.2119 178.974 21.7043)" fill="var(--fill-0, #10417F)" fill-opacity="0.8"/>
<circle id="[Copy] Ellipse 33_71" cx="195.641" cy="15.8317" r="3" transform="rotate(-17.5479 195.641 15.8317)" fill="var(--fill-0, #10417F)" fill-opacity="0.8"/>
<circle id="[Copy] Ellipse 33_72" cx="210.91" cy="11.4794" r="3" transform="rotate(-14.0748 210.91 11.4794)" fill="var(--fill-0, #10417F)" fill-opacity="0.8"/>
<circle id="[Copy] Ellipse 33_73" cx="228.697" cy="7.5906" r="3" transform="rotate(-10.3605 228.697 7.5906)" fill="var(--fill-0, #10417F)" fill-opacity="0.8"/>
<circle id="[Copy] Ellipse 33_74" cx="244.972" cy="5.09162" r="3" transform="rotate(-6.84535 244.972 5.09162)" fill="var(--fill-0, #10417F)" fill-opacity="0.8"/>
<circle id="[Copy] Ellipse 33_75" cx="261.741" cy="3.54338" r="3" transform="rotate(-3.31609 261.741 3.54338)" fill="var(--fill-0, #10417F)" fill-opacity="0.8"/>
<circle id="[Copy] Ellipse 33_76" cx="282.272" cy="3.03451" r="3" transform="rotate(0.663504 282.272 3.03451)" fill="var(--fill-0, #10417F)" fill-opacity="0.8"/>
<circle id="[Copy] Ellipse 33_77" cx="299.425" cy="3.7585" r="3" transform="rotate(4.19941 299.425 3.7585)" fill="var(--fill-0, #10417F)" fill-opacity="0.8"/>
<circle id="[Copy] Ellipse 33_78" cx="316.084" cy="5.4826" r="3" transform="rotate(7.72568 316.084 5.4826)" fill="var(--fill-0, #10417F)" fill-opacity="0.8"/>
<circle id="[Copy] Ellipse 33_79" cx="332.26" cy="8.14423" r="3" transform="rotate(11.2366 332.26 8.14423)" fill="var(--fill-0, #10417F)" fill-opacity="0.8"/>
<circle id="[Copy] Ellipse 33_80" cx="349.946" cy="12.2142" r="3" transform="rotate(14.9452 349.946 12.2142)" fill="var(--fill-0, #10417F)" fill-opacity="0.8"/>
<circle id="[Copy] Ellipse 33_81" cx="367.044" cy="17.351" r="3" transform="rotate(18.6284 367.044 17.351)" fill="var(--fill-0, #10417F)" fill-opacity="0.8"/>
<circle id="[Copy] Ellipse 33_82" cx="383.549" cy="23.4992" r="3" transform="rotate(22.2843 383.549 23.4992)" fill="var(--fill-0, #10417F)" fill-opacity="0.8"/>
<circle id="[Copy] Ellipse 33_83" cx="399.454" cy="30.6106" r="3" transform="rotate(25.9132 399.454 30.6106)" fill="var(--fill-0, #10417F)" fill-opacity="0.8"/>
<circle id="[Copy] Ellipse 33_84" cx="414.749" cy="38.6434" r="3" transform="rotate(29.5167 414.749 38.6434)" fill="var(--fill-0, #10417F)" fill-opacity="0.8"/>
<circle id="[Copy] Ellipse 33_85" cx="429.421" cy="47.5598" r="3" transform="rotate(33.0978 429.421 47.5598)" fill="var(--fill-0, #10417F)" fill-opacity="0.8"/>
<circle id="[Copy] Ellipse 33_86" cx="443.453" cy="57.3273" r="3" transform="rotate(36.6605 443.453 57.3273)" fill="var(--fill-0, #10417F)" fill-opacity="0.8"/>
<circle id="[Copy] Ellipse 33_87" cx="456.825" cy="67.9154" r="3" transform="rotate(40.2097 456.825 67.9154)" fill="var(--fill-0, #10417F)" fill-opacity="0.8"/>
<circle id="[Copy] Ellipse 33_88" cx="469.511" cy="79.2953" r="3" transform="rotate(43.751 469.511 79.2953)" fill="var(--fill-0, #10417F)" fill-opacity="0.8"/>
<circle id="[Copy] Ellipse 33_89" cx="481.481" cy="91.4396" r="3" transform="rotate(47.2901 481.481 91.4396)" fill="var(--fill-0, #10417F)" fill-opacity="0.8"/>
<circle id="[Copy] Ellipse 33_90" cx="493.743" cy="105.6" r="3" transform="rotate(51.0418 493.743 105.6)" fill="var(--fill-0, #10417F)" fill-opacity="0.8"/>
<circle id="[Copy] Ellipse 33_91" cx="504.074" cy="119.214" r="3" transform="rotate(54.5952 504.074 119.214)" fill="var(--fill-0, #10417F)" fill-opacity="0.8"/>
<circle id="[Copy] Ellipse 33_92" cx="513.582" cy="133.499" r="3" transform="rotate(58.1638 513.582 133.499)" fill="var(--fill-0, #10417F)" fill-opacity="0.8"/>
<circle id="[Copy] Ellipse 33_93" cx="522.225" cy="148.422" r="3" transform="rotate(61.7524 522.225 148.422)" fill="var(--fill-0, #10417F)" fill-opacity="0.8"/>
<circle id="[Copy] Ellipse 33_94" cx="529.959" cy="163.95" r="3" transform="rotate(65.3646 529.959 163.95)" fill="var(--fill-0, #10417F)" fill-opacity="0.8"/>
<circle id="[Copy] Ellipse 33_95" cx="536.739" cy="180.044" r="3" transform="rotate(69.0029 536.739 180.044)" fill="var(--fill-0, #10417F)" fill-opacity="0.8"/>
<circle id="[Copy] Ellipse 33_96" cx="542.518" cy="196.659" r="3" transform="rotate(72.6685 542.518 196.659)" fill="var(--fill-0, #10417F)" fill-opacity="0.8"/>
<circle id="[Copy] Ellipse 33_97" cx="546.944" cy="212.489" r="3" transform="rotate(76.143 546.944 212.489)" fill="var(--fill-0, #10417F)" fill-opacity="0.8"/>
<circle id="[Copy] Ellipse 33_98" cx="550.68" cy="230.023" r="3" transform="rotate(79.8586 550.68 230.023)" fill="var(--fill-0, #10417F)" fill-opacity="0.8"/>
<circle id="[Copy] Ellipse 33_99" cx="553.147" cy="246.732" r="3" transform="rotate(83.3749 553.147 246.732)" fill="var(--fill-0, #10417F)" fill-opacity="0.8"/>
<circle id="[Copy] Ellipse 33_100" cx="554.603" cy="263.814" r="3" transform="rotate(86.9048 554.603 263.814)" fill="var(--fill-0, #10417F)" fill-opacity="0.8"/>
</g>
</svg>
