<svg preserveAspectRatio="none" width="100%" height="100%" overflow="visible" style="display: block;" viewBox="0 0 634.989 635" fill="none" xmlns="http://www.w3.org/2000/svg">
<g id="Linked Path Group">
<g id="[Linked] Ellipse 32">
</g>
<circle id="[Copy] Ellipse 33" cx="631.575" cy="317.504" r="3.41383" transform="rotate(90 631.575 317.504)" fill="var(--fill-0, #10417F)" fill-opacity="0.8"/>
<circle id="[Copy] Ellipse 33_2" cx="630.968" cy="337.182" r="3.41383" transform="rotate(93.537 630.968 337.182)" fill="var(--fill-0, #10417F)" fill-opacity="0.8"/>
<circle id="[Copy] Ellipse 33_3" cx="629.168" cy="356.574" r="3.41383" transform="rotate(97.0655 629.168 356.574)" fill="var(--fill-0, #10417F)" fill-opacity="0.8"/>
<circle id="[Copy] Ellipse 33_4" cx="626.197" cy="375.682" r="3.41383" transform="rotate(100.58 626.197 375.682)" fill="var(--fill-0, #10417F)" fill-opacity="0.8"/>
<circle id="[Copy] Ellipse 33_5" cx="621.849" cy="395.366" r="3.41383" transform="rotate(104.293 621.849 395.366)" fill="var(--fill-0, #10417F)" fill-opacity="0.8"/>
<circle id="[Copy] Ellipse 33_6" cx="616.294" cy="414.555" r="3.41383" transform="rotate(107.98 616.294 414.555)" fill="var(--fill-0, #10417F)" fill-opacity="0.8"/>
<circle id="[Copy] Ellipse 33_7" cx="609.839" cy="432.541" r="3.41383" transform="rotate(111.427 609.839 432.541)" fill="var(--fill-0, #10417F)" fill-opacity="0.8"/>
<circle id="[Copy] Ellipse 33_8" cx="601.988" cy="450.756" r="3.41383" transform="rotate(115.062 601.988 450.756)" fill="var(--fill-0, #10417F)" fill-opacity="0.8"/>
<circle id="[Copy] Ellipse 33_9" cx="593.026" cy="468.384" r="3.41383" transform="rotate(118.671 593.026 468.384)" fill="var(--fill-0, #10417F)" fill-opacity="0.8"/>
<circle id="[Copy] Ellipse 33_10" cx="582.989" cy="485.384" r="3.41383" transform="rotate(122.257 582.989 485.384)" fill="var(--fill-0, #10417F)" fill-opacity="0.8"/>
<circle id="[Copy] Ellipse 33_11" cx="571.632" cy="502.096" r="3.41383" transform="rotate(126.033 571.632 502.096)" fill="var(--fill-0, #10417F)" fill-opacity="0.8"/>
<circle id="[Copy] Ellipse 33_12" cx="559.568" cy="517.63" r="3.41383" transform="rotate(129.584 559.568 517.63)" fill="var(--fill-0, #10417F)" fill-opacity="0.8"/>
<circle id="[Copy] Ellipse 33_13" cx="546.554" cy="532.393" r="3.41383" transform="rotate(133.126 546.554 532.393)" fill="var(--fill-0, #10417F)" fill-opacity="0.8"/>
<circle id="[Copy] Ellipse 33_14" cx="532.635" cy="546.327" r="3.41383" transform="rotate(136.665 532.635 546.327)" fill="var(--fill-0, #10417F)" fill-opacity="0.8"/>
<circle id="[Copy] Ellipse 33_15" cx="517.861" cy="559.377" r="3.41383" transform="rotate(140.207 517.861 559.377)" fill="var(--fill-0, #10417F)" fill-opacity="0.8"/>
<circle id="[Copy] Ellipse 33_16" cx="502.287" cy="571.492" r="3.41383" transform="rotate(143.758 502.287 571.492)" fill="var(--fill-0, #10417F)" fill-opacity="0.8"/>
<circle id="[Copy] Ellipse 33_17" cx="485.817" cy="582.714" r="3.41383" transform="rotate(147.533 485.817 582.714)" fill="var(--fill-0, #10417F)" fill-opacity="0.8"/>
<circle id="[Copy] Ellipse 33_18" cx="468.85" cy="592.771" r="3.41383" transform="rotate(151.117 468.85 592.771)" fill="var(--fill-0, #10417F)" fill-opacity="0.8"/>
<circle id="[Copy] Ellipse 33_19" cx="451.273" cy="601.746" r="3.41383" transform="rotate(154.725 451.273 601.746)" fill="var(--fill-0, #10417F)" fill-opacity="0.8"/>
<circle id="[Copy] Ellipse 33_20" cx="433.159" cy="609.596" r="3.41383" transform="rotate(158.359 433.159 609.596)" fill="var(--fill-0, #10417F)" fill-opacity="0.8"/>
<circle id="[Copy] Ellipse 33_21" cx="414.636" cy="616.267" r="3.41383" transform="rotate(161.804 414.636 616.267)" fill="var(--fill-0, #10417F)" fill-opacity="0.8"/>
<circle id="[Copy] Ellipse 33_22" cx="395.656" cy="621.774" r="3.41383" transform="rotate(165.49 395.656 621.774)" fill="var(--fill-0, #10417F)" fill-opacity="0.8"/>
<circle id="[Copy] Ellipse 33_23" cx="376.374" cy="626.066" r="3.41383" transform="rotate(169.201 376.374 626.066)" fill="var(--fill-0, #10417F)" fill-opacity="0.8"/>
<circle id="[Copy] Ellipse 33_24" cx="356.881" cy="629.131" r="3.41383" transform="rotate(172.714 356.881 629.131)" fill="var(--fill-0, #10417F)" fill-opacity="0.8"/>
<circle id="[Copy] Ellipse 33_25" cx="337.229" cy="630.966" r="3.41383" transform="rotate(176.242 337.229 630.966)" fill="var(--fill-0, #10417F)" fill-opacity="0.8"/>
<circle id="[Copy] Ellipse 33_26" cx="316.263" cy="631.573" r="3.41383" transform="rotate(-179.779 316.263 631.573)" fill="var(--fill-0, #10417F)" fill-opacity="0.8"/>
<circle id="[Copy] Ellipse 33_27" cx="296.543" cy="630.887" r="3.41383" transform="rotate(-176.242 296.543 630.887)" fill="var(--fill-0, #10417F)" fill-opacity="0.8"/>
<circle id="[Copy] Ellipse 33_28" cx="276.905" cy="628.977" r="3.41383" transform="rotate(-172.714 276.905 628.977)" fill="var(--fill-0, #10417F)" fill-opacity="0.8"/>
<circle id="[Copy] Ellipse 33_29" cx="257.436" cy="625.838" r="3.41383" transform="rotate(-169.201 257.436 625.838)" fill="var(--fill-0, #10417F)" fill-opacity="0.8"/>
<circle id="[Copy] Ellipse 33_30" cx="238.189" cy="621.475" r="3.41383" transform="rotate(-165.49 238.189 621.475)" fill="var(--fill-0, #10417F)" fill-opacity="0.8"/>
<circle id="[Copy] Ellipse 33_31" cx="219.251" cy="615.901" r="3.41383" transform="rotate(-161.804 219.251 615.901)" fill="var(--fill-0, #10417F)" fill-opacity="0.8"/>
<circle id="[Copy] Ellipse 33_32" cx="200.778" cy="609.169" r="3.41383" transform="rotate(-158.359 200.778 609.169)" fill="var(--fill-0, #10417F)" fill-opacity="0.8"/>
<circle id="[Copy] Ellipse 33_33" cx="182.721" cy="601.266" r="3.41383" transform="rotate(-154.725 182.721 601.266)" fill="var(--fill-0, #10417F)" fill-opacity="0.8"/>
<circle id="[Copy] Ellipse 33_34" cx="165.206" cy="592.245" r="3.41383" transform="rotate(-151.117 165.206 592.245)" fill="var(--fill-0, #10417F)" fill-opacity="0.8"/>
<circle id="[Copy] Ellipse 33_35" cx="148.156" cy="582.054" r="3.41383" transform="rotate(-147.322 148.156 582.054)" fill="var(--fill-0, #10417F)" fill-opacity="0.8"/>
<circle id="[Copy] Ellipse 33_36" cx="131.912" cy="570.902" r="3.41383" transform="rotate(-143.758 131.912 570.902)" fill="var(--fill-0, #10417F)" fill-opacity="0.8"/>
<circle id="[Copy] Ellipse 33_37" cx="116.412" cy="558.768" r="3.41383" transform="rotate(-140.207 116.412 558.768)" fill="var(--fill-0, #10417F)" fill-opacity="0.8"/>
<circle id="[Copy] Ellipse 33_38" cx="101.716" cy="545.708" r="3.41383" transform="rotate(-136.665 101.716 545.708)" fill="var(--fill-0, #10417F)" fill-opacity="0.8"/>
<circle id="[Copy] Ellipse 33_39" cx="87.8729" cy="531.775" r="3.41383" transform="rotate(-133.126 87.8729 531.775)" fill="var(--fill-0, #10417F)" fill-opacity="0.8"/>
<circle id="[Copy] Ellipse 33_40" cx="74.9352" cy="517.021" r="3.41383" transform="rotate(-129.584 74.9352 517.021)" fill="var(--fill-0, #10417F)" fill-opacity="0.8"/>
<circle id="[Copy] Ellipse 33_41" cx="62.6688" cy="501.122" r="3.41383" transform="rotate(-125.824 62.6688 501.122)" fill="var(--fill-0, #10417F)" fill-opacity="0.8"/>
<circle id="[Copy] Ellipse 33_42" cx="51.6633" cy="484.825" r="3.41383" transform="rotate(-122.257 51.6633 484.825)" fill="var(--fill-0, #10417F)" fill-opacity="0.8"/>
<circle id="[Copy] Ellipse 33_43" cx="41.6931" cy="467.863" r="3.41383" transform="rotate(-118.671 41.6931 467.863)" fill="var(--fill-0, #10417F)" fill-opacity="0.8"/>
<circle id="[Copy] Ellipse 33_44" cx="32.7941" cy="450.28" r="3.41383" transform="rotate(-115.062 32.7941 450.28)" fill="var(--fill-0, #10417F)" fill-opacity="0.8"/>
<circle id="[Copy] Ellipse 33_45" cx="25.0004" cy="432.119" r="3.41383" transform="rotate(-111.427 25.0004 432.119)" fill="var(--fill-0, #10417F)" fill-opacity="0.8"/>
<circle id="[Copy] Ellipse 33_46" cx="18.3452" cy="413.418" r="3.41383" transform="rotate(-107.764 18.3452 413.418)" fill="var(--fill-0, #10417F)" fill-opacity="0.8"/>
<circle id="[Copy] Ellipse 33_47" cx="13.0809" cy="395.069" r="3.41383" transform="rotate(-104.293 13.0809 395.069)" fill="var(--fill-0, #10417F)" fill-opacity="0.8"/>
<circle id="[Copy] Ellipse 33_48" cx="8.76661" cy="375.458" r="3.41383" transform="rotate(-100.58 8.76661 375.458)" fill="var(--fill-0, #10417F)" fill-opacity="0.8"/>
<circle id="[Copy] Ellipse 33_49" cx="5.81833" cy="356.422" r="3.41383" transform="rotate(-97.0655 5.81833 356.422)" fill="var(--fill-0, #10417F)" fill-opacity="0.8"/>
<circle id="[Copy] Ellipse 33_50" cx="4.03217" cy="337.105" r="3.41383" transform="rotate(-93.537 4.03217 337.105)" fill="var(--fill-0, #10417F)" fill-opacity="0.8"/>
<circle id="[Copy] Ellipse 33_51" cx="3.44008" cy="315.027" r="3.41383" transform="rotate(-89.5577 3.44008 315.027)" fill="var(--fill-0, #10417F)" fill-opacity="0.8"/>
<circle id="[Copy] Ellipse 33_52" cx="4.19667" cy="295.397" r="3.41383" transform="rotate(-86.0214 4.19667 295.397)" fill="var(--fill-0, #10417F)" fill-opacity="0.8"/>
<circle id="[Copy] Ellipse 33_53" cx="6.13056" cy="276.134" r="3.41383" transform="rotate(-82.4943 6.13056 276.134)" fill="var(--fill-0, #10417F)" fill-opacity="0.8"/>
<circle id="[Copy] Ellipse 33_54" cx="9.19156" cy="257.311" r="3.41383" transform="rotate(-78.9823 9.19156 257.311)" fill="var(--fill-0, #10417F)" fill-opacity="0.8"/>
<circle id="[Copy] Ellipse 33_55" cx="13.6974" cy="237.553" r="3.41383" transform="rotate(-75.2722 13.6974 237.553)" fill="var(--fill-0, #10417F)" fill-opacity="0.8"/>
<circle id="[Copy] Ellipse 33_56" cx="19.4253" cy="218.283" r="3.41383" transform="rotate(-71.5876 19.4253 218.283)" fill="var(--fill-0, #10417F)" fill-opacity="0.8"/>
<circle id="[Copy] Ellipse 33_57" cx="26.3265" cy="199.565" r="3.41383" transform="rotate(-67.93 26.3265 199.565)" fill="var(--fill-0, #10417F)" fill-opacity="0.8"/>
<circle id="[Copy] Ellipse 33_58" cx="33.629" cy="182.951" r="3.41383" transform="rotate(-64.5124 33.629 182.951)" fill="var(--fill-0, #10417F)" fill-opacity="0.8"/>
<circle id="[Copy] Ellipse 33_59" cx="42.5981" cy="165.495" r="3.41383" transform="rotate(-60.906 42.5981 165.495)" fill="var(--fill-0, #10417F)" fill-opacity="0.8"/>
<circle id="[Copy] Ellipse 33_60" cx="53.5454" cy="147.234" r="3.41383" transform="rotate(-57.1123 53.5454 147.234)" fill="var(--fill-0, #10417F)" fill-opacity="0.8"/>
<circle id="[Copy] Ellipse 33_61" cx="64.6226" cy="131.208" r="3.41383" transform="rotate(-53.5487 64.6226 131.208)" fill="var(--fill-0, #10417F)" fill-opacity="0.8"/>
<circle id="[Copy] Ellipse 33_62" cx="76.6223" cy="115.953" r="3.41383" transform="rotate(-49.9988 76.6223 115.953)" fill="var(--fill-0, #10417F)" fill-opacity="0.8"/>
<circle id="[Copy] Ellipse 33_63" cx="89.5019" cy="101.5" r="3.41383" transform="rotate(-46.4572 89.5019 101.5)" fill="var(--fill-0, #10417F)" fill-opacity="0.8"/>
<circle id="[Copy] Ellipse 33_64" cx="103.222" cy="87.8806" r="3.41383" transform="rotate(-42.9181 103.222 87.8806)" fill="var(--fill-0, #10417F)" fill-opacity="0.8"/>
<circle id="[Copy] Ellipse 33_65" cx="117.749" cy="75.1262" r="3.41383" transform="rotate(-39.3755 117.749 75.1262)" fill="var(--fill-0, #10417F)" fill-opacity="0.8"/>
<circle id="[Copy] Ellipse 33_66" cx="134.743" cy="62.0513" r="3.41383" transform="rotate(-35.6142 134.743 62.0513)" fill="var(--fill-0, #10417F)" fill-opacity="0.8"/>
<circle id="[Copy] Ellipse 33_67" cx="150.904" cy="51.2081" r="3.41383" transform="rotate(-32.0466 150.904 51.2081)" fill="var(--fill-0, #10417F)" fill-opacity="0.8"/>
<circle id="[Copy] Ellipse 33_68" cx="167.79" cy="41.3414" r="3.41383" transform="rotate(-28.4593 167.79 41.3414)" fill="var(--fill-0, #10417F)" fill-opacity="0.8"/>
<circle id="[Copy] Ellipse 33_69" cx="185.38" cy="32.4901" r="3.41383" transform="rotate(-24.8486 185.38 32.4901)" fill="var(--fill-0, #10417F)" fill-opacity="0.8"/>
<circle id="[Copy] Ellipse 33_70" cx="203.662" cy="24.6979" r="3.41383" transform="rotate(-21.2119 203.662 24.6979)" fill="var(--fill-0, #10417F)" fill-opacity="0.8"/>
<circle id="[Copy] Ellipse 33_71" cx="222.628" cy="18.0155" r="3.41383" transform="rotate(-17.5479 222.628 18.0155)" fill="var(--fill-0, #10417F)" fill-opacity="0.8"/>
<circle id="[Copy] Ellipse 33_72" cx="240.003" cy="13.0628" r="3.41383" transform="rotate(-14.0748 240.003 13.0628)" fill="var(--fill-0, #10417F)" fill-opacity="0.8"/>
<circle id="[Copy] Ellipse 33_73" cx="260.244" cy="8.63723" r="3.41383" transform="rotate(-10.3605 260.244 8.63723)" fill="var(--fill-0, #10417F)" fill-opacity="0.8"/>
<circle id="[Copy] Ellipse 33_74" cx="278.764" cy="5.79402" r="3.41383" transform="rotate(-6.84535 278.764 5.79402)" fill="var(--fill-0, #10417F)" fill-opacity="0.8"/>
<circle id="[Copy] Ellipse 33_75" cx="297.846" cy="4.03213" r="3.41383" transform="rotate(-3.31609 297.846 4.03213)" fill="var(--fill-0, #10417F)" fill-opacity="0.8"/>
<circle id="[Copy] Ellipse 33_76" cx="321.21" cy="3.45313" r="3.41383" transform="rotate(0.663504 321.21 3.45313)" fill="var(--fill-0, #10417F)" fill-opacity="0.8"/>
<circle id="[Copy] Ellipse 33_77" cx="340.729" cy="4.27675" r="3.41383" transform="rotate(4.19941 340.729 4.27675)" fill="var(--fill-0, #10417F)" fill-opacity="0.8"/>
<circle id="[Copy] Ellipse 33_78" cx="359.685" cy="6.23845" r="3.41383" transform="rotate(7.72568 359.685 6.23845)" fill="var(--fill-0, #10417F)" fill-opacity="0.8"/>
<circle id="[Copy] Ellipse 33_79" cx="378.093" cy="9.26757" r="3.41383" transform="rotate(11.2366 378.093 9.26757)" fill="var(--fill-0, #10417F)" fill-opacity="0.8"/>
<circle id="[Copy] Ellipse 33_80" cx="398.219" cy="13.8991" r="3.41383" transform="rotate(14.9452 398.219 13.8991)" fill="var(--fill-0, #10417F)" fill-opacity="0.8"/>
<circle id="[Copy] Ellipse 33_81" cx="417.676" cy="19.7444" r="3.41383" transform="rotate(18.6284 417.676 19.7444)" fill="var(--fill-0, #10417F)" fill-opacity="0.8"/>
<circle id="[Copy] Ellipse 33_82" cx="436.457" cy="26.7393" r="3.41383" transform="rotate(22.2843 436.457 26.7393)" fill="var(--fill-0, #10417F)" fill-opacity="0.8"/>
<circle id="[Copy] Ellipse 33_83" cx="454.556" cy="34.832" r="3.41383" transform="rotate(25.9132 454.556 34.832)" fill="var(--fill-0, #10417F)" fill-opacity="0.8"/>
<circle id="[Copy] Ellipse 33_84" cx="471.96" cy="43.9736" r="3.41383" transform="rotate(29.5167 471.96 43.9736)" fill="var(--fill-0, #10417F)" fill-opacity="0.8"/>
<circle id="[Copy] Ellipse 33_85" cx="488.657" cy="54.1203" r="3.41383" transform="rotate(33.0978 488.657 54.1203)" fill="var(--fill-0, #10417F)" fill-opacity="0.8"/>
<circle id="[Copy] Ellipse 33_86" cx="504.624" cy="65.2342" r="3.41383" transform="rotate(36.6605 504.624 65.2342)" fill="var(--fill-0, #10417F)" fill-opacity="0.8"/>
<circle id="[Copy] Ellipse 33_87" cx="519.841" cy="77.2837" r="3.41383" transform="rotate(40.2097 519.841 77.2837)" fill="var(--fill-0, #10417F)" fill-opacity="0.8"/>
<circle id="[Copy] Ellipse 33_88" cx="534.276" cy="90.2339" r="3.41383" transform="rotate(43.751 534.276 90.2339)" fill="var(--fill-0, #10417F)" fill-opacity="0.8"/>
<circle id="[Copy] Ellipse 33_89" cx="547.899" cy="104.053" r="3.41383" transform="rotate(47.2901 547.899 104.053)" fill="var(--fill-0, #10417F)" fill-opacity="0.8"/>
<circle id="[Copy] Ellipse 33_90" cx="561.852" cy="120.167" r="3.41383" transform="rotate(51.0418 561.852 120.167)" fill="var(--fill-0, #10417F)" fill-opacity="0.8"/>
<circle id="[Copy] Ellipse 33_91" cx="573.607" cy="135.66" r="3.41383" transform="rotate(54.5952 573.607 135.66)" fill="var(--fill-0, #10417F)" fill-opacity="0.8"/>
<circle id="[Copy] Ellipse 33_92" cx="584.427" cy="151.913" r="3.41383" transform="rotate(58.1638 584.427 151.913)" fill="var(--fill-0, #10417F)" fill-opacity="0.8"/>
<circle id="[Copy] Ellipse 33_93" cx="594.263" cy="168.895" r="3.41383" transform="rotate(61.7524 594.263 168.895)" fill="var(--fill-0, #10417F)" fill-opacity="0.8"/>
<circle id="[Copy] Ellipse 33_94" cx="603.063" cy="186.566" r="3.41383" transform="rotate(65.3646 603.063 186.566)" fill="var(--fill-0, #10417F)" fill-opacity="0.8"/>
<circle id="[Copy] Ellipse 33_95" cx="610.779" cy="204.879" r="3.41383" transform="rotate(69.0029 610.779 204.879)" fill="var(--fill-0, #10417F)" fill-opacity="0.8"/>
<circle id="[Copy] Ellipse 33_96" cx="617.355" cy="223.786" r="3.41383" transform="rotate(72.6685 617.355 223.786)" fill="var(--fill-0, #10417F)" fill-opacity="0.8"/>
<circle id="[Copy] Ellipse 33_97" cx="622.392" cy="241.799" r="3.41383" transform="rotate(76.143 622.392 241.799)" fill="var(--fill-0, #10417F)" fill-opacity="0.8"/>
<circle id="[Copy] Ellipse 33_98" cx="626.641" cy="261.753" r="3.41383" transform="rotate(79.8586 626.641 261.753)" fill="var(--fill-0, #10417F)" fill-opacity="0.8"/>
<circle id="[Copy] Ellipse 33_99" cx="629.45" cy="280.767" r="3.41383" transform="rotate(83.3749 629.45 280.767)" fill="var(--fill-0, #10417F)" fill-opacity="0.8"/>
<circle id="[Copy] Ellipse 33_100" cx="631.107" cy="300.205" r="3.41383" transform="rotate(86.9048 631.107 300.205)" fill="var(--fill-0, #10417F)" fill-opacity="0.8"/>
</g>
</svg>
