<svg preserveAspectRatio="none" width="100%" height="100%" overflow="visible" style="display: block;" viewBox="0 0 1249 706.064" fill="none" xmlns="http://www.w3.org/2000/svg">
<g id="Linked Path Group">
<g id="[Linked] Ellipse 32">
</g>
<circle id="[Copy] Ellipse 33" cx="702.256" cy="353.036" r="3.79568" transform="rotate(90 702.256 353.036)" fill="var(--fill-0, #10417F)" fill-opacity="0.4"/>
<circle id="[Copy] Ellipse 33_2" cx="701.582" cy="374.916" r="3.79568" transform="rotate(93.537 701.582 374.916)" fill="var(--fill-0, #10417F)" fill-opacity="0.4"/>
<circle id="[Copy] Ellipse 33_3" cx="699.58" cy="396.479" r="3.79568" transform="rotate(97.0655 699.58 396.479)" fill="var(--fill-0, #10417F)" fill-opacity="0.4"/>
<circle id="[Copy] Ellipse 33_4" cx="696.276" cy="417.725" r="3.79568" transform="rotate(100.58 696.276 417.725)" fill="var(--fill-0, #10417F)" fill-opacity="0.4"/>
<circle id="[Copy] Ellipse 33_5" cx="691.441" cy="439.612" r="3.79568" transform="rotate(104.293 691.441 439.612)" fill="var(--fill-0, #10417F)" fill-opacity="0.4"/>
<circle id="[Copy] Ellipse 33_6" cx="685.265" cy="460.949" r="3.79568" transform="rotate(107.98 685.265 460.949)" fill="var(--fill-0, #10417F)" fill-opacity="0.4"/>
<circle id="[Copy] Ellipse 33_7" cx="678.087" cy="480.947" r="3.79568" transform="rotate(111.427 678.087 480.947)" fill="var(--fill-0, #10417F)" fill-opacity="0.4"/>
<circle id="[Copy] Ellipse 33_8" cx="669.358" cy="501.201" r="3.79568" transform="rotate(115.062 669.358 501.201)" fill="var(--fill-0, #10417F)" fill-opacity="0.4"/>
<circle id="[Copy] Ellipse 33_9" cx="659.393" cy="520.802" r="3.79568" transform="rotate(118.671 659.393 520.802)" fill="var(--fill-0, #10417F)" fill-opacity="0.4"/>
<circle id="[Copy] Ellipse 33_10" cx="648.232" cy="539.704" r="3.79568" transform="rotate(122.257 648.232 539.704)" fill="var(--fill-0, #10417F)" fill-opacity="0.4"/>
<circle id="[Copy] Ellipse 33_11" cx="635.605" cy="558.286" r="3.79568" transform="rotate(126.033 635.605 558.286)" fill="var(--fill-0, #10417F)" fill-opacity="0.4"/>
<circle id="[Copy] Ellipse 33_12" cx="622.191" cy="575.559" r="3.79568" transform="rotate(129.584 622.191 575.559)" fill="var(--fill-0, #10417F)" fill-opacity="0.4"/>
<circle id="[Copy] Ellipse 33_13" cx="607.72" cy="591.974" r="3.79568" transform="rotate(133.126 607.72 591.974)" fill="var(--fill-0, #10417F)" fill-opacity="0.4"/>
<circle id="[Copy] Ellipse 33_14" cx="592.243" cy="607.467" r="3.79568" transform="rotate(136.665 592.243 607.467)" fill="var(--fill-0, #10417F)" fill-opacity="0.4"/>
<circle id="[Copy] Ellipse 33_15" cx="575.816" cy="621.978" r="3.79568" transform="rotate(140.207 575.816 621.978)" fill="var(--fill-0, #10417F)" fill-opacity="0.4"/>
<circle id="[Copy] Ellipse 33_16" cx="558.499" cy="635.448" r="3.79568" transform="rotate(143.758 558.499 635.448)" fill="var(--fill-0, #10417F)" fill-opacity="0.4"/>
<circle id="[Copy] Ellipse 33_17" cx="540.186" cy="647.926" r="3.79568" transform="rotate(147.533 540.186 647.926)" fill="var(--fill-0, #10417F)" fill-opacity="0.4"/>
<circle id="[Copy] Ellipse 33_18" cx="521.32" cy="659.108" r="3.79568" transform="rotate(151.117 521.32 659.108)" fill="var(--fill-0, #10417F)" fill-opacity="0.4"/>
<circle id="[Copy] Ellipse 33_19" cx="501.775" cy="669.089" r="3.79568" transform="rotate(154.725 501.775 669.089)" fill="var(--fill-0, #10417F)" fill-opacity="0.4"/>
<circle id="[Copy] Ellipse 33_20" cx="481.635" cy="677.817" r="3.79568" transform="rotate(158.359 481.635 677.817)" fill="var(--fill-0, #10417F)" fill-opacity="0.4"/>
<circle id="[Copy] Ellipse 33_21" cx="461.039" cy="685.235" r="3.79568" transform="rotate(161.804 461.039 685.235)" fill="var(--fill-0, #10417F)" fill-opacity="0.4"/>
<circle id="[Copy] Ellipse 33_22" cx="439.935" cy="691.358" r="3.79568" transform="rotate(165.49 439.935 691.358)" fill="var(--fill-0, #10417F)" fill-opacity="0.4"/>
<circle id="[Copy] Ellipse 33_23" cx="418.495" cy="696.131" r="3.79568" transform="rotate(169.201 418.495 696.131)" fill="var(--fill-0, #10417F)" fill-opacity="0.4"/>
<circle id="[Copy] Ellipse 33_24" cx="396.821" cy="699.538" r="3.79568" transform="rotate(172.714 396.821 699.538)" fill="var(--fill-0, #10417F)" fill-opacity="0.4"/>
<circle id="[Copy] Ellipse 33_25" cx="374.969" cy="701.579" r="3.79568" transform="rotate(176.242 374.969 701.579)" fill="var(--fill-0, #10417F)" fill-opacity="0.4"/>
<circle id="[Copy] Ellipse 33_26" cx="351.657" cy="702.254" r="3.79568" transform="rotate(-179.779 351.657 702.254)" fill="var(--fill-0, #10417F)" fill-opacity="0.4"/>
<circle id="[Copy] Ellipse 33_27" cx="329.73" cy="701.491" r="3.79568" transform="rotate(-176.242 329.73 701.491)" fill="var(--fill-0, #10417F)" fill-opacity="0.4"/>
<circle id="[Copy] Ellipse 33_28" cx="307.894" cy="699.367" r="3.79568" transform="rotate(-172.714 307.894 699.367)" fill="var(--fill-0, #10417F)" fill-opacity="0.4"/>
<circle id="[Copy] Ellipse 33_29" cx="286.246" cy="695.877" r="3.79568" transform="rotate(-169.201 286.246 695.877)" fill="var(--fill-0, #10417F)" fill-opacity="0.4"/>
<circle id="[Copy] Ellipse 33_30" cx="264.845" cy="691.026" r="3.79568" transform="rotate(-165.49 264.845 691.026)" fill="var(--fill-0, #10417F)" fill-opacity="0.4"/>
<circle id="[Copy] Ellipse 33_31" cx="243.788" cy="684.828" r="3.79568" transform="rotate(-161.804 243.788 684.828)" fill="var(--fill-0, #10417F)" fill-opacity="0.4"/>
<circle id="[Copy] Ellipse 33_32" cx="223.247" cy="677.343" r="3.79568" transform="rotate(-158.359 223.247 677.343)" fill="var(--fill-0, #10417F)" fill-opacity="0.4"/>
<circle id="[Copy] Ellipse 33_33" cx="203.169" cy="668.555" r="3.79568" transform="rotate(-154.725 203.169 668.555)" fill="var(--fill-0, #10417F)" fill-opacity="0.4"/>
<circle id="[Copy] Ellipse 33_34" cx="183.695" cy="658.525" r="3.79568" transform="rotate(-151.117 183.695 658.525)" fill="var(--fill-0, #10417F)" fill-opacity="0.4"/>
<circle id="[Copy] Ellipse 33_35" cx="164.737" cy="647.192" r="3.79568" transform="rotate(-147.322 164.737 647.192)" fill="var(--fill-0, #10417F)" fill-opacity="0.4"/>
<circle id="[Copy] Ellipse 33_36" cx="146.674" cy="634.792" r="3.79568" transform="rotate(-143.758 146.674 634.792)" fill="var(--fill-0, #10417F)" fill-opacity="0.4"/>
<circle id="[Copy] Ellipse 33_37" cx="129.44" cy="621.301" r="3.79568" transform="rotate(-140.207 129.44 621.301)" fill="var(--fill-0, #10417F)" fill-opacity="0.4"/>
<circle id="[Copy] Ellipse 33_38" cx="113.099" cy="606.779" r="3.79568" transform="rotate(-136.665 113.099 606.779)" fill="var(--fill-0, #10417F)" fill-opacity="0.4"/>
<circle id="[Copy] Ellipse 33_39" cx="97.707" cy="591.287" r="3.79568" transform="rotate(-133.126 97.707 591.287)" fill="var(--fill-0, #10417F)" fill-opacity="0.4"/>
<circle id="[Copy] Ellipse 33_40" cx="83.3213" cy="574.882" r="3.79568" transform="rotate(-129.584 83.3213 574.882)" fill="var(--fill-0, #10417F)" fill-opacity="0.4"/>
<circle id="[Copy] Ellipse 33_41" cx="69.6822" cy="557.204" r="3.79568" transform="rotate(-125.824 69.6822 557.204)" fill="var(--fill-0, #10417F)" fill-opacity="0.4"/>
<circle id="[Copy] Ellipse 33_42" cx="57.4453" cy="539.083" r="3.79568" transform="rotate(-122.257 57.4453 539.083)" fill="var(--fill-0, #10417F)" fill-opacity="0.4"/>
<circle id="[Copy] Ellipse 33_43" cx="46.3591" cy="520.223" r="3.79568" transform="rotate(-118.671 46.3591 520.223)" fill="var(--fill-0, #10417F)" fill-opacity="0.4"/>
<circle id="[Copy] Ellipse 33_44" cx="36.464" cy="500.672" r="3.79568" transform="rotate(-115.062 36.464 500.672)" fill="var(--fill-0, #10417F)" fill-opacity="0.4"/>
<circle id="[Copy] Ellipse 33_45" cx="27.7981" cy="480.478" r="3.79568" transform="rotate(-111.427 27.7981 480.478)" fill="var(--fill-0, #10417F)" fill-opacity="0.4"/>
<circle id="[Copy] Ellipse 33_46" cx="20.3983" cy="459.684" r="3.79568" transform="rotate(-107.764 20.3983 459.684)" fill="var(--fill-0, #10417F)" fill-opacity="0.4"/>
<circle id="[Copy] Ellipse 33_47" cx="14.5449" cy="439.282" r="3.79568" transform="rotate(-104.293 14.5449 439.282)" fill="var(--fill-0, #10417F)" fill-opacity="0.4"/>
<circle id="[Copy] Ellipse 33_48" cx="9.74764" cy="417.476" r="3.79568" transform="rotate(-100.58 9.74764 417.476)" fill="var(--fill-0, #10417F)" fill-opacity="0.4"/>
<circle id="[Copy] Ellipse 33_49" cx="6.46916" cy="396.31" r="3.79568" transform="rotate(-97.0655 6.46916 396.31)" fill="var(--fill-0, #10417F)" fill-opacity="0.4"/>
<circle id="[Copy] Ellipse 33_50" cx="4.48324" cy="374.831" r="3.79568" transform="rotate(-93.537 4.48324 374.831)" fill="var(--fill-0, #10417F)" fill-opacity="0.4"/>
<circle id="[Copy] Ellipse 33_51" cx="3.82487" cy="350.283" r="3.79568" transform="rotate(-89.5577 3.82487 350.283)" fill="var(--fill-0, #10417F)" fill-opacity="0.4"/>
<circle id="[Copy] Ellipse 33_52" cx="4.6661" cy="328.455" r="3.79568" transform="rotate(-86.0214 4.6661 328.455)" fill="var(--fill-0, #10417F)" fill-opacity="0.4"/>
<circle id="[Copy] Ellipse 33_53" cx="6.81634" cy="307.037" r="3.79568" transform="rotate(-82.4943 6.81634 307.037)" fill="var(--fill-0, #10417F)" fill-opacity="0.4"/>
<circle id="[Copy] Ellipse 33_54" cx="10.2199" cy="286.107" r="3.79568" transform="rotate(-78.9823 10.2199 286.107)" fill="var(--fill-0, #10417F)" fill-opacity="0.4"/>
<circle id="[Copy] Ellipse 33_55" cx="15.2302" cy="264.139" r="3.79568" transform="rotate(-75.2722 15.2302 264.139)" fill="var(--fill-0, #10417F)" fill-opacity="0.4"/>
<circle id="[Copy] Ellipse 33_56" cx="21.5988" cy="242.712" r="3.79568" transform="rotate(-71.5876 21.5988 242.712)" fill="var(--fill-0, #10417F)" fill-opacity="0.4"/>
<circle id="[Copy] Ellipse 33_57" cx="29.2726" cy="221.899" r="3.79568" transform="rotate(-67.93 29.2726 221.899)" fill="var(--fill-0, #10417F)" fill-opacity="0.4"/>
<circle id="[Copy] Ellipse 33_58" cx="37.3921" cy="203.425" r="3.79568" transform="rotate(-64.5124 37.3921 203.425)" fill="var(--fill-0, #10417F)" fill-opacity="0.4"/>
<circle id="[Copy] Ellipse 33_59" cx="47.365" cy="184.016" r="3.79568" transform="rotate(-60.906 47.365 184.016)" fill="var(--fill-0, #10417F)" fill-opacity="0.4"/>
<circle id="[Copy] Ellipse 33_60" cx="59.5375" cy="163.712" r="3.79568" transform="rotate(-57.1123 59.5375 163.712)" fill="var(--fill-0, #10417F)" fill-opacity="0.4"/>
<circle id="[Copy] Ellipse 33_61" cx="71.8544" cy="145.892" r="3.79568" transform="rotate(-53.5487 71.8544 145.892)" fill="var(--fill-0, #10417F)" fill-opacity="0.4"/>
<circle id="[Copy] Ellipse 33_62" cx="85.1968" cy="128.93" r="3.79568" transform="rotate(-49.9988 85.1968 128.93)" fill="var(--fill-0, #10417F)" fill-opacity="0.4"/>
<circle id="[Copy] Ellipse 33_63" cx="99.5178" cy="112.859" r="3.79568" transform="rotate(-46.4572 99.5178 112.859)" fill="var(--fill-0, #10417F)" fill-opacity="0.4"/>
<circle id="[Copy] Ellipse 33_64" cx="114.774" cy="97.7154" r="3.79568" transform="rotate(-42.9181 114.774 97.7154)" fill="var(--fill-0, #10417F)" fill-opacity="0.4"/>
<circle id="[Copy] Ellipse 33_65" cx="130.926" cy="83.5337" r="3.79568" transform="rotate(-39.3755 130.926 83.5337)" fill="var(--fill-0, #10417F)" fill-opacity="0.4"/>
<circle id="[Copy] Ellipse 33_66" cx="149.822" cy="68.9955" r="3.79568" transform="rotate(-35.6142 149.822 68.9955)" fill="var(--fill-0, #10417F)" fill-opacity="0.4"/>
<circle id="[Copy] Ellipse 33_67" cx="167.791" cy="56.9389" r="3.79568" transform="rotate(-32.0466 167.791 56.9389)" fill="var(--fill-0, #10417F)" fill-opacity="0.4"/>
<circle id="[Copy] Ellipse 33_68" cx="186.567" cy="45.968" r="3.79568" transform="rotate(-28.4593 186.567 45.968)" fill="var(--fill-0, #10417F)" fill-opacity="0.4"/>
<circle id="[Copy] Ellipse 33_69" cx="206.126" cy="36.126" r="3.79568" transform="rotate(-24.8486 206.126 36.126)" fill="var(--fill-0, #10417F)" fill-opacity="0.4"/>
<circle id="[Copy] Ellipse 33_70" cx="226.454" cy="27.4618" r="3.79568" transform="rotate(-21.2119 226.454 27.4618)" fill="var(--fill-0, #10417F)" fill-opacity="0.4"/>
<circle id="[Copy] Ellipse 33_71" cx="247.543" cy="20.0315" r="3.79568" transform="rotate(-17.5479 247.543 20.0315)" fill="var(--fill-0, #10417F)" fill-opacity="0.4"/>
<circle id="[Copy] Ellipse 33_72" cx="266.862" cy="14.5246" r="3.79568" transform="rotate(-14.0748 266.862 14.5246)" fill="var(--fill-0, #10417F)" fill-opacity="0.4"/>
<circle id="[Copy] Ellipse 33_73" cx="289.368" cy="9.60368" r="3.79568" transform="rotate(-10.3605 289.368 9.60368)" fill="var(--fill-0, #10417F)" fill-opacity="0.4"/>
<circle id="[Copy] Ellipse 33_74" cx="309.961" cy="6.44227" r="3.79568" transform="rotate(-6.84535 309.961 6.44227)" fill="var(--fill-0, #10417F)" fill-opacity="0.4"/>
<circle id="[Copy] Ellipse 33_75" cx="331.178" cy="4.4832" r="3.79568" transform="rotate(-3.31609 331.178 4.4832)" fill="var(--fill-0, #10417F)" fill-opacity="0.4"/>
<circle id="[Copy] Ellipse 33_76" cx="357.158" cy="3.83939" r="3.79568" transform="rotate(0.663504 357.158 3.83939)" fill="var(--fill-0, #10417F)" fill-opacity="0.4"/>
<circle id="[Copy] Ellipse 33_77" cx="378.86" cy="4.75517" r="3.79568" transform="rotate(4.19941 378.86 4.75517)" fill="var(--fill-0, #10417F)" fill-opacity="0.4"/>
<circle id="[Copy] Ellipse 33_78" cx="399.938" cy="6.93639" r="3.79568" transform="rotate(7.72568 399.938 6.93639)" fill="var(--fill-0, #10417F)" fill-opacity="0.4"/>
<circle id="[Copy] Ellipse 33_79" cx="420.407" cy="10.3045" r="3.79568" transform="rotate(11.2366 420.407 10.3045)" fill="var(--fill-0, #10417F)" fill-opacity="0.4"/>
<circle id="[Copy] Ellipse 33_80" cx="442.784" cy="15.4543" r="3.79568" transform="rotate(14.9452 442.784 15.4543)" fill="var(--fill-0, #10417F)" fill-opacity="0.4"/>
<circle id="[Copy] Ellipse 33_81" cx="464.418" cy="21.9538" r="3.79568" transform="rotate(18.6284 464.418 21.9538)" fill="var(--fill-0, #10417F)" fill-opacity="0.4"/>
<circle id="[Copy] Ellipse 33_82" cx="485.302" cy="29.7315" r="3.79568" transform="rotate(22.2843 485.302 29.7315)" fill="var(--fill-0, #10417F)" fill-opacity="0.4"/>
<circle id="[Copy] Ellipse 33_83" cx="505.425" cy="38.7299" r="3.79568" transform="rotate(25.9132 505.425 38.7299)" fill="var(--fill-0, #10417F)" fill-opacity="0.4"/>
<circle id="[Copy] Ellipse 33_84" cx="524.778" cy="48.8945" r="3.79568" transform="rotate(29.5167 524.778 48.8945)" fill="var(--fill-0, #10417F)" fill-opacity="0.4"/>
<circle id="[Copy] Ellipse 33_85" cx="543.343" cy="60.1767" r="3.79568" transform="rotate(33.0978 543.343 60.1767)" fill="var(--fill-0, #10417F)" fill-opacity="0.4"/>
<circle id="[Copy] Ellipse 33_86" cx="561.098" cy="72.5344" r="3.79568" transform="rotate(36.6605 561.098 72.5344)" fill="var(--fill-0, #10417F)" fill-opacity="0.4"/>
<circle id="[Copy] Ellipse 33_87" cx="578.017" cy="85.9324" r="3.79568" transform="rotate(40.2097 578.017 85.9324)" fill="var(--fill-0, #10417F)" fill-opacity="0.4"/>
<circle id="[Copy] Ellipse 33_88" cx="594.068" cy="100.332" r="3.79568" transform="rotate(43.751 594.068 100.332)" fill="var(--fill-0, #10417F)" fill-opacity="0.4"/>
<circle id="[Copy] Ellipse 33_89" cx="609.216" cy="115.698" r="3.79568" transform="rotate(47.2901 609.216 115.698)" fill="var(--fill-0, #10417F)" fill-opacity="0.4"/>
<circle id="[Copy] Ellipse 33_90" cx="624.729" cy="133.615" r="3.79568" transform="rotate(51.0418 624.729 133.615)" fill="var(--fill-0, #10417F)" fill-opacity="0.4"/>
<circle id="[Copy] Ellipse 33_91" cx="637.801" cy="150.841" r="3.79568" transform="rotate(54.5952 637.801 150.841)" fill="var(--fill-0, #10417F)" fill-opacity="0.4"/>
<circle id="[Copy] Ellipse 33_92" cx="649.831" cy="168.914" r="3.79568" transform="rotate(58.1638 649.831 168.914)" fill="var(--fill-0, #10417F)" fill-opacity="0.4"/>
<circle id="[Copy] Ellipse 33_93" cx="660.768" cy="187.796" r="3.79568" transform="rotate(61.7524 660.768 187.796)" fill="var(--fill-0, #10417F)" fill-opacity="0.4"/>
<circle id="[Copy] Ellipse 33_94" cx="670.553" cy="207.445" r="3.79568" transform="rotate(65.3646 670.553 207.445)" fill="var(--fill-0, #10417F)" fill-opacity="0.4"/>
<circle id="[Copy] Ellipse 33_95" cx="679.131" cy="227.807" r="3.79568" transform="rotate(69.0029 679.131 227.807)" fill="var(--fill-0, #10417F)" fill-opacity="0.4"/>
<circle id="[Copy] Ellipse 33_96" cx="686.445" cy="248.829" r="3.79568" transform="rotate(72.6685 686.445 248.829)" fill="var(--fill-0, #10417F)" fill-opacity="0.4"/>
<circle id="[Copy] Ellipse 33_97" cx="692.045" cy="268.859" r="3.79568" transform="rotate(76.143 692.045 268.859)" fill="var(--fill-0, #10417F)" fill-opacity="0.4"/>
<circle id="[Copy] Ellipse 33_98" cx="696.77" cy="291.046" r="3.79568" transform="rotate(79.8586 696.77 291.046)" fill="var(--fill-0, #10417F)" fill-opacity="0.4"/>
<circle id="[Copy] Ellipse 33_99" cx="699.893" cy="312.188" r="3.79568" transform="rotate(83.3749 699.893 312.188)" fill="var(--fill-0, #10417F)" fill-opacity="0.4"/>
<circle id="[Copy] Ellipse 33_100" cx="701.735" cy="333.802" r="3.79568" transform="rotate(86.9048 701.735 333.802)" fill="var(--fill-0, #10417F)" fill-opacity="0.4"/>
<g id="dots">
<circle id="Ellipse 32" cx="750.5" cy="371.5" r="7.5" fill="var(--fill-0, #10417F)"/>
<circle id="Ellipse 34" cx="911.5" cy="293.5" r="7.5" fill="var(--fill-0, #10417F)"/>
<circle id="Ellipse 35" cx="888.5" cy="425.5" r="7.5" fill="var(--fill-0, #10417F)"/>
<circle id="Ellipse 36" cx="994.5" cy="345.5" r="7.5" fill="var(--fill-0, #10417F)"/>
<circle id="Ellipse 37" cx="1241.5" cy="377.5" r="7.5" fill="var(--fill-0, #10417F)"/>
<circle id="Ellipse 33" cx="353.5" cy="338.5" r="7.5" fill="var(--fill-0, #10417F)"/>
</g>
</g>
</svg>
