<svg width="900" height="146" viewBox="0 0 900 146" fill="none" xmlns="http://www.w3.org/2000/svg">
<path d="M533.5 139C373 103 364 17.9601 273.5 48C154.5 87.5 7.5 52 7.5 52C7.5 52 171.549 122.091 281 115.5C398.743 108.409 562.5 6 562.5 6" stroke="#111111"/>
<path d="M560.288 6C661.505 42 667.18 127.04 724.252 97C799.297 57.5 892 93 892 93C892 93 788.546 22.9086 719.523 29.5C645.27 36.5908 542 139 542 139" stroke="#111111"/>
<circle cx="7.5" cy="51.5" r="7.5" fill="#10417F"/>
<circle cx="562.5" cy="7.5" r="7.5" fill="#10417F"/>
<circle cx="537.5" cy="138.5" r="7.5" fill="#10417F"/>
<circle cx="892.5" cy="93.5" r="7.5" fill="#10417F"/>
</svg>
