<svg preserveAspectRatio="none" width="100%" height="100%" overflow="visible" style="display: block;" viewBox="0 0 40 40" fill="none" xmlns="http://www.w3.org/2000/svg">
<g id="icon.svg (4) 2">
<path id="Vector" d="M18.9565 25.2041H22.3261C22.6685 25.2041 22.9453 25.4809 22.9453 25.8233V29.1929C22.9453 29.5353 22.6685 29.8121 22.3261 29.8121H18.9565C18.6141 29.8121 18.3373 29.5353 18.3373 29.1929V25.8233C18.3373 25.4809 18.6141 25.2041 18.9565 25.2041ZM21.7053 26.4441H19.5757V28.5713H21.7053V26.4441ZM33.1613 31.3041H36.5285C36.8709 31.3041 37.1501 31.5809 37.1501 31.9233V35.2929C37.1501 35.6353 36.8709 35.9121 36.5285 35.9121H33.1613C32.8189 35.9121 32.5397 35.6353 32.5397 35.2929V31.9233C32.5405 31.5809 32.8189 31.3041 33.1613 31.3041ZM35.9101 32.5449H33.7805V34.6745H35.9101V32.5449ZM26.0589 31.3041H29.4261C29.7685 31.3041 30.0477 31.5809 30.0477 31.9233V35.2929C30.0477 35.6353 29.7685 35.9121 29.4261 35.9121H26.0589C25.7165 35.9121 25.4373 35.6353 25.4373 35.2929V31.9233C25.4373 31.5809 25.7165 31.3041 26.0589 31.3041ZM28.8077 32.5449H26.6781V34.6745H28.8077V32.5449ZM18.9565 31.3041H22.3261C22.6685 31.3041 22.9453 31.5809 22.9453 31.9233V35.2929C22.9453 35.6353 22.6685 35.9121 22.3261 35.9121H18.9565C18.6141 35.9121 18.3373 35.6353 18.3373 35.2929V31.9233C18.3373 31.5809 18.6141 31.3041 18.9565 31.3041ZM21.7053 32.5449H19.5757V34.6745H21.7053V32.5449ZM33.1613 25.2041H36.5285C36.8709 25.2041 37.1501 25.4809 37.1501 25.8233V29.1929C37.1501 29.5353 36.8709 29.8121 36.5285 29.8121H33.1613C32.8189 29.8121 32.5397 29.5353 32.5397 29.1929V25.8233C32.5405 25.4809 32.8189 25.2041 33.1613 25.2041ZM35.9101 26.4441H33.7805V28.5713H35.9101V26.4441ZM26.0589 25.2041H29.4261C29.7685 25.2041 30.0477 25.4809 30.0477 25.8233V29.1929C30.0477 29.5353 29.7685 29.8121 29.4261 29.8121H26.0589C25.7165 29.8121 25.4373 29.5353 25.4373 29.1929V25.8233C25.4373 25.4809 25.7165 25.2041 26.0589 25.2041ZM28.8077 26.4441H26.6781V28.5713H28.8077V26.4441ZM32.1725 15.9313H33.9117C34.6309 15.9313 35.2181 16.5161 35.2181 17.2377V17.9449H37.3837C38.8237 17.9449 39.9981 19.1217 39.9981 20.5593V36.2337C39.9981 37.6737 38.8237 38.8481 37.3837 38.8481H18.1013C16.6613 38.8481 15.4869 37.6737 15.4869 36.2337V26.9569C11.2573 27.8433 6.94205 25.9089 4.78285 22.1697L4.78045 22.1721C2.02045 17.3897 3.65565 11.2825 8.43805 8.52005V8.51765C12.6693 6.07525 18.0509 7.04805 21.1509 10.8217C22.3437 12.2705 23.1173 14.0441 23.3549 15.9305C24.0557 15.9529 24.6205 16.5313 24.6205 17.2369V17.9441H30.8637V17.2369C30.8645 16.5161 31.4517 15.9313 32.1725 15.9313ZM35.2181 19.1857C35.2181 19.8001 35.2933 20.2921 34.8349 20.7505C34.5989 20.9865 34.2725 21.1337 33.9117 21.1337H32.1725C31.4517 21.1337 30.8637 20.5465 30.8637 19.8273V19.1857H24.6205C24.6205 19.8001 24.6957 20.2921 24.2373 20.7505C24.0013 20.9865 23.6725 21.1337 23.3141 21.1337H21.5725C20.8533 21.1337 20.2661 20.5465 20.2661 19.8273V19.1857H18.1005C17.3453 19.1857 16.7261 19.8049 16.7261 20.5601V22.7913H38.7589V20.5601C38.7589 19.8049 38.1373 19.1857 37.3821 19.1857H35.2181ZM33.9117 17.1713H32.1725C32.1365 17.1713 32.1045 17.2009 32.1045 17.2369V19.8265C32.1045 19.8609 32.1365 19.8921 32.1725 19.8921H33.9117C33.9461 19.8921 33.9773 19.8601 33.9773 19.8265V17.2369C33.9781 17.2009 33.9461 17.1713 33.9117 17.1713ZM21.5733 15.9313H22.1061C21.5237 11.8745 18.1989 8.73605 14.0557 8.43605V9.20005C14.0557 9.54245 13.7789 9.81925 13.4365 9.81925C13.0941 9.81925 12.8149 9.54245 12.8149 9.20005V8.43605C11.4773 8.53125 10.1933 8.93285 9.05725 9.58805C6.56045 11.0505 4.91165 13.5953 4.69885 16.5545H5.46285C5.80285 16.5545 6.07965 16.8313 6.07965 17.1737C6.07965 17.5137 5.80285 17.7905 5.46285 17.7905H4.69885C4.79405 19.1281 5.19565 20.4145 5.85085 21.5505C7.31325 24.0497 9.85805 25.6961 12.8173 25.9113V25.1473C12.8173 24.8049 13.0941 24.5281 13.4365 24.5281C13.7765 24.5281 14.0533 24.8049 14.0533 25.1473V25.9113C14.5389 25.8769 15.0173 25.8025 15.4869 25.6865V20.5593C15.4869 19.1217 16.6613 17.9449 18.1013 17.9449H20.2669V17.2377C20.2669 16.5161 20.8549 15.9313 21.5733 15.9313ZM23.3149 17.1713H21.5733C21.5389 17.1713 21.5077 17.2009 21.5077 17.2369V19.8265C21.5077 19.8609 21.5397 19.8921 21.5733 19.8921H23.3149C23.3493 19.8921 23.3805 19.8601 23.3805 19.8265V17.2369C23.3805 17.2009 23.3493 17.1713 23.3149 17.1713ZM38.7605 24.0289H16.7277V36.2337C16.7277 36.9889 17.3469 37.6081 18.1021 37.6081H37.3837C38.1389 37.6081 38.7605 36.9889 38.7605 36.2337V24.0289ZM24.5101 2.30245C24.2173 2.12565 24.1245 1.74485 24.2989 1.45205C24.4757 1.15685 24.8565 1.06405 25.1493 1.24085L29.4693 3.85525C29.8685 4.09525 29.8709 4.67605 29.4629 4.92085L25.1493 7.52885C24.8565 7.70565 24.4757 7.61285 24.2989 7.31765C24.1245 7.02485 24.2173 6.64405 24.5101 6.46725L26.9749 4.97765H13.5205V4.97605H13.5181C10.7789 4.95605 8.15245 5.86725 6.03485 7.47925C1.16205 11.1961 -0.187546 17.9657 2.87645 23.2697C4.43645 25.9729 7.02605 28.0793 10.2805 28.9529C10.6117 29.0417 10.8069 29.3793 10.7181 29.7105C10.6293 30.0417 10.2917 30.2369 9.96045 30.1481C2.79645 28.2313 -1.45715 20.8609 0.461254 13.6977C2.05325 7.75845 7.45485 3.69685 13.5205 3.74005V3.73765H26.8821L24.5101 2.30245ZM12.8157 13.3145C12.8157 12.9721 13.0949 12.6953 13.4373 12.6953C13.7797 12.6953 14.0565 12.9721 14.0565 13.3145V15.9385L17.6373 13.2673C17.9117 13.0633 18.2997 13.1201 18.5037 13.3921C18.7101 13.6665 18.6533 14.0569 18.3789 14.2609L13.8253 17.6553C13.3965 17.9889 12.8165 17.6761 12.8165 17.1745V13.3145H12.8157Z" fill="var(--fill-0, #10417F)"/>
</g>
</svg>
