<svg preserveAspectRatio="none" width="100%" height="100%" overflow="visible" style="display: block;" viewBox="0 0 40 40" fill="none" xmlns="http://www.w3.org/2000/svg">
<g id="icon.svg (3) 7">
<path id="Vector" fill-rule="evenodd" clip-rule="evenodd" d="M12.1632 22.377H11.8252V22.7149H12.1632V22.377ZM13.2354 21.8408V23.251C13.2354 23.5467 12.9951 23.7871 12.6992 23.7871H11.2891C10.9933 23.7871 10.753 23.5468 10.753 23.251V21.8408C10.753 21.5451 10.9933 21.3047 11.2891 21.3047H12.6992C12.9951 21.3048 13.2354 21.5451 13.2354 21.8408ZM18.6513 13.2658H18.313V13.6037H18.6513V13.2658ZM19.1874 14.676H17.7768C17.481 14.676 17.2411 14.4365 17.2411 14.1399V12.7296C17.2411 12.4339 17.481 12.1935 17.7768 12.1935H19.1874C19.4832 12.1935 19.7231 12.4338 19.7231 12.7296V14.1398C19.7232 14.4365 19.4832 14.676 19.1874 14.676ZM8.77827 19.0747H8.43995V19.4126H8.77827V19.0747ZM9.85011 18.5385V19.9487C9.85011 20.2449 9.61059 20.4848 9.31395 20.4848H7.90379C7.60803 20.4848 7.36811 20.2449 7.36811 19.9487V18.5385C7.36811 18.2419 7.60803 18.0024 7.90379 18.0024H9.31395C9.61067 18.0024 9.85011 18.2419 9.85011 18.5385ZM8.77827 15.7719H8.43995V16.1098H8.77827V15.7719ZM9.85011 15.2358V16.646C9.85011 16.9426 9.61059 17.1821 9.31395 17.1821H7.90379C7.60803 17.1821 7.36811 16.9427 7.36811 16.646V15.2358C7.36811 14.9396 7.60803 14.6996 7.90379 14.6996H9.31395C9.61067 14.6996 9.85011 14.9396 9.85011 15.2358ZM36.1737 22.7604L35.2902 22.0149C35.15 21.8971 35.0804 21.7148 35.1053 21.5334C35.1702 21.0562 35.1672 20.5712 35.0967 20.0931C35.0696 19.9116 35.1376 19.7285 35.276 19.6085L36.151 18.8523L35.7249 17.8407L34.5727 17.9383C34.39 17.9529 34.212 17.8747 34.1011 17.7289C33.8079 17.3432 33.4635 17.0024 33.077 16.716C32.9296 16.6064 32.8483 16.4292 32.8616 16.2464L32.9455 15.0934L31.9287 14.6794L31.1836 15.562C31.0653 15.7031 30.8831 15.7723 30.7016 15.7482C30.2244 15.6828 29.7395 15.6859 29.2609 15.7563C29.0791 15.7839 28.8968 15.7159 28.7768 15.5771L28.0206 14.7022L27.0094 15.1283L27.1066 16.2805C27.1221 16.4636 27.043 16.6416 26.8972 16.7522C26.5116 17.0454 26.1711 17.3898 25.8844 17.7768C25.7748 17.9238 25.5976 18.0046 25.4148 17.9917L24.2618 17.9083L23.8478 18.9246L24.7309 19.6701C24.8715 19.7888 24.9407 19.9702 24.9166 20.1516C24.8512 20.6301 24.8543 21.1147 24.9248 21.5927C24.9523 21.7742 24.8844 21.9565 24.7455 22.0764L23.871 22.8327L24.2967 23.8444L25.4489 23.7471C25.632 23.7321 25.81 23.8108 25.9206 23.9565C26.2138 24.3426 26.5586 24.6827 26.9452 24.9703C27.232 25.1835 27.1569 25.4843 27.133 25.8156H32.95C32.9208 25.466 32.8364 25.1526 33.125 24.9329C33.5102 24.6397 33.8512 24.2953 34.1388 23.9084C34.2471 23.7613 34.4251 23.6805 34.6074 23.6934L35.7605 23.7772L36.1737 22.7604ZM33.1874 26.8878H26.9985C26.6773 28.27 26.2642 29.5504 25.7702 30.6996H30.5257C31.5828 29.5848 32.484 28.3053 33.1874 26.8878ZM29.4023 31.7719H25.268C24.614 33.05 23.7784 34.2631 22.7504 35.1675C25.2241 34.5858 27.5036 33.4129 29.4023 31.7719ZM23.2151 33.0707C21.9915 34.7144 20.5899 35.5836 19.1608 35.5836C17.0977 35.5836 15.4069 33.8011 14.2703 31.7719H24.0513C23.7881 32.2401 23.5096 32.6752 23.2151 33.0707ZM15.5704 35.1675C14.5401 34.2603 13.7101 33.0527 13.0531 31.7719H8.91883C10.8179 33.4129 13.0974 34.5858 15.5704 35.1675ZM7.79587 30.6996H12.5505C12.0574 29.5504 11.6442 28.2701 11.3226 26.8878H5.13371C5.83715 28.3053 6.73827 29.5848 7.79587 30.6996ZM5.76019 25.8156V13.0521C5.76019 12.8419 5.93131 12.6708 6.14107 12.6708H14.8429V25.8156H5.76019ZM12.4254 26.8878H25.8952C25.556 28.2885 25.1179 29.571 24.5968 30.6996H13.7243C13.2032 29.5711 12.7651 28.2886 12.4254 26.8878ZM15.9152 25.8156V7.62467L18.4819 5.89635L21.0486 7.62467V18.3691H19.2696C18.6956 18.3691 18.2283 18.836 18.2283 19.4104V25.8156H15.9152V25.8156ZM19.3 19.4414H22.8061L23.8204 20.3047C23.7876 20.6864 23.7898 21.0708 23.8276 21.4526L22.8749 22.2764C22.6991 22.4281 22.641 22.6762 22.7313 22.8903L23.4596 24.6199C23.5495 24.8336 23.7675 24.9643 23.9984 24.9458L25.2533 24.8392C25.5001 25.1336 25.774 25.4041 26.0698 25.647L26.0577 25.8156H19.3V19.4414ZM37.3139 22.8043L36.6058 24.5426C36.5181 24.758 36.3018 24.8908 36.0701 24.8749L34.8152 24.7838C34.5723 25.0796 34.3018 25.3535 34.0073 25.5998L34.0263 25.8156H35.1402C35.4364 25.8156 35.6764 26.056 35.6764 26.3518C35.6764 26.6484 35.4364 26.8879 35.1402 26.8879H34.3758C31.653 32.8339 25.7195 36.656 19.1608 36.656C12.6013 36.656 6.66819 32.8339 3.94587 26.8879H3.18147C2.88523 26.8879 2.64531 26.6484 2.64531 26.3518C2.64531 26.056 2.88523 25.8156 3.18147 25.8156H4.68835V13.0521C4.68835 12.2508 5.34011 11.5989 6.14107 11.5989H14.8429V7.33955C14.8429 7.16155 14.9315 6.99435 15.0794 6.89499L18.1822 4.80507C18.3636 4.68339 18.6005 4.68339 18.7811 4.80507L21.8839 6.89499C22.0318 6.99435 22.1208 7.16155 22.1208 7.33955V18.3691H22.9161L23.4152 17.1424C23.5029 16.9279 23.7179 16.7938 23.9509 16.8101L25.2064 16.9017C25.4492 16.6059 25.7192 16.3329 26.0138 16.0852L25.9076 14.8303C25.8883 14.5994 26.0199 14.3814 26.2344 14.2915L27.9632 13.5628C28.1768 13.473 28.4249 13.5306 28.5771 13.7064L29.4004 14.6592C29.7831 14.6217 30.1666 14.6196 30.5484 14.6523L31.3605 13.6901C31.5105 13.513 31.7573 13.4524 31.9723 13.5392L33.7105 14.2478C33.926 14.3351 34.0596 14.5518 34.0428 14.7831L33.9517 16.0385C34.2475 16.2814 34.5205 16.5514 34.7677 16.846L36.0232 16.7397C36.2544 16.7208 36.472 16.8519 36.5619 17.066L37.2902 18.7952C37.3805 19.0098 37.3224 19.257 37.1466 19.4091L36.1939 20.2324C36.2317 20.6151 36.2339 20.9986 36.2012 21.3803L37.1629 22.1925C37.3405 22.3426 37.4012 22.5898 37.3139 22.8043ZM32.7695 19.6808C33.0795 20.4177 33.0846 21.232 32.7828 21.9723C32.1603 23.5003 30.41 24.2372 28.8816 23.6147C27.3528 22.9921 26.6159 21.2419 27.2384 19.7135C27.5403 18.9732 28.1121 18.394 28.849 18.084C30.3702 17.4438 32.125 18.1507 32.7695 19.6808ZM33.7579 19.2647C34.89 21.9567 32.8984 24.9088 30.0054 24.9088C29.4959 24.9088 28.9774 24.8121 28.477 24.6079C26.4008 23.7622 25.4 21.3847 26.2456 19.3089C27.0932 17.2275 29.4631 16.2301 31.5442 17.0775C32.5498 17.4869 33.3361 18.2642 33.7579 19.2647ZM12.1632 19.0747H11.8252V19.4126H12.1632V19.0747ZM13.2354 18.5385C13.2354 18.2419 12.9951 18.0024 12.6992 18.0024H11.2891C10.9933 18.0024 10.753 18.2419 10.753 18.5385V19.9487C10.753 20.2449 10.9933 20.4848 11.2891 20.4848H12.6992C12.995 20.4848 13.2354 20.2449 13.2354 19.9487V18.5385ZM12.1632 15.7719H11.8252V16.1098H12.1632V15.7719ZM13.2354 15.2358C13.2354 14.9396 12.9951 14.6996 12.6992 14.6996H11.2891C10.9933 14.6996 10.753 14.9396 10.753 15.2358V16.646C10.753 16.9426 10.9933 17.1821 11.2891 17.1821H12.6992C12.995 17.1821 13.2354 16.9427 13.2354 16.646V15.2358ZM8.77827 22.377H8.43995V22.7149H8.77827V22.377ZM9.85011 21.8408C9.85011 21.5451 9.61059 21.3047 9.31395 21.3047H7.90379C7.60803 21.3047 7.36811 21.545 7.36811 21.8408V23.251C7.36811 23.5467 7.60803 23.7871 7.90379 23.7871H9.31395C9.61059 23.7871 9.85011 23.5468 9.85011 23.251V21.8408ZM9.22283 9.01075C9.22283 9.81747 10.2947 9.74251 10.2947 9.06059C10.2947 8.25483 9.22283 8.32827 9.22283 9.01075ZM11.385 7.77859C11.578 8.00379 11.9173 8.02843 12.1404 7.83707C12.3656 7.64403 12.3915 7.30611 12.1988 7.08083C10.8836 5.54379 8.63291 5.54387 7.31779 7.08083C7.12515 7.30611 7.15139 7.64403 7.37627 7.83707C7.60155 8.02923 7.93947 8.00299 8.13163 7.77859C9.02195 6.73803 10.4949 6.73731 11.385 7.77859ZM18.3129 10.3014H18.6512V9.96347H18.3129V10.3014ZM17.2411 10.8375C17.2411 11.1333 17.481 11.3737 17.7768 11.3737H19.1874C19.4832 11.3737 19.7231 11.1334 19.7231 10.8375V9.42739C19.7231 9.13163 19.4832 8.89123 19.1874 8.89123H17.7768C17.481 8.89123 17.2411 9.13155 17.2411 9.42739V10.8375ZM6.10795 5.98875C6.25027 5.98875 6.39259 5.93203 6.49787 5.82067C8.27219 3.94219 11.2444 3.94083 13.0187 5.82067C13.2216 6.03563 13.5612 6.04595 13.7762 5.84259C13.9916 5.63923 14.0015 5.30043 13.7985 5.08459C11.6128 2.76387 7.90339 2.76411 5.71787 5.08459C5.39475 5.42787 5.64283 5.98875 6.10795 5.98875ZM31.6366 10.6419C31.8295 10.8675 32.168 10.8936 32.3928 10.7004C32.6177 10.5082 32.6435 10.1698 32.4513 9.94499C31.1371 8.40939 28.888 8.40635 27.5703 9.94499C27.3776 10.1699 27.4035 10.5082 27.6288 10.7004C27.854 10.8934 28.192 10.8667 28.3841 10.6419C29.274 9.60179 30.7476 9.60171 31.6366 10.6419ZM26.7504 8.68483C28.5216 6.80595 31.5004 6.80619 33.2712 8.68483C33.4735 8.89947 33.8133 8.90955 34.0288 8.70635C34.2441 8.50299 34.254 8.16419 34.0507 7.94883C31.8595 5.62659 28.158 5.62795 25.9705 7.94883C25.7676 8.16419 25.7775 8.50299 25.9924 8.70635C26.2078 8.90971 26.5475 8.89979 26.7504 8.68483ZM30.0101 11.3388C29.7144 11.3388 29.4744 11.5787 29.4744 11.875V11.9248C29.4744 12.6068 30.5463 12.6812 30.5463 11.875C30.5463 11.5787 30.3068 11.3388 30.0101 11.3388Z" fill="var(--fill-0, #10417F)"/>
</g>
</svg>
