<svg preserveAspectRatio="none" width="100%" height="100%" overflow="visible" style="display: block;" viewBox="0 0 71.0004 68.9361" fill="none" xmlns="http://www.w3.org/2000/svg">
<g id="Group">
<path id="Vector" d="M58.4006 39.5511L63.1872 26.7148C64.4057 23.8789 66.8695 24.406 66.8695 24.406C68.7764 24.7549 69.8026 26.3175 69.5851 28.0679L65.1942 45.719C64.0602 50.2538 60.8987 54.6759 57.2181 57.5338L49.6315 62.9619V66.1627C49.6315 66.9286 49.0107 67.5494 48.2448 67.5494H35.5219V59.5033C35.5219 59.5033 34.6928 50.3398 43.3996 45.048L53.8082 38.367C54.3352 38.0276 54.9329 37.8617 55.5257 37.8617C56.3485 37.8617 57.1635 38.1808 57.7783 38.7955C58.9968 40.0157 59.0219 41.9866 57.8331 43.2365L50.8237 48.7646" stroke="var(--stroke-0, #10417F)" stroke-width="2.77344" stroke-miterlimit="10" stroke-linecap="round" stroke-linejoin="round"/>
<path id="Vector_2" d="M20.1771 48.7646L13.1676 43.2365C11.9788 41.9866 12.0037 40.0157 13.2224 38.7955C13.8371 38.1808 14.6521 37.8617 15.475 37.8617C16.0678 37.8617 16.6653 38.0276 17.1926 38.367L27.6011 45.048C36.3078 50.3398 35.4788 59.5033 35.4788 59.5033V67.5494H22.7559C21.99 67.5494 21.3692 66.9286 21.3692 66.1627V62.9619L13.7826 57.5338C10.1018 54.6759 6.94054 50.2538 5.80648 45.719L1.4153 28.0679C1.19786 26.3174 2.22403 24.7547 4.13091 24.406C4.13091 24.406 6.59456 23.8789 7.8132 26.7148L12.5999 39.5511" stroke="var(--stroke-0, #10417F)" stroke-width="2.77344" stroke-miterlimit="10" stroke-linecap="round" stroke-linejoin="round"/>
<path id="Vector_3" d="M29.1928 37.2792H27.4373C26.6714 37.2792 26.0506 36.6584 26.0506 35.8925V28.4575C26.0506 25.4487 28.4897 23.0098 31.4983 23.0098H39.5002C42.509 23.0098 44.948 25.4489 44.948 28.4575V35.8925C44.948 36.6584 44.3271 37.2792 43.5613 37.2792H41.8284" stroke="var(--stroke-0, #10417F)" stroke-width="2.77344" stroke-miterlimit="10" stroke-linecap="round" stroke-linejoin="round"/>
<path id="Vector_4" d="M35.5002 23.0105C39.0514 23.0105 41.9303 20.1317 41.9303 16.5805C41.9303 13.0292 39.0514 10.1504 35.5002 10.1504C31.949 10.1504 29.0701 13.0292 29.0701 16.5805C29.0701 20.1317 31.949 23.0105 35.5002 23.0105Z" stroke="var(--stroke-0, #10417F)" stroke-width="2.77344" stroke-miterlimit="10" stroke-linecap="round" stroke-linejoin="round"/>
<path id="Vector_5" d="M42.1199 14.2471H50.4354C53.4442 14.2471 55.8831 16.6862 55.8831 19.6948V27.0382C55.8831 27.8544 55.2214 28.516 54.4053 28.516H44.9409" stroke="var(--stroke-0, #10417F)" stroke-width="2.77344" stroke-miterlimit="10" stroke-linecap="round" stroke-linejoin="round"/>
<path id="Vector_6" d="M46.435 14.2469C49.9862 14.2469 52.8651 11.368 52.8651 7.8168C52.8651 4.26556 49.9862 1.38672 46.435 1.38672C42.8838 1.38672 40.0049 4.26556 40.0049 7.8168C40.0049 11.368 42.8838 14.2469 46.435 14.2469Z" stroke="var(--stroke-0, #10417F)" stroke-width="2.77344" stroke-miterlimit="10" stroke-linecap="round" stroke-linejoin="round"/>
<path id="Vector_7" d="M26.0592 28.516H16.5948C15.7786 28.516 15.117 27.8544 15.117 27.0382V19.6948C15.117 16.686 17.5561 14.2471 20.5647 14.2471H29.0699" stroke="var(--stroke-0, #10417F)" stroke-width="2.77344" stroke-miterlimit="10" stroke-linecap="round" stroke-linejoin="round"/>
<path id="Vector_8" d="M24.5647 14.2469C28.1159 14.2469 30.9948 11.368 30.9948 7.8168C30.9948 4.26556 28.1159 1.38672 24.5647 1.38672C21.0135 1.38672 18.1346 4.26556 18.1346 7.8168C18.1346 11.368 21.0135 14.2469 24.5647 14.2469Z" stroke="var(--stroke-0, #10417F)" stroke-width="2.77344" stroke-miterlimit="10" stroke-linecap="round" stroke-linejoin="round"/>
<circle id="Ellipse" cx="35.4998" cy="37.2793" r="1.38672" fill="var(--fill-0, #10417F)"/>
</g>
</svg>
