<svg preserveAspectRatio="none" width="100%" height="100%" overflow="visible" style="display: block;" viewBox="0 0 40 40" fill="none" xmlns="http://www.w3.org/2000/svg">
<g id="icon.svg (2) 2">
<path id="Vector" fill-rule="evenodd" clip-rule="evenodd" d="M23.6227 19.4015V18.3142C23.6227 18.0341 23.8501 17.8067 24.1302 17.8067C24.4111 17.8067 24.6377 18.0341 24.6377 18.3142V19.4015C24.6377 19.6816 24.4111 19.9085 24.1302 19.9085C23.8502 19.9086 23.6227 19.6816 23.6227 19.4015ZM21.1087 19.4015V18.3142C21.1087 18.0341 21.3361 17.8067 21.6162 17.8067C21.8963 17.8067 22.1237 18.0341 22.1237 18.3142V19.4015C22.1237 19.6816 21.8963 19.9085 21.6162 19.9085C21.3361 19.9086 21.1087 19.6816 21.1087 19.4015ZM23.6227 15.8002V14.7129C23.6227 14.4328 23.8501 14.2054 24.1302 14.2054C24.4111 14.2054 24.6377 14.4328 24.6377 14.7129V15.8002C24.6377 16.0803 24.4111 16.3073 24.1302 16.3073C23.8502 16.3072 23.6227 16.0802 23.6227 15.8002ZM21.1087 15.8002V14.7129C21.1087 14.4328 21.3361 14.2054 21.6162 14.2054C21.8963 14.2054 22.1237 14.4328 22.1237 14.7129V15.8002C22.1237 16.0803 21.8963 16.3073 21.6162 16.3073C21.3361 16.3072 21.1087 16.0802 21.1087 15.8002ZM23.6227 12.1989V11.1116C23.6227 10.8316 23.8501 10.6041 24.1302 10.6041C24.4111 10.6041 24.6377 10.8316 24.6377 11.1116V12.1989C24.6377 12.479 24.4111 12.7064 24.1302 12.7064C23.8502 12.7064 23.6227 12.4789 23.6227 12.1989ZM21.1087 12.1989V11.1116C21.1087 10.8316 21.3361 10.6041 21.6162 10.6041C21.8963 10.6041 22.1237 10.8316 22.1237 11.1116V12.1989C22.1237 12.479 21.8963 12.7064 21.6162 12.7064C21.3361 12.7064 21.1087 12.4789 21.1087 12.1989ZM12.5272 5.43148C12.3292 5.23308 12.3292 4.91156 12.5272 4.71492C14.4793 2.76924 17.6183 2.76924 19.5703 4.71492C19.8901 5.03372 19.6597 5.58028 19.2116 5.58028C19.0816 5.58028 18.9521 5.53068 18.8525 5.43148C17.2993 3.88004 14.7921 3.88276 13.245 5.43148C13.0471 5.62948 12.7256 5.62948 12.5272 5.43148ZM18.1974 6.08612C17.0126 4.90308 15.0848 4.90308 13.9001 6.08612C13.7017 6.28452 13.7017 6.60556 13.9001 6.80396C14.0985 7.00236 14.4196 7.00236 14.6171 6.80396C15.4068 6.01468 16.6908 6.01468 17.4805 6.80396C17.5793 6.90276 17.7092 6.95276 17.8388 6.95276C18.2857 6.95276 18.5187 6.40732 18.1974 6.08612ZM10.0909 19.434L11.3792 18.2736L12.6683 19.4331V22.6508H10.091V19.434H10.0909ZM14.2905 13.9681H18.4147V22.6509H13.6829V14.5756C13.6829 14.2404 13.9557 13.9681 14.2905 13.9681ZM20.1958 7.8622C19.7729 7.8622 19.4297 8.20596 19.4297 8.62884V22.651H26.3168V8.62876C26.3168 8.20588 25.973 7.86212 25.5501 7.86212L20.1958 7.8622ZM29.3387 15.4047C29.6529 15.4047 29.9086 15.6608 29.9086 15.9746V22.6509H27.3313V15.4047H29.3387ZM27.7448 31.504C27.4528 31.7964 26.9773 31.7964 26.6849 31.504C26.2132 31.0326 26.5511 30.2243 27.2146 30.2243C27.879 30.2243 28.2163 31.0331 27.7448 31.504ZM22.8813 35.5101C22.5889 35.8021 22.1135 35.8021 21.821 35.5101C21.3503 35.0394 21.6864 34.23 22.3517 34.23C23.0176 34.23 23.3529 35.0401 22.8813 35.5101ZM20.7495 30.1627C20.7495 30.5757 20.4134 30.9122 19.9996 30.9122C19.5865 30.9122 19.2501 30.5757 19.2501 30.1627C19.2501 29.7492 19.5865 29.4128 19.9996 29.4128C20.4135 29.4128 20.7495 29.7492 20.7495 30.1627ZM17.6481 34.23C18.3125 34.23 18.6505 35.0386 18.1786 35.5101C17.7077 35.9808 16.8985 35.6448 16.8985 34.9796C16.8985 34.5659 17.2342 34.23 17.6481 34.23ZM12.7854 30.2243C13.4475 30.2243 13.7869 31.0318 13.3148 31.504C13.0228 31.7964 12.5473 31.7964 12.2549 31.504C11.7834 31.0329 12.1204 30.2243 12.7854 30.2243ZM34.6015 22.6509H30.9266L30.9313 21.868H30.9233V15.9746C30.9233 15.1011 30.2122 14.39 29.3387 14.39H27.3313V8.62876C27.3313 7.6462 26.5326 6.84756 25.5501 6.84756H20.1958C19.2137 6.84756 18.4146 7.6462 18.4146 8.62876V12.9531H16.5561V7.7142C16.5561 7.43332 16.329 7.20628 16.0489 7.20628C15.7689 7.20628 15.5414 7.43332 15.5414 7.7142V12.9531H14.2904C13.3959 12.9531 12.6682 13.6812 12.6682 14.5756V18.0679L11.7186 17.214C11.5262 17.04 11.2329 17.04 11.0401 17.214L9.24391 18.8302C9.13703 18.9264 9.07631 19.0636 9.07631 19.2068V22.6508H5.39767C5.11719 22.6508 4.89062 22.8779 4.89062 23.158C4.89062 23.4388 5.11727 23.6655 5.39767 23.6655H9.07983L9.10295 27.8021C9.10335 27.9356 9.15679 28.0629 9.25175 28.1579L11.2313 30.1375C10.8722 30.8057 10.974 31.6583 11.537 32.2214C12.2252 32.9091 13.3441 32.9099 14.0327 32.2214C14.721 31.5331 14.721 30.4141 14.0327 29.7262C13.4775 29.1712 12.6281 29.0524 11.9484 29.4196L10.1163 27.5876L10.0945 23.6656H15.2721L15.3277 33.1693C15.3286 33.3032 15.3821 33.431 15.4761 33.5251L16.0943 34.1433C15.4653 35.3052 16.3038 36.7433 17.6481 36.7433C18.1 36.7433 18.5519 36.5714 18.8965 36.2277C19.5837 35.5398 19.5837 34.42 18.8965 33.732C18.3427 33.1782 17.4917 33.0576 16.8122 33.4255L16.341 32.9548L16.2871 23.6656H19.4925V28.4727C18.7657 28.6912 18.2354 29.3663 18.2354 30.1628C18.2354 31.1356 19.0269 31.9269 19.9996 31.9269C20.9727 31.9269 21.7641 31.1355 21.7641 30.1628C21.7641 29.3663 21.234 28.6912 20.5075 28.4727V23.6656H23.7125L23.6586 32.9547L23.1883 33.4254C22.5072 33.058 21.6574 33.1776 21.1031 33.732C20.416 34.4199 20.416 35.5396 21.1031 36.2276C22.2062 37.33 24.1161 36.5538 24.1161 34.9796C24.1161 34.6832 24.0429 34.3968 23.9057 34.1432L24.524 33.525C24.6181 33.4309 24.6715 33.3031 24.6719 33.1692L24.7275 23.6655H29.9061L29.8834 27.5875L28.0513 29.4196C27.3723 29.052 26.5217 29.1715 25.967 29.7261C25.2791 30.414 25.2791 31.533 25.967 32.2213C26.6553 32.9094 27.7746 32.9094 28.4627 32.2213C29.0258 31.6582 29.128 30.8057 28.7684 30.1374L30.748 28.1578C30.8429 28.0629 30.8963 27.9355 30.8972 27.802L30.9207 23.6654H34.6015C34.882 23.6654 35.109 23.4388 35.109 23.1579C35.109 22.878 34.882 22.6509 34.6015 22.6509Z" fill="var(--fill-0, #10417F)"/>
</g>
</svg>
