<svg preserveAspectRatio="none" width="100%" height="100%" overflow="visible" style="display: block;" viewBox="0 0 69 69" fill="none" xmlns="http://www.w3.org/2000/svg">
<g id="14274230 1">
<path id="Vector" d="M64.3115 4.98043H4.6885C2.17754 4.98043 0.134766 7.02307 0.134766 9.53403V51.372C0.134766 53.8828 2.17754 55.9257 4.6885 55.9257H20.0795L16.7806 61.5867C16.4849 62.094 16.481 62.6974 16.7704 63.2009C17.0605 63.7062 17.6003 64.02 18.1787 64.02H50.8215C51.3997 64.02 51.9393 63.7063 52.2296 63.2012C52.5188 62.6977 52.5152 62.0944 52.2197 61.587L48.9207 55.9257H64.3115C66.8225 55.9257 68.8652 53.883 68.8652 51.372V9.53403C68.8652 7.02307 66.8225 4.98043 64.3115 4.98043ZM4.6885 7.13668H64.3115C65.6336 7.13668 66.709 8.21211 66.709 9.53403V47.95H2.29102V9.53403C2.29102 8.21211 3.36645 7.13668 4.6885 7.13668ZM49.8852 61.8637H19.1148L22.5751 55.9256H46.4249L49.8852 61.8637ZM64.3115 53.7694H4.6885C3.36645 53.7694 2.29102 52.6939 2.29102 51.3719V50.1062H66.709V51.3719C66.709 52.6939 65.6336 53.7694 64.3115 53.7694ZM27.0483 22.573L31.6835 24.7933V30.4746C31.6835 31.2252 32.104 31.893 32.7811 32.2172L41.4314 36.361C42.5901 36.916 43.7817 37.1935 44.9734 37.1935C46.1652 37.1935 47.3569 36.916 48.5155 36.361L57.1661 32.2172C57.8429 31.893 58.2635 31.2254 58.2635 30.4746V24.7934L60.0126 23.9556V29.7362L57.967 31.6349C57.7472 31.8389 57.6223 32.1252 57.6223 32.425V36.8622C57.6223 37.4576 58.105 37.9403 58.7004 37.9403H63.4808C64.0762 37.9403 64.5589 37.4576 64.5589 36.8622V32.425C64.5589 32.1252 64.434 31.8388 64.2142 31.6349L62.1687 29.7363V22.9226L62.9812 22.5334C63.4202 22.323 63.6927 21.9034 63.6927 21.4381C63.6925 20.9456 63.3958 20.5093 62.8986 20.2711L45.8124 12.0868C45.3947 11.8866 44.7396 11.7969 44.217 12.0471L26.9657 20.3106C26.9657 20.3104 26.9655 20.3106 26.9657 20.3106C26.5267 20.5211 26.254 20.9409 26.2541 21.4062C26.2542 21.899 26.5514 22.3351 27.0483 22.573ZM62.4026 35.7842H59.7784V32.8954L61.0903 31.6775L62.4024 32.8954L62.4026 35.7842ZM56.1071 30.3336L47.5839 34.4163C45.8761 35.2342 44.0708 35.2344 42.3628 34.4163L33.8398 30.3336V25.8262L44.1351 30.7577C44.3728 30.8716 44.6875 30.9496 45.0106 30.9496C45.2552 30.9496 45.5048 30.9049 45.7298 30.7971L56.1072 25.8262L56.1071 30.3336ZM44.9733 14.0758L59.6147 21.089L45.0284 20.3453C44.436 20.3153 43.9271 20.7724 43.8969 21.3673C43.8665 21.962 44.324 22.4686 44.9187 22.4989L56.7982 23.1045L44.9736 28.7684L29.6368 21.4221L44.9733 14.0758ZM6.51161 40.9067H13.7629C14.6547 40.9067 15.3801 40.1812 15.3801 39.2895V35.381C15.3801 34.4893 14.6547 33.7638 13.7629 33.7638H6.51161C5.61986 33.7638 4.89442 34.4893 4.89442 35.381V39.2895C4.89442 40.1811 5.61986 40.9067 6.51161 40.9067ZM7.05067 35.9199H13.2239V38.7503H7.05067V35.9199ZM32.1513 39.5436L32.4743 39.2205C32.8812 38.8139 33.0183 38.2227 32.8321 37.6774C32.6471 37.1351 32.1779 36.7528 31.6074 36.6797L28.8268 36.3233V35.381C28.8268 34.4893 28.1013 33.7638 27.2096 33.7638H19.9582C19.0665 33.7638 18.3411 34.4893 18.3411 35.381V39.2895C18.3411 40.1812 19.0665 40.9067 19.9582 40.9067H25.3052L25.5409 42.7459C25.6141 43.3165 25.9964 43.7859 26.5389 43.971C27.0843 44.1572 27.6756 44.0197 28.0817 43.6132L28.4047 43.29L31.5586 46.4439C31.8754 46.7606 32.2915 46.9188 32.7073 46.9188C33.1235 46.9188 33.5397 46.7605 33.8564 46.4438L35.3048 44.995C35.9381 44.3616 35.9381 43.3309 35.3048 42.6974L32.1513 39.5436ZM25.3208 36.4595C24.9912 36.7893 24.836 37.244 24.8954 37.707L25.0291 38.7504H20.4976V35.9201H26.6708V36.0469L26.5682 36.0337C26.1053 35.9749 25.6506 36.1296 25.3208 36.4595ZM32.7078 44.5433L29.1673 41.0029C28.9568 40.7924 28.6808 40.6871 28.405 40.6871C28.129 40.6871 27.8531 40.7924 27.6426 41.0029L27.5088 41.1368L27.1427 38.2813L29.9983 38.6473L29.8642 38.7814C29.4432 39.2025 29.4432 39.885 29.8642 40.306L33.4046 43.8464L32.7078 44.5433ZM7.559 14.1789C7.559 13.5835 8.04173 13.1007 8.63713 13.1007H25.0843C25.6797 13.1007 26.1625 13.5835 26.1625 14.1789C26.1625 14.7743 25.6797 15.257 25.0843 15.257H8.63713C8.04173 15.257 7.559 14.7744 7.559 14.1789ZM7.559 28.9038C7.559 28.3084 8.04173 27.8256 8.63713 27.8256H25.0843C25.6797 27.8256 26.1625 28.3084 26.1625 28.9038C26.1625 29.4992 25.6797 29.9819 25.0843 29.9819H8.63713C8.04173 29.9819 7.559 29.4992 7.559 28.9038ZM7.559 23.9955C7.559 23.4001 8.04173 22.9173 8.63713 22.9173H25.0843C25.6797 22.9173 26.1625 23.4001 26.1625 23.9955C26.1625 24.5909 25.6797 25.0736 25.0843 25.0736H8.63713C8.04173 25.0736 7.559 24.5909 7.559 23.9955ZM7.559 19.0872C7.559 18.4918 8.04173 18.009 8.63713 18.009H25.0843C25.6797 18.009 26.1625 18.4918 26.1625 19.0872C26.1625 19.6826 25.6797 20.1653 25.0843 20.1653H8.63713C8.04173 20.1653 7.559 19.6827 7.559 19.0872Z" fill="var(--fill-0, #10417F)"/>
</g>
</svg>
