<svg preserveAspectRatio="none" width="100%" height="100%" overflow="visible" style="display: block;" viewBox="0 0 80 80" fill="none" xmlns="http://www.w3.org/2000/svg">
<g id="Layer_1">
<path id="Vector" fill-rule="evenodd" clip-rule="evenodd" d="M41.6063 26.9903C41.5223 26.518 40.586 26.2775 40.0069 26.2764C38.2335 26.2729 36.4844 25.3014 36.4031 23.5681C36.3746 22.9604 36.6997 21.8068 38.1697 21.1695C38.4273 21.0561 38.7002 20.9683 38.9877 20.906V20.7483C38.9877 20.1895 39.4399 19.7358 40.0002 19.7358C40.5589 19.7358 41.0127 20.1895 41.0127 20.7483V20.8771C41.7514 20.9803 42.4261 21.1841 43.0538 21.4895C43.5572 21.7353 43.7661 22.3399 43.5204 22.8433C43.2764 23.3457 42.67 23.5547 42.1676 23.3107C41.3593 22.9174 39.9005 22.5995 38.9689 23.0308C38.51 23.2254 38.4425 23.4147 38.4289 23.5358C38.4545 23.7115 38.6437 23.8838 38.9901 24.051C39.8337 24.4326 40.5316 24.0419 41.8877 24.6343C44.4695 25.7623 44.1917 28.9483 41.0125 29.6294V29.7804C41.0125 30.3391 40.5588 30.7929 40.0001 30.7929C39.4396 30.7929 38.9876 30.3391 38.9876 29.7804V29.655C38.2796 29.5518 37.5972 29.3479 36.9481 29.0459C36.4405 28.8113 36.2204 28.2073 36.4567 27.7015C36.693 27.194 37.2953 26.9748 37.8028 27.2102C38.7065 27.6302 40.0863 27.9279 41.062 27.5003C41.4989 27.3076 41.585 27.114 41.6063 26.9903ZM40.0002 18.4068C36.2181 18.4068 33.1413 21.4827 33.1413 25.2639C33.1413 29.046 36.2181 32.1228 40.0002 32.1228C43.7815 32.1228 46.8581 29.0462 46.8581 25.2639C46.8581 21.4827 43.7815 18.4068 40.0002 18.4068ZM40.0002 34.1468C44.8972 34.1468 48.8823 30.1625 48.8823 25.2638C48.8823 20.366 44.8972 16.3817 40.0002 16.3817C35.1015 16.3817 31.1172 20.366 31.1172 25.2638C31.1172 30.1625 35.1015 34.1468 40.0002 34.1468ZM67.3306 60.19H12.6698C10.7148 60.19 9.09494 58.7323 8.8391 56.8463H71.1623C70.9055 58.7324 69.2857 60.19 67.3306 60.19ZM46.8914 71.3846H33.109C35.3634 69.2667 36.985 65.9919 37.5581 62.215H42.4423C43.0164 65.9921 44.637 69.2667 46.8914 71.3846ZM61.9559 40.2414C61.9559 39.3193 62.7065 38.5695 63.6277 38.5695C64.5498 38.5695 65.2996 39.3193 65.2996 40.2414C65.2996 41.1627 64.5498 41.9132 63.6277 41.9132C62.7066 41.9132 61.9559 41.1627 61.9559 40.2414ZM18.0444 40.2414C18.0444 41.1627 17.2946 41.9132 16.3725 41.9132C15.4505 41.9132 14.7007 41.1627 14.7007 40.2414C14.7007 39.3193 15.4505 38.5695 16.3725 38.5695C17.2946 38.5695 18.0444 39.3193 18.0444 40.2414ZM12.6698 26.2764C10.5373 26.2764 8.8023 28.0123 8.8023 30.1438V54.8214H71.198V30.1438C71.198 28.0123 69.4639 26.2764 67.3306 26.2764H52.9493C52.9332 26.4871 52.9127 26.6961 52.8871 26.9051L55.2311 29.5075C55.6226 29.9433 55.69 30.578 55.3965 31.0855L52.7386 35.6873C52.4461 36.1948 51.8634 36.4542 51.2903 36.3331L47.8647 35.6046C47.7743 35.6737 47.6813 35.7411 47.5892 35.8076L51.0097 39.2299H60.0743C60.5153 37.6809 61.9407 36.5446 63.6279 36.5446C65.6665 36.5446 67.3247 38.2036 67.3247 40.2414C67.3247 42.2799 65.6665 43.9382 63.6279 43.9382C61.9407 43.9382 60.5154 42.8012 60.0743 41.2539H50.5908C50.3229 41.2539 50.0645 41.1471 49.8743 40.9571L45.8065 36.8875C45.5481 37.0171 45.2879 37.1366 45.0217 37.2491L43.941 40.5766C43.7585 41.1335 43.2425 41.5089 42.6573 41.5089H37.3425C36.7564 41.5089 36.2412 41.1335 36.0588 40.5766L34.9772 37.2475C34.7127 37.1366 34.4525 37.0155 34.1949 36.8875L30.1261 40.9571C29.9359 41.1473 29.6783 41.2539 29.4105 41.2539H19.9261C19.4852 42.8012 18.0597 43.9382 16.3727 43.9382C14.334 43.9382 12.6759 42.2799 12.6759 40.2414C12.6759 38.2036 14.3341 36.5446 16.3727 36.5446C18.0599 36.5446 19.4852 37.6807 19.9261 39.2299H28.9908L32.4113 35.8076C32.3191 35.7411 32.2279 35.6737 32.1357 35.6046L28.7101 36.3331C28.1353 36.455 27.5535 36.1948 27.2601 35.6873L24.6039 31.0855C24.3097 30.578 24.377 29.9433 24.7685 29.5075L27.1117 26.9051C27.0861 26.6969 27.0657 26.4871 27.0495 26.2764H12.6698ZM26.6015 20.03L28.9345 22.6222C29.1409 22.8499 29.2313 23.1604 29.181 23.4641C28.9857 24.6486 28.9855 25.8809 29.181 27.0654C29.2313 27.3683 29.1409 27.6787 28.9345 27.9081L26.6015 30.4987L28.7681 34.25L32.1809 33.5251C32.4828 33.4603 32.7975 33.5387 33.0346 33.734C33.9721 34.5051 35.0196 35.1107 36.1489 35.5347C36.438 35.643 36.6607 35.8758 36.7562 36.171L37.8335 39.4839H42.1649L43.2421 36.171C43.3369 35.8775 43.5612 35.6438 43.8495 35.5347C44.9797 35.1107 46.0289 34.5051 46.9655 33.734C47.2034 33.5387 47.5173 33.4619 47.8202 33.5251L51.2313 34.25L53.3978 30.4987L51.0633 27.9065C50.8585 27.6788 50.7681 27.3683 50.8185 27.0646C51.0135 25.8804 51.0145 24.6476 50.8185 23.4641C50.7681 23.1604 50.8586 22.8499 51.065 22.6222L53.398 20.03L51.2314 16.2787L47.8186 17.0036C47.5167 17.0684 47.202 16.99 46.9649 16.7947C46.0274 16.0236 44.9799 15.4179 43.8498 14.994C43.5615 14.8857 43.3389 14.6519 43.2425 14.3577L42.1652 11.0438H37.8338L36.7565 14.3577C36.661 14.6519 36.4383 14.8857 36.1492 14.994C35.0197 15.418 33.9724 16.0236 33.0349 16.7947C32.7978 16.9916 32.4831 17.0684 32.1812 17.0036L28.7684 16.2787L26.6015 20.03ZM16.3725 11.959C15.4505 11.959 14.7007 11.2092 14.7007 10.2871C14.7007 9.36586 15.4505 8.6153 16.3725 8.6153C17.2946 8.6153 18.0444 9.36586 18.0444 10.2871C18.0444 11.2092 17.2946 11.959 16.3725 11.959ZM63.6269 8.6153C64.549 8.6153 65.298 9.36586 65.298 10.2871C65.298 11.2092 64.549 11.959 63.6269 11.959C62.7049 11.959 61.9559 11.2092 61.9559 10.2871C61.9559 9.36602 62.7049 8.6153 63.6269 8.6153ZM67.3306 24.2513H52.9493C52.9332 24.0423 52.9127 23.8324 52.8871 23.6235L55.2311 21.0211C55.6226 20.5852 55.69 19.9507 55.3957 19.443L52.7386 14.8411C52.4461 14.3318 51.8634 14.0726 51.2893 14.1963L47.8629 14.9238C47.7725 14.8547 47.6796 14.7873 47.5874 14.7207L51.0087 11.2985H60.0724C60.5143 12.8475 61.9396 13.9836 63.6268 13.9836C65.6653 13.9836 67.3228 12.3263 67.3228 10.2868C67.3228 8.24906 65.6655 6.59082 63.6268 6.59082C61.9396 6.59082 60.5143 7.72698 60.0724 9.27434H50.5898C50.3212 9.27434 50.0636 9.3809 49.8733 9.57114L45.8045 13.6407C45.5479 13.5127 45.286 13.3908 45.0215 13.2807L43.9409 9.95162C43.7583 9.39466 43.2423 9.0193 42.6572 9.0193H37.3423C36.7562 9.0193 36.241 9.39466 36.0586 9.95162L34.977 13.2807C34.7125 13.3908 34.4506 13.5127 34.1948 13.6407L30.126 9.57114C29.9357 9.3809 29.6781 9.27434 29.4095 9.27434H19.926C19.485 7.72698 18.0596 6.59082 16.3725 6.59082C14.3338 6.59082 12.6757 8.24906 12.6757 10.2868C12.6757 12.3263 14.334 13.9836 16.3725 13.9836C18.0597 13.9836 19.485 12.8475 19.926 11.2985H28.9906L32.4111 14.7207C32.3189 14.7873 32.2277 14.8547 32.1356 14.9238L28.71 14.1963C28.1359 14.0743 27.5533 14.3319 27.2599 14.8411L24.6037 19.443C24.3095 19.9505 24.3769 20.5851 24.7684 21.0211L27.1116 23.6235C27.086 23.8324 27.0655 24.0423 27.0493 24.2513H12.6698C9.42086 24.2513 6.77734 26.8956 6.77734 30.1438V56.3244C6.77734 59.5718 9.4207 62.2151 12.6698 62.2151H35.5093C34.7698 66.5859 32.4991 70.0983 29.5265 71.3847H22.7452C22.1865 71.3847 21.7327 71.8385 21.7327 72.3972C21.7327 72.9559 22.1865 73.4097 22.7452 73.4097H57.2551C57.8146 73.4097 58.2676 72.9559 58.2676 72.3972C58.2676 71.8385 57.8146 71.3847 57.2551 71.3847H50.4738C47.5012 70.0985 45.2314 66.5859 44.4911 62.2151H67.3306C70.5796 62.2151 73.2231 59.5718 73.2231 56.3244V30.1438C73.2231 26.8956 70.5796 24.2513 67.3306 24.2513Z" fill="var(--fill-0, #10417F)"/>
</g>
</svg>
