<svg preserveAspectRatio="none" width="100%" height="100%" overflow="visible" style="display: block;" viewBox="0 0 73 73" fill="none" xmlns="http://www.w3.org/2000/svg">
<g id="Layer_3">
<path id="Vector" d="M66.1562 55.8906H39.8078C39.6816 55.382 39.4404 54.9091 39.1029 54.5082L32.8032 47.1648C32.6963 47.0398 32.5635 46.9394 32.4141 46.8704C32.2646 46.8015 32.1021 46.7658 31.9375 46.7656H19.3906V45.625C19.3906 45.3225 19.2705 45.0324 19.0565 44.8185C18.8426 44.6045 18.5525 44.4844 18.25 44.4844H2.28125C1.97874 44.4844 1.68861 44.6045 1.47471 44.8185C1.2608 45.0324 1.14063 45.3225 1.14062 45.625V70.7188C1.14063 71.0213 1.2608 71.3114 1.47471 71.5253C1.68861 71.7392 1.97874 71.8594 2.28125 71.8594H11.4062C11.7088 71.8594 11.9989 71.7392 12.2128 71.5253C12.4267 71.3114 12.5469 71.0213 12.5469 70.7188V69.5781H18.25C18.5525 69.5781 18.8426 69.458 19.0565 69.244C19.2705 69.0301 19.3906 68.74 19.3906 68.4375V67.2969H27.0328L33.5891 71.6678C33.7756 71.7921 33.9946 71.8588 34.2188 71.8594C34.3008 71.8591 34.3826 71.8503 34.4628 71.8331L70.9628 63.8488C71.217 63.7931 71.4444 63.6522 71.6075 63.4495C71.7705 63.2469 71.8594 62.9945 71.8594 62.7344V61.5938C71.8576 60.0817 71.2561 58.6322 70.187 57.563C69.1178 56.4939 67.6683 55.8924 66.1562 55.8906ZM10.2656 69.5781H3.42188V46.7656H10.2656V69.5781ZM17.1094 67.2969H12.5469V46.7656H17.1094V67.2969ZM69.5781 61.8219L34.4469 69.5017L28.0069 65.2072C27.8196 65.0828 27.5999 65.0162 27.375 65.0156H19.3906V49.0469H31.4128L37.3657 55.9921C37.5431 56.1989 37.6406 56.4623 37.6406 56.7347V58.1719C37.6406 58.4744 37.5205 58.7645 37.3065 58.9784C37.0926 59.1923 36.8025 59.3125 36.5 59.3125H35.1643C35.0144 59.3126 34.8658 59.2832 34.7273 59.2258C34.5887 59.1685 34.4628 59.0844 34.3568 58.9783L29.322 53.9436L27.7092 55.5564L32.7439 60.5911C33.0609 60.9102 33.4381 61.1631 33.8536 61.3352C34.2691 61.5073 34.7146 61.5952 35.1643 61.5938H36.5C37.4075 61.5938 38.2779 61.2332 38.9196 60.5915C39.5614 59.9498 39.9219 59.0794 39.9219 58.1719H66.1562C67.0638 58.1719 67.9342 58.5324 68.5759 59.1741C69.2176 59.8158 69.5781 60.6862 69.5781 61.5938V61.8219Z" fill="var(--fill-0, #10417F)"/>
<path id="Vector_2" d="M70.7188 35.3594H68.4375V10.2656C68.4375 9.35809 68.077 8.48772 67.4353 7.84599C66.7935 7.20427 65.9232 6.84375 65.0156 6.84375H56.9697C56.9533 6.81581 56.9354 6.78878 56.916 6.76277L53.6904 3.53594C53.4765 3.3221 53.1864 3.20198 52.8839 3.20198C52.5815 3.20198 52.2914 3.3221 52.0775 3.53594L50.8935 4.71991C50.3018 4.41053 49.6838 4.15403 49.0469 3.95341V2.28125C49.0469 1.97874 48.9267 1.68861 48.7128 1.47471C48.4989 1.2608 48.2088 1.14063 47.9062 1.14062H43.3438C43.0412 1.14063 42.7511 1.2608 42.5372 1.47471C42.3233 1.68861 42.2031 1.97874 42.2031 2.28125V3.95341C41.5662 4.15403 40.9482 4.41053 40.3565 4.71991L39.1725 3.53594C38.9586 3.3221 38.6685 3.20198 38.3661 3.20198C38.0636 3.20198 37.7735 3.3221 37.5596 3.53594L34.3328 6.76277C34.3139 6.78881 34.2964 6.81584 34.2803 6.84375H26.2344C25.3268 6.84375 24.4565 7.20427 23.8147 7.84599C23.173 8.48772 22.8125 9.35809 22.8125 10.2656V17.1094H2.28125C1.97874 17.1094 1.68861 17.2295 1.47471 17.4435C1.2608 17.6574 1.14063 17.9475 1.14062 18.25V31.9375C1.14063 32.24 1.2608 32.5301 1.47471 32.744C1.68861 32.958 1.97874 33.0781 2.28125 33.0781H22.8125V35.3594H20.5312C20.2287 35.3594 19.9386 35.4795 19.7247 35.6935C19.5108 35.9074 19.3906 36.1975 19.3906 36.5V41.0625C19.3906 41.97 19.7511 42.8404 20.3929 43.4821C21.0346 44.1239 21.905 44.4844 22.8125 44.4844H68.4375C69.345 44.4844 70.2154 44.1239 70.8571 43.4821C71.4989 42.8404 71.8594 41.97 71.8594 41.0625V36.5C71.8594 36.1975 71.7392 35.9074 71.5253 35.6935C71.3114 35.4795 71.0213 35.3594 70.7188 35.3594ZM66.1562 10.2656V35.3594H63.875V12.5469C63.875 12.2444 63.7548 11.9542 63.5409 11.7403C63.327 11.5264 63.0369 11.4062 62.7344 11.4062H56.4997C56.2991 10.7693 56.0426 10.1514 55.7332 9.55958L56.1678 9.125H65.0156C65.3181 9.125 65.6083 9.24517 65.8222 9.45908C66.0361 9.67299 66.1562 9.96311 66.1562 10.2656ZM30.7969 31.9375V18.25C30.7969 17.9475 30.6767 17.6574 30.4628 17.4435C30.2489 17.2295 29.9588 17.1094 29.6562 17.1094V13.6875H31.9375V17.1094C31.9375 17.4119 32.0577 17.702 32.2716 17.9159C32.4855 18.1298 32.7756 18.25 33.0781 18.25H34.7503C34.9509 18.8869 35.2074 19.5049 35.5168 20.0967L34.3328 21.2806C34.119 21.4945 33.9989 21.7846 33.9989 22.0871C33.9989 22.3895 34.119 22.6796 34.3328 22.8935L37.5596 26.1203C37.7735 26.3341 38.0636 26.4543 38.3661 26.4543C38.6685 26.4543 38.9586 26.3341 39.1725 26.1203L40.3565 24.9363C40.9482 25.2458 41.5662 25.5023 42.2031 25.7028V27.375C42.2031 27.6775 42.3233 27.9676 42.5372 28.1815C42.7511 28.3955 43.0412 28.5156 43.3438 28.5156H47.9062C48.2088 28.5156 48.4989 28.3955 48.7128 28.1815C48.9267 27.9676 49.0469 27.6775 49.0469 27.375V25.7028C49.6839 25.5019 50.3018 25.245 50.8935 24.9352L52.0775 26.1203C52.2914 26.3341 52.5815 26.4543 52.8839 26.4543C53.1864 26.4543 53.4765 26.3341 53.6904 26.1203L56.9172 22.8935C57.131 22.6796 57.2511 22.3895 57.2511 22.0871C57.2511 21.7846 57.131 21.4945 56.9172 21.2806L55.7344 20.0967C56.0433 19.5048 56.2995 18.8869 56.4997 18.25H58.1719C58.4744 18.25 58.7645 18.1298 58.9784 17.9159C59.1923 17.702 59.3125 17.4119 59.3125 17.1094V13.6875H61.5938V35.3594H29.6562V33.0781C29.9588 33.0781 30.2489 32.958 30.4628 32.744C30.6767 32.5301 30.7969 32.24 30.7969 31.9375ZM36.735 12.8001C36.9624 11.8001 37.3586 10.8462 37.9064 9.97933C38.0445 9.7604 38.104 9.50102 38.0752 9.24378C38.0464 8.98654 37.931 8.74676 37.7478 8.56381L36.7532 7.56919L38.3661 5.95634L39.3607 6.95097C39.5436 7.13409 39.7834 7.24954 40.0407 7.27835C40.2979 7.30716 40.5573 7.24762 40.7762 7.10952C41.6431 6.56171 42.597 6.16557 43.597 5.93809C43.8492 5.88066 44.0744 5.7392 44.2357 5.53691C44.3969 5.33463 44.4846 5.08353 44.4844 4.82484V3.42188H46.7656V4.82484C46.7654 5.08353 46.8531 5.33463 47.0143 5.53691C47.1756 5.7392 47.4008 5.88066 47.653 5.93809C48.653 6.16557 49.6069 6.56171 50.4738 7.10952C50.6927 7.24762 50.9521 7.30716 51.2093 7.27835C51.4666 7.24954 51.7064 7.13409 51.8893 6.95097L52.8839 5.95634L54.4968 7.56919L53.5022 8.56381C53.319 8.74676 53.2036 8.98654 53.1748 9.24378C53.146 9.50102 53.2055 9.7604 53.3436 9.97933C53.8914 10.8462 54.2876 11.8001 54.515 12.8001C54.5725 13.0523 54.7139 13.2776 54.9162 13.4388C55.1185 13.6 55.3696 13.6877 55.6283 13.6875H57.0312V15.9688H55.6283C55.3696 15.9685 55.1185 16.0562 54.9162 16.2174C54.7139 16.3787 54.5725 16.6039 54.515 16.8562C54.2876 17.8561 53.8914 18.81 53.3436 19.6769C53.2055 19.8958 53.146 20.1552 53.1748 20.4125C53.2036 20.6697 53.319 20.9095 53.5022 21.0924L54.4968 22.0871L52.8839 23.6999L51.8893 22.7053C51.7064 22.5224 51.4669 22.4072 51.2099 22.3784C50.9529 22.3495 50.6937 22.4089 50.4749 22.5467C49.6079 23.0942 48.654 23.4903 47.6542 23.7182C47.4019 23.7753 47.1766 23.9165 47.0151 24.1186C46.8537 24.3207 46.7657 24.5716 46.7656 24.8303V26.2344H44.4844V24.8303C44.4843 24.5716 44.3963 24.3207 44.2349 24.1186C44.0734 23.9165 43.8481 23.7753 43.5958 23.7182C42.596 23.4903 41.6421 23.0942 40.7751 22.5467C40.5563 22.4089 40.2971 22.3495 40.0401 22.3784C39.7831 22.4072 39.5436 22.5224 39.3607 22.7053L38.3661 23.6999L36.7532 22.0871L37.7478 21.0924C37.931 20.9095 38.0464 20.6697 38.0752 20.4125C38.104 20.1552 38.0445 19.8958 37.9064 19.6769C37.3586 18.81 36.9624 17.8561 36.735 16.8562C36.6775 16.6039 36.5361 16.3787 36.3338 16.2174C36.1315 16.0562 35.8804 15.9685 35.6217 15.9688H34.2188V13.6875H35.6217C35.8804 13.6877 36.1315 13.6 36.3338 13.4388C36.5361 13.2776 36.6775 13.0523 36.735 12.8001ZM25.0938 10.2656C25.0938 9.96311 25.2139 9.67299 25.4278 9.45908C25.6417 9.24517 25.9319 9.125 26.2344 9.125H35.0822L35.5168 9.55958C35.2074 10.1514 34.9509 10.7693 34.7503 11.4062H28.5156C28.2131 11.4062 27.923 11.5264 27.7091 11.7403C27.4952 11.9542 27.375 12.2444 27.375 12.5469V17.1094H25.0938V10.2656ZM3.42188 19.3906H28.5156V30.7969H3.42188V19.3906ZM25.0938 33.0781H27.375V35.3594H25.0938V33.0781ZM69.5781 41.0625C69.5781 41.365 69.458 41.6551 69.244 41.869C69.0301 42.083 68.74 42.2031 68.4375 42.2031H22.8125C22.51 42.2031 22.2199 42.083 22.006 41.869C21.792 41.6551 21.6719 41.365 21.6719 41.0625V37.6406H69.5781V41.0625Z" fill="var(--fill-0, #10417F)"/>
<path id="Vector_3" d="M45.625 21.6719C46.9786 21.6719 48.3017 21.2705 49.4272 20.5185C50.5526 19.7665 51.4298 18.6976 51.9478 17.4471C52.4658 16.1966 52.6013 14.8205 52.3372 13.493C52.0732 12.1654 51.4214 10.946 50.4643 9.98887C49.5071 9.03175 48.2877 8.37995 46.9602 8.11588C45.6326 7.85181 44.2565 7.98734 43.006 8.50533C41.7555 9.02331 40.6866 9.9005 39.9346 11.0259C39.1826 12.1514 38.7812 13.4746 38.7812 14.8281C38.7831 16.6426 39.5047 18.3823 40.7877 19.6654C42.0708 20.9484 43.8105 21.6701 45.625 21.6719ZM45.625 10.2656C46.5274 10.2656 47.4095 10.5332 48.1598 11.0345C48.9101 11.5359 49.4949 12.2484 49.8402 13.0821C50.1855 13.9158 50.2759 14.8332 50.0998 15.7182C49.9238 16.6033 49.4893 17.4162 48.8512 18.0543C48.2131 18.6924 47.4001 19.1269 46.5151 19.303C45.6301 19.479 44.7127 19.3887 43.879 19.0433C43.0453 18.698 42.3328 18.1132 41.8314 17.3629C41.3301 16.6126 41.0625 15.7305 41.0625 14.8281C41.0625 13.6181 41.5432 12.4576 42.3988 11.602C43.2545 10.7463 44.4149 10.2656 45.625 10.2656Z" fill="var(--fill-0, #10417F)"/>
<path id="Vector_4" d="M9.45896 20.8654L6.03708 24.2873C5.82325 24.5012 5.70313 24.7913 5.70312 25.0937C5.70313 25.3962 5.82325 25.6862 6.03708 25.9001L9.45896 29.322L11.0718 27.7092L8.45635 25.0937L11.0718 22.4783L9.45896 20.8654Z" fill="var(--fill-0, #10417F)"/>
<path id="Vector_5" d="M22.4783 20.8654L20.8654 22.4783L23.4809 25.0937L20.8654 27.7092L22.4783 29.322L25.9001 25.9001C26.114 25.6862 26.2341 25.3962 26.2341 25.0937C26.2341 24.7913 26.114 24.5012 25.9001 24.2873L22.4783 20.8654Z" fill="var(--fill-0, #10417F)"/>
<path id="Vector_6" d="M17.2304 20.0209L12.6681 29.1456L14.7085 30.1658L19.2708 21.0411L17.2304 20.0209Z" fill="var(--fill-0, #10417F)"/>
</g>
</svg>
