<svg preserveAspectRatio="none" width="100%" height="100%" overflow="visible" style="display: block;" viewBox="0 0 76.9609 76.9609" fill="none" xmlns="http://www.w3.org/2000/svg">
<g id="icon.svg (5) 2">
<path id="Vector" d="M20.6197 45.6826C20.8441 45.9093 21.1493 46.0375 21.4683 46.0391C21.7872 46.0407 22.0937 45.9156 22.3204 45.6912C22.547 45.4668 22.6753 45.1616 22.6769 44.8426C22.6785 44.5237 22.5533 44.2172 22.3289 43.9905C18.038 39.6373 15.6326 33.7703 15.6326 27.6578C15.6326 21.5452 18.038 15.6782 22.3289 11.325C22.5533 11.0983 22.6785 10.7918 22.6769 10.4729C22.6753 10.1539 22.547 9.8487 22.3204 9.62432C22.0937 9.39993 21.7872 9.27478 21.4683 9.27638C21.1493 9.27799 20.8441 9.40623 20.6197 9.63288C15.883 14.4365 13.2275 20.9116 13.2275 27.6578C13.2275 34.4039 15.883 40.879 20.6197 45.6826Z" fill="var(--fill-0, #10417F)"/>
<path id="Vector_2" d="M54.6408 45.6913C54.8675 45.9157 55.174 46.0408 55.4929 46.0392C55.8118 46.0376 56.117 45.9094 56.3414 45.6828C61.078 40.8791 63.7335 34.404 63.7335 27.6578C63.7335 20.9116 61.078 14.4365 56.3414 9.63288C56.117 9.40623 55.8117 9.27799 55.4928 9.27638C55.1739 9.27478 54.8674 9.39993 54.6407 9.62432C54.414 9.8487 54.2858 10.1539 54.2842 10.4729C54.2826 10.7918 54.4077 11.0983 54.6321 11.325C58.923 15.6783 61.3285 21.5453 61.3285 27.6578C61.3285 33.7704 58.923 39.6374 54.6321 43.9907C54.521 44.1029 54.4331 44.2359 54.3734 44.3821C54.3137 44.5284 54.2834 44.6849 54.2843 44.8428C54.2851 45.0007 54.317 45.157 54.3782 45.3025C54.4393 45.4481 54.5286 45.5802 54.6408 45.6913Z" fill="var(--fill-0, #10417F)"/>
<path id="Vector_3" d="M14.6718 52.9108C14.9091 52.9108 15.1411 52.8406 15.3386 52.709C15.5361 52.5774 15.6903 52.3903 15.7817 52.1713C15.873 51.9523 15.8976 51.7111 15.8522 51.4782C15.8068 51.2453 15.6934 51.031 15.5265 50.8623C9.43005 44.6777 6.01243 36.3423 6.01243 27.658C6.01243 18.9737 9.43005 10.6383 15.5265 4.45367C15.6382 4.34157 15.7267 4.20852 15.7869 4.06216C15.847 3.9158 15.8777 3.75899 15.8772 3.60074C15.8767 3.44249 15.8449 3.2859 15.7837 3.13996C15.7225 2.99401 15.6331 2.86157 15.5207 2.75024C15.4082 2.63891 15.2749 2.55087 15.1283 2.49118C14.9817 2.43148 14.8248 2.4013 14.6666 2.40237C14.5083 2.40344 14.3518 2.43573 14.2061 2.4974C14.0604 2.55906 13.9282 2.64889 13.8173 2.76173C7.27508 9.39668 3.60742 18.3401 3.60742 27.658C3.60742 36.9759 7.27508 45.9193 13.8173 52.5543C13.9289 52.6674 14.062 52.7572 14.2087 52.8184C14.3554 52.8796 14.5128 52.911 14.6718 52.9108Z" fill="var(--fill-0, #10417F)"/>
<path id="Vector_4" d="M70.9477 27.658C70.9787 36.3483 67.5565 44.6951 61.4337 50.8623C61.322 50.9744 61.2335 51.1075 61.1734 51.2538C61.1132 51.4002 61.0825 51.557 61.083 51.7152C61.0836 51.8735 61.1153 52.0301 61.1765 52.176C61.2377 52.322 61.3271 52.4544 61.4395 52.5657C61.552 52.6771 61.6854 52.7651 61.8319 52.8248C61.9785 52.8845 62.1354 52.9147 62.2936 52.9136C62.4519 52.9125 62.6084 52.8803 62.7541 52.8186C62.8998 52.7569 63.032 52.6671 63.1429 52.5543C69.6851 45.9193 73.3528 36.9759 73.3528 27.658C73.3528 18.3401 69.6851 9.39668 63.1429 2.76173C63.032 2.64889 62.8998 2.55906 62.7541 2.4974C62.6084 2.43573 62.4519 2.40344 62.2936 2.40237C62.1354 2.4013 61.9785 2.43148 61.8319 2.49118C61.6854 2.55087 61.552 2.63891 61.4395 2.75024C61.3271 2.86157 61.2377 2.99401 61.1765 3.13996C61.1153 3.2859 61.0836 3.44249 61.083 3.60074C61.0825 3.75899 61.1132 3.9158 61.1734 4.06216C61.2335 4.20852 61.322 4.34157 61.4337 4.45367C67.5565 10.6209 70.9787 18.9677 70.9477 27.658Z" fill="var(--fill-0, #10417F)"/>
<path id="Vector_5" d="M28.2767 39.1681C28.514 39.1682 28.7461 39.098 28.9436 38.9664C29.1411 38.8348 29.2953 38.6477 29.3867 38.4286C29.4781 38.2096 29.5026 37.9684 29.4572 37.7354C29.4117 37.5025 29.2984 37.2882 29.1314 37.1195C26.646 34.5976 25.2527 31.1991 25.2527 27.6583C25.2527 24.1175 26.646 20.7189 29.1314 18.197C29.3558 17.9704 29.4809 17.6639 29.4793 17.3449C29.4777 17.026 29.3495 16.7208 29.1228 16.4964C28.8961 16.272 28.5896 16.1468 28.2707 16.1485C27.9518 16.1501 27.6465 16.2783 27.4221 16.505C24.491 19.4772 22.8477 23.4838 22.8477 27.6583C22.8477 31.8327 24.491 35.8394 27.4221 38.8116C27.5338 38.9247 27.6669 39.0145 27.8136 39.0757C27.9603 39.1369 28.1177 39.1683 28.2767 39.1681Z" fill="var(--fill-0, #10417F)"/>
<path id="Vector_6" d="M47.8378 38.8206C48.0644 39.045 48.3709 39.1701 48.6898 39.1685C49.0087 39.1669 49.3139 39.0387 49.5383 38.812C52.4694 35.8398 54.1126 31.8331 54.1126 27.6587C54.1126 23.4843 52.4694 19.4777 49.5383 16.5054C49.3126 16.285 49.0094 16.162 48.6939 16.1631C48.3785 16.1642 48.076 16.2891 47.8519 16.5111C47.6277 16.7331 47.4997 17.0342 47.4956 17.3496C47.4914 17.6651 47.6113 17.9695 47.8295 18.1973C50.3149 20.7193 51.7081 24.1179 51.7081 27.6587C51.7081 31.1995 50.3149 34.5981 47.8295 37.1201C47.6051 37.3467 47.4799 37.6532 47.4815 37.9721C47.483 38.291 47.6112 38.5962 47.8378 38.8206Z" fill="var(--fill-0, #10417F)"/>
<path id="Vector_7" d="M61.3278 57.7207H39.6825V33.5502C41.1424 33.2522 42.4397 32.4227 43.3227 31.2226C44.2058 30.0225 44.6119 28.5372 44.4621 27.0547C44.3123 25.5723 43.6175 24.1982 42.5122 23.199C41.4069 22.1997 39.97 21.6465 38.48 21.6465C36.99 21.6465 35.553 22.1997 34.4478 23.199C33.3425 24.1982 32.6476 25.5723 32.4979 27.0547C32.3481 28.5372 32.7541 30.0225 33.6372 31.2226C34.5203 32.4227 35.8176 33.2522 37.2775 33.5502V57.7207H15.6322C12.7629 57.7239 10.0119 58.8652 7.98301 60.8941C5.95407 62.9231 4.81279 65.674 4.80957 68.5433V73.3534C4.80957 73.6723 4.93626 73.9782 5.16178 74.2037C5.38729 74.4292 5.69316 74.5559 6.01208 74.5559H70.9479C71.2668 74.5559 71.5727 74.4292 71.7982 74.2037C72.0237 73.9782 72.1504 73.6723 72.1504 73.3534V68.5433C72.1472 65.674 71.0059 62.9231 68.977 60.8941C66.948 58.8652 64.1971 57.7239 61.3278 57.7207ZM34.8724 27.6578C34.8724 26.9443 35.084 26.2468 35.4804 25.6536C35.8768 25.0603 36.4402 24.5979 37.0994 24.3249C37.7586 24.0518 38.484 23.9804 39.1838 24.1196C39.8836 24.2588 40.5264 24.6024 41.0309 25.1069C41.5354 25.6114 41.879 26.2542 42.0182 26.954C42.1574 27.6538 42.086 28.3792 41.8129 29.0384C41.5399 29.6976 41.0775 30.261 40.4842 30.6574C39.891 31.0538 39.1935 31.2654 38.48 31.2654C37.5235 31.2643 36.6066 30.8838 35.9303 30.2075C35.254 29.5312 34.8736 28.6143 34.8724 27.6578ZM69.7454 72.1509H7.2146V68.5433C7.21711 66.3116 8.10476 64.172 9.68283 62.594C11.2609 61.0159 13.4005 60.1282 15.6322 60.1257H61.3278C63.5595 60.1282 65.6991 61.0159 67.2771 62.594C68.8552 64.172 69.7429 66.3116 69.7454 68.5433V72.1509Z" fill="var(--fill-0, #10417F)"/>
<path id="Vector_8" d="M38.4799 67.3416C39.144 67.3416 39.6824 66.8032 39.6824 66.139C39.6824 65.4749 39.144 64.9365 38.4799 64.9365C37.8157 64.9365 37.2773 65.4749 37.2773 66.139C37.2773 66.8032 37.8157 67.3416 38.4799 67.3416Z" fill="var(--fill-0, #10417F)"/>
<path id="Vector_9" d="M43.2904 67.3416C43.9545 67.3416 44.4929 66.8032 44.4929 66.139C44.4929 65.4749 43.9545 64.9365 43.2904 64.9365C42.6263 64.9365 42.0879 65.4749 42.0879 66.139C42.0879 66.8032 42.6263 67.3416 43.2904 67.3416Z" fill="var(--fill-0, #10417F)"/>
<path id="Vector_10" d="M48.1 67.3416C48.7641 67.3416 49.3025 66.8032 49.3025 66.139C49.3025 65.4749 48.7641 64.9365 48.1 64.9365C47.4358 64.9365 46.8975 65.4749 46.8975 66.139C46.8975 66.8032 47.4358 67.3416 48.1 67.3416Z" fill="var(--fill-0, #10417F)"/>
<path id="Vector_11" d="M33.6703 67.3416C34.3344 67.3416 34.8728 66.8032 34.8728 66.139C34.8728 65.4749 34.3344 64.9365 33.6703 64.9365C33.0062 64.9365 32.4678 65.4749 32.4678 66.139C32.4678 66.8032 33.0062 67.3416 33.6703 67.3416Z" fill="var(--fill-0, #10417F)"/>
<path id="Vector_12" d="M28.8597 67.3416C29.5239 67.3416 30.0623 66.8032 30.0623 66.139C30.0623 65.4749 29.5239 64.9365 28.8597 64.9365C28.1956 64.9365 27.6572 65.4749 27.6572 66.139C27.6572 66.8032 28.1956 67.3416 28.8597 67.3416Z" fill="var(--fill-0, #10417F)"/>
</g>
</svg>
