<svg preserveAspectRatio="none" width="100%" height="100%" overflow="visible" style="display: block;" viewBox="0 0 39.9527 39.9527" fill="none" xmlns="http://www.w3.org/2000/svg">
<g id="icon.svg 1" clip-path="url(#clip0_0_19)">
<path id="Vector" d="M37.2962 17.3174C36.0877 17.3219 35.0344 18.1413 34.7322 19.3112H33.3086V20.6404H34.7322C35.0801 21.9748 36.3915 22.8205 37.7506 22.5865C39.1093 22.3526 40.0627 21.1171 39.9443 19.7435C39.8258 18.3698 38.6751 17.3154 37.2962 17.3174ZM37.2962 21.305C36.5622 21.305 35.967 20.7102 35.967 19.9758C35.967 19.2418 36.5622 18.6466 37.2962 18.6466C38.0306 18.6466 38.6254 19.2418 38.6254 19.9758C38.6254 20.7102 38.0306 21.305 37.2962 21.305Z" fill="var(--fill-0, #10417F)"/>
<path id="Vector_2" d="M15.3589 5.35353C15.7506 5.35126 16.1365 5.26167 16.489 5.09095L17.76 6.61676C17.3099 7.33114 17.2294 8.21786 17.5432 9.0017C17.8574 9.78554 18.5283 10.3714 19.3472 10.5772V12.0007H20.6766V10.5772C21.4958 10.3714 22.1664 9.78554 22.4806 9.0017C22.7948 8.21786 22.7143 7.33114 22.2641 6.61676L23.5351 5.09095C23.8876 5.26167 24.2735 5.35126 24.665 5.35353C25.9032 5.36197 26.9856 4.52003 27.282 3.31782C27.5786 2.11561 27.0116 0.866667 25.9116 0.298669C24.8113 -0.269654 23.465 -0.00902394 22.6562 0.928335C21.8474 1.86602 21.7873 3.23603 22.5108 4.2409L21.2962 5.69855C20.502 5.23863 19.5221 5.23863 18.7279 5.69855L17.5134 4.2409C18.2245 3.2435 18.1602 1.88906 17.3582 0.963389C16.5559 0.0377142 15.2242 -0.218372 14.1359 0.343784C13.0476 0.90594 12.4854 2.13996 12.7763 3.32983C13.0668 4.52003 14.1339 5.35612 15.3589 5.35353ZM24.665 1.36521C25.3995 1.36521 25.9944 1.96047 25.9944 2.69465C25.9944 3.42915 25.3995 4.02409 24.665 4.02409C23.9308 4.02409 23.3355 3.42915 23.3355 2.69465C23.3355 1.96047 23.9308 1.36521 24.665 1.36521ZM20.0119 6.68297C20.7464 6.68297 21.3414 7.27823 21.3414 8.01241C21.3414 8.74691 20.7464 9.34185 20.0119 9.34185C19.2777 9.34185 18.6825 8.74691 18.6825 8.01241C18.6825 7.27823 19.2777 6.68297 20.0119 6.68297ZM15.3589 1.36521C16.0934 1.36521 16.6883 1.96047 16.6883 2.69465C16.6883 3.42915 16.0934 4.02409 15.3589 4.02409C14.6247 4.02409 14.0294 3.42915 14.0294 2.69465C14.0294 1.96047 14.6247 1.36521 15.3589 1.36521Z" fill="var(--fill-0, #10417F)"/>
<path id="Vector_3" d="M25.5205 13.5234L26.4603 14.4632L29.3008 11.6227C29.7062 11.867 30.1699 11.9972 30.6427 11.9994C32.1112 11.9994 33.3012 10.8094 33.3012 9.34097C33.3012 7.87284 32.1112 6.6825 30.6427 6.6825C29.1746 6.6825 27.9843 7.87284 27.9843 9.34097C27.9869 9.81412 28.117 10.2779 28.3613 10.6829L25.5205 13.5234ZM30.6427 8.01174C31.3771 8.01174 31.972 8.60691 31.972 9.34097C31.972 10.0754 31.3771 10.6702 30.6427 10.6702C29.9087 10.6702 29.3135 10.0754 29.3135 9.34097C29.3135 8.60691 29.9087 8.01174 30.6427 8.01174Z" fill="var(--fill-0, #10417F)"/>
<path id="Vector_4" d="M32.8361 6.21298L33.6145 5.4342L34.5543 6.37393L33.7758 7.15272L32.8361 6.21298Z" fill="var(--fill-0, #10417F)"/>
<path id="Vector_5" d="M35.4962 5.43352L35.9535 4.97623C36.3589 5.22061 36.8227 5.35076 37.2955 5.35303C38.7641 5.35303 39.9543 4.1629 39.9543 2.69431C39.9543 1.22604 38.7641 0.0355893 37.2955 0.0355893C35.8273 0.0355893 34.6368 1.22604 34.6368 2.69431C34.6394 3.16751 34.7696 3.63129 35.014 4.03633L34.5567 4.49362L35.4962 5.43352ZM37.2955 1.36495C38.03 1.36495 38.6249 1.96018 38.6249 2.69431C38.6249 3.42877 38.03 4.02367 37.2955 4.02367C36.5614 4.02367 35.9662 3.42877 35.9662 2.69431C35.9662 1.96018 36.5614 1.36495 37.2955 1.36495Z" fill="var(--fill-0, #10417F)"/>
<path id="Vector_6" d="M9.37703 11.9994C9.85018 11.9972 10.3139 11.867 10.7189 11.6227L13.5595 14.4632L14.4993 13.5234L11.6587 10.6829C11.9031 10.2779 12.0332 9.81412 12.0355 9.34097C12.0355 7.87284 10.8455 6.6825 9.37703 6.6825C7.90889 6.6825 6.71855 7.87284 6.71855 9.34097C6.71855 10.8094 7.90889 11.9994 9.37703 11.9994ZM9.37703 8.01174C10.1114 8.01174 10.7063 8.60691 10.7063 9.34097C10.7063 10.0754 10.1114 10.6702 9.37703 10.6702C8.64296 10.6702 8.04779 10.0754 8.04779 9.34097C8.04779 8.60691 8.64296 8.01174 9.37703 8.01174Z" fill="var(--fill-0, #10417F)"/>
<path id="Vector_7" d="M2.7328 5.35303C3.206 5.35076 3.66978 5.22061 4.07482 4.97623L4.53211 5.43352L5.47201 4.49362L5.01472 4.03633C5.25911 3.63129 5.38925 3.16751 5.39152 2.69431C5.39152 1.22604 4.20139 0.0355893 2.7328 0.0355893C1.26453 0.0355893 0.0740801 1.22604 0.0740801 2.69431C0.0740801 4.1629 1.26453 5.35303 2.7328 5.35303ZM2.7328 1.36495C3.46726 1.36495 4.06216 1.96018 4.06216 2.69431C4.06216 3.42877 3.46726 4.02367 2.7328 4.02367C1.99867 4.02367 1.40344 3.42877 1.40344 2.69431C1.40344 1.96018 1.99867 1.36495 2.7328 1.36495Z" fill="var(--fill-0, #10417F)"/>
<path id="Vector_8" d="M5.46973 6.37382L6.40946 5.43408L7.18825 6.21287L6.24819 7.1526L5.46973 6.37382Z" fill="var(--fill-0, #10417F)"/>
<path id="Vector_9" d="M30.6427 27.9523C30.1699 27.9549 29.7062 28.0851 29.3008 28.3294L26.4603 25.4886L25.5205 26.4284L28.3613 29.2689C28.117 29.6743 27.9869 30.138 27.9843 30.6108C27.9843 32.0793 29.1746 33.2693 30.6427 33.2693C32.1112 33.2693 33.3012 32.0793 33.3012 30.6108C33.3012 29.1427 32.1112 27.9523 30.6427 27.9523ZM30.6427 31.9401C29.9087 31.9401 29.3135 31.3452 29.3135 30.6108C29.3135 29.8768 29.9087 29.2816 30.6427 29.2816C31.3771 29.2816 31.972 29.8768 31.972 30.6108C31.972 31.3452 31.3771 31.9401 30.6427 31.9401Z" fill="var(--fill-0, #10417F)"/>
<path id="Vector_10" d="M37.2955 34.5993C36.8227 34.6019 36.3589 34.7321 35.9535 34.9764L35.4962 34.5191L34.5567 35.4587L35.014 35.916C34.7696 36.3214 34.6394 36.7852 34.6368 37.258C34.6368 38.7266 35.8273 39.9168 37.2955 39.9168C38.7641 39.9168 39.9543 38.7266 39.9543 37.258C39.9543 35.7898 38.7641 34.5993 37.2955 34.5993ZM37.2955 38.5874C36.5614 38.5874 35.9662 37.9925 35.9662 37.258C35.9662 36.5239 36.5614 35.9287 37.2955 35.9287C38.03 35.9287 38.6249 36.5239 38.6249 37.258C38.6249 37.9925 38.03 38.5874 37.2955 38.5874Z" fill="var(--fill-0, #10417F)"/>
<path id="Vector_11" d="M24.6662 34.5998C24.2744 34.6034 23.8885 34.6943 23.5364 34.866L22.2654 33.3369C22.7155 32.6226 22.796 31.7358 22.4818 30.952C22.1677 30.1682 21.4971 29.5823 20.6779 29.3765V27.9526H19.3484V29.3765C18.5295 29.5823 17.8587 30.1682 17.5445 30.952C17.2306 31.7358 17.3111 32.6226 17.7613 33.3369L16.4903 34.866C16.1381 34.6943 15.7519 34.6034 15.3601 34.5998C14.1219 34.5917 13.0398 35.4337 12.7431 36.6359C12.4468 37.8381 13.0135 39.0867 14.1138 39.655C15.2141 40.2233 16.5604 39.9627 17.3692 39.0254C18.178 38.0877 18.2381 36.7177 17.5146 35.7128L18.7292 34.2548C19.5234 34.7151 20.5033 34.7151 21.2975 34.2548L22.512 35.7128C21.8009 36.7102 21.8652 38.0646 22.6672 38.9903C23.4695 39.916 24.8012 40.1721 25.8895 39.6099C26.9778 39.0478 27.5396 37.8137 27.2491 36.6235C26.9586 35.4337 25.8911 34.5972 24.6662 34.5998ZM15.3601 38.5882C14.6259 38.5882 14.0307 37.9932 14.0307 37.2587C14.0307 36.5245 14.6259 35.9293 15.3601 35.9293C16.0946 35.9293 16.6896 36.5245 16.6896 37.2587C16.6896 37.9932 16.0946 38.5882 15.3601 38.5882ZM20.0132 33.2704C19.279 33.2704 18.6837 32.6755 18.6837 31.941C18.6837 31.2068 19.279 30.6115 20.0132 30.6115C20.7477 30.6115 21.3426 31.2068 21.3426 31.941C21.3426 32.6755 20.7477 33.2704 20.0132 33.2704ZM24.6662 38.5882C23.932 38.5882 23.3368 37.9932 23.3368 37.2587C23.3368 36.5245 23.932 35.9293 24.6662 35.9293C25.4007 35.9293 25.9956 36.5245 25.9956 37.2587C25.9956 37.9932 25.4007 38.5882 24.6662 38.5882Z" fill="var(--fill-0, #10417F)"/>
<path id="Vector_12" d="M32.836 33.7397L33.7758 32.8L34.5542 33.5785L33.6145 34.5185L32.836 33.7397Z" fill="var(--fill-0, #10417F)"/>
<path id="Vector_13" d="M4.53211 34.5191L4.07482 34.9764C3.66978 34.7321 3.206 34.6019 2.7328 34.5993C1.26453 34.5993 0.0740801 35.7898 0.0740801 37.258C0.0740801 38.7266 1.26453 39.9168 2.7328 39.9168C4.20139 39.9168 5.39152 38.7266 5.39152 37.258C5.38925 36.7852 5.25911 36.3214 5.01472 35.916L5.47201 35.4587L4.53211 34.5191ZM2.7328 38.5874C1.99867 38.5874 1.40344 37.9925 1.40344 37.258C1.40344 36.5239 1.99867 35.9287 2.7328 35.9287C3.46726 35.9287 4.06216 36.5239 4.06216 37.258C4.06216 37.9925 3.46726 38.5874 2.7328 38.5874Z" fill="var(--fill-0, #10417F)"/>
<path id="Vector_14" d="M14.4993 26.4284L13.5595 25.4886L10.7189 28.3294C10.3139 28.0851 9.85018 27.9549 9.37703 27.9523C7.90889 27.9523 6.71855 29.1427 6.71855 30.6108C6.71855 32.0793 7.90889 33.2693 9.37703 33.2693C10.8455 33.2693 12.0355 32.0793 12.0355 30.6108C12.0332 30.138 11.9031 29.6743 11.6587 29.2689L14.4993 26.4284ZM9.37703 31.9401C8.64296 31.9401 8.04779 31.3452 8.04779 30.6108C8.04779 29.8768 8.64296 29.2816 9.37703 29.2816C10.1114 29.2816 10.7063 29.8768 10.7063 30.6108C10.7063 31.3452 10.1114 31.9401 9.37703 31.9401Z" fill="var(--fill-0, #10417F)"/>
<path id="Vector_15" d="M5.46973 33.5783L6.24819 32.7998L7.18825 33.7395L6.40946 34.5183L5.46973 33.5783Z" fill="var(--fill-0, #10417F)"/>
<path id="Vector_16" d="M27.9863 19.3113H29.3159V20.641H27.9863V19.3113Z" fill="var(--fill-0, #10417F)"/>
<path id="Vector_17" d="M30.6472 19.3113H31.9769V20.641H30.6472V19.3113Z" fill="var(--fill-0, #10417F)"/>
<path id="Vector_18" d="M2.73173 22.6343C3.94055 22.6297 4.99392 21.8106 5.29605 20.6404H6.71937V19.3112H5.29605C4.94817 17.9772 3.63648 17.1315 2.27773 17.3654C0.918989 17.5991 -0.0344356 18.8348 0.0840124 20.2085C0.20246 21.5822 1.35319 22.6365 2.73173 22.6343ZM2.73173 18.6466C3.46611 18.6466 4.06094 19.2418 4.06094 19.9758C4.06094 20.7102 3.46611 21.3051 2.73173 21.3051C1.99768 21.3051 1.40252 20.7102 1.40252 19.9758C1.40252 19.2418 1.99768 18.6466 2.73173 18.6466Z" fill="var(--fill-0, #10417F)"/>
<path id="Vector_19" d="M10.7062 19.3115H12.0358V20.6411H10.7062V19.3115Z" fill="var(--fill-0, #10417F)"/>
<path id="Vector_20" d="M8.0451 19.3113H9.37473V20.641H8.0451V19.3113Z" fill="var(--fill-0, #10417F)"/>
<path id="Vector_21" d="M20.0144 13.3296C16.3435 13.3296 13.3672 16.3059 13.3672 19.9768C13.3672 23.648 16.3435 26.624 20.0144 26.624C23.6856 26.624 26.6616 23.648 26.6616 19.9768C26.6577 16.3075 23.684 13.3338 20.0144 13.3296ZM16.6908 24.1216V24.0755C17.1007 22.9018 17.7693 21.835 18.6473 20.9547L18.6723 20.9294C19.4967 21.4322 20.5324 21.4322 21.3565 20.9294L21.3818 20.9547C22.2598 21.835 22.9284 22.9018 23.338 24.0755V24.1216C21.3984 25.6857 18.6307 25.6857 16.6908 24.1216ZM20.0144 19.9768C19.2802 19.9768 18.6849 19.3819 18.6849 18.6474C18.6849 17.9132 19.2802 17.3179 20.0144 17.3179C20.7489 17.3179 21.3438 17.9132 21.3438 18.6474C21.3438 19.3819 20.7489 19.9768 20.0144 19.9768ZM24.3497 23.0459C23.8739 21.9151 23.1854 20.8862 22.3218 20.0148L22.2964 19.9894C22.5408 19.5844 22.671 19.1206 22.6733 18.6474C22.6733 17.179 21.4831 15.9885 20.0144 15.9885C18.546 15.9885 17.3555 17.179 17.3555 18.6474C17.3581 19.1206 17.4883 19.5844 17.7327 19.9894L17.7073 20.0148C16.8437 20.8862 16.1552 21.9151 15.6791 23.0459C14.1114 20.8389 14.4519 17.8061 16.4704 16.0018C18.4886 14.1975 21.5405 14.1975 23.5587 16.0018C25.5769 17.8061 25.9177 20.8389 24.3497 23.0459Z" fill="var(--fill-0, #10417F)"/>
</g>
<defs>
<clipPath id="clip0_0_19">
<rect width="39.9527" height="39.9527" fill="white"/>
</clipPath>
</defs>
</svg>
