<svg width="52" height="52" viewBox="0 0 52 52" fill="none" xmlns="http://www.w3.org/2000/svg">
<path d="M18.401 45.351H11.051C8.45185 45.351 5.95919 44.3185 4.12133 42.4806C2.28347 40.6428 1.25098 38.1501 1.25098 35.551V13.501C1.25098 10.9019 2.28347 8.40919 4.12133 6.57133C5.95919 4.73347 8.45185 3.70098 11.051 3.70098H38.001C40.6001 3.70098 43.0928 4.73347 44.9306 6.57133C46.7685 8.40919 47.801 10.9019 47.801 13.501V20.851M15.951 1.25098V6.15098M33.101 1.25098V6.15098M1.25098 15.951H47.801M41.676 34.6763L38.001 38.3513" stroke="#10417F" stroke-width="2.50213" stroke-linecap="round" stroke-linejoin="round"/>
<path d="M38.001 50.251C44.7665 50.251 50.251 44.7665 50.251 38.001C50.251 31.2355 44.7665 25.751 38.001 25.751C31.2355 25.751 25.751 31.2355 25.751 38.001C25.751 44.7665 31.2355 50.251 38.001 50.251Z" stroke="#10417F" stroke-width="2.50213" stroke-linecap="round" stroke-linejoin="round"/>
</svg>
