<svg width="49" height="49" viewBox="0 0 49 49" fill="none" xmlns="http://www.w3.org/2000/svg">
<mask id="mask0_491_16044" style="mask-type:luminance" maskUnits="userSpaceOnUse" x="0" y="0" width="49" height="49">
<path d="M0 0.00018692H48.9993V48.9995H0V0.00018692Z" fill="white"/>
</mask>
<g mask="url(#mask0_491_16044)">
<path d="M42.5463 9.25243C41.3503 10.4484 39.4113 10.4484 38.2153 9.25243C37.0194 8.05644 37.0194 6.11743 38.2153 4.92144C39.4113 3.72545 41.3503 3.72545 42.5463 4.92144C43.7423 6.11743 43.7423 8.05644 42.5463 9.25243Z" stroke="#10417F" stroke-width="1.91404" stroke-miterlimit="10" stroke-linecap="round" stroke-linejoin="round"/>
<path d="M10.7836 44.0791C9.58765 45.2751 7.64864 45.2751 6.45265 44.0791C5.25667 42.8831 5.25667 40.9441 6.45265 39.7481C7.64864 38.5521 9.58765 38.5521 10.7836 39.7481C11.9796 40.9441 11.9796 42.8831 10.7836 44.0791Z" stroke="#10417F" stroke-width="1.91404" stroke-miterlimit="10" stroke-linecap="round" stroke-linejoin="round"/>
<path d="M19.8564 47.5843C21.3574 47.8845 22.9099 48.042 24.4992 48.042C37.5015 48.042 48.0419 37.5016 48.0419 24.4993C48.0419 18.8234 46.0329 13.6168 42.6876 9.55111" stroke="#10417F" stroke-width="1.91404" stroke-miterlimit="10" stroke-linecap="round" stroke-linejoin="round"/>
<path d="M29.1862 1.4236C27.6713 1.11755 26.1038 0.956866 24.4987 0.956866C11.4965 0.956866 0.956055 11.4973 0.956055 24.4995C0.956055 30.1755 2.96503 35.3821 6.31028 39.4478" stroke="#10417F" stroke-width="1.91404" stroke-miterlimit="10" stroke-linecap="round" stroke-linejoin="round"/>
<path d="M24.4994 31.4506C20.6607 31.4506 17.5486 28.3386 17.5486 24.4997C17.5486 20.6609 20.6607 17.549 24.4994 17.549C28.3382 17.549 31.4503 20.6609 31.4503 24.4997C31.4503 28.3386 28.3382 31.4506 24.4994 31.4506ZM38.3604 21.4992C37.9958 19.8022 37.3281 18.2179 36.4158 16.8062L38.2494 14.9724L34.0166 10.7427L32.1844 12.5749C30.7727 11.6626 29.1885 10.9949 27.4915 10.6303V8.03903H21.5074V10.6303C19.8104 10.9949 18.2262 11.6626 16.8145 12.5749L14.9823 10.7427L10.7495 14.9724L12.5831 16.8062C11.6708 18.2179 11.0031 19.8022 10.6385 21.4992H8.04036L8.03711 27.4831H10.6384C11.003 29.1801 11.6707 30.7645 12.583 32.1763L10.7424 34.0169L14.9721 38.2498L16.8143 36.4075C18.2261 37.32 19.8104 37.9877 21.5074 38.3523V40.9604H27.4915V38.3523C29.1885 37.9877 30.7728 37.32 32.1846 36.4075L34.0268 38.2498L38.2565 34.0169L36.4159 32.1763C37.3282 30.7645 37.9959 29.1801 38.3605 27.4831H40.9618V21.4992H38.3604Z" stroke="#10417F" stroke-width="1.91404" stroke-miterlimit="10" stroke-linecap="round" stroke-linejoin="round"/>
</g>
</svg>
