<svg width="64" height="64" viewBox="0 0 64 64" fill="none" xmlns="http://www.w3.org/2000/svg">
<!-- <rect x="0.041466" y="0.041466" width="63.9171" height="63.9171" stroke="#10417F" stroke-width="0.082932"/> -->
<path d="M17.1473 37.9895C17.3339 38.1779 17.5877 38.2846 17.8529 38.2859C18.1181 38.2873 18.373 38.1832 18.5615 37.9966C18.75 37.81 18.8566 37.5562 18.858 37.2909C18.8593 37.0257 18.7552 36.7708 18.5686 36.5823C15.0003 32.9622 13 28.0833 13 23.0001C13 17.917 15.0003 13.0381 18.5686 9.41796C18.7552 9.22947 18.8593 8.97458 18.858 8.70936C18.8566 8.44413 18.75 8.1903 18.5615 8.00371C18.373 7.81711 18.1181 7.71303 17.8529 7.71437C17.5877 7.7157 17.3339 7.82235 17.1473 8.01083C13.2083 12.0055 11 17.3901 11 23.0001C11 28.6102 13.2083 33.9948 17.1473 37.9895Z" fill="#10417F"/>
<path d="M45.4387 37.9967C45.6272 38.1833 45.882 38.2873 46.1472 38.286C46.4124 38.2847 46.6662 38.178 46.8528 37.9896C50.7918 33.9949 53 28.6103 53 23.0002C53 17.3901 50.7918 12.0055 46.8528 8.01083C46.6662 7.82235 46.4124 7.7157 46.1472 7.71437C45.8819 7.71303 45.6271 7.81711 45.4386 8.00371C45.2501 8.1903 45.1434 8.44413 45.1421 8.70936C45.1408 8.97458 45.2448 9.22947 45.4314 9.41796C48.9997 13.0381 51 17.9171 51 23.0002C51 28.0833 48.9997 32.9623 45.4314 36.5825C45.3391 36.6758 45.266 36.7864 45.2163 36.908C45.1667 37.0296 45.1415 37.1598 45.1421 37.2911C45.1428 37.4224 45.1694 37.5523 45.2202 37.6734C45.2711 37.7945 45.3453 37.9043 45.4387 37.9967Z" fill="#10417F"/>
<path d="M12.201 44.0004C12.3984 44.0004 12.5913 43.942 12.7556 43.8326C12.9198 43.7232 13.048 43.5676 13.124 43.3855C13.2 43.2033 13.2204 43.0028 13.1826 42.8091C13.1449 42.6154 13.0506 42.4372 12.9118 42.2969C7.84204 37.1538 4.99998 30.2222 4.99998 23.0004C4.99998 15.7787 7.84204 8.847 12.9118 3.70391C13.0047 3.61069 13.0783 3.50005 13.1283 3.37833C13.1783 3.25662 13.2039 3.12623 13.2034 2.99462C13.203 2.86302 13.1766 2.73281 13.1257 2.61144C13.0748 2.49007 13.0005 2.37994 12.9069 2.28736C12.8134 2.19477 12.7025 2.12156 12.5806 2.07192C12.4588 2.02228 12.3283 1.99718 12.1967 1.99807C12.0651 1.99896 11.935 2.02581 11.8138 2.07709C11.6926 2.12837 11.5827 2.20307 11.4904 2.29691C6.04999 7.81447 3 15.2517 3 23.0004C3 30.7491 6.04999 38.1863 11.4904 43.7039C11.5833 43.798 11.6939 43.8727 11.8159 43.9236C11.9379 43.9745 12.0688 44.0006 12.201 44.0004Z" fill="#10417F"/>
<path d="M58.9993 23.0004C59.0251 30.2272 56.1792 37.1683 51.0875 42.2969C50.9947 42.3901 50.9211 42.5008 50.871 42.6225C50.821 42.7442 50.7955 42.8746 50.7959 43.0062C50.7964 43.1378 50.8228 43.268 50.8737 43.3894C50.9245 43.5107 50.9989 43.6209 51.0924 43.7135C51.1859 43.806 51.2968 43.8793 51.4187 43.9289C51.5406 43.9785 51.671 44.0036 51.8026 44.0027C51.9342 44.0019 52.0644 43.975 52.1856 43.9237C52.3068 43.8724 52.4166 43.7977 52.5089 43.7039C57.9493 38.1863 60.9993 30.7491 60.9993 23.0004C60.9993 15.2517 57.9493 7.81447 52.5089 2.29691C52.4166 2.20307 52.3068 2.12837 52.1856 2.07709C52.0644 2.02581 51.9342 1.99896 51.8026 1.99807C51.671 1.99718 51.5406 2.02228 51.4187 2.07192C51.2968 2.12156 51.1859 2.19477 51.0924 2.28736C50.9989 2.37994 50.9245 2.49007 50.8737 2.61144C50.8228 2.73281 50.7964 2.86302 50.7959 2.99462C50.7955 3.12623 50.821 3.25662 50.871 3.37833C50.9211 3.50005 50.9947 3.61069 51.0875 3.70391C56.1792 8.83252 59.0251 15.7736 58.9993 23.0004Z" fill="#10417F"/>
<path d="M23.5147 32.5717C23.7121 32.5717 23.9051 32.5133 24.0693 32.4039C24.2336 32.2945 24.3618 32.1389 24.4378 31.9567C24.5138 31.7746 24.5342 31.574 24.4964 31.3803C24.4586 31.1865 24.3644 31.0083 24.2255 30.8681C22.1586 28.7709 21 25.9447 21 23.0002C21 20.0557 22.1586 17.2295 24.2255 15.1323C24.4121 14.9438 24.5162 14.6889 24.5148 14.4237C24.5135 14.1585 24.4068 13.9047 24.2184 13.7181C24.0299 13.5315 23.775 13.4274 23.5098 13.4287C23.2445 13.4301 22.9907 13.5367 22.8041 13.7252C20.3666 16.1969 19 19.5288 19 23.0002C19 26.4716 20.3666 29.8035 22.8041 32.2752C22.897 32.3692 23.0076 32.4439 23.1296 32.4948C23.2516 32.5457 23.3825 32.5718 23.5147 32.5717Z" fill="#10417F"/>
<path d="M39.7817 32.2827C39.9701 32.4693 40.225 32.5733 40.4902 32.572C40.7554 32.5707 41.0092 32.464 41.1958 32.2756C43.6333 29.8039 44.9998 26.472 44.9998 23.0006C44.9998 19.5292 43.6333 16.1973 41.1958 13.7256C41.0081 13.5423 40.756 13.44 40.4936 13.4409C40.2313 13.4418 39.9798 13.5457 39.7934 13.7303C39.607 13.9149 39.5006 14.1653 39.4971 14.4276C39.4936 14.6899 39.5933 14.9431 39.7748 15.1326C41.8416 17.2298 43.0002 20.0561 43.0002 23.0006C43.0002 25.9451 41.8416 28.7713 39.7748 30.8686C39.5882 31.057 39.4841 31.3119 39.4854 31.5771C39.4867 31.8423 39.5932 32.0961 39.7817 32.2827Z" fill="#10417F"/>
<path d="M50.9995 48H32.9995V27.9C34.2136 27.6521 35.2923 26.9624 36.0267 25.9644C36.7611 24.9664 37.0987 23.7312 36.9742 22.4984C36.8497 21.2656 36.2718 20.123 35.3527 19.292C34.4335 18.4611 33.2386 18.001 31.9995 18.001C30.7604 18.001 29.5655 18.4611 28.6464 19.292C27.7272 20.123 27.1494 21.2656 27.0248 22.4984C26.9003 23.7312 27.2379 24.9664 27.9723 25.9644C28.7067 26.9624 29.7855 27.6521 30.9995 27.9V48H12.9995C10.6134 48.0026 8.32576 48.9517 6.63851 50.639C4.95126 52.3262 4.00219 54.6138 3.99951 57V61C3.99951 61.2652 4.10487 61.5195 4.29241 61.7071C4.47994 61.8946 4.7343 62 4.99951 62H58.9995C59.2647 62 59.5191 61.8946 59.7066 61.7071C59.8942 61.5195 59.9995 61.2652 59.9995 61V57C59.9968 54.6138 59.0478 52.3262 57.3605 50.639C55.6733 48.9517 53.3856 48.0026 50.9995 48ZM28.9995 23C28.9995 22.4066 29.1755 21.8266 29.5051 21.3332C29.8347 20.8399 30.3033 20.4554 30.8515 20.2283C31.3996 20.0013 32.0028 19.9418 32.5848 20.0576C33.1667 20.1734 33.7013 20.4591 34.1208 20.8786C34.5404 21.2982 34.8261 21.8327 34.9419 22.4147C35.0576 22.9966 34.9982 23.5998 34.7711 24.148C34.5441 24.6962 34.1596 25.1647 33.6662 25.4944C33.1729 25.824 32.5929 26 31.9995 26C31.2041 25.999 30.4416 25.6827 29.8792 25.1203C29.3168 24.5578 29.0004 23.7953 28.9995 23ZM57.9995 60H5.99951V57C6.0016 55.1441 6.73976 53.3648 8.05207 52.0525C9.36437 50.7402 11.1436 50.002 12.9995 50H50.9995C52.8554 50.002 54.6347 50.7402 55.947 52.0525C57.2593 53.3648 57.9974 55.1441 57.9995 57V60Z" fill="#10417F"/>
<path d="M31.9995 56.0005C32.5518 56.0005 32.9995 55.5528 32.9995 55.0005C32.9995 54.4482 32.5518 54.0005 31.9995 54.0005C31.4472 54.0005 30.9995 54.4482 30.9995 55.0005C30.9995 55.5528 31.4472 56.0005 31.9995 56.0005Z" fill="#10417F"/>
<path d="M36 56.0005C36.5523 56.0005 37 55.5528 37 55.0005C37 54.4482 36.5523 54.0005 36 54.0005C35.4477 54.0005 35 54.4482 35 55.0005C35 55.5528 35.4477 56.0005 36 56.0005Z" fill="#10417F"/>
<path d="M39.9995 56.0005C40.5518 56.0005 40.9995 55.5528 40.9995 55.0005C40.9995 54.4482 40.5518 54.0005 39.9995 54.0005C39.4472 54.0005 38.9995 54.4482 38.9995 55.0005C38.9995 55.5528 39.4472 56.0005 39.9995 56.0005Z" fill="#10417F"/>
<path d="M28 56.0005C28.5523 56.0005 29 55.5528 29 55.0005C29 54.4482 28.5523 54.0005 28 54.0005C27.4477 54.0005 27 54.4482 27 55.0005C27 55.5528 27.4477 56.0005 28 56.0005Z" fill="#10417F"/>
<path d="M23.9995 56.0005C24.5518 56.0005 24.9995 55.5528 24.9995 55.0005C24.9995 54.4482 24.5518 54.0005 23.9995 54.0005C23.4472 54.0005 22.9995 54.4482 22.9995 55.0005C22.9995 55.5528 23.4472 56.0005 23.9995 56.0005Z" fill="#10417F"/>
</svg>
