<svg width="60" height="61" viewBox="0 0 60 61" fill="none" xmlns="http://www.w3.org/2000/svg">
<path d="M51.0933 7.95735C45.9616 2.82563 39.1383 -0.000287019 31.8813 2.18649e-08C30.6921 2.18649e-08 29.7285 0.963884 29.7285 2.15281C29.7285 3.34173 30.6924 4.30562 31.8813 4.30562C37.9884 4.30533 43.7301 6.68347 48.0486 11.002C52.3675 15.3205 54.7456 21.0625 54.7453 27.1699C54.7453 28.3588 55.7089 29.3227 56.8981 29.3227C58.087 29.3227 59.0509 28.3588 59.0509 27.1702C59.0512 19.9123 56.2253 13.0891 51.0933 7.95735Z" fill="#10417F"/>
<path d="M42.2375 27.1703C42.2375 28.3592 43.2014 29.3231 44.3906 29.3228C45.5795 29.3228 46.5431 28.3589 46.5431 27.17C46.5425 19.0869 39.9653 12.5099 31.8816 12.5088C31.8813 12.5088 31.8819 12.5088 31.8816 12.5088C30.6927 12.5088 29.7288 13.4724 29.7285 14.6613C29.7285 15.8502 30.6921 16.8141 31.881 16.8144C37.5911 16.8153 42.2369 21.4607 42.2375 27.1703Z" fill="#10417F"/>
<path d="M37.4735 38.1468C34.1921 37.9769 32.5203 40.4173 31.7186 41.5896C31.0472 42.571 31.2987 43.9106 32.2801 44.582C33.2615 45.2534 34.6011 45.002 35.2725 44.0206C36.2197 42.6356 36.6488 42.4177 37.231 42.4453C39.0941 42.6643 46.4323 48.0417 47.1672 49.7232C47.3515 50.2184 47.3446 50.7037 47.1468 51.2942C46.3764 53.5808 45.101 55.1876 43.458 55.9408C41.8971 56.6564 39.9834 56.5915 37.925 55.7539C30.2389 52.6212 23.5239 48.2493 17.9668 42.7593C17.9645 42.757 17.9622 42.755 17.9602 42.7527C12.4817 37.201 8.11781 30.4946 4.99021 22.8203C4.15234 20.7602 4.08746 18.8462 4.80306 17.2856C5.55625 15.6425 7.16311 14.3672 9.44767 13.5977C10.0401 13.399 10.5246 13.3927 11.0152 13.5753C12.7027 14.3127 18.0799 21.6506 18.2969 23.4928C18.3279 24.0968 18.1083 24.5256 16.7245 25.4711C15.7428 26.1416 15.4905 27.4813 16.1613 28.4629C16.8318 29.4446 18.1711 29.6966 19.1531 29.0261C20.326 28.2253 22.7658 26.5581 22.5965 23.2655C22.4099 19.8262 15.7195 10.7181 12.5227 9.54262C11.101 9.01274 9.60554 9.00356 8.07619 9.51679C4.63514 10.6756 2.14994 12.7417 0.889253 15.4915C-0.333542 18.1593 -0.294791 21.2545 1.00263 24.4441C4.34982 32.6569 9.0329 39.843 14.9215 45.8034C14.9359 45.818 14.9505 45.8324 14.9655 45.8464C20.9216 51.7242 28.0993 56.3986 36.3012 59.7418C37.9437 60.4098 39.5612 60.7442 41.108 60.7442C42.5645 60.7442 43.9589 60.4479 45.2523 59.8549C48.0025 58.5945 50.0683 56.1096 51.2279 52.6662C51.74 51.1398 51.7317 49.6448 51.2058 48.2297C50.0264 45.0243 40.9183 38.334 37.4735 38.1468Z" fill="#10417F"/>
</svg>
