<svg width="40" height="40" viewBox="0 0 40 40" fill="none" xmlns="http://www.w3.org/2000/svg">
<path d="M19.5313 0C8.74445 0 0 8.74445 0 19.5313C0 30.318 8.74445 39.0625 19.5313 39.0625C30.318 39.0625 39.0625 30.318 39.0625 19.5313C39.0625 8.74445 30.318 0 19.5313 0ZM31.5983 24.4953C31.5045 26.3522 30.9827 28.1833 29.6295 29.5221C28.2632 30.8737 26.4234 31.3773 24.5487 31.4701H14.5139C12.6389 31.3773 10.7994 30.874 9.43305 29.5221C8.07977 28.1833 7.55805 26.3522 7.4643 24.4953V14.5672C7.55805 12.7103 8.07984 10.8792 9.43305 9.54031C10.7994 8.18875 12.6391 7.68516 14.5139 7.59242H24.5486C26.4236 7.68516 28.2631 8.18852 29.6295 9.54031C30.9827 10.8792 31.5045 12.7103 31.5982 14.5672L31.5983 24.4953Z" fill="#10417F"/>
<path d="M24.4208 9.85496C21.9766 9.78793 17.0844 9.78793 14.6402 9.85496C13.3683 9.88988 11.9263 10.2065 11.0201 11.1745C10.0784 12.1807 9.72249 13.3963 9.6864 14.7562C9.62296 17.1431 9.6864 24.3072 9.6864 24.3072C9.72773 25.6669 10.0784 26.8827 11.0201 27.8889C11.9263 28.8572 13.3683 29.1735 14.6402 29.2084C17.0844 29.2754 21.9766 29.2754 24.4208 29.2084C25.6928 29.1735 27.1348 28.8568 28.041 27.8889C28.9827 26.8827 29.3386 25.6671 29.3747 24.3072V14.7562C29.3386 13.3963 28.9827 12.1807 28.041 11.1745C27.1344 10.2062 25.6925 9.88988 24.4208 9.85496ZM19.5302 25.8891C18.2728 25.8891 17.0437 25.5162 15.9982 24.8177C14.9528 24.1191 14.1379 23.1262 13.6567 21.9646C13.1756 20.8029 13.0497 19.5246 13.295 18.2914C13.5403 17.0582 14.1457 15.9254 15.0348 15.0363C15.9239 14.1472 17.0567 13.5417 18.29 13.2964C19.5232 13.0511 20.8014 13.177 21.9631 13.6582C23.1248 14.1394 24.1177 14.9542 24.8162 15.9997C25.5148 17.0452 25.8876 18.2743 25.8876 19.5317C25.8876 21.2178 25.2178 22.8348 24.0256 24.0271C22.8334 25.2193 21.2163 25.8891 19.5302 25.8891ZM25.9147 14.4865C25.6632 14.4865 25.4174 14.4118 25.2084 14.2721C24.9993 14.1323 24.8364 13.9337 24.7402 13.7014C24.644 13.4691 24.6189 13.2134 24.668 12.9668C24.7171 12.7202 24.8382 12.4936 25.016 12.3159C25.1939 12.1381 25.4204 12.017 25.667 11.968C25.9137 11.9189 26.1693 11.9441 26.4016 12.0404C26.634 12.1366 26.8325 12.2996 26.9722 12.5087C27.1119 12.7178 27.1865 12.9636 27.1865 13.215C27.1865 13.382 27.1536 13.5474 27.0897 13.7017C27.0257 13.856 26.9321 13.9962 26.814 14.1142C26.6959 14.2323 26.5556 14.3259 26.4013 14.3898C26.247 14.4537 26.0817 14.4866 25.9147 14.4865Z" fill="#10417F"/>
<path d="M19.5312 23.6328C21.7965 23.6328 23.6328 21.7965 23.6328 19.5312C23.6328 17.266 21.7965 15.4297 19.5312 15.4297C17.266 15.4297 15.4297 17.266 15.4297 19.5312C15.4297 21.7965 17.266 23.6328 19.5312 23.6328Z" fill="#10417F"/>
</svg>
