<svg width="40" height="40" viewBox="0 0 40 40" fill="none" xmlns="http://www.w3.org/2000/svg">
<g clip-path="url(#clip0_3979_818)">
<path d="M20 0C31.0453 1.36924e-07 40 8.95469 40 20C40 31.0453 31.0453 40 20 40C8.95469 40 1.36915e-07 31.0453 0 20C0 8.95469 8.95469 0 20 0ZM17.4785 21.3057L8.5 31.7422H10.5293L18.3799 22.6162L24.6504 31.7422H31.499L22.1865 18.1904L30.749 8.23828H28.7197L21.2861 16.8799L15.3486 8.23828H8.5L17.4785 21.3057ZM28.7207 30.2842H25.6045L11.2598 9.76562H14.376L28.7207 30.2842Z" fill="#10417F"/>
</g>
<defs>
<clipPath id="clip0_3979_818">
<rect width="40" height="40" fill="white"/>
</clipPath>
</defs>
</svg>
