<svg width="41" height="34" viewBox="0 0 41 34" fill="none" xmlns="http://www.w3.org/2000/svg">
<path d="M30.9349 8.22695C30.3472 5.87802 28.9917 3.79273 27.0835 2.30222C25.1753 0.811702 22.8239 0.00140776 20.4025 1.83264e-06C17.9812 -0.0014041 15.6288 0.806159 13.7189 2.29446C11.809 3.78275 10.451 5.86647 9.86068 8.21472C7.07594 8.47606 4.49889 9.80011 2.66485 11.9118C0.83081 14.0236 -0.119258 16.7606 0.011993 19.5545C0.143244 22.3484 1.34573 24.9844 3.36966 26.9149C5.3936 28.8454 8.08342 29.922 10.8804 29.9211H14.9593C15.3199 29.9211 15.6657 29.7779 15.9207 29.5229C16.1757 29.2679 16.3189 28.9221 16.3189 28.5615C16.3189 28.2009 16.1757 27.8551 15.9207 27.6001C15.6657 27.3451 15.3199 27.2019 14.9593 27.2019H10.8804C9.80911 27.205 8.74769 26.9971 7.75675 26.59C6.76581 26.1829 5.86475 25.5847 5.10503 24.8294C3.57069 23.3039 2.70516 21.2315 2.69885 19.0679C2.69254 16.9044 3.54597 14.8269 5.07138 13.2926C6.59679 11.7582 8.66924 10.8927 10.8328 10.8864C11.1817 10.9126 11.5279 10.8084 11.8042 10.5938C12.0806 10.3793 12.2674 10.0698 12.3284 9.72526C12.6053 7.7838 13.5732 6.0074 15.0546 4.7223C16.536 3.43719 18.4312 2.72967 20.3923 2.72967C22.3534 2.72967 24.2487 3.43719 25.7301 4.7223C27.2114 6.0074 28.1794 7.7838 28.4563 9.72526C28.5274 10.0578 28.7117 10.3553 28.9778 10.5671C29.2438 10.7788 29.5751 10.8917 29.9151 10.8864C32.0787 10.8864 34.1537 11.7459 35.6835 13.2757C37.2134 14.8056 38.0729 16.8806 38.0729 19.0441C38.0729 21.2077 37.2134 23.2827 35.6835 24.8125C34.1537 26.3424 32.0787 27.2019 29.9151 27.2019H25.8363C25.4757 27.2019 25.1298 27.3451 24.8749 27.6001C24.6199 27.8551 24.4766 28.2009 24.4766 28.5615C24.4766 28.9221 24.6199 29.2679 24.8749 29.5229C25.1298 29.7779 25.4757 29.9211 25.8363 29.9211H29.9151C32.6917 29.8921 35.3519 28.8023 37.3509 26.875C39.3498 24.9478 40.5359 22.329 40.6663 19.5554C40.7967 16.7818 39.8614 14.0634 38.0521 11.9571C36.2427 9.85087 33.6964 8.51633 30.9349 8.22695Z" fill="#10417F"/>
<path d="M26.2338 20.0054C26.4902 20.2531 26.8336 20.3901 27.1901 20.387C27.5466 20.3839 27.8876 20.241 28.1397 19.9889C28.3918 19.7368 28.5348 19.3958 28.5379 19.0393C28.541 18.6828 28.4039 18.3393 28.1563 18.0829L21.3582 11.2848C21.1032 11.0299 20.7574 10.8867 20.3969 10.8867C20.0364 10.8867 19.6906 11.0299 19.4356 11.2848L12.6375 18.0829C12.3899 18.3393 12.2528 18.6828 12.2559 19.0393C12.259 19.3958 12.402 19.7368 12.6541 19.9889C12.9062 20.241 13.2472 20.3839 13.6037 20.387C13.9602 20.3901 14.3036 20.2531 14.56 20.0054L19.0373 15.5282V32.6404C19.0373 33.001 19.1805 33.3468 19.4355 33.6018C19.6905 33.8568 20.0363 34.0001 20.3969 34.0001C20.7575 34.0001 21.1033 33.8568 21.3583 33.6018C21.6133 33.3468 21.7565 33.001 21.7565 32.6404V15.5282L26.2338 20.0054Z" fill="#10417F"/>
</svg>
