<svg width="80" height="80" viewBox="0 0 80 80" fill="none" xmlns="http://www.w3.org/2000/svg">
<path d="M74.3825 34.8787C74.0762 26.1524 70.5425 17.9924 64.3375 11.7874C57.8337 5.28242 49.19 1.70117 40 1.70117C21.4387 1.70117 6.27246 16.4749 5.61871 34.8787C2.78621 36.1374 0.803711 38.9724 0.803711 42.2674V51.3449C0.803711 55.8024 4.42996 59.4299 8.88871 59.4299C11.7737 59.4299 14.12 57.0837 14.12 54.1987V39.4124C14.12 36.7037 12.0425 34.4949 9.40121 34.2324C10.3762 18.1987 23.7237 5.45117 40 5.45117C48.19 5.45117 55.8912 8.64367 61.6875 14.4399C67.01 19.7624 70.125 26.6999 70.5937 34.2337C67.955 34.4987 65.8812 36.7062 65.8812 39.4124V54.1974C65.8812 56.9287 67.9912 59.1512 70.6637 59.3824V63.1187C70.6637 67.3262 67.24 70.7487 63.0325 70.7487H57.3812C57.1037 69.9562 56.6687 69.2237 56.0587 68.6162C54.99 67.5424 53.565 66.9512 52.0475 66.9512H46.2225C45.3862 66.9512 44.5837 67.1287 43.8487 67.4712C41.8437 68.3924 40.5487 70.4149 40.5487 72.6237C40.5487 74.1412 41.14 75.5662 42.2112 76.6324C43.2825 77.7062 44.7075 78.2974 46.2225 78.2974H52.0475C54.4625 78.2974 56.5912 76.7362 57.385 74.4987H63.0325C69.3087 74.4987 74.4137 69.3937 74.4137 63.1187V58.7149C77.2287 57.4487 79.1962 54.6237 79.1962 51.3424V42.2649C79.1962 38.9724 77.2137 36.1374 74.3825 34.8787ZM10.3687 39.4124V54.1974C10.3687 55.0137 9.70496 55.6787 8.88746 55.6787C6.49746 55.6787 4.55246 53.7337 4.55246 51.3437V42.2662C4.55246 39.8749 6.49746 37.9312 8.88746 37.9312C9.70496 37.9312 10.3687 38.5962 10.3687 39.4124ZM53.9287 73.0262C53.7425 73.9087 52.95 74.5499 52.0462 74.5499H46.2212C45.7087 74.5499 45.2275 74.3499 44.86 73.9824C44.4975 73.6212 44.2975 73.1387 44.2975 72.6262C44.2975 71.8774 44.7362 71.1937 45.4237 70.8774C45.6687 70.7624 45.9375 70.7037 46.2212 70.7037H52.0462C52.5587 70.7037 53.04 70.9024 53.4062 71.2699C53.7687 71.6312 53.9687 72.1137 53.9687 72.6262C53.97 72.7637 53.955 72.9012 53.9287 73.0262ZM75.4462 51.3437C75.4462 53.7337 73.5012 55.6787 71.1112 55.6787C70.295 55.6787 69.63 55.0149 69.63 54.1974V39.4124C69.63 38.5962 70.2937 37.9312 71.1112 37.9312C73.5012 37.9312 75.4462 39.8762 75.4462 42.2662V51.3437Z" fill="#10417F"/>
<path d="M52.1416 51.9899C56.5228 51.9899 60.0866 48.4249 60.0866 44.0449V27.8561C60.0866 25.7386 59.2591 23.7436 57.7566 22.2411C56.2541 20.7386 54.2603 19.9111 52.1416 19.9111H27.8591C23.4778 19.9111 19.9141 23.4749 19.9141 27.8561V44.0449C19.9141 48.4261 23.4778 51.9899 27.8591 51.9899H28.0078V56.1849C28.0078 57.7849 28.9616 59.2049 30.4366 59.8036C30.9128 59.9949 31.4078 60.0899 31.8978 60.0899C32.9191 60.0899 33.9141 59.6849 34.6428 58.9311L41.6216 51.9899H52.1416ZM39.5278 48.7849L31.9753 56.2961C31.9416 56.3311 31.9166 56.3574 31.8453 56.3261C31.7591 56.2911 31.7591 56.2349 31.7591 56.1849V50.1149C31.7591 49.0799 30.9203 48.2399 29.8841 48.2399H27.8603C25.5466 48.2399 23.6653 46.3574 23.6653 44.0449V27.8561C23.6653 25.5424 25.5466 23.6611 27.8603 23.6611H52.1428C53.2603 23.6611 54.3116 24.0986 55.1066 24.8924C55.9016 25.6874 56.3378 26.7399 56.3378 27.8561V44.0449C56.3378 46.3586 54.4553 48.2399 52.1428 48.2399H40.8503C40.3541 48.2399 39.8791 48.4361 39.5278 48.7849Z" fill="#10417F"/>
<path d="M30.8912 33.4836C29.3662 33.4836 28.125 34.7261 28.125 36.2499C28.125 37.7736 29.3675 39.0161 30.8912 39.0161C32.4175 39.0161 33.66 37.7736 33.66 36.2499C33.66 34.7261 32.4187 33.4836 30.8912 33.4836Z" fill="#10417F"/>
<path d="M39.9987 33.4836C38.4737 33.4836 37.2324 34.7261 37.2324 36.2499C37.2324 37.7736 38.4749 39.0161 39.9987 39.0161C41.5262 39.0161 42.7674 37.7736 42.7674 36.2499C42.7674 34.7261 41.5262 33.4836 39.9987 33.4836Z" fill="#10417F"/>
<path d="M49.1061 33.4836C47.5811 33.4836 46.3398 34.7261 46.3398 36.2499C46.3398 37.7736 47.5823 39.0161 49.1061 39.0161C50.6323 39.0161 51.8748 37.7736 51.8748 36.2499C51.8748 34.7261 50.6323 33.4836 49.1061 33.4836Z" fill="#10417F"/>
</svg>
