<svg width="80" height="80" viewBox="0 0 80 80" fill="none" xmlns="http://www.w3.org/2000/svg">
<path d="M15.8049 53.376C15.1583 54.0001 14.4255 54.5281 13.6289 54.944L16.6529 59.4493C17.097 60.1079 17.3338 60.8843 17.3329 61.6786V77.3333H19.9996V60C20.0006 59.7128 19.9105 59.4327 19.7422 59.2L15.8049 53.376Z" fill="#10417F"/>
<path d="M60.2773 59.1733C60.0988 59.4121 60.0016 59.7018 60 60V77.3333H62.6667V61.6786C62.6658 60.8837 62.9032 60.1068 63.348 59.448L66.3707 54.944C65.574 54.5281 64.8412 54.0001 64.1947 53.376L60.2773 59.1733Z" fill="#10417F"/>
<path d="M70.6667 53.3333C74.3486 53.3333 77.3333 50.3486 77.3333 46.6667C77.3333 42.9848 74.3486 40 70.6667 40C66.9848 40 64 42.9848 64 46.6667C64 50.3486 66.9848 53.3333 70.6667 53.3333Z" fill="#10417F"/>
<path d="M41.3337 18.5601C40.4505 18.7023 39.5502 18.7023 38.667 18.5601V77.3334H41.3337V18.5601Z" fill="#10417F"/>
<path d="M39.9997 15.9998C43.6816 15.9998 46.6663 13.0151 46.6663 9.33317C46.6663 5.65127 43.6816 2.6665 39.9997 2.6665C36.3178 2.6665 33.333 5.65127 33.333 9.33317C33.333 13.0151 36.3178 15.9998 39.9997 15.9998Z" fill="#10417F"/>
<path d="M49.5997 39.1999C49.4288 39.4318 49.3354 39.7118 49.333 39.9999V77.3332H51.9997V41.7132C51.9981 40.8857 52.255 40.0784 52.7343 39.4039L59.6677 29.5932C58.8738 29.1748 58.1441 28.6445 57.501 28.0186L49.5997 39.1999Z" fill="#10417F"/>
<path d="M63.9997 27.9998C67.6816 27.9998 70.6663 25.0151 70.6663 21.3332C70.6663 17.6513 67.6816 14.6665 63.9997 14.6665C60.3178 14.6665 57.333 17.6513 57.333 21.3332C57.333 25.0151 60.3178 27.9998 63.9997 27.9998Z" fill="#10417F"/>
<path d="M15.9997 27.9998C19.6816 27.9998 22.6663 25.0151 22.6663 21.3332C22.6663 17.6513 19.6816 14.6665 15.9997 14.6665C12.3178 14.6665 9.33301 17.6513 9.33301 21.3332C9.33301 25.0151 12.3178 27.9998 15.9997 27.9998Z" fill="#10417F"/>
<path d="M28 41.7134V77.3334H30.6667V40.0001C30.6677 39.7129 30.5776 39.4328 30.4094 39.2001L22.4987 28.0161C21.8559 28.645 21.1263 29.1785 20.332 29.6001L27.2654 39.4121C27.7436 40.0841 28.0005 40.8886 28 41.7134Z" fill="#10417F"/>
<path d="M9.33366 53.3333C13.0156 53.3333 16.0003 50.3486 16.0003 46.6667C16.0003 42.9848 13.0156 40 9.33366 40C5.65176 40 2.66699 42.9848 2.66699 46.6667C2.66699 50.3486 5.65176 53.3333 9.33366 53.3333Z" fill="#10417F"/>
</svg>
