<svg width="80" height="80" viewBox="0 0 80 80" fill="none" xmlns="http://www.w3.org/2000/svg">
<g clip-path="url(#clip0_221_6564)">
<path fill-rule="evenodd" clip-rule="evenodd" d="M52.3441 16.927C51.8857 16.927 51.5107 16.552 51.5107 16.0936C51.5107 12.4165 49.167 9.177 45.6774 8.03114C45.2399 7.88529 45.0003 7.41654 45.1461 6.97904C45.292 6.54154 45.7607 6.30194 46.1982 6.44779C48.2347 7.11444 49.9743 8.39568 51.2399 10.1405C52.5055 11.8905 53.1774 13.9478 53.1774 16.0936C53.1774 16.552 52.8024 16.927 52.3441 16.927ZM27.6566 16.927C27.1982 16.927 26.8232 16.552 26.8232 16.0936C26.8232 13.927 27.5055 11.8489 28.8024 10.0989C30.0628 8.39052 31.792 7.13013 33.7971 6.45302C34.2346 6.30716 34.7086 6.54154 34.8544 6.97387C35.0003 7.41137 34.7659 7.88535 34.3336 8.03114C30.8389 9.20824 28.4899 12.453 28.4899 16.0936C28.4899 16.552 28.1149 16.927 27.6566 16.927Z" fill="#10417F"/>
<path fill-rule="evenodd" clip-rule="evenodd" d="M40.0003 13.5417C36.266 13.5417 33.2295 10.5052 33.2295 6.77086C33.2295 3.03648 36.266 0 40.0003 0C43.7347 0 46.7711 3.03648 46.7711 6.77086C46.7711 10.5052 43.7347 13.5417 40.0003 13.5417ZM40.0003 1.66672C37.1879 1.66672 34.8962 3.95836 34.8962 6.77086C34.8962 9.58336 37.1879 11.875 40.0003 11.875C42.8128 11.875 45.1044 9.58336 45.1044 6.77086C45.1044 3.95836 42.8128 1.66672 40.0003 1.66672Z" fill="#10417F"/>
<path fill-rule="evenodd" clip-rule="evenodd" d="M40.0003 10.2604C38.0785 10.2604 36.5107 8.69263 36.5107 6.77075C36.5107 4.87489 38.0785 3.33325 40.0003 3.33325C41.9222 3.33325 43.4899 4.8749 43.4899 6.77075C43.4899 8.69263 41.9222 10.2604 40.0003 10.2604ZM40.0003 4.99991C38.9951 4.99991 38.1775 5.79678 38.1775 6.77077C38.1775 7.776 38.9952 8.59366 40.0003 8.59366C41.0055 8.59366 41.8232 7.77593 41.8232 6.77077C41.8232 5.79679 41.0055 4.99991 40.0003 4.99991Z" fill="#10417F"/>
<path fill-rule="evenodd" clip-rule="evenodd" d="M70.0523 66.979H9.94824C6.58887 66.979 3.85449 64.2238 3.85449 60.8331V17.1353C3.85449 15.4999 4.48472 13.9687 5.63574 12.8228C6.78676 11.677 8.31279 11.0416 9.94824 11.0416H28.6462C29.1046 11.0416 29.4796 11.4166 29.4796 11.8749C29.4796 12.3333 29.1046 12.7083 28.6462 12.7083L9.94824 12.7082C7.50551 12.7082 5.52113 14.6926 5.52113 17.1353V60.8331C5.52113 63.3019 7.50551 65.3123 9.94824 65.3123H70.0523C72.495 65.3123 74.4794 63.3019 74.4794 60.8331V17.1353C74.4794 14.6926 72.495 12.7082 70.0523 12.7082H51.3543C50.896 12.7082 50.521 12.3332 50.521 11.8749C50.521 11.4165 50.896 11.0415 51.3543 11.0415L70.0523 11.0416C71.6877 11.0416 73.2189 11.6718 74.3648 12.8228C75.5107 13.9687 76.1461 15.5051 76.1461 17.1353V60.8331C76.1461 64.2237 73.4117 66.979 70.0523 66.979Z" fill="#10417F"/>
<path fill-rule="evenodd" clip-rule="evenodd" d="M71.0941 55.2604C70.6357 55.2604 70.2607 54.8854 70.2607 54.4271V17.1355C70.2607 17.0209 70.167 16.9271 70.0524 16.9271H9.9483C9.8337 16.9271 9.73995 17.0209 9.73995 17.1355V54.4271C9.73995 54.8854 9.36495 55.2604 8.9066 55.2604C8.44824 55.2604 8.07324 54.8854 8.07324 54.4271L8.0733 17.1355C8.0733 16.099 8.91183 15.2605 9.9483 15.2605H70.0524C71.0888 15.2605 71.9274 16.099 71.9274 17.1355V54.4271C71.9274 54.8854 71.5524 55.2604 71.0941 55.2604Z" fill="#10417F"/>
<path fill-rule="evenodd" clip-rule="evenodd" d="M75.3128 55.2602H4.68785C4.22949 55.2602 3.85449 54.8852 3.85449 54.4269C3.85449 53.9685 4.22949 53.5935 4.68785 53.5935L75.3128 53.5936C75.7712 53.5936 76.1462 53.9686 76.1462 54.4269C76.1462 54.8853 75.7711 55.2602 75.3128 55.2602Z" fill="#10417F"/>
<path fill-rule="evenodd" clip-rule="evenodd" d="M50.8854 73.2292C50.427 73.2292 50.052 72.8542 50.052 72.3959V66.1459C50.052 65.6875 50.427 65.3125 50.8854 65.3125C51.3437 65.3125 51.7187 65.6875 51.7187 66.1459V72.3959C51.7187 72.8542 51.3437 73.2292 50.8854 73.2292ZM29.1146 73.2292C28.6562 73.2292 28.2812 72.8542 28.2812 72.3959V66.1459C28.2812 65.6875 28.6562 65.3125 29.1146 65.3125C29.573 65.3125 29.948 65.6875 29.948 66.1459V72.3959C29.9479 72.8542 29.5729 73.2292 29.1146 73.2292Z" fill="#10417F"/>
<path fill-rule="evenodd" clip-rule="evenodd" d="M40.0002 71.0938C38.8024 71.0938 37.6774 70.5573 36.8336 69.5886C36.0211 68.6563 35.5732 67.4323 35.5732 66.1458C35.5732 65.6875 35.9482 65.3125 36.4066 65.3125C36.865 65.3125 37.2399 65.6875 37.2399 66.1458C37.2399 67.9219 38.5056 69.4271 40.0003 69.4271C41.495 69.4271 42.7607 67.9219 42.7607 66.1458C42.7607 65.6875 43.1357 65.3125 43.594 65.3125C44.0524 65.3125 44.4274 65.6875 44.4274 66.1458C44.4274 67.4323 43.9795 68.6562 43.167 69.5886C42.3231 70.5573 41.1981 71.0938 40.0002 71.0938Z" fill="#10417F"/>
<path fill-rule="evenodd" clip-rule="evenodd" d="M59.3229 80H20.6771C20.2187 80 19.8438 79.625 19.8438 79.1666C19.8438 74.9739 23.2552 71.5625 27.4479 71.5625H52.5521C56.7448 71.5625 60.1562 74.974 60.1562 79.1666C60.1562 79.625 59.7812 80 59.3229 80ZM21.5677 78.3333H58.4323C58.026 75.4531 55.5416 73.2292 52.552 73.2292H27.448C24.4584 73.2292 21.974 75.4531 21.5677 78.3333Z" fill="#10417F"/>
<path fill-rule="evenodd" clip-rule="evenodd" d="M40.0003 64.2187C37.8181 64.2187 36.042 62.4427 36.042 60.2604C36.042 58.078 37.818 56.302 40.0003 56.302C42.1826 56.302 43.9586 58.078 43.9586 60.2604C43.9586 62.4427 42.1826 64.2187 40.0003 64.2187ZM40.0003 57.9687C38.7347 57.9687 37.7087 58.9947 37.7087 60.2604C37.7087 61.526 38.7347 62.552 40.0003 62.552C41.2659 62.552 42.2919 61.526 42.2919 60.2604C42.2919 58.9947 41.2659 57.9687 40.0003 57.9687Z" fill="#10417F"/>
<path fill-rule="evenodd" clip-rule="evenodd" d="M50.1048 63.2815C48.4121 63.2815 47.084 61.9533 47.084 60.2606C47.084 58.594 48.4381 57.2397 50.1048 57.2397C51.7715 57.2397 53.1257 58.5939 53.1257 60.2606C53.1257 61.9533 51.7976 63.2815 50.1048 63.2815ZM50.1048 58.9065C49.3705 58.9065 48.7507 59.5262 48.7507 60.2606C48.7507 61.021 49.3444 61.6148 50.1048 61.6148C50.8652 61.6148 51.459 61.021 51.459 60.2606C51.4591 59.5262 50.8392 58.9065 50.1048 58.9065Z" fill="#10417F"/>
<path fill-rule="evenodd" clip-rule="evenodd" d="M29.8959 63.2815C28.2031 63.2815 26.875 61.9533 26.875 60.2606C26.875 58.594 28.2291 57.2397 29.8959 57.2397C31.5626 57.2397 32.9167 58.5939 32.9167 60.2606C32.9167 61.9533 31.5885 63.2815 29.8959 63.2815ZM29.8959 58.9065C29.1615 58.9065 28.5417 59.5262 28.5417 60.2606C28.5417 61.021 29.1355 61.6148 29.8959 61.6148C30.6563 61.6148 31.25 61.021 31.25 60.2606C31.25 59.5262 30.6302 58.9065 29.8959 58.9065Z" fill="#10417F"/>
<path fill-rule="evenodd" clip-rule="evenodd" d="M31.8229 76.823H21.4584C21 76.823 20.625 76.448 20.625 75.9896C20.625 75.5313 21 75.1562 21.4584 75.1562L31.8229 75.1563C32.2813 75.1563 32.6563 75.5313 32.6563 75.9897C32.6563 76.448 32.2813 76.823 31.8229 76.823Z" fill="#10417F"/>
<path fill-rule="evenodd" clip-rule="evenodd" d="M33.4902 55.2602H23.3861C22.9277 55.2602 22.5527 54.8852 22.5527 54.4269C22.5527 53.9685 22.9277 53.5935 23.3861 53.5935L33.4902 53.5936C33.5736 53.5936 33.6569 53.552 33.709 53.5207L31.8496 45.7186C31.8444 45.703 31.8444 45.6873 31.8392 45.677C31.8184 45.5676 31.7976 45.4582 31.3236 45.2655L25.8183 43.2915C25.3861 43.1352 25.1621 42.6613 25.3131 42.2238C25.4641 41.7863 25.9433 41.5675 26.3808 41.7185L31.9017 43.6977C31.9121 43.7029 31.9226 43.7029 31.9277 43.7081C32.2923 43.8539 33.2611 44.2393 33.4746 45.3487L35.3444 53.1821C35.4641 53.6404 35.3652 54.1092 35.0683 54.4998C34.7037 54.9686 34.1048 55.2602 33.4902 55.2602Z" fill="#10417F"/>
<path fill-rule="evenodd" clip-rule="evenodd" d="M26.0941 55.2603C25.6357 55.2603 25.2607 54.8853 25.2607 54.427V42.4999C25.2607 42.0415 25.6357 41.6665 26.0941 41.6665C26.5524 41.6665 26.9274 42.0415 26.9274 42.4999V54.427C26.9274 54.8853 26.5524 55.2603 26.0941 55.2603Z" fill="#10417F"/>
<path fill-rule="evenodd" clip-rule="evenodd" d="M26.0944 43.3332C25.636 43.3332 25.261 42.9582 25.261 42.4999V40.7811C25.261 40.3228 25.636 39.9478 26.0944 39.9478C26.5527 39.9478 26.9277 40.3228 26.9277 40.7811V42.4999C26.9277 42.9582 26.5527 43.3332 26.0944 43.3332ZM20.7298 43.3332C20.2715 43.3332 19.8965 42.9582 19.8965 42.4999V40.7811C19.8965 40.3228 20.2715 39.9478 20.7298 39.9478C21.1882 39.9478 21.5632 40.3228 21.5632 40.7811V42.4999C21.5631 42.9582 21.1881 43.3332 20.7298 43.3332Z" fill="#10417F"/>
<path fill-rule="evenodd" clip-rule="evenodd" d="M23.3861 42.5003C22.2871 42.5003 21.2351 42.1721 20.2663 41.5263C20.2611 41.5211 20.2663 41.5314 20.2663 41.5263C18.6725 40.4273 17.709 38.5837 17.709 36.6149V33.8545C17.709 33.3962 18.084 33.0212 18.5423 33.0212C19.058 33.0212 19.5736 32.9066 20.0736 32.6774C20.3132 32.5681 20.5892 32.5785 20.8184 32.7035L20.8548 32.7243C21.3444 32.9899 21.4902 33.0733 22.4486 33.0733C23.4173 33.0733 24.7611 32.4066 24.933 31.8441C25.0319 31.5108 25.3236 31.2764 25.6726 31.2504C26.0163 31.2244 26.3444 31.417 26.4903 31.7295C26.6934 32.1618 27.3757 32.6827 28.3965 32.8181C28.8132 32.8702 29.1205 33.2243 29.1205 33.6462V36.6149C29.1152 39.8596 26.5475 42.5003 23.3861 42.5003ZM21.1986 40.1461C21.8861 40.6045 22.6205 40.8336 23.3861 40.8336C25.6257 40.8336 27.4486 38.9431 27.4486 36.6149V34.3233C26.8027 34.141 26.2246 33.8441 25.7767 33.4587C24.8756 34.292 23.433 34.7399 22.4486 34.7399C21.3496 34.7399 20.8808 34.6097 20.3705 34.3545C20.0423 34.4743 19.709 34.5629 19.3757 34.6202L19.3756 36.6149C19.3756 38.0316 20.058 39.3493 21.1986 40.1461Z" fill="#10417F"/>
<path fill-rule="evenodd" clip-rule="evenodd" d="M29.5319 44.5834C29.4069 44.5834 29.2819 44.5574 29.1622 44.4949C28.7768 44.3022 28.6049 43.8543 28.7559 43.4584V33.5939C28.7559 30.6668 26.3497 28.2814 23.3913 28.2814C20.4642 28.2814 18.0788 30.6668 18.0788 33.5939V43.7501C18.0788 44.2084 17.7038 44.5834 17.2455 44.5834C16.7871 44.5834 16.4121 44.2084 16.4121 43.7501L16.4122 33.5939C16.4122 29.7449 19.5424 26.6147 23.3913 26.6147C27.2663 26.6147 30.4226 29.745 30.4226 33.5939V43.5417C30.4226 43.6927 30.4069 43.8751 30.2819 44.1251C30.1309 44.4167 29.8392 44.5834 29.5319 44.5834Z" fill="#10417F"/>
<path fill-rule="evenodd" clip-rule="evenodd" d="M23.3862 55.2603H13.3341C12.7195 55.2603 12.1206 54.9686 11.7612 54.4999C11.4644 54.1093 11.3654 53.6405 11.4852 53.1822L13.355 45.3488C13.5789 44.1873 14.5581 43.8332 14.9279 43.6978L20.4539 41.7187C20.8861 41.5624 21.3654 41.7864 21.5216 42.2239C21.6779 42.6562 21.4539 43.1354 21.0164 43.2916L15.4955 45.2707C15.0372 45.4374 15.0164 45.5364 14.9903 45.677C14.9851 45.6926 14.9851 45.7083 14.9799 45.7186L13.1205 53.5208C13.1674 53.5572 13.2559 53.5937 13.3393 53.5937H23.3914C23.8497 53.5937 24.2247 53.9687 24.2247 54.427C24.2247 54.8854 23.8445 55.2603 23.3862 55.2603Z" fill="#10417F"/>
<path fill-rule="evenodd" clip-rule="evenodd" d="M23.3855 47.4478C23.0991 47.4478 22.8387 47.3019 22.6876 47.0675L20.0314 42.9529C19.7814 42.5675 19.8908 42.0519 20.2814 41.8019C20.6668 41.5519 21.1824 41.6613 21.4324 42.0519L23.3959 45.0935L25.4012 42.0467C25.6564 41.6613 26.172 41.5571 26.5574 41.8071C26.9428 42.0623 27.047 42.5779 26.797 42.9633L24.0887 47.0779C23.9272 47.3071 23.6668 47.4478 23.3855 47.4478Z" fill="#10417F"/>
<path fill-rule="evenodd" clip-rule="evenodd" d="M20.7298 55.2603C20.2715 55.2603 19.8965 54.8853 19.8965 54.427V42.4999C19.8965 42.0415 20.2715 41.6665 20.7298 41.6665C21.1882 41.6665 21.5632 42.0415 21.5632 42.4999V54.427C21.5631 54.8853 21.1881 55.2603 20.7298 55.2603Z" fill="#10417F"/>
<path fill-rule="evenodd" clip-rule="evenodd" d="M15.3646 55.2601C14.9062 55.2601 14.5312 54.8851 14.5312 54.4268V50.7289C14.5312 50.2705 14.9062 49.8955 15.3646 49.8955C15.823 49.8955 16.198 50.2705 16.198 50.7289V54.4268C16.198 54.8851 15.823 55.2601 15.3646 55.2601Z" fill="#10417F"/>
<path fill-rule="evenodd" clip-rule="evenodd" d="M31.4584 55.2601C31 55.2601 30.625 54.8851 30.625 54.4268V50.7289C30.625 50.2705 31 49.8955 31.4584 49.8955C31.9167 49.8955 32.2917 50.2705 32.2917 50.7289V54.4268C32.2916 54.8851 31.9166 55.2601 31.4584 55.2601Z" fill="#10417F"/>
<path fill-rule="evenodd" clip-rule="evenodd" d="M23.3861 55.2605C22.9277 55.2605 22.5527 54.8855 22.5527 54.4271V46.6146C22.5527 46.1563 22.9277 45.7812 23.3861 45.7812C23.8444 45.7812 24.2194 46.1563 24.2194 46.6146V54.4271C24.2194 54.8855 23.8444 55.2605 23.3861 55.2605Z" fill="#10417F"/>
<path fill-rule="evenodd" clip-rule="evenodd" d="M66.6667 55.2604H56.6146C56.1563 55.2604 55.7812 54.8854 55.7812 54.427C55.7812 53.9686 56.1563 53.5936 56.6146 53.5936L66.6667 53.5937C66.7501 53.5937 66.8334 53.5521 66.8855 53.5208L65.0261 45.7187C65.0209 45.7031 65.0209 45.6875 65.0157 45.6771C64.9897 45.5364 64.974 45.4375 64.5105 45.2708L58.9948 43.2917C58.5626 43.1354 58.3386 42.6614 58.4896 42.2239C58.6459 41.7917 59.1198 41.5677 59.5573 41.7187L65.0782 43.6979C65.4532 43.8332 66.4323 44.1875 66.6563 45.3489L68.5261 53.1822C68.6459 53.6406 68.5469 54.1093 68.2501 54.5C67.8802 54.9687 67.2813 55.2604 66.6667 55.2604Z" fill="#10417F"/>
<path fill-rule="evenodd" clip-rule="evenodd" d="M59.2709 55.2603C58.8125 55.2603 58.4375 54.8853 58.4375 54.427V42.4999C58.4375 42.0415 58.8125 41.6665 59.2709 41.6665C59.7292 41.6665 60.1042 42.0415 60.1042 42.4999V54.427C60.1042 54.8853 59.7292 55.2603 59.2709 55.2603Z" fill="#10417F"/>
<path fill-rule="evenodd" clip-rule="evenodd" d="M59.2711 43.3332C58.8128 43.3332 58.4378 42.9582 58.4378 42.4999V40.7811C58.4378 40.3228 58.8128 39.9478 59.2711 39.9478C59.7295 39.9478 60.1045 40.3228 60.1045 40.7811V42.4999C60.1045 42.9582 59.7295 43.3332 59.2711 43.3332ZM53.9066 43.3332C53.4482 43.3332 53.0732 42.9582 53.0732 42.4999V40.7811C53.0732 40.3228 53.4482 39.9478 53.9066 39.9478C54.365 39.9478 54.7399 40.3228 54.7399 40.7811V42.4999C54.7399 42.9582 54.3649 43.3332 53.9066 43.3332Z" fill="#10417F"/>
<path fill-rule="evenodd" clip-rule="evenodd" d="M56.6152 42.5C55.4798 42.5 54.4121 42.1719 53.4434 41.526C53.433 41.5208 53.4277 41.5156 53.4173 41.5104C51.8288 40.3698 50.8809 38.5365 50.8809 36.6146V33.8542C50.8809 33.3958 51.2559 33.0208 51.7142 33.0208C52.2507 33.0208 52.7976 32.9011 53.2142 32.6927C53.459 32.5729 53.7455 32.5781 53.9851 32.7083L54.0215 32.7292C54.5112 32.9948 54.6569 33.0782 55.6153 33.0782C56.584 33.0782 57.9278 32.4115 58.0997 31.849C58.1987 31.5157 58.4903 31.2813 58.8393 31.2553C59.183 31.2293 59.5112 31.4219 59.657 31.7344C59.8601 32.1667 60.5424 32.6875 61.5633 32.8229C61.9799 32.875 62.2872 33.2292 62.2872 33.6511V36.6198C62.2872 38.1719 61.6987 39.6407 60.631 40.7551C59.558 41.8802 58.1309 42.5 56.6152 42.5ZM54.3809 40.1458C55.0788 40.6042 55.808 40.8333 56.6152 40.8333C58.7871 40.8333 60.6256 38.9011 60.6256 36.6147V34.323C59.9798 34.1407 59.4017 33.8439 58.9538 33.4584C58.0527 34.2865 56.6152 34.7344 55.6256 34.7344C54.5319 34.7344 54.0631 34.6042 53.5579 34.3542C53.2402 34.474 52.9016 34.5626 52.5527 34.6146L52.5528 36.6147C52.5528 38.0001 53.2351 39.3178 54.3809 40.1458Z" fill="#10417F"/>
<path fill-rule="evenodd" clip-rule="evenodd" d="M50.4694 44.5834C50.1621 44.5834 49.8704 44.4168 49.7246 44.1251C49.5996 43.8803 49.584 43.6928 49.584 43.5417V33.5939C49.584 29.7449 52.7402 26.6147 56.6152 26.6147C60.4642 26.6147 63.5944 29.745 63.5944 33.5939V43.7501C63.5944 44.2084 63.2194 44.5834 62.761 44.5834C62.3027 44.5834 61.9277 44.2084 61.9277 43.7501V33.5939C61.9277 30.6668 59.5423 28.2814 56.6152 28.2814C53.6568 28.2814 51.2506 30.6668 51.2506 33.5939V43.4584C51.3964 43.8543 51.2245 44.3022 50.8443 44.4949C50.7246 44.5574 50.5944 44.5834 50.4694 44.5834Z" fill="#10417F"/>
<path fill-rule="evenodd" clip-rule="evenodd" d="M56.615 55.2603H46.5109C45.8963 55.2603 45.2974 54.9687 44.938 54.4999C44.6411 54.1093 44.5421 53.6405 44.662 53.1822L46.5317 45.3488C46.7453 44.2394 47.714 43.854 48.0786 43.7082C48.089 43.703 48.0995 43.703 48.1046 43.6978L53.6255 41.7187C54.0578 41.5624 54.537 41.7864 54.6932 42.2239C54.8495 42.6562 54.6255 43.1354 54.188 43.2916L48.6827 45.2656C48.2036 45.4583 48.1827 45.5677 48.1671 45.6771C48.1619 45.6927 48.1619 45.7083 48.1567 45.7187L46.2974 53.5208C46.3442 53.5573 46.4327 53.5937 46.5161 53.5937L56.6202 53.5937C57.0786 53.5937 57.4536 53.9687 57.4536 54.427C57.4536 54.8854 57.0734 55.2603 56.615 55.2603Z" fill="#10417F"/>
<path fill-rule="evenodd" clip-rule="evenodd" d="M56.6146 47.448C56.3334 47.448 56.073 47.3074 55.9167 47.073L53.2084 42.9584C52.9531 42.573 53.0625 42.0573 53.448 41.8021C53.8334 41.5469 54.349 41.6563 54.6042 42.0417L56.6095 45.0886L58.573 42.047C58.823 41.6616 59.3386 41.547 59.724 41.797C60.1094 42.047 60.224 42.5626 59.974 42.948L57.3177 47.0626C57.1615 47.3022 56.9011 47.448 56.6146 47.448Z" fill="#10417F"/>
<path fill-rule="evenodd" clip-rule="evenodd" d="M53.9066 55.2603C53.4482 55.2603 53.0732 54.8853 53.0732 54.427V42.4999C53.0732 42.0415 53.4482 41.6665 53.9066 41.6665C54.365 41.6665 54.7399 42.0415 54.7399 42.4999V54.427C54.7399 54.8853 54.3649 55.2603 53.9066 55.2603Z" fill="#10417F"/>
<path fill-rule="evenodd" clip-rule="evenodd" d="M48.5423 55.2601C48.084 55.2601 47.709 54.8851 47.709 54.4268V50.7289C47.709 50.2705 48.084 49.8955 48.5423 49.8955C49.0007 49.8955 49.3757 50.2705 49.3757 50.7289V54.4268C49.3757 54.8851 49.0007 55.2601 48.5423 55.2601Z" fill="#10417F"/>
<path fill-rule="evenodd" clip-rule="evenodd" d="M64.6361 55.2601C64.1777 55.2601 63.8027 54.8851 63.8027 54.4268V50.7289C63.8027 50.2705 64.1777 49.8955 64.6361 49.8955C65.0944 49.8955 65.4694 50.2705 65.4694 50.7289V54.4268C65.4694 54.8851 65.0944 55.2601 64.6361 55.2601Z" fill="#10417F"/>
<path fill-rule="evenodd" clip-rule="evenodd" d="M56.6146 55.2605C56.1563 55.2605 55.7812 54.8855 55.7812 54.4271V46.6146C55.7812 46.1563 56.1563 45.7812 56.6146 45.7812C57.073 45.7812 57.448 46.1563 57.448 46.6146V54.4271C57.448 54.8855 57.073 55.2605 56.6146 55.2605Z" fill="#10417F"/>
<path fill-rule="evenodd" clip-rule="evenodd" d="M40.0003 55.2602C39.542 55.2602 39.167 54.8852 39.167 54.4269V16.0936C39.167 15.6353 39.542 15.2603 40.0003 15.2603C40.4586 15.2603 40.8336 15.6353 40.8336 16.0936V54.4269C40.8336 54.8852 40.4586 55.2602 40.0003 55.2602Z" fill="#10417F"/>
</g>
<defs>
<clipPath id="clip0_221_6564">
<rect width="80" height="80" fill="white"/>
</clipPath>
</defs>
</svg>
